<?xml version="1.0" standalone="no"?>
<!DOCTYPE svg PUBLIC "-//W3C//DTD SVG 20010904//EN"
 "http://www.w3.org/TR/2001/REC-SVG-20010904/DTD/svg10.dtd">
<svg version="1.0" xmlns="http://www.w3.org/2000/svg"
 width="512.000000pt" height="512.000000pt" viewBox="0 0 512.000000 512.000000"
 preserveAspectRatio="xMidYMid meet">
<metadata>
Created by potrace 1.11, written by Peter Selinger 2001-2013
</metadata>
<g transform="translate(0.000000,512.000000) scale(0.100000,-0.100000)"
fill="#000000" stroke="none">
<path d="M2360 4459 c-125 -16 -146 -19 -230 -40 -126 -31 -198 -54 -297 -94
-87 -37 -273 -132 -283 -145 -3 -4 -16 -13 -29 -20 -13 -7 -67 -45 -120 -85
-333 -255 -581 -621 -686 -1019 -28 -105 -29 -108 -40 -176 -3 -25 -9 -58 -12
-75 -12 -75 -19 -348 -9 -420 2 -16 7 -57 11 -90 3 -33 10 -76 15 -95 5 -19
11 -48 14 -65 18 -109 80 -282 155 -435 186 -375 487 -675 869 -865 156 -78
383 -153 520 -171 26 -3 56 -8 67 -10 76 -15 282 -20 415 -10 443 34 880 237
1199 557 298 301 478 666 546 1109 4 25 8 126 9 225 5 322 -57 590 -200 878
-211 423 -585 761 -1035 932 -80 31 -203 68 -259 79 -60 11 -138 25 -175 31
-65 10 -374 13 -445 4z m375 -379 c28 -4 71 -11 96 -14 71 -10 195 -44 293
-82 287 -111 546 -320 718 -579 54 -81 128 -220 128 -239 0 -12 -28 -25 -125
-58 -16 -5 -39 -14 -50 -18 -11 -5 -112 -41 -223 -80 l-204 -71 -151 32 c-358
75 -488 93 -667 93 -180 0 -319 -17 -530 -64 -47 -10 -126 -28 -176 -39 -50
-11 -99 -19 -110 -17 -32 7 -568 198 -578 206 -17 16 86 205 183 335 68 90
225 243 321 312 211 151 481 257 715 280 33 3 62 7 64 9 7 6 249 2 296 -6z
m-85 -1266 c72 -21 150 -98 175 -173 57 -173 -72 -360 -251 -363 -103 -2 -191
45 -244 129 -27 43 -33 59 -44 133 -5 35 20 126 46 164 74 108 190 148 318
110z m1440 -92 c7 -84 5 -295 -3 -357 -14 -117 -19 -141 -53 -253 -46 -151
-150 -368 -215 -445 -5 -7 -32 -41 -60 -77 -90 -117 -248 -257 -387 -344 -164
-102 -402 -189 -588 -212 l-41 -6 2 434 c1 498 -4 469 97 570 94 94 384 345
506 438 18 14 43 33 55 44 27 22 100 73 107 74 3 0 12 3 20 6 315 115 546 192
551 185 3 -6 7 -31 9 -57z m-2750 -43 c140 -49 269 -96 285 -105 30 -15 161
-115 256 -195 29 -24 87 -73 128 -108 95 -79 265 -235 307 -280 17 -18 37 -51
43 -71 7 -25 11 -179 11 -464 0 -402 -1 -427 -17 -422 -10 2 -38 7 -63 10
-102 13 -278 71 -411 136 -281 138 -526 376 -676 660 -72 135 -139 338 -158
480 -3 25 -8 52 -10 60 -9 28 -9 243 -1 323 7 74 9 77 29 71 12 -3 137 -46
277 -95z"/>
</g>
</svg>
