<?xml version="1.0" standalone="no"?>
<!DOCTYPE svg PUBLIC "-//W3C//DTD SVG 20010904//EN"
 "http://www.w3.org/TR/2001/REC-SVG-20010904/DTD/svg10.dtd">
<svg version="1.0" xmlns="http://www.w3.org/2000/svg"
 width="512.000000pt" height="512.000000pt" viewBox="0 0 512.000000 512.000000"
 preserveAspectRatio="xMidYMid meet">
<metadata>
Created by potrace 1.11, written by Peter Selinger 2001-2013
</metadata>
<g transform="translate(0.000000,512.000000) scale(0.100000,-0.100000)"
fill="#000000" stroke="none">
<path d="M2419 4466 c-2 -2 -34 -6 -70 -10 -73 -7 -217 -32 -264 -46 -16 -5
-68 -21 -115 -35 -129 -40 -297 -118 -429 -201 -146 -90 -348 -268 -446 -390
-22 -27 -43 -51 -46 -54 -21 -18 -148 -222 -195 -312 -78 -153 -145 -348 -169
-488 -3 -19 -8 -42 -10 -50 -4 -15 -15 -97 -21 -160 -2 -19 -4 -93 -4 -165 -1
-187 9 -268 65 -515 13 -56 85 -242 129 -331 100 -201 215 -360 377 -521 153
-150 314 -265 501 -356 88 -43 247 -105 298 -117 8 -2 49 -12 90 -23 41 -12
98 -24 125 -27 28 -4 59 -9 70 -11 76 -15 304 -21 425 -10 272 24 595 127 806
257 17 10 34 17 37 14 4 -3 5 -2 3 1 -3 3 26 26 62 51 463 316 764 815 829
1373 9 79 10 354 1 430 -14 114 -50 274 -89 392 -38 116 -144 345 -175 379 -8
8 -14 19 -14 22 0 23 -162 228 -255 322 -137 139 -172 168 -310 260 -231 154
-522 269 -760 300 -27 4 -61 9 -75 12 -29 6 -366 14 -371 9z m361 -391 c25 -3
65 -10 90 -16 25 -6 52 -12 60 -14 34 -7 104 -27 129 -37 14 -6 28 -12 31 -13
50 -12 176 -72 270 -126 121 -71 315 -240 387 -336 15 -21 34 -45 42 -53 42
-43 181 -286 181 -314 0 -8 -31 -25 -72 -40 -40 -14 -131 -46 -203 -71 -71
-25 -147 -53 -168 -61 -21 -8 -43 -12 -48 -9 -5 4 -9 2 -9 -2 0 -5 -24 -17
-52 -27 -43 -14 -62 -15 -98 -7 -25 5 -58 12 -75 15 -16 3 -61 13 -100 21
-269 60 -436 80 -635 78 -162 -1 -289 -19 -556 -78 -110 -25 -209 -43 -220
-41 -10 3 -91 30 -179 61 -88 32 -212 75 -275 97 -63 22 -119 44 -124 48 -14
14 91 216 151 290 6 8 41 51 76 95 35 44 92 106 127 138 71 66 203 167 219
167 6 0 11 4 11 8 0 29 372 186 490 207 178 31 405 40 550 20z m-95 -1276
c264 -132 163 -527 -133 -521 -176 3 -307 189 -252 357 52 161 235 239 385
164z m1405 -77 c7 -89 5 -297 -3 -366 -11 -97 -37 -207 -48 -201 -5 4 -6 -1
-3 -9 11 -30 -72 -239 -148 -371 -127 -220 -342 -433 -558 -552 -190 -105
-367 -167 -546 -189 l-41 -6 1 434 c2 377 4 438 18 470 24 53 132 159 378 366
41 35 85 72 98 83 12 10 27 19 32 19 6 0 10 4 10 8 0 5 46 44 103 89 88 69
117 86 207 118 58 20 184 65 280 100 220 78 204 74 211 63 3 -5 7 -30 9 -56z
m-2984 39 c33 -11 118 -41 189 -67 72 -25 176 -62 232 -82 77 -26 120 -49 175
-90 79 -60 336 -272 407 -337 196 -178 232 -215 248 -258 8 -22 11 -166 12
-465 l1 -432 -22 4 c-13 3 -41 8 -63 11 -154 22 -385 112 -540 210 -239 152
-448 386 -568 636 -88 182 -146 426 -149 624 -1 98 9 265 17 265 1 0 29 -9 61
-19z"/>
</g>
</svg>
