<?xml version="1.0" standalone="no"?>
<!DOCTYPE svg PUBLIC "-//W3C//DTD SVG 20010904//EN"
 "http://www.w3.org/TR/2001/REC-SVG-20010904/DTD/svg10.dtd">
<svg version="1.0" xmlns="http://www.w3.org/2000/svg"
 width="352.000000pt" height="352.000000pt" viewBox="0 0 352.000000 352.000000"
 preserveAspectRatio="xMidYMid meet">

<g transform="translate(0.000000,352.000000) scale(0.100000,-0.100000)"
fill="#000000" stroke="none">
<path d="M1813 3483 c15 -2 37 -2 50 0 12 2 0 4 -28 4 -27 0 -38 -2 -22 -4z"/>
<path d="M1948 3473 c6 -2 18 -2 25 0 6 3 1 5 -13 5 -14 0 -19 -2 -12 -5z"/>
<path d="M72 2488 c3 -957 3 -964 26 -1063 151 -672 643 -1170 1297 -1315 425
-94 902 -8 1262 226 408 264 664 644 760 1129 25 127 25 463 0 590 -96 481
-348 859 -749 1122 -225 148 -474 234 -757 263 -63 6 -438 10 -972 10 l-870 0
3 -962z m536 630 l2 -188 -184 0 c-158 0 -185 2 -190 16 -12 31 -7 339 6 352
9 9 60 12 188 10 l175 -3 3 -187z m1402 116 c200 -33 445 -134 607 -251 339
-243 554 -591 619 -1000 24 -154 15 -407 -19 -553 -140 -590 -588 -1024 -1179
-1142 -151 -30 -396 -32 -543 -4 -618 115 -1087 577 -1212 1193 -27 134 -25
453 5 585 115 520 476 934 962 1106 248 87 499 109 760 66z"/>
<path d="M280 3115 l0 -146 143 3 142 3 3 143 3 142 -146 0 -145 0 0 -145z
m260 5 l0 -120 -115 0 -115 0 0 120 0 120 115 0 115 0 0 -120z"/>
<path d="M330 3200 c0 -5 16 -10 35 -10 19 0 35 5 35 10 0 6 -16 10 -35 10
-19 0 -35 -4 -35 -10z"/>
<path d="M470 3123 c0 -87 0 -88 25 -89 25 -2 25 -2 25 87 0 88 0 89 -25 89
-25 0 -25 -1 -25 -87z"/>
<path d="M330 3130 c0 -5 18 -10 40 -10 22 0 40 5 40 10 0 6 -18 10 -40 10
-22 0 -40 -4 -40 -10z"/>
<path d="M330 3080 c0 -5 25 -10 55 -10 30 0 55 5 55 10 0 6 -25 10 -55 10
-30 0 -55 -4 -55 -10z"/>
<path d="M330 3035 c0 -11 12 -15 45 -15 33 0 45 4 45 15 0 11 -12 15 -45 15
-33 0 -45 -4 -45 -15z"/>
<path d="M1650 2975 c0 -78 2 -85 20 -85 17 0 20 7 20 48 l0 47 30 -47 c20
-32 37 -48 50 -48 20 0 21 5 18 82 -3 70 -6 83 -20 86 -15 3 -18 -4 -18 -44
l0 -48 -30 47 c-19 31 -37 47 -50 47 -18 0 -20 -6 -20 -85z"/>
<path d="M1836 2983 c-16 -38 -30 -74 -33 -80 -8 -21 35 -15 47 6 12 24 50 17
50 -10 0 -14 7 -19 26 -19 19 0 24 4 21 18 -3 9 -11 47 -17 85 -12 63 -14 67
-39 67 -24 0 -31 -8 -55 -67z m50 -20 c-11 -11 -17 4 -9 23 7 18 8 18 11 1 2
-10 1 -21 -2 -24z"/>
<path d="M1492 3017 c-64 -68 16 -181 97 -137 25 13 45 64 37 95 -16 64 -92
87 -134 42z m77 -21 c7 -8 11 -30 9 -48 -4 -38 -34 -51 -55 -22 -34 47 10 114
46 70z"/>
<path d="M1981 2973 c-6 -32 -14 -67 -17 -79 -5 -18 1 -23 41 -33 49 -12 65
-9 65 15 0 8 -10 14 -24 14 -14 0 -27 4 -30 8 -4 7 7 70 20 115 4 13 0 17 -19
17 -22 0 -26 -6 -36 -57z"/>
<path d="M1394 2980 c3 -17 13 -55 21 -84 13 -45 19 -53 35 -49 23 6 23 9 10
49 -5 16 -14 48 -20 72 -8 32 -15 42 -32 42 -18 0 -20 -4 -14 -30z"/>
<path d="M1303 2977 c-38 -14 -53 -25 -53 -39 0 -14 5 -17 24 -12 21 5 25 0
45 -54 19 -49 26 -59 42 -55 10 3 19 6 19 8 0 1 -9 28 -20 61 -18 52 -19 60
-5 70 16 12 20 30 8 37 -5 3 -32 -4 -60 -16z"/>
<path d="M2150 2975 c0 -7 8 -18 17 -23 15 -9 15 -14 -5 -67 -12 -31 -20 -61
-16 -66 14 -23 35 -4 54 49 19 52 24 58 44 55 14 -3 25 1 29 10 4 11 -10 21
-50 36 -65 25 -73 26 -73 6z"/>
<path d="M1168 2918 c-15 -12 -15 -21 -3 -92 8 -43 16 -81 18 -83 2 -2 12 0
21 3 12 5 16 14 13 31 -6 31 21 48 45 26 10 -9 25 -12 37 -8 19 6 16 12 -36
71 -61 67 -69 72 -95 52z m51 -62 c9 -10 8 -15 -4 -20 -10 -4 -15 1 -15 14 0
24 4 25 19 6z"/>
<path d="M2266 2866 c-41 -72 -43 -81 -20 -90 22 -8 20 -9 34 24 11 26 15 28
34 18 11 -6 22 -12 24 -13 2 -2 -3 -17 -12 -33 -14 -27 -14 -31 0 -36 9 -3 17
-6 19 -6 5 0 75 130 75 139 0 13 -34 24 -38 13 -1 -5 -9 -17 -16 -27 -10 -14
-16 -16 -34 -6 -21 11 -21 14 -7 40 8 16 11 31 8 35 -16 16 -34 1 -67 -58z"/>
<path d="M1048 2848 c-21 -12 -38 -25 -38 -29 0 -4 19 -37 42 -73 36 -57 44
-64 60 -55 18 10 18 12 4 34 -14 21 -13 24 4 40 27 25 26 70 -2 89 -28 20 -25
20 -70 -6z m49 -34 c9 -23 -11 -38 -26 -20 -13 16 -7 36 10 36 5 0 12 -7 16
-16z"/>
<path d="M2416 2787 c-25 -36 -46 -68 -46 -73 0 -15 71 -56 86 -50 21 8 17 21
-11 36 -14 7 -25 17 -25 21 0 17 21 19 45 3 23 -15 25 -15 31 1 4 10 -1 22
-16 32 -32 23 -10 40 24 18 24 -16 26 -16 32 -1 4 9 5 18 3 20 -2 1 -20 15
-41 30 l-36 27 -46 -64z"/>
<path d="M951 2781 c-11 -7 -7 -18 23 -54 37 -46 45 -71 24 -83 -7 -5 -28 11
-55 40 -27 31 -49 46 -58 42 -24 -9 -18 -23 34 -77 41 -42 53 -50 73 -44 67
21 75 70 23 139 -38 49 -42 51 -64 37z"/>
<path d="M2512 2701 c-45 -51 -50 -61 -36 -71 12 -11 19 -9 38 9 29 27 40 15
24 -26 -11 -28 -9 -33 18 -57 17 -15 36 -23 47 -20 28 9 49 -14 36 -38 -8 -16
-7 -24 4 -35 16 -16 14 -19 85 98 21 35 21 36 3 53 -18 17 -23 16 -95 -18 -42
-19 -76 -33 -76 -30 0 3 7 18 15 33 8 16 11 31 8 35 -4 3 3 6 13 6 26 0 44 19
44 45 0 22 -47 75 -67 75 -5 0 -33 -27 -61 -59z m84 -2 c10 -17 -13 -36 -27
-22 -12 12 -4 33 11 33 5 0 12 -5 16 -11z m88 -134 c-7 -16 -24 -21 -24 -6 0
8 7 13 27 20 1 1 0 -6 -3 -14z"/>
<path d="M817 2662 c-57 -63 -23 -152 58 -152 34 0 93 56 77 72 -9 9 -18 6
-35 -10 -28 -27 -49 -28 -70 -4 -21 23 -22 50 -1 73 15 17 12 39 -5 39 -4 0
-15 -8 -24 -18z"/>
<path d="M716 2545 c-36 -55 -4 -129 61 -141 27 -5 37 -1 63 24 32 32 39 62
15 62 -8 0 -19 -9 -25 -20 -12 -23 -59 -27 -78 -8 -17 17 -15 48 4 69 17 19
12 39 -10 39 -8 0 -21 -11 -30 -25z"/>
<path d="M2740 2488 c-71 -51 -72 -52 -64 -72 6 -15 8 -16 31 -1 23 16 26 15
47 -4 30 -28 62 -27 82 4 14 21 14 30 4 54 -6 16 -19 36 -28 44 -15 14 -23 11
-72 -25z m70 -32 c0 -8 -5 -18 -11 -22 -14 -8 -33 11 -25 25 10 16 36 13 36
-3z"/>
<path d="M625 2395 c-33 -32 -33 -75 1 -108 58 -58 144 -26 144 54 0 11 -13
34 -29 50 -38 37 -82 39 -116 4z m83 -31 c30 -21 26 -58 -6 -62 -27 -4 -62 23
-62 48 0 34 31 40 68 14z"/>
<path d="M2841 2377 c-17 -26 -45 -54 -61 -62 -32 -17 -35 -22 -21 -44 8 -12
13 -12 35 2 17 11 46 17 86 17 58 0 60 1 50 20 -7 13 -21 20 -41 20 -29 0 -29
0 -13 25 12 19 14 31 7 47 -9 20 -11 19 -42 -25z"/>
<path d="M1071 1798 c-40 -90 -76 -169 -78 -176 -4 -10 7 -12 48 -10 l53 3 45
103 44 103 41 -93 c23 -51 45 -99 49 -105 5 -7 28 -13 54 -13 55 0 57 -14 -33
192 l-69 158 -41 0 -41 0 -72 -162z"/>
<path d="M1559 1953 c-49 -8 -132 -66 -157 -108 -19 -33 -22 -51 -20 -107 5
-94 27 -122 98 -126 l52 -3 -23 33 c-19 26 -24 46 -24 95 0 59 2 65 36 99 66
66 162 55 211 -24 29 -47 29 -117 0 -165 l-21 -37 49 0 c44 0 50 3 69 34 65
104 15 242 -105 292 -36 15 -125 25 -165 17z"/>
<path d="M1832 1923 l3 -38 73 -3 72 -3 0 -134 0 -135 45 0 45 0 0 135 0 134
73 3 72 3 3 38 3 37 -196 0 -196 0 3 -37z"/>
<path d="M2282 1943 c-23 -43 -142 -314 -142 -323 0 -15 86 -12 97 3 5 6 27
51 48 100 22 48 42 87 45 87 3 0 23 -44 46 -98 l41 -97 51 -3 c29 -2 52 -1 52
2 0 3 -33 80 -74 173 l-73 168 -41 3 c-31 2 -43 -1 -50 -15z"/>
<path d="M2454 1946 c-10 -26 4 -48 28 -44 17 2 23 10 23 28 0 18 -6 26 -23
28 -13 2 -25 -3 -28 -12z"/>
<path d="M977 1583 c-4 -3 -7 -12 -7 -20 0 -10 43 -13 215 -13 118 0 215 2
215 4 0 2 -3 11 -6 20 -5 14 -33 16 -208 16 -112 0 -206 -3 -209 -7z"/>
<path d="M1460 1585 c0 -2 13 -11 30 -20 20 -10 59 -15 125 -15 66 0 105 5
125 15 17 9 30 18 30 20 0 3 -70 5 -155 5 -85 0 -155 -2 -155 -5z"/>
<path d="M1980 1570 c0 -17 7 -20 45 -20 38 0 45 3 45 20 0 17 -7 20 -45 20
-38 0 -45 -3 -45 -20z"/>
<path d="M2116 1574 c-3 -8 -6 -18 -6 -20 0 -2 97 -4 216 -4 200 0 215 1 212
18 -3 15 -22 17 -209 20 -182 2 -207 0 -213 -14z"/>
<path d="M441 1108 c51 -101 140 -235 204 -305 l47 -53 1063 0 1063 0 52 57
c66 75 146 196 199 301 l41 82 -1355 0 -1355 0 41 -82z m404 -108 c24 -71 26
-90 10 -90 -8 0 -15 7 -15 15 0 21 -40 19 -56 -2 -22 -31 -26 -6 -8 57 14 51
20 61 37 58 13 -2 24 -16 32 -38z m147 23 c10 -9 18 -30 18 -46 0 -43 -25 -67
-72 -67 l-38 0 0 65 0 65 37 0 c20 0 45 -7 55 -17z m152 -5 c34 -49 7 -108
-49 -108 -24 0 -39 7 -49 22 -34 49 -7 108 49 108 24 0 39 -7 49 -22z m66 -33
c0 -52 1 -55 25 -55 14 0 25 -4 25 -10 0 -5 -18 -10 -40 -10 l-40 0 0 65 c0
51 3 65 15 65 12 0 15 -13 15 -55z m150 45 c0 -5 -11 -10 -25 -10 -16 0 -25
-6 -25 -15 0 -9 9 -15 25 -15 14 0 25 -4 25 -10 0 -5 -11 -10 -25 -10 -18 0
-25 -5 -25 -20 0 -15 7 -20 25 -20 14 0 25 -4 25 -10 0 -5 -18 -10 -40 -10
l-40 0 0 65 0 65 40 0 c22 0 40 -4 40 -10z m105 0 c-3 -5 -15 -10 -25 -10 -32
0 -32 -18 0 -35 25 -13 31 -22 28 -43 -3 -23 -8 -27 -40 -30 -22 -2 -38 1 -38
7 0 6 11 11 24 11 37 0 40 17 6 35 -29 15 -41 51 -23 68 11 11 75 8 68 -3z
m125 0 c0 -5 -10 -10 -23 -10 -29 0 -47 -18 -47 -45 0 -27 18 -45 47 -45 13 0
23 -4 23 -10 0 -5 -16 -10 -35 -10 -26 0 -39 6 -51 25 -19 29 -11 80 14 95 22
12 72 13 72 0z m100 0 c0 -5 -11 -10 -25 -10 -16 0 -25 -6 -25 -15 0 -9 9 -15
25 -15 14 0 25 -4 25 -10 0 -5 -11 -10 -25 -10 -18 0 -25 -5 -25 -20 0 -16 7
-20 30 -20 17 0 30 -4 30 -10 0 -5 -20 -10 -45 -10 l-45 0 0 65 0 65 40 0 c22
0 40 -4 40 -10z m93 -37 l27 -48 0 48 c0 26 5 47 10 47 6 0 10 -28 10 -65 0
-79 -16 -85 -54 -22 l-25 42 -1 -42 c0 -31 -4 -43 -15 -43 -12 0 -15 14 -15
65 0 56 2 65 18 65 12 0 29 -18 45 -47z m167 37 c0 -5 -9 -10 -20 -10 -18 0
-20 -7 -20 -55 0 -30 -4 -55 -10 -55 -5 0 -10 25 -10 55 0 48 -2 55 -20 55
-11 0 -20 5 -20 10 0 6 23 10 50 10 28 0 50 -4 50 -10z m155 -4 c13 -9 19 -26
19 -51 0 -46 -23 -65 -76 -65 l-38 0 0 65 0 65 38 0 c21 0 47 -6 57 -14z m124
5 c9 -6 12 -19 8 -40 -4 -17 -2 -42 3 -56 8 -20 6 -25 -5 -25 -9 0 -20 11 -25
25 -5 14 -14 25 -20 25 -5 0 -10 -11 -10 -25 0 -16 -6 -25 -15 -25 -12 0 -15
14 -15 65 l0 65 33 0 c17 0 38 -4 46 -9z m61 -56 c0 -37 -4 -65 -10 -65 -6 0
-10 28 -10 65 0 37 4 65 10 65 6 0 10 -28 10 -65z m72 13 l14 -53 14 53 c8 29
20 52 27 52 17 0 16 -13 -6 -75 -13 -35 -23 -50 -36 -50 -13 0 -23 15 -36 50
-22 62 -23 75 -5 75 7 0 19 -22 28 -52z m118 -13 c0 -51 -3 -65 -15 -65 -12 0
-15 14 -15 65 0 51 3 65 15 65 12 0 15 -14 15 -65z m85 25 c25 -56 33 -58 27
-5 -4 37 -2 45 12 45 13 0 16 -12 16 -66 0 -57 -2 -65 -17 -62 -10 2 -29 23
-43 48 l-25 45 -3 -47 c-5 -72 -22 -58 -22 17 0 57 2 65 18 65 12 0 25 -14 37
-40z m185 30 c0 -5 -13 -10 -28 -10 -33 0 -52 -16 -52 -45 0 -12 5 -26 12 -33
17 -17 48 -15 48 3 0 8 -4 15 -10 15 -5 0 -10 5 -10 10 0 6 12 10 26 10 23 0
25 -3 22 -32 -3 -31 -6 -33 -45 -36 -35 -3 -44 1 -58 22 -20 30 -13 81 13 96
22 12 82 13 82 0z"/>
<path d="M807 1004 c-13 -13 -7 -44 8 -44 16 0 17 5 6 33 -3 10 -10 15 -14 11z"/>
<path d="M920 974 c0 -44 1 -45 28 -42 23 3 28 8 30 37 4 35 -9 51 -40 51 -15
0 -18 -9 -18 -46z"/>
<path d="M1070 1006 c-15 -19 -9 -56 12 -69 34 -22 66 41 36 71 -16 16 -33 15
-48 -2z"/>
<path d="M2040 975 c0 -38 3 -45 20 -45 28 0 46 40 31 69 -7 11 -21 21 -31 21
-17 0 -20 -7 -20 -45z"/>
<path d="M2180 1000 c0 -15 5 -20 18 -18 9 2 17 10 17 18 0 8 -8 16 -17 18
-13 2 -18 -3 -18 -18z"/>
<path d="M734 705 c30 -23 2027 -22 2046 0 11 13 -104 15 -1026 15 -916 -1
-1037 -2 -1020 -15z"/>
<path d="M2128 3443 c7 -3 16 -2 19 1 4 3 -2 6 -13 5 -11 0 -14 -3 -6 -6z"/>
<path d="M2168 3433 c7 -3 16 -2 19 1 4 3 -2 6 -13 5 -11 0 -14 -3 -6 -6z"/>
<path d="M2208 3423 c7 -3 16 -2 19 1 4 3 -2 6 -13 5 -11 0 -14 -3 -6 -6z"/>
<path d="M2370 3370 c8 -5 20 -10 25 -10 6 0 3 5 -5 10 -8 5 -19 10 -25 10 -5
0 -3 -5 5 -10z"/>
<path d="M2500 3316 c0 -2 7 -7 16 -10 8 -3 12 -2 9 4 -6 10 -25 14 -25 6z"/>
<path d="M2580 3276 c0 -3 14 -12 30 -21 17 -9 30 -13 30 -11 0 3 -13 12 -30
21 -16 9 -30 13 -30 11z"/>
<path d="M2680 3217 c0 -2 19 -17 43 -32 23 -16 37 -22 30 -14 -12 15 -73 53
-73 46z"/>
<path d="M2770 3157 c0 -2 19 -19 43 -37 23 -19 36 -26 28 -17 -15 19 -71 61
-71 54z"/>
<path d="M2897 3050 c23 -24 44 -42 47 -40 2 3 -17 23 -42 44 l-47 39 42 -43z"/>
<path d="M3040 2905 c19 -19 36 -35 39 -35 3 0 -10 16 -29 35 -19 19 -36 35
-39 35 -3 0 10 -16 29 -35z"/>
<path d="M3125 2803 c27 -35 50 -63 52 -63 7 0 -60 89 -80 107 -11 10 2 -10
28 -44z"/>
<path d="M3221 2665 c12 -22 26 -44 32 -50 15 -16 -20 48 -38 70 -9 11 -7 2 6
-20z"/>
<path d="M3282 2555 c12 -24 23 -43 26 -41 4 5 -36 86 -43 86 -3 0 5 -20 17
-45z"/>
<path d="M3316 2487 c3 -10 9 -15 12 -12 3 3 0 11 -7 18 -10 9 -11 8 -5 -6z"/>
<path d="M3340 2435 c0 -5 5 -17 10 -25 5 -8 10 -10 10 -5 0 6 -5 17 -10 25
-5 8 -10 11 -10 5z"/>
<path d="M3411 2234 c0 -11 3 -14 6 -6 3 7 2 16 -1 19 -3 4 -6 -2 -5 -13z"/>
<path d="M3421 2194 c0 -11 3 -14 6 -6 3 7 2 16 -1 19 -3 4 -6 -2 -5 -13z"/>
<path d="M3431 2154 c0 -11 3 -14 6 -6 3 7 2 16 -1 19 -3 4 -6 -2 -5 -13z"/>
<path d="M3441 2104 c0 -11 3 -14 6 -6 3 7 2 16 -1 19 -3 4 -6 -2 -5 -13z"/>
<path d="M3452 2050 c0 -14 2 -19 5 -12 2 6 2 18 0 25 -3 6 -5 1 -5 -13z"/>
<path d="M3462 1990 c0 -19 2 -27 5 -17 2 9 2 25 0 35 -3 9 -5 1 -5 -18z"/>
<path d="M3473 1880 c0 -36 2 -50 4 -32 2 17 2 47 0 65 -2 17 -4 3 -4 -33z"/>
<path d="M3473 1640 c0 -36 2 -50 4 -32 2 17 2 47 0 65 -2 17 -4 3 -4 -33z"/>
<path d="M31 1594 c0 -11 3 -14 6 -6 3 7 2 16 -1 19 -3 4 -6 -2 -5 -13z"/>
<path d="M3462 1530 c0 -19 2 -27 5 -17 2 9 2 25 0 35 -3 9 -5 1 -5 -18z"/>
<path d="M3452 1470 c0 -14 2 -19 5 -12 2 6 2 18 0 25 -3 6 -5 1 -5 -13z"/>
<path d="M3441 1414 c0 -11 3 -14 6 -6 3 7 2 16 -1 19 -3 4 -6 -2 -5 -13z"/>
<path d="M3431 1364 c0 -11 3 -14 6 -6 3 7 2 16 -1 19 -3 4 -6 -2 -5 -13z"/>
<path d="M3421 1324 c0 -11 3 -14 6 -6 3 7 2 16 -1 19 -3 4 -6 -2 -5 -13z"/>
<path d="M3411 1284 c0 -11 3 -14 6 -6 3 7 2 16 -1 19 -3 4 -6 -2 -5 -13z"/>
<path d="M3346 1105 c-9 -26 -7 -32 5 -12 6 10 9 21 6 23 -2 3 -7 -2 -11 -11z"/>
<path d="M3282 965 c-12 -25 -20 -45 -17 -45 7 0 47 81 43 86 -3 2 -14 -17
-26 -41z"/>
<path d="M3239 888 c-7 -13 -19 -34 -27 -48 -14 -24 -13 -24 3 -5 20 24 48 75
41 75 -3 0 -11 -10 -17 -22z"/>
<path d="M3170 780 c-12 -16 -19 -30 -16 -30 2 0 14 14 26 30 12 17 19 30 16
30 -2 0 -14 -13 -26 -30z"/>
<path d="M3110 698 c-19 -24 -26 -37 -17 -29 19 15 61 71 54 71 -2 0 -19 -19
-37 -42z"/>
<path d="M420 656 c0 -2 8 -10 18 -17 15 -13 16 -12 3 4 -13 16 -21 21 -21 13z"/>
<path d="M3035 608 l-40 -43 43 40 c23 21 42 40 42 42 0 8 -9 0 -45 -39z"/>
<path d="M540 526 c0 -2 8 -10 18 -17 15 -13 16 -12 3 4 -13 16 -21 21 -21 13z"/>
<path d="M2895 468 l-40 -43 43 40 c23 21 42 40 42 42 0 8 -9 0 -45 -39z"/>
<path d="M625 450 c10 -11 20 -20 23 -20 3 0 -3 9 -13 20 -10 11 -20 20 -23
20 -3 0 3 -9 13 -20z"/>
<path d="M2824 408 l-19 -23 23 19 c12 11 22 21 22 23 0 8 -8 2 -26 -19z"/>
<path d="M2779 373 c-13 -16 -12 -17 4 -4 16 13 21 21 13 21 -2 0 -10 -8 -17
-17z"/>
<path d="M2730 339 c-22 -18 -22 -19 -3 -10 12 6 25 16 28 21 9 15 3 12 -25
-11z"/>
<path d="M967 219 c7 -7 15 -10 18 -7 3 3 -2 9 -12 12 -14 6 -15 5 -6 -5z"/>
<path d="M2440 180 c-8 -5 -10 -10 -5 -10 6 0 17 5 25 10 8 5 11 10 5 10 -5 0
-17 -5 -25 -10z"/>
<path d="M1288 93 c7 -3 16 -2 19 1 4 3 -2 6 -13 5 -11 0 -14 -3 -6 -6z"/>
<path d="M2208 93 c7 -3 16 -2 19 1 4 3 -2 6 -13 5 -11 0 -14 -3 -6 -6z"/>
<path d="M2078 63 c7 -3 16 -2 19 1 4 3 -2 6 -13 5 -11 0 -14 -3 -6 -6z"/>
<path d="M1468 53 c7 -3 16 -2 19 1 4 3 -2 6 -13 5 -11 0 -14 -3 -6 -6z"/>
<path d="M2018 53 c6 -2 18 -2 25 0 6 3 1 5 -13 5 -14 0 -19 -2 -12 -5z"/>
<path d="M1538 43 c6 -2 18 -2 25 0 6 3 1 5 -13 5 -14 0 -19 -2 -12 -5z"/>
<path d="M1948 43 c6 -2 18 -2 25 0 6 3 1 5 -13 5 -14 0 -19 -2 -12 -5z"/>
<path d="M1648 33 c17 -2 47 -2 65 0 17 2 3 4 -33 4 -36 0 -50 -2 -32 -4z"/>
<path d="M1798 33 c18 -2 45 -2 60 0 15 2 0 4 -33 4 -33 0 -45 -2 -27 -4z"/>
</g>
</svg>
