<svg id="svg" xmlns="http://www.w3.org/2000/svg" xmlns:xlink="http://www.w3.org/1999/xlink" width="400" height="400" viewBox="0, 0, 400,400"><g id="svgg"><path id="path0" d="M117.800 95.572 C 116.193 96.291,113.600 98.326,113.600 98.869 C 113.600 99.028,114.258 98.557,115.061 97.821 C 119.983 93.311,129.566 95.141,131.260 100.914 L 131.520 101.800 131.560 100.891 C 131.739 96.808,122.780 93.345,117.800 95.572 M156.998 98.500 C 156.879 98.995,156.830 125.770,156.890 158.000 L 157.000 216.600 182.200 216.710 C 196.060 216.771,207.819 216.719,208.331 216.595 C 209.505 216.310,209.568 205.928,208.400 205.191 C 208.047 204.968,200.633 204.810,190.380 204.806 C 177.371 204.802,172.838 204.678,172.480 204.320 C 172.112 203.952,172.000 191.609,172.000 151.200 C 172.000 110.791,171.888 98.448,171.520 98.080 C 170.497 97.057,157.254 97.440,156.998 98.500 M112.679 100.774 C 111.629 102.552,111.767 106.890,112.953 109.400 C 113.898 111.398,116.182 113.951,116.627 113.506 C 116.757 113.376,116.305 112.858,115.624 112.354 C 112.910 110.348,111.450 104.030,113.010 101.040 C 113.807 99.512,113.548 99.303,112.679 100.774 M131.691 104.800 C 131.699 107.400,131.738 107.565,131.986 106.033 C 132.143 105.061,132.139 103.711,131.977 103.033 C 131.768 102.162,131.685 102.680,131.691 104.800 M131.200 108.711 C 131.200 112.199,122.589 116.137,119.200 114.200 C 118.245 113.654,116.835 113.369,117.277 113.811 C 117.393 113.926,118.489 114.373,119.712 114.803 L 121.937 115.585 124.982 114.618 C 127.050 113.962,128.338 113.291,128.997 112.526 C 129.531 111.907,130.335 110.967,130.784 110.439 C 131.515 109.578,131.914 108.000,131.400 108.000 C 131.290 108.000,131.200 108.320,131.200 108.711 M241.200 130.212 C 237.943 130.866,234.062 132.220,233.196 133.003 C 232.834 133.331,232.412 133.600,232.260 133.600 C 231.310 133.600,224.400 139.373,224.400 140.167 C 224.400 140.324,223.950 141.043,223.400 141.764 C 222.850 142.486,222.400 143.351,222.400 143.689 C 222.400 144.026,222.140 144.518,221.822 144.782 C 218.583 147.470,219.864 160.964,223.871 166.368 C 227.401 171.131,241.246 179.600,245.501 179.600 C 245.942 179.600,246.525 179.869,246.798 180.198 C 247.072 180.527,247.994 181.006,248.847 181.261 C 249.701 181.517,250.400 181.849,250.400 181.999 C 250.400 182.149,250.895 182.497,251.500 182.772 C 252.105 183.048,252.870 183.532,253.200 183.849 C 253.530 184.165,254.169 184.734,254.620 185.112 C 258.599 188.449,260.163 198.319,257.146 201.049 C 256.736 201.420,256.400 201.922,256.400 202.163 C 256.400 202.686,254.234 204.800,253.698 204.800 C 253.492 204.800,252.998 205.160,252.600 205.600 C 252.202 206.040,251.657 206.400,251.390 206.400 C 251.123 206.400,249.777 206.760,248.400 207.200 C 245.311 208.187,237.573 208.334,235.448 207.446 C 234.719 207.141,233.150 206.762,231.961 206.603 C 230.772 206.444,229.530 206.080,229.200 205.794 C 228.870 205.508,227.809 205.064,226.842 204.806 C 225.875 204.549,224.615 203.995,224.042 203.576 C 222.317 202.315,221.105 202.396,220.679 203.800 C 220.478 204.460,220.071 205.540,219.774 206.200 C 219.476 206.860,219.115 208.120,218.972 209.000 C 218.828 209.880,218.444 211.023,218.119 211.541 C 217.486 212.549,218.988 214.800,220.293 214.800 C 220.592 214.800,221.682 215.250,222.715 215.800 C 223.748 216.350,225.097 216.800,225.713 216.800 C 226.328 216.800,227.590 217.202,228.516 217.694 C 231.137 219.085,251.371 219.090,253.723 217.700 C 254.560 217.205,255.640 216.800,256.123 216.799 C 259.003 216.796,266.420 211.411,269.069 207.400 C 269.650 206.520,270.457 205.312,270.863 204.716 C 271.268 204.120,271.600 203.383,271.600 203.079 C 271.600 202.774,271.960 201.479,272.400 200.200 C 275.123 192.287,272.651 182.926,266.144 176.504 C 262.734 173.139,262.406 172.917,256.944 170.285 C 255.215 169.451,253.290 168.506,252.668 168.185 C 252.045 167.863,251.253 167.600,250.908 167.600 C 249.915 167.600,241.818 163.734,240.644 162.700 C 240.207 162.315,239.738 162.000,239.603 162.000 C 239.467 162.000,238.715 161.413,237.932 160.695 C 231.654 154.945,233.747 145.390,242.151 141.435 C 245.044 140.073,255.054 139.997,257.400 141.319 C 258.060 141.691,258.967 141.996,259.415 141.998 C 259.864 141.999,260.944 142.370,261.815 142.823 C 265.909 144.948,265.839 144.945,266.976 143.005 C 267.536 142.050,268.190 140.354,268.429 139.238 C 268.669 138.121,269.030 137.105,269.232 136.980 C 271.262 135.725,266.981 131.600,263.649 131.600 C 263.160 131.600,262.267 131.345,261.664 131.033 C 258.973 129.642,246.526 129.142,241.200 130.212 M121.732 131.577 C 118.175 131.700,115.156 131.908,115.025 132.041 C 114.495 132.573,114.773 216.153,115.305 216.451 C 115.585 216.607,118.870 216.782,122.607 216.839 L 129.400 216.944 129.400 174.177 C 129.400 136.442,129.329 131.408,128.800 131.383 C 128.470 131.367,125.289 131.454,121.732 131.577 " stroke="none" fill="#828282" fill-rule="evenodd"></path><path id="path1" d="M170.801 242.272 C 169.811 242.373,168.731 242.695,168.401 242.988 C 168.070 243.281,167.035 243.747,166.100 244.024 C 165.165 244.300,164.400 244.666,164.400 244.836 C 164.400 245.007,164.076 245.249,163.680 245.375 C 162.735 245.674,158.800 249.598,158.800 250.240 C 158.800 250.514,158.350 251.273,157.800 251.927 C 157.250 252.581,156.800 253.500,156.800 253.971 C 156.800 254.441,156.534 255.463,156.208 256.242 C 155.354 258.287,155.051 262.290,155.590 264.400 C 155.844 265.390,156.295 267.272,156.593 268.582 C 156.891 269.891,157.420 271.171,157.767 271.426 C 158.115 271.680,158.400 272.115,158.400 272.391 C 158.400 272.668,158.940 273.509,159.600 274.261 C 160.260 275.013,160.800 275.761,160.800 275.923 C 160.800 276.085,161.419 276.552,162.177 276.959 C 162.934 277.367,163.648 277.948,163.764 278.250 C 163.880 278.553,164.316 278.800,164.734 278.800 C 165.151 278.800,165.954 279.163,166.519 279.608 C 168.611 281.253,183.432 281.407,185.708 279.807 C 186.199 279.462,187.275 278.998,188.100 278.775 L 189.600 278.369 189.600 269.585 C 189.600 264.753,189.600 260.665,189.601 260.500 C 189.602 260.049,177.126 259.914,176.680 260.360 C 176.471 260.569,176.417 261.366,176.561 262.131 L 176.821 263.521 180.350 263.661 C 185.262 263.855,185.200 263.774,185.200 270.000 C 185.200 275.482,185.123 275.703,183.024 276.230 C 182.380 276.391,181.391 276.765,180.827 277.059 C 179.124 277.948,172.522 277.779,170.696 276.800 C 169.875 276.360,168.932 276.000,168.601 276.000 C 168.271 276.000,167.640 275.640,167.200 275.200 C 166.760 274.760,166.263 274.400,166.097 274.400 C 165.819 274.400,164.358 272.840,162.414 270.467 C 161.993 269.954,161.524 268.967,161.372 268.273 C 161.220 267.579,160.819 266.591,160.482 266.076 C 159.463 264.521,159.606 258.601,160.713 256.476 C 161.201 255.541,161.600 254.538,161.600 254.249 C 161.600 253.959,161.915 253.349,162.300 252.892 C 162.685 252.435,163.450 251.493,164.000 250.800 C 165.455 248.965,168.768 246.878,170.722 246.566 C 171.655 246.417,172.514 246.139,172.632 245.947 C 172.923 245.477,177.493 245.503,177.786 245.977 C 177.914 246.184,178.827 246.475,179.814 246.623 C 180.801 246.771,182.012 247.202,182.505 247.580 C 185.066 249.547,185.814 249.624,187.161 248.061 C 187.842 247.269,188.400 246.506,188.400 246.365 C 188.400 245.968,185.518 244.114,184.400 243.793 C 183.850 243.635,183.130 243.270,182.800 242.982 C 182.155 242.420,174.056 241.941,170.801 242.272 M31.050 243.413 C 30.921 243.750,30.804 252.165,30.790 262.113 L 30.765 280.200 31.882 280.410 C 32.497 280.526,33.495 280.550,34.100 280.465 L 35.200 280.309 35.200 262.183 C 35.200 246.238,35.124 243.982,34.571 243.429 C 33.752 242.609,31.363 242.598,31.050 243.413 M48.183 243.303 C 46.826 244.046,46.812 244.235,46.806 262.455 L 46.800 280.309 47.900 280.455 C 48.505 280.535,49.493 280.543,50.095 280.474 L 51.190 280.348 51.295 265.474 L 51.400 250.600 52.299 250.472 C 52.959 250.379,53.303 250.618,53.589 251.372 C 53.804 251.938,54.174 252.400,54.411 252.400 C 54.647 252.400,55.091 252.999,55.397 253.732 C 55.703 254.464,56.234 255.296,56.577 255.581 C 56.920 255.865,57.200 256.324,57.200 256.600 C 57.200 256.876,57.498 257.349,57.862 257.651 C 58.226 257.953,58.768 258.785,59.067 259.500 C 59.366 260.215,59.766 260.800,59.957 260.800 C 60.147 260.800,60.527 261.340,60.800 262.000 C 61.073 262.660,61.452 263.200,61.640 263.200 C 61.829 263.200,62.392 263.944,62.892 264.854 C 64.268 267.360,64.525 267.749,65.500 268.790 C 65.995 269.318,66.400 269.916,66.400 270.118 C 66.400 270.319,66.805 270.980,67.300 271.587 C 68.255 272.756,68.461 273.055,70.476 276.200 C 73.390 280.748,73.056 280.575,78.600 280.427 L 79.600 280.400 79.594 262.300 C 79.587 242.568,79.654 243.091,77.138 243.037 L 75.400 243.000 75.200 257.600 C 75.014 271.186,74.831 273.600,73.991 273.600 C 73.554 273.600,71.369 270.809,70.761 269.474 C 70.492 268.883,70.142 268.400,69.984 268.400 C 69.826 268.400,69.458 267.823,69.166 267.117 C 68.873 266.412,68.390 265.557,68.092 265.217 C 66.651 263.577,65.200 261.434,65.200 260.945 C 65.200 260.645,65.025 260.400,64.810 260.400 C 64.596 260.400,64.127 259.832,63.768 259.138 C 63.409 258.443,62.774 257.509,62.357 257.062 C 61.941 256.615,61.600 256.007,61.600 255.712 C 61.600 255.417,61.330 255.071,61.000 254.945 C 60.670 254.818,60.400 254.477,60.400 254.188 C 60.400 253.898,59.975 253.153,59.455 252.531 C 58.935 251.909,58.383 250.995,58.228 250.500 C 58.073 250.005,57.801 249.600,57.624 249.600 C 57.447 249.600,56.694 248.582,55.951 247.338 C 53.484 243.207,50.856 241.842,48.183 243.303 M87.536 243.720 C 87.324 244.116,87.207 244.926,87.275 245.520 L 87.400 246.600 93.000 246.800 C 96.080 246.910,98.825 247.146,99.100 247.324 C 99.487 247.574,99.600 251.356,99.600 263.997 C 99.600 282.167,99.466 281.322,102.229 280.628 L 103.200 280.385 103.200 264.016 C 103.200 251.360,103.313 247.574,103.700 247.324 C 103.975 247.146,106.720 246.910,109.800 246.800 L 115.400 246.600 115.526 245.510 C 115.805 243.081,116.219 243.153,101.429 243.073 C 88.790 243.005,87.896 243.046,87.536 243.720 M123.580 243.380 C 123.351 243.609,123.200 251.042,123.200 262.053 L 123.200 280.347 124.300 280.473 C 124.905 280.543,130.575 280.550,136.900 280.488 L 148.400 280.376 148.400 279.374 C 148.400 278.823,148.109 277.928,147.754 277.386 L 147.108 276.400 137.803 276.400 L 128.497 276.400 128.015 275.237 C 127.698 274.471,127.579 272.339,127.667 269.003 C 127.841 262.358,127.141 262.800,137.501 262.800 L 145.648 262.800 145.524 261.300 L 145.400 259.800 137.106 259.692 L 128.812 259.584 128.206 258.412 C 127.490 257.028,127.345 248.824,128.014 247.574 C 128.405 246.842,128.944 246.800,137.827 246.800 C 148.055 246.800,147.803 246.862,147.286 244.481 L 147.000 243.161 135.480 243.081 C 128.621 243.033,123.806 243.154,123.580 243.380 M201.434 243.770 C 201.018 245.319,201.177 280.339,201.601 280.601 C 201.822 280.737,202.812 280.727,203.801 280.579 L 205.600 280.309 205.600 272.528 C 205.600 263.221,205.609 263.195,208.714 263.213 C 211.305 263.227,212.685 264.112,213.782 266.463 C 214.125 267.198,214.848 268.520,215.389 269.400 C 215.929 270.280,216.658 271.603,217.008 272.341 C 217.358 273.078,217.995 274.057,218.422 274.516 C 218.850 274.975,219.200 275.655,219.200 276.026 C 219.200 276.398,219.461 276.918,219.780 277.183 C 220.098 277.448,220.555 278.258,220.794 278.983 C 221.158 280.085,221.476 280.342,222.722 280.541 C 225.367 280.964,228.098 280.202,226.804 279.402 C 226.188 279.022,221.600 271.922,221.600 271.350 C 221.600 271.069,221.375 270.696,221.100 270.520 C 220.825 270.344,220.278 269.570,219.884 268.800 C 218.765 266.613,218.181 265.663,217.485 264.894 C 216.623 263.941,216.926 263.611,220.152 261.986 C 228.522 257.770,227.530 245.443,218.667 243.546 C 214.194 242.588,201.708 242.751,201.434 243.770 M247.240 243.839 C 246.743 244.411,246.079 245.611,245.763 246.505 C 245.447 247.399,245.035 248.326,244.847 248.565 C 244.658 248.804,244.281 249.720,244.008 250.600 C 243.735 251.480,243.290 252.380,243.018 252.600 C 242.747 252.820,242.400 253.669,242.247 254.487 C 242.094 255.305,241.715 256.228,241.404 256.539 C 241.094 256.849,240.714 257.620,240.561 258.252 C 240.408 258.883,239.956 260.030,239.557 260.800 C 238.569 262.704,236.962 266.383,236.595 267.581 C 236.430 268.121,236.048 268.809,235.747 269.110 C 235.446 269.411,235.200 270.070,235.200 270.575 C 235.200 271.079,234.851 271.936,234.425 272.478 C 233.998 273.020,233.518 273.989,233.358 274.632 C 233.198 275.274,232.647 276.592,232.133 277.560 C 230.969 279.755,230.962 280.326,232.100 280.609 C 233.862 281.047,236.186 280.266,236.336 279.184 C 236.412 278.643,236.711 277.930,237.003 277.600 C 237.294 277.270,237.658 276.323,237.812 275.495 C 237.965 274.667,238.658 273.251,239.352 272.348 L 240.612 270.706 248.806 270.775 C 258.527 270.857,259.099 271.032,259.881 274.167 C 260.145 275.227,260.640 276.402,260.981 276.778 C 261.321 277.155,261.603 277.899,261.606 278.431 C 261.617 280.095,262.159 280.489,264.518 280.546 C 265.735 280.576,266.828 280.503,266.948 280.384 C 267.240 280.094,266.070 276.751,265.414 276.000 C 265.125 275.670,264.759 274.770,264.600 274.000 C 264.441 273.230,264.045 272.298,263.719 271.929 C 263.394 271.559,262.959 270.507,262.753 269.589 C 262.547 268.672,262.135 267.678,261.837 267.380 C 261.540 267.083,261.169 266.155,261.014 265.320 C 260.859 264.484,260.494 263.530,260.203 263.200 C 259.912 262.870,259.476 261.856,259.234 260.947 C 258.992 260.037,258.526 259.070,258.197 258.798 C 257.869 258.525,257.594 258.009,257.587 257.651 C 257.581 257.293,257.132 256.100,256.591 255.000 C 256.050 253.900,255.606 252.744,255.604 252.431 C 255.602 252.119,255.360 251.579,255.066 251.231 C 254.772 250.884,254.297 249.970,254.011 249.200 C 251.723 243.050,249.475 241.270,247.240 243.839 M266.000 243.133 C 265.780 243.207,265.600 244.062,265.600 245.033 L 265.600 246.800 270.967 246.800 C 273.919 246.800,276.619 246.909,276.967 247.043 C 277.530 247.259,277.600 249.110,277.600 263.800 C 277.600 282.238,277.381 280.979,280.509 280.551 L 282.200 280.319 282.075 265.014 C 282.006 256.595,282.107 249.099,282.299 248.354 L 282.649 247.000 288.625 246.800 L 294.600 246.600 294.704 245.400 C 294.907 243.069,295.313 243.135,280.254 243.065 C 272.634 243.029,266.220 243.060,266.000 243.133 M302.571 243.800 C 302.465 244.240,302.428 252.671,302.489 262.535 L 302.600 280.471 314.504 280.456 C 328.011 280.440,327.133 280.592,326.830 278.320 L 326.600 276.600 317.104 276.493 L 307.609 276.386 306.951 275.382 C 305.983 273.904,305.990 264.639,306.960 263.668 C 307.527 263.100,308.897 262.970,316.113 262.800 L 324.600 262.600 324.738 261.622 C 324.996 259.793,324.119 259.600,315.533 259.600 L 307.618 259.600 306.970 258.611 C 306.469 257.846,306.315 256.531,306.289 252.807 C 306.246 246.410,305.549 246.829,316.267 246.813 C 326.439 246.797,327.411 246.483,325.477 243.838 C 324.617 242.661,302.856 242.626,302.571 243.800 M336.379 243.639 C 336.024 244.302,335.771 279.905,336.119 280.252 C 336.819 280.953,352.810 280.382,354.074 279.612 C 354.803 279.167,355.850 278.799,356.400 278.794 C 358.441 278.776,366.000 272.333,366.000 270.611 C 366.000 270.471,366.399 269.511,366.886 268.478 C 368.008 266.100,368.173 256.739,367.121 255.123 C 366.791 254.615,366.306 253.542,366.042 252.738 C 365.484 251.036,361.181 246.169,359.885 245.775 C 359.398 245.627,358.712 245.253,358.360 244.945 C 356.474 243.293,337.177 242.147,336.379 243.639 M218.926 247.900 C 222.302 250.451,222.062 256.375,218.493 258.588 C 216.355 259.914,208.286 260.610,206.450 259.627 C 205.439 259.086,205.114 248.246,206.080 247.280 C 207.187 246.173,217.286 246.660,218.926 247.900 M353.606 247.544 C 354.373 247.953,355.450 248.426,356.000 248.595 C 356.550 248.763,357.326 249.194,357.724 249.551 C 359.760 251.376,360.940 252.717,361.466 253.800 C 361.786 254.460,362.305 255.450,362.618 256.000 C 363.782 258.041,363.234 268.400,361.963 268.400 C 361.793 268.400,361.533 268.805,361.386 269.300 C 361.072 270.352,357.365 273.890,356.200 274.249 C 355.760 274.384,355.128 274.733,354.795 275.023 C 353.448 276.200,342.180 276.953,340.374 275.986 C 339.420 275.476,339.142 248.218,340.080 247.280 C 340.938 246.422,351.905 246.636,353.606 247.544 M250.942 251.800 C 251.138 252.460,251.624 253.720,252.022 254.600 C 252.419 255.480,252.877 256.738,253.040 257.396 C 253.202 258.054,253.558 258.815,253.831 259.088 C 254.104 259.361,254.447 260.297,254.595 261.169 C 254.742 262.041,255.107 262.957,255.406 263.205 C 256.207 263.870,256.558 265.928,255.986 266.616 C 255.348 267.386,242.839 267.479,242.080 266.720 C 241.392 266.032,241.485 265.272,242.400 264.109 C 242.840 263.550,243.202 262.801,243.204 262.446 C 243.206 262.091,243.650 260.900,244.191 259.800 C 244.732 258.700,245.181 257.417,245.187 256.949 C 245.194 256.481,245.448 255.892,245.750 255.641 C 246.053 255.390,246.531 254.333,246.812 253.292 C 247.698 250.020,250.150 249.133,250.942 251.800 M48.720 297.493 C 48.393 298.233,48.891 317.991,49.231 317.781 C 49.721 317.478,49.718 297.720,49.228 297.417 C 49.023 297.291,48.794 297.325,48.720 297.493 M60.938 297.817 C 60.589 298.728,60.815 298.785,62.958 298.328 C 64.324 298.037,64.741 297.808,64.353 297.562 C 63.422 296.973,61.198 297.139,60.938 297.817 M65.668 297.549 C 65.302 297.782,65.670 298.022,66.853 298.322 C 68.698 298.791,70.247 298.257,69.119 297.541 C 68.444 297.113,66.349 297.118,65.668 297.549 M76.898 297.461 C 75.678 297.964,77.094 298.400,79.944 298.400 C 84.229 298.400,84.000 297.821,84.000 308.656 C 84.000 317.058,84.264 319.572,84.958 317.765 C 85.091 317.418,85.200 313.029,85.200 308.010 C 85.200 297.533,84.815 298.400,89.466 298.400 C 91.689 298.400,92.424 298.270,92.300 297.900 C 92.132 297.393,78.037 296.992,76.898 297.461 M99.977 297.356 C 99.675 297.658,99.849 317.432,100.157 317.931 C 100.899 319.132,101.984 317.691,101.328 316.376 C 100.856 315.429,100.775 314.443,100.978 312.074 C 101.306 308.233,101.306 306.966,100.979 303.151 C 100.576 298.449,100.579 298.447,106.708 298.312 C 113.780 298.156,113.191 297.431,105.878 297.290 C 102.730 297.229,100.074 297.259,99.977 297.356 M120.851 297.560 C 120.443 297.819,120.398 298.194,120.675 299.025 C 121.064 300.193,121.361 300.423,123.500 301.215 C 124.345 301.528,124.800 301.965,124.800 302.461 C 124.800 303.202,125.815 303.918,126.250 303.484 C 126.543 303.190,125.610 301.475,124.942 301.080 C 124.644 300.904,124.400 300.513,124.400 300.211 C 124.400 298.659,121.976 296.848,120.851 297.560 M137.473 297.460 C 137.323 297.610,137.200 301.447,137.200 305.987 C 137.200 314.850,137.074 315.437,135.316 314.768 C 133.295 314.000,133.118 314.913,134.900 316.916 C 137.703 320.067,137.931 319.417,138.075 307.860 C 138.194 298.306,138.108 296.825,137.473 297.460 M158.186 297.623 C 157.395 298.903,158.861 301.200,160.469 301.200 C 161.430 301.200,161.746 301.452,162.226 302.600 C 162.548 303.370,162.946 304.000,163.111 304.000 C 163.275 304.000,163.588 304.393,163.805 304.874 C 164.022 305.355,164.425 305.820,164.700 305.907 C 165.450 306.146,165.302 304.902,164.483 304.083 C 164.088 303.688,163.527 302.788,163.234 302.083 C 162.942 301.377,162.455 300.800,162.151 300.800 C 161.848 300.800,161.600 300.474,161.600 300.075 C 161.600 298.622,158.808 296.617,158.186 297.623 M174.600 297.675 C 174.493 297.964,174.359 301.980,174.302 306.600 C 174.191 315.756,174.237 315.602,171.900 314.611 C 170.800 314.145,171.040 315.581,172.320 317.124 C 173.308 318.314,173.530 318.407,174.510 318.034 L 175.600 317.620 175.600 307.634 C 175.600 298.571,175.316 295.742,174.600 297.675 M189.300 297.465 C 187.406 298.229,190.580 298.670,193.400 298.035 L 194.600 297.765 193.000 297.487 C 191.201 297.174,190.038 297.167,189.300 297.465 M195.228 297.574 C 194.810 297.839,195.079 298.005,196.228 298.191 C 199.202 298.673,199.600 298.817,199.600 299.408 C 199.600 300.054,200.615 300.222,200.977 299.636 C 201.798 298.308,196.865 296.539,195.228 297.574 M226.138 297.817 C 225.789 298.728,226.015 298.785,228.158 298.328 C 229.524 298.037,229.941 297.808,229.553 297.562 C 228.622 296.973,226.398 297.139,226.138 297.817 M230.867 297.550 C 230.502 297.782,230.931 298.039,232.230 298.366 C 233.744 298.747,234.190 298.740,234.442 298.332 C 235.045 297.356,232.166 296.727,230.867 297.550 M242.114 297.460 C 241.536 297.695,242.185 299.076,243.254 299.886 C 243.614 300.158,244.023 300.836,244.162 301.391 C 244.301 301.946,244.592 302.400,244.808 302.400 C 245.574 302.400,245.185 300.500,244.200 299.438 C 243.650 298.844,243.200 298.098,243.200 297.779 C 243.200 297.185,242.964 297.116,242.114 297.460 M256.673 297.460 C 256.523 297.610,256.400 297.998,256.400 298.321 C 256.400 298.644,255.950 299.325,255.400 299.835 C 254.850 300.345,254.400 301.145,254.400 301.614 C 254.400 302.863,255.375 302.354,255.531 301.024 C 255.612 300.338,255.953 299.833,256.418 299.711 C 257.283 299.485,257.859 298.099,257.313 297.553 C 257.112 297.352,256.824 297.310,256.673 297.460 M265.999 298.093 C 265.565 298.559,265.110 299.253,264.989 299.634 C 264.868 300.014,264.506 300.427,264.185 300.550 C 263.153 300.947,263.433 303.860,264.600 304.875 C 265.150 305.353,265.600 305.964,265.600 306.233 C 265.600 306.791,267.548 307.565,268.300 307.305 C 269.166 307.007,268.845 306.473,267.641 306.209 C 266.967 306.061,266.396 305.629,266.278 305.177 C 266.166 304.750,265.788 304.400,265.437 304.400 C 264.939 304.400,264.800 303.963,264.800 302.400 C 264.800 300.874,264.945 300.400,265.410 300.400 C 265.745 300.400,266.182 299.972,266.381 299.450 C 267.001 297.819,273.693 297.535,274.299 299.114 C 274.483 299.593,274.610 299.526,274.876 298.806 C 275.358 297.503,275.236 297.460,270.785 297.347 C 267.157 297.254,266.717 297.323,265.999 298.093 M281.600 297.792 C 281.600 298.282,282.184 298.400,284.613 298.400 C 286.360 298.400,288.217 298.647,289.034 298.989 L 290.443 299.577 290.321 308.589 C 290.255 313.545,290.335 317.601,290.500 317.600 C 290.665 317.600,290.800 313.466,290.800 308.414 C 290.800 297.714,290.485 298.400,295.407 298.400 C 297.677 298.400,298.424 298.271,298.300 297.900 C 298.027 297.079,281.600 296.973,281.600 297.792 M304.658 297.506 C 304.260 298.150,304.445 317.580,304.851 317.832 C 305.072 317.968,305.913 317.955,306.721 317.804 L 308.191 317.528 306.895 316.983 L 305.600 316.439 305.600 312.843 C 305.600 310.865,305.780 309.136,306.000 309.000 C 306.220 308.864,306.400 308.234,306.400 307.600 C 306.400 306.966,306.220 306.336,306.000 306.200 C 305.399 305.828,305.488 299.320,306.100 298.924 C 306.375 298.746,309.120 298.510,312.200 298.400 C 315.533 298.281,317.800 298.038,317.800 297.800 C 317.800 297.314,304.954 297.026,304.658 297.506 M325.867 297.467 C 325.534 297.799,325.511 316.902,325.842 317.765 C 326.499 319.478,326.800 317.301,326.800 310.826 C 326.800 302.736,326.998 301.178,328.061 300.900 C 328.890 300.683,329.053 299.219,328.386 297.974 C 327.988 297.230,326.419 296.914,325.867 297.467 M344.427 298.362 C 343.341 299.887,343.316 301.600,344.380 301.600 C 344.809 301.600,345.344 301.915,345.568 302.300 C 345.792 302.685,345.981 302.874,345.988 302.720 C 345.995 302.565,346.269 301.405,346.598 300.142 C 347.406 297.040,346.119 295.985,344.427 298.362 M358.100 297.465 C 357.825 297.576,357.600 297.901,357.600 298.187 C 357.600 298.473,357.254 298.797,356.831 298.908 C 355.934 299.142,355.354 301.965,355.760 304.126 C 356.030 305.565,357.640 307.035,359.198 307.264 C 360.662 307.479,360.555 306.617,359.050 306.073 C 357.571 305.538,357.211 304.780,357.211 302.200 C 357.211 299.581,357.551 298.872,358.941 298.593 C 361.433 298.093,361.754 297.943,361.153 297.562 C 360.560 297.187,358.918 297.135,358.100 297.465 M362.447 297.562 C 362.059 297.808,362.477 298.038,363.847 298.332 C 365.122 298.605,365.938 298.615,366.197 298.359 C 367.102 297.464,363.732 296.749,362.447 297.562 M30.713 307.800 C 30.821 317.530,30.862 318.000,31.590 318.000 C 32.622 318.000,32.923 317.400,32.196 316.796 C 31.699 316.384,31.600 314.744,31.600 306.951 C 31.600 299.737,31.486 297.600,31.100 297.600 C 30.710 297.599,30.625 299.846,30.713 307.800 M59.043 299.433 C 57.821 302.616,59.619 307.200,62.089 307.200 C 63.593 307.200,63.494 306.600,61.914 306.147 C 60.369 305.704,59.869 304.151,60.227 300.900 C 60.458 298.792,59.666 297.809,59.043 299.433 M186.299 299.964 C 185.173 301.157,184.804 302.597,185.700 302.302 C 185.975 302.211,186.256 301.758,186.325 301.293 C 186.400 300.782,186.793 300.400,187.321 300.325 C 187.800 300.256,188.252 299.885,188.325 299.500 C 188.528 298.434,187.526 298.663,186.299 299.964 M224.667 299.067 C 222.955 300.778,225.030 307.179,227.300 307.193 C 228.791 307.202,228.691 306.599,227.127 306.151 C 225.549 305.698,225.073 304.328,225.374 301.100 C 225.570 298.989,225.357 298.376,224.667 299.067 M329.228 301.900 C 329.244 302.505,329.393 303.348,329.559 303.773 C 330.033 304.985,330.526 303.796,330.222 302.174 C 329.914 300.536,329.188 300.335,329.228 301.900 M245.605 302.900 C 245.619 304.126,246.134 305.142,246.837 305.326 C 247.257 305.435,247.600 305.829,247.600 306.199 C 247.600 306.570,247.960 307.331,248.400 307.891 C 249.082 308.758,249.200 309.514,249.200 313.021 C 249.200 317.397,249.455 318.871,250.050 317.934 C 250.236 317.640,250.391 315.479,250.394 313.131 C 250.399 309.234,250.482 308.763,251.345 307.731 C 252.563 306.273,252.258 304.609,251.024 305.974 C 249.794 307.333,247.849 306.184,246.835 303.500 C 246.414 302.384,245.595 301.985,245.605 302.900 M253.075 302.658 C 252.671 303.062,252.740 305.200,253.157 305.200 C 253.459 305.200,253.960 303.899,254.037 302.912 C 254.069 302.502,253.406 302.328,253.075 302.658 M183.688 307.801 C 183.834 314.324,184.560 314.244,184.609 307.700 C 184.638 303.859,184.530 302.800,184.111 302.800 C 183.687 302.800,183.599 303.838,183.688 307.801 M341.802 303.990 C 341.496 305.385,341.909 306.386,342.444 305.543 C 342.904 304.817,342.895 302.800,342.432 302.800 C 342.229 302.800,341.946 303.336,341.802 303.990 M126.400 304.551 C 126.400 305.294,127.460 306.151,127.766 305.656 C 128.121 305.081,127.593 304.000,126.957 304.000 C 126.651 304.000,126.400 304.248,126.400 304.551 M158.965 310.800 C 158.965 314.650,159.025 316.225,159.098 314.300 C 159.171 312.375,159.171 309.225,159.098 307.300 C 159.025 305.375,158.965 306.950,158.965 310.800 M331.206 306.076 C 331.203 306.888,331.380 307.664,331.600 307.800 C 332.116 308.119,332.116 305.998,331.600 305.200 C 331.311 304.753,331.211 304.976,331.206 306.076 M345.628 311.300 C 345.610 315.252,345.749 317.600,346.000 317.600 C 346.495 317.600,346.495 306.952,346.000 305.800 C 345.788 305.306,345.645 307.408,345.628 311.300 M128.460 307.600 C 128.690 308.260,129.108 308.800,129.389 308.800 C 129.670 308.800,130.011 309.355,130.147 310.034 C 130.297 310.784,130.591 311.200,130.897 311.093 C 131.639 310.833,131.275 309.530,130.169 308.484 C 129.636 307.980,129.200 307.305,129.200 306.984 C 129.200 306.663,128.939 306.400,128.621 306.400 C 128.151 306.400,128.121 306.627,128.460 307.600 M165.734 307.246 C 165.874 307.771,165.992 308.335,165.995 308.500 C 165.998 308.665,166.254 308.800,166.565 308.800 C 167.293 308.800,166.807 306.736,166.018 306.473 C 165.624 306.341,165.547 306.550,165.734 307.246 M340.115 307.500 C 339.720 308.695,339.862 310.000,340.387 310.000 C 341.135 310.000,341.530 307.051,340.839 306.624 C 340.640 306.501,340.315 306.896,340.115 307.500 M199.440 307.993 C 198.582 308.158,197.547 308.207,197.140 308.100 C 196.733 307.994,196.400 308.108,196.400 308.353 C 196.400 308.615,197.134 308.800,198.171 308.800 C 200.816 308.800,201.256 309.449,201.116 313.142 C 201.000 316.190,200.998 316.196,199.620 316.845 C 198.034 317.593,198.981 318.271,200.928 317.782 C 202.718 317.333,203.233 307.467,201.457 307.646 C 201.206 307.671,200.298 307.827,199.440 307.993 M64.400 308.355 C 64.400 308.550,65.210 308.831,66.200 308.979 C 67.433 309.164,68.000 309.442,68.000 309.862 C 68.000 310.199,68.360 310.569,68.800 310.684 C 69.503 310.868,69.600 311.230,69.600 313.680 C 69.600 317.115,70.529 317.371,70.724 313.990 C 70.872 311.409,70.569 310.000,69.865 310.000 C 69.578 310.000,68.953 309.550,68.475 309.000 C 67.608 308.003,64.400 307.495,64.400 308.355 M229.600 308.355 C 229.600 308.550,230.401 308.829,231.380 308.976 C 232.648 309.166,233.231 309.467,233.407 310.021 C 233.543 310.450,233.908 310.800,234.219 310.800 C 235.001 310.800,235.342 312.457,235.014 314.649 C 234.671 316.933,235.593 316.960,236.167 314.683 C 236.544 313.191,235.913 310.000,235.242 310.000 C 235.063 310.000,234.431 309.550,233.838 309.000 C 232.766 308.007,229.600 307.524,229.600 308.355 M270.000 308.349 C 270.000 308.723,273.181 309.352,273.493 309.040 C 273.596 308.937,273.561 308.661,273.416 308.427 C 273.102 307.918,270.000 307.847,270.000 308.349 M361.600 308.355 C 361.600 308.551,362.269 308.836,363.086 308.990 C 366.452 309.621,368.267 315.364,365.497 316.618 C 364.425 317.103,364.116 318.000,365.021 318.000 C 367.376 318.000,368.878 311.112,366.770 309.984 C 366.313 309.739,365.593 309.193,365.170 308.770 C 364.388 307.988,361.600 307.665,361.600 308.355 M167.600 309.976 C 167.600 310.851,168.225 311.407,168.574 310.843 C 168.866 310.370,168.427 309.200,167.957 309.200 C 167.761 309.200,167.600 309.549,167.600 309.976 M274.000 309.979 C 274.000 310.830,275.003 311.531,275.503 311.030 C 275.831 310.703,275.122 309.507,274.471 309.290 C 274.209 309.203,274.000 309.508,274.000 309.979 M333.099 309.686 C 332.732 310.643,333.407 312.825,333.788 311.913 C 333.946 311.535,333.912 310.735,333.711 310.133 C 333.429 309.286,333.291 309.186,333.099 309.686 M338.714 311.200 C 338.169 312.522,338.019 313.965,338.401 314.201 C 338.624 314.338,338.907 314.186,339.031 313.863 C 339.343 313.052,339.031 310.431,338.714 311.200 M131.600 311.781 C 131.600 312.292,132.573 314.000,132.864 314.000 C 133.257 314.000,133.303 313.134,132.957 312.233 C 132.745 311.679,131.600 311.298,131.600 311.781 M168.954 312.062 C 169.089 312.358,169.311 312.915,169.446 313.300 C 169.582 313.685,169.927 314.000,170.212 314.000 C 171.017 314.000,170.286 311.828,169.425 311.662 C 168.942 311.569,168.788 311.699,168.954 312.062 M275.946 311.788 C 275.603 312.130,276.080 314.798,276.443 314.573 C 276.894 314.294,276.915 311.600,276.467 311.600 C 276.283 311.600,276.049 311.684,275.946 311.788 M185.110 313.423 C 184.667 313.867,185.785 316.000,186.461 316.000 C 186.838 316.000,187.255 316.342,187.387 316.760 C 187.637 317.546,189.341 318.208,190.025 317.785 C 190.570 317.447,190.086 316.802,189.276 316.787 C 188.386 316.771,186.563 315.143,186.218 314.058 C 185.950 313.214,185.549 312.984,185.110 313.423 M334.802 314.430 C 334.804 315.988,336.387 318.302,337.134 317.841 C 337.750 317.460,337.743 314.800,337.126 314.800 C 336.865 314.800,336.235 314.409,335.726 313.930 L 334.800 313.061 334.802 314.430 M274.414 315.973 C 274.187 316.398,273.623 316.866,273.160 317.013 C 271.941 317.400,272.876 318.168,274.171 317.843 C 274.988 317.638,275.200 317.340,275.200 316.392 C 275.200 315.006,274.991 314.895,274.414 315.973 M59.041 316.636 C 58.684 317.567,59.102 318.000,60.357 318.000 C 61.999 318.000,62.149 317.562,60.789 316.735 C 59.325 315.844,59.345 315.846,59.041 316.636 M356.005 316.790 C 355.566 317.610,356.155 318.000,357.833 318.000 C 359.156 318.000,359.048 317.382,357.598 316.659 C 356.492 316.107,356.365 316.118,356.005 316.790 M67.823 316.934 C 67.304 317.313,67.219 317.565,67.543 317.765 C 68.176 318.156,69.679 317.638,69.497 317.091 C 69.267 316.400,68.634 316.340,67.823 316.934 M224.257 316.996 C 223.988 317.697,225.605 318.239,226.699 317.814 C 227.315 317.575,227.279 317.475,226.400 316.985 C 225.099 316.261,224.538 316.263,224.257 316.996 M233.100 316.833 C 232.037 317.451,232.263 318.069,233.500 317.927 C 234.123 317.855,234.600 317.554,234.600 317.233 C 234.600 316.492,233.974 316.325,233.100 316.833 M264.212 317.180 C 264.083 317.389,264.621 317.680,265.408 317.828 C 266.929 318.113,267.445 317.920,267.016 317.227 C 266.690 316.698,264.533 316.662,264.212 317.180 M63.800 318.792 L 62.600 319.035 63.715 319.329 C 64.894 319.640,66.587 319.089,65.544 318.734 C 65.245 318.633,64.460 318.659,63.800 318.792 M360.600 318.805 L 359.400 319.050 360.685 319.353 C 361.391 319.520,362.267 319.490,362.630 319.287 C 363.554 318.770,362.268 318.465,360.600 318.805 M193.460 319.287 C 194.319 319.564,195.084 319.561,195.860 319.278 C 196.866 318.912,196.718 318.864,194.600 318.872 C 192.410 318.881,192.310 318.917,193.460 319.287 M228.400 318.953 C 228.400 319.300,230.387 319.454,230.874 319.146 C 231.209 318.933,230.856 318.810,229.900 318.806 C 229.075 318.803,228.400 318.869,228.400 318.953 M268.709 319.135 C 269.189 319.440,271.600 319.289,271.600 318.955 C 271.600 318.870,270.835 318.803,269.900 318.806 C 268.880 318.810,268.404 318.942,268.709 319.135 " stroke="none" fill="#828282" fill-rule="evenodd"></path><path id="path2" d="M120.700 94.689 C 121.415 94.778,122.585 94.778,123.300 94.689 C 124.015 94.601,123.430 94.528,122.000 94.528 C 120.570 94.528,119.985 94.601,120.700 94.689 M128.000 96.125 C 128.000 96.194,128.585 96.779,129.300 97.425 L 130.600 98.600 129.425 97.300 C 128.330 96.088,128.000 95.816,128.000 96.125 M156.814 97.174 C 156.365 98.012,156.197 215.806,156.643 216.967 C 156.987 217.865,208.418 217.942,209.162 217.046 C 209.475 216.669,209.586 214.590,209.511 210.546 L 209.400 204.600 191.200 204.400 L 173.000 204.200 172.800 150.961 C 172.634 106.643,172.508 97.612,172.051 97.061 C 171.149 95.975,157.402 96.076,156.814 97.174 M171.520 98.080 C 171.888 98.448,172.000 110.791,172.000 151.200 C 172.000 191.609,172.112 203.952,172.480 204.320 C 172.838 204.678,177.371 204.802,190.380 204.806 C 200.633 204.810,208.047 204.968,208.400 205.191 C 209.568 205.928,209.505 216.310,208.331 216.595 C 207.819 216.719,196.060 216.771,182.200 216.710 L 157.000 216.600 156.890 158.000 C 156.830 125.770,156.879 98.995,156.998 98.500 C 157.254 97.440,170.497 97.057,171.520 98.080 M111.728 104.400 C 111.728 105.830,111.801 106.415,111.889 105.700 C 111.978 104.985,111.978 103.815,111.889 103.100 C 111.801 102.385,111.728 102.970,111.728 104.400 M119.376 114.970 C 119.804 115.317,120.524 115.585,120.976 115.566 C 121.637 115.538,121.589 115.467,120.731 115.209 C 120.144 115.031,119.424 114.763,119.131 114.613 C 118.839 114.463,118.949 114.624,119.376 114.970 M243.800 129.009 C 242.700 129.292,241.229 129.540,240.530 129.562 C 236.882 129.672,230.238 133.296,226.200 137.378 C 219.203 144.451,216.845 156.876,221.224 163.600 C 221.582 164.150,222.390 165.383,223.019 166.339 C 224.287 168.267,229.042 172.800,229.796 172.800 C 230.060 172.800,230.587 173.143,230.966 173.563 C 231.346 173.982,233.579 175.255,235.928 176.391 C 238.278 177.527,240.710 178.714,241.332 179.028 C 241.955 179.343,242.783 179.600,243.173 179.600 C 243.562 179.600,244.727 180.050,245.762 180.600 C 246.796 181.150,247.817 181.600,248.030 181.600 C 248.531 181.600,251.344 183.399,253.448 185.064 C 261.098 191.119,258.380 204.660,249.200 206.224 C 248.430 206.355,247.003 206.718,246.029 207.031 C 243.942 207.701,239.326 207.780,237.730 207.173 C 237.113 206.939,235.178 206.475,233.429 206.144 C 231.681 205.812,229.884 205.284,229.436 204.970 C 228.988 204.657,228.257 204.399,227.811 204.399 C 227.365 204.398,226.448 204.060,225.772 203.648 C 225.097 203.237,224.107 202.766,223.572 202.603 C 223.038 202.439,222.311 202.052,221.957 201.743 C 220.979 200.886,219.897 202.777,218.721 207.400 C 218.497 208.280,218.081 209.540,217.796 210.200 C 216.885 212.309,216.848 212.691,217.472 213.581 C 218.051 214.409,223.343 217.200,224.333 217.200 C 224.588 217.200,225.833 217.541,227.098 217.958 C 234.104 220.263,249.748 220.281,255.000 217.989 C 255.880 217.605,257.183 217.166,257.895 217.015 C 258.608 216.863,259.295 216.570,259.423 216.363 C 259.550 216.157,260.304 215.717,261.097 215.385 C 263.381 214.431,268.787 209.877,268.796 208.900 C 268.798 208.625,268.965 208.400,269.166 208.400 C 269.671 208.400,272.400 203.442,272.400 202.524 C 272.400 202.114,272.715 201.333,273.100 200.789 C 274.136 199.325,274.138 187.582,273.102 185.800 C 272.719 185.140,272.404 184.352,272.402 184.049 C 272.395 182.354,267.525 176.162,264.184 173.599 C 262.683 172.447,259.394 170.484,258.536 170.227 C 258.061 170.085,257.454 169.706,257.187 169.385 C 256.920 169.063,256.409 168.794,256.051 168.787 C 255.693 168.781,254.500 168.332,253.400 167.791 C 252.300 167.250,251.017 166.806,250.549 166.804 C 250.081 166.802,249.492 166.552,249.241 166.250 C 248.990 165.947,247.982 165.475,247.000 165.200 C 246.018 164.925,245.010 164.453,244.759 164.150 C 244.508 163.848,243.989 163.600,243.606 163.600 C 243.223 163.600,242.263 163.105,241.471 162.500 C 240.680 161.895,239.402 160.950,238.631 160.400 C 237.860 159.850,236.960 158.740,236.632 157.934 C 236.303 157.128,235.846 156.352,235.617 156.210 C 234.675 155.628,235.131 149.722,236.282 147.590 C 239.336 141.936,250.079 138.727,255.880 141.736 C 256.584 142.101,257.666 142.400,258.283 142.400 C 258.901 142.400,260.252 142.850,261.285 143.400 C 262.318 143.950,263.382 144.400,263.650 144.400 C 263.918 144.400,264.459 144.692,264.854 145.049 C 266.207 146.273,268.085 144.273,268.624 141.034 C 268.774 140.135,269.234 138.732,269.648 137.916 C 271.385 134.488,270.305 133.058,264.400 130.968 C 258.165 128.762,248.383 127.831,243.800 129.009 M257.455 130.033 C 259.166 130.271,261.060 130.721,261.664 131.033 C 262.267 131.345,263.160 131.600,263.649 131.600 C 266.981 131.600,271.262 135.725,269.232 136.980 C 269.030 137.105,268.669 138.121,268.429 139.238 C 268.190 140.354,267.536 142.050,266.976 143.005 C 265.839 144.945,265.909 144.948,261.815 142.823 C 260.944 142.370,259.864 141.999,259.415 141.998 C 258.967 141.996,258.060 141.691,257.400 141.319 C 255.054 139.997,245.044 140.073,242.151 141.435 C 233.747 145.390,231.654 154.945,237.932 160.695 C 238.715 161.413,239.467 162.000,239.603 162.000 C 239.738 162.000,240.207 162.315,240.644 162.700 C 241.818 163.734,249.915 167.600,250.908 167.600 C 251.253 167.600,252.045 167.863,252.668 168.185 C 253.290 168.506,255.215 169.451,256.944 170.285 C 262.406 172.917,262.734 173.139,266.144 176.504 C 272.651 182.926,275.123 192.287,272.400 200.200 C 271.960 201.479,271.600 202.774,271.600 203.079 C 271.600 203.383,271.268 204.120,270.863 204.716 C 270.457 205.312,269.650 206.520,269.069 207.400 C 266.420 211.411,259.003 216.796,256.123 216.799 C 255.640 216.800,254.560 217.205,253.723 217.700 C 251.371 219.090,231.137 219.085,228.516 217.694 C 227.590 217.202,226.328 216.800,225.713 216.800 C 225.097 216.800,223.748 216.350,222.715 215.800 C 221.682 215.250,220.592 214.800,220.293 214.800 C 218.988 214.800,217.486 212.549,218.119 211.541 C 218.444 211.023,218.828 209.880,218.972 209.000 C 219.115 208.120,219.476 206.860,219.774 206.200 C 220.071 205.540,220.478 204.460,220.679 203.800 C 221.105 202.396,222.317 202.315,224.042 203.576 C 224.615 203.995,225.875 204.549,226.842 204.806 C 227.809 205.064,228.870 205.508,229.200 205.794 C 229.530 206.080,230.772 206.444,231.961 206.603 C 233.150 206.762,234.719 207.141,235.448 207.446 C 237.573 208.334,245.311 208.187,248.400 207.200 C 249.777 206.760,251.123 206.400,251.390 206.400 C 251.657 206.400,252.202 206.040,252.600 205.600 C 252.998 205.160,253.492 204.800,253.698 204.800 C 254.234 204.800,256.400 202.686,256.400 202.163 C 256.400 201.922,256.736 201.420,257.146 201.049 C 260.163 198.319,258.599 188.449,254.620 185.112 C 254.169 184.734,253.530 184.165,253.200 183.849 C 252.870 183.532,252.105 183.048,251.500 182.772 C 250.895 182.497,250.400 182.149,250.400 181.999 C 250.400 181.849,249.701 181.517,248.847 181.261 C 247.994 181.006,247.072 180.527,246.798 180.198 C 246.525 179.869,245.942 179.600,245.501 179.600 C 241.246 179.600,227.401 171.131,223.871 166.368 C 219.864 160.964,218.583 147.470,221.822 144.782 C 222.140 144.518,222.400 144.026,222.400 143.689 C 222.400 143.351,222.850 142.486,223.400 141.764 C 223.950 141.043,224.400 140.324,224.400 140.167 C 224.400 139.373,231.310 133.600,232.260 133.600 C 232.412 133.600,232.834 133.331,233.196 133.003 C 236.124 130.354,248.695 128.815,257.455 130.033 M115.200 130.692 C 114.870 130.817,114.468 131.118,114.306 131.360 C 113.767 132.167,113.938 216.578,114.480 217.120 C 115.156 217.796,129.244 217.796,129.920 217.120 C 130.836 216.204,130.589 131.895,129.669 131.062 C 128.934 130.397,116.791 130.086,115.200 130.692 M129.400 174.177 L 129.400 216.944 122.607 216.839 C 118.870 216.782,115.585 216.607,115.305 216.451 C 114.773 216.153,114.495 132.573,115.025 132.041 C 115.222 131.842,126.808 131.288,128.800 131.383 C 129.329 131.408,129.400 136.442,129.400 174.177 M169.335 241.544 C 168.419 241.709,167.429 242.029,167.135 242.255 C 166.841 242.481,165.978 242.913,165.217 243.216 C 163.651 243.839,163.216 244.175,160.214 247.086 C 159.031 248.233,157.947 249.538,157.805 249.986 C 157.662 250.434,157.385 250.800,157.189 250.800 C 156.992 250.800,156.570 251.655,156.252 252.700 C 155.933 253.745,155.366 255.200,154.990 255.934 C 151.878 262.017,157.717 277.608,163.798 279.451 C 164.239 279.585,164.877 279.936,165.215 280.232 C 165.816 280.758,169.210 281.731,172.800 282.407 C 174.713 282.767,179.929 282.491,180.600 281.995 C 180.820 281.832,182.044 281.572,183.320 281.418 C 190.251 280.580,190.800 279.643,190.800 268.654 C 190.800 258.260,191.556 259.200,183.200 259.200 C 175.868 259.200,175.596 259.285,175.606 261.580 C 175.618 264.567,176.161 264.976,180.410 265.200 L 184.200 265.400 184.312 270.065 L 184.425 274.730 183.112 275.119 C 181.785 275.513,178.492 276.196,176.090 276.576 C 175.370 276.691,174.020 276.543,173.090 276.248 C 172.161 275.953,170.648 275.504,169.728 275.249 C 168.204 274.826,165.138 272.262,163.230 269.815 C 158.728 264.040,161.395 252.669,168.208 248.592 C 170.695 247.104,179.601 246.753,181.073 248.085 C 181.489 248.461,182.453 249.049,183.215 249.391 C 183.977 249.732,184.892 250.219,185.248 250.471 C 186.046 251.037,188.612 248.688,189.034 247.006 C 189.996 243.176,178.281 239.928,169.335 241.544 M30.349 242.261 C 29.609 243.153,29.311 279.770,30.037 280.645 C 30.615 281.341,34.841 281.399,35.520 280.720 C 36.171 280.069,36.209 244.719,35.561 242.860 C 35.037 241.357,31.442 240.945,30.349 242.261 M46.889 242.223 L 46.000 242.845 46.000 261.780 C 46.000 282.955,45.729 281.200,49.000 281.200 C 52.240 281.200,52.000 282.337,52.000 266.990 C 52.000 249.852,51.789 250.354,56.221 256.949 C 57.090 258.241,58.070 259.700,58.400 260.191 C 58.730 260.682,59.756 262.235,60.681 263.642 C 61.605 265.049,62.640 266.485,62.981 266.834 C 63.321 267.182,63.600 267.604,63.600 267.772 C 63.600 267.939,64.005 268.641,64.500 269.330 C 64.995 270.019,65.580 270.876,65.800 271.235 C 66.020 271.593,66.740 272.660,67.400 273.607 C 68.883 275.733,69.580 276.751,70.574 278.240 C 72.479 281.095,72.678 281.200,76.190 281.200 C 80.787 281.200,80.402 282.997,80.387 261.620 C 80.373 240.543,80.534 241.600,77.336 241.600 C 74.261 241.600,74.401 240.879,74.394 256.780 C 74.388 269.936,74.144 273.546,73.417 271.252 C 73.268 270.783,72.798 270.213,72.373 269.986 C 71.948 269.758,71.600 269.322,71.600 269.017 C 71.600 268.711,71.195 267.951,70.700 267.328 C 70.205 266.704,69.620 265.904,69.400 265.549 C 69.180 265.195,68.100 263.598,67.000 262.000 C 65.900 260.402,64.820 258.810,64.600 258.462 C 64.380 258.113,63.553 256.922,62.762 255.814 C 61.971 254.706,61.020 253.260,60.649 252.600 C 60.279 251.940,59.666 250.935,59.288 250.367 C 58.910 249.799,57.880 248.191,57.000 246.793 C 53.865 241.813,49.981 240.057,46.889 242.223 M86.832 242.300 C 85.626 243.286,85.280 245.784,86.208 246.809 C 86.848 247.517,87.456 247.601,91.962 247.606 C 98.926 247.615,98.189 245.647,98.265 264.440 C 98.338 282.313,98.138 281.184,101.224 281.194 C 104.560 281.205,104.363 282.226,104.489 264.285 C 104.619 245.679,103.885 247.619,110.800 247.593 C 116.600 247.572,117.203 247.323,117.194 244.956 C 117.181 241.610,117.135 241.600,101.271 241.600 C 88.928 241.600,87.610 241.664,86.832 242.300 M122.896 242.395 C 122.059 243.735,122.189 280.634,123.033 280.957 C 124.159 281.389,147.995 281.231,148.826 280.786 C 149.774 280.279,149.905 277.370,149.033 276.176 C 148.503 275.451,147.821 275.391,138.633 275.269 C 128.860 275.138,128.800 275.132,128.765 274.269 C 128.588 269.932,128.801 265.039,129.184 264.655 C 129.479 264.359,132.472 264.130,137.759 264.000 C 143.817 263.851,146.048 263.661,146.540 263.251 C 147.424 262.516,147.361 260.433,146.419 259.207 L 145.656 258.214 138.528 258.339 C 128.263 258.518,128.521 258.676,128.800 252.341 L 129.000 247.800 138.290 247.693 C 148.844 247.571,148.758 247.600,148.225 244.267 C 147.780 241.484,148.345 241.600,135.247 241.600 C 123.853 241.600,123.373 241.631,122.896 242.395 M201.072 242.100 C 200.444 242.561,200.399 244.105,200.495 261.800 L 200.600 281.000 203.159 281.121 C 206.604 281.283,206.508 281.515,206.428 273.244 C 206.346 264.810,206.463 264.400,208.939 264.400 C 210.772 264.400,212.271 265.527,213.195 267.600 C 213.969 269.336,215.526 272.105,215.870 272.358 C 216.051 272.491,216.516 273.230,216.902 274.000 C 220.464 281.106,220.597 281.233,224.358 281.103 C 228.427 280.961,228.630 280.528,226.250 277.051 C 225.232 275.565,224.400 274.262,224.400 274.155 C 224.400 274.048,223.695 272.900,222.834 271.604 C 221.973 270.308,221.149 268.870,221.003 268.410 C 220.857 267.950,220.428 267.264,220.051 266.886 C 218.273 265.111,218.291 264.092,220.114 263.203 C 224.539 261.047,225.773 259.547,226.804 255.073 C 227.225 253.248,227.239 252.464,226.870 251.444 C 226.612 250.729,226.400 249.778,226.400 249.332 C 226.400 247.010,223.164 243.934,219.278 242.562 C 216.115 241.446,202.436 241.099,201.072 242.100 M246.441 243.014 C 245.759 243.792,245.200 244.757,245.200 245.160 C 245.200 245.563,244.855 246.331,244.433 246.867 C 244.011 247.404,243.542 248.502,243.391 249.307 C 243.240 250.112,242.866 250.979,242.561 251.232 C 242.256 251.486,241.808 252.437,241.566 253.347 C 241.324 254.256,240.889 255.270,240.600 255.600 C 240.311 255.930,239.875 256.920,239.631 257.800 C 239.387 258.680,238.920 259.749,238.594 260.176 C 238.267 260.604,238.000 261.254,238.000 261.623 C 238.000 261.991,237.640 262.750,237.200 263.309 C 236.760 263.869,236.399 264.658,236.398 265.063 C 236.397 265.468,235.952 266.520,235.410 267.400 C 234.868 268.280,234.419 269.252,234.412 269.560 C 234.401 270.066,232.809 273.704,231.945 275.200 C 231.754 275.530,231.422 276.250,231.207 276.800 C 230.992 277.350,230.529 278.333,230.178 278.984 C 229.285 280.644,230.143 281.200,233.596 281.200 C 236.300 281.200,237.200 280.793,237.200 279.569 C 237.200 279.200,237.451 278.690,237.758 278.435 C 238.065 278.180,238.438 277.324,238.586 276.534 C 239.123 273.669,240.660 271.872,242.335 272.149 C 243.141 272.282,246.892 272.393,250.671 272.396 C 258.146 272.400,258.534 272.508,259.046 274.728 C 259.183 275.318,259.612 276.520,260.002 277.400 C 260.391 278.280,260.906 279.495,261.146 280.100 C 261.587 281.210,265.715 281.745,267.767 280.957 C 268.433 280.702,268.666 278.800,268.031 278.800 C 267.828 278.800,267.448 278.125,267.186 277.300 C 266.925 276.475,266.488 275.440,266.216 275.000 C 265.944 274.560,265.487 273.480,265.200 272.600 C 264.913 271.720,264.454 270.640,264.179 270.200 C 263.904 269.760,263.559 268.827,263.414 268.128 C 263.268 267.428,262.889 266.639,262.571 266.376 C 262.253 266.112,261.882 265.203,261.747 264.356 C 261.611 263.508,261.254 262.611,260.953 262.361 C 260.652 262.111,260.208 261.163,259.966 260.253 C 259.724 259.344,259.300 258.330,259.024 258.000 C 258.748 257.670,258.291 256.545,258.009 255.500 C 257.727 254.455,257.361 253.600,257.196 253.600 C 257.030 253.600,256.697 252.815,256.456 251.856 C 256.214 250.897,255.748 249.889,255.419 249.616 C 255.090 249.343,254.704 248.463,254.560 247.660 C 254.416 246.857,254.081 245.930,253.815 245.600 C 253.549 245.270,253.094 244.400,252.803 243.666 C 251.804 241.143,248.391 240.793,246.441 243.014 M265.213 242.184 C 264.503 243.040,264.239 245.751,264.769 246.742 C 265.206 247.559,265.508 247.600,271.014 247.600 L 276.800 247.600 276.800 263.920 C 276.800 282.309,276.591 281.200,280.056 281.200 C 283.074 281.200,282.858 282.446,282.824 265.295 C 282.808 256.993,282.944 249.660,283.126 249.000 L 283.457 247.800 289.001 247.688 C 292.256 247.623,294.764 247.396,295.073 247.139 C 295.892 246.459,295.750 243.059,294.869 242.262 C 293.827 241.320,265.991 241.247,265.213 242.184 M301.944 242.364 L 301.000 243.129 300.889 261.691 L 300.777 280.253 301.689 280.736 C 302.358 281.091,305.896 281.190,315.000 281.109 L 327.400 281.000 327.522 278.642 C 327.694 275.310,328.041 275.427,317.281 275.200 L 307.800 275.000 307.687 270.297 C 307.525 263.513,306.852 264.000,316.386 264.000 C 325.371 264.000,325.600 263.930,325.600 261.171 C 325.600 258.222,325.243 258.111,316.452 258.322 C 307.093 258.546,307.631 258.883,307.613 252.780 C 307.596 247.208,306.853 247.600,317.431 247.600 C 327.494 247.600,327.323 247.654,327.123 244.541 C 326.936 241.628,326.868 241.613,313.944 241.606 C 303.651 241.600,302.823 241.653,301.944 242.364 M335.600 242.118 L 334.600 242.623 334.496 261.496 C 334.393 280.216,334.399 280.371,335.219 280.810 C 336.701 281.603,354.373 281.161,355.589 280.300 C 356.133 279.915,356.979 279.600,357.468 279.600 C 357.958 279.600,358.844 279.150,359.438 278.600 C 360.031 278.050,360.746 277.600,361.025 277.600 C 361.305 277.600,361.593 277.462,361.667 277.293 C 361.740 277.124,362.308 276.592,362.930 276.112 C 367.036 272.937,368.601 268.925,368.593 261.600 L 368.587 255.400 367.251 252.700 C 366.517 251.215,365.755 250.000,365.558 250.000 C 365.361 250.000,365.200 249.745,365.200 249.434 C 365.200 247.986,358.644 243.200,356.660 243.200 C 356.392 243.200,355.148 242.840,353.896 242.400 C 351.107 241.420,337.398 241.208,335.600 242.118 M182.800 242.982 C 183.130 243.270,183.850 243.635,184.400 243.793 C 185.518 244.114,188.400 245.968,188.400 246.365 C 188.400 246.506,187.842 247.269,187.161 248.061 C 185.814 249.624,185.066 249.547,182.505 247.580 C 182.012 247.202,180.801 246.771,179.814 246.623 C 178.827 246.475,177.914 246.184,177.786 245.977 C 177.493 245.503,172.923 245.477,172.632 245.947 C 172.514 246.139,171.655 246.417,170.722 246.566 C 168.768 246.878,165.455 248.965,164.000 250.800 C 163.450 251.493,162.685 252.435,162.300 252.892 C 161.915 253.349,161.600 253.959,161.600 254.249 C 161.600 254.538,161.201 255.541,160.713 256.476 C 159.606 258.601,159.463 264.521,160.482 266.076 C 160.819 266.591,161.220 267.579,161.372 268.273 C 161.524 268.967,161.993 269.954,162.414 270.467 C 164.358 272.840,165.819 274.400,166.097 274.400 C 166.263 274.400,166.760 274.760,167.200 275.200 C 167.640 275.640,168.271 276.000,168.601 276.000 C 168.932 276.000,169.875 276.360,170.696 276.800 C 172.522 277.779,179.124 277.948,180.827 277.059 C 181.391 276.765,182.380 276.391,183.024 276.230 C 185.123 275.703,185.200 275.482,185.200 270.000 C 185.200 263.774,185.262 263.855,180.350 263.661 L 176.821 263.521 176.561 262.131 C 176.417 261.366,176.471 260.569,176.680 260.360 C 177.126 259.914,189.602 260.049,189.601 260.500 C 189.600 260.665,189.600 264.753,189.600 269.585 L 189.600 278.369 188.100 278.775 C 187.275 278.998,186.199 279.462,185.708 279.807 C 183.432 281.407,168.611 281.253,166.519 279.608 C 165.954 279.163,165.151 278.800,164.734 278.800 C 164.316 278.800,163.880 278.553,163.764 278.250 C 163.648 277.948,162.934 277.367,162.177 276.959 C 161.419 276.552,160.800 276.085,160.800 275.923 C 160.800 275.761,160.260 275.013,159.600 274.261 C 158.940 273.509,158.400 272.668,158.400 272.391 C 158.400 272.115,158.115 271.680,157.767 271.426 C 157.420 271.171,156.891 269.891,156.593 268.582 C 156.295 267.272,155.844 265.390,155.590 264.400 C 155.051 262.290,155.354 258.287,156.208 256.242 C 156.534 255.463,156.800 254.441,156.800 253.971 C 156.800 253.500,157.250 252.581,157.800 251.927 C 158.350 251.273,158.800 250.514,158.800 250.240 C 158.800 249.598,162.735 245.674,163.680 245.375 C 164.076 245.249,164.400 245.007,164.400 244.836 C 164.400 244.666,165.165 244.300,166.100 244.024 C 167.035 243.747,168.070 243.281,168.401 242.988 C 169.608 241.918,181.574 241.913,182.800 242.982 M34.571 243.429 C 35.124 243.982,35.200 246.238,35.200 262.183 L 35.200 280.309 34.100 280.465 C 33.495 280.550,32.497 280.526,31.882 280.410 L 30.765 280.200 30.790 262.113 C 30.804 252.165,30.921 243.750,31.050 243.413 C 31.363 242.598,33.752 242.609,34.571 243.429 M53.480 244.001 C 54.096 244.592,55.208 246.093,55.951 247.338 C 56.694 248.582,57.447 249.600,57.624 249.600 C 57.801 249.600,58.073 250.005,58.228 250.500 C 58.383 250.995,58.935 251.909,59.455 252.531 C 59.975 253.153,60.400 253.898,60.400 254.188 C 60.400 254.477,60.670 254.818,61.000 254.945 C 61.330 255.071,61.600 255.417,61.600 255.712 C 61.600 256.007,61.941 256.615,62.357 257.062 C 62.774 257.509,63.409 258.443,63.768 259.138 C 64.127 259.832,64.596 260.400,64.810 260.400 C 65.025 260.400,65.200 260.645,65.200 260.945 C 65.200 261.434,66.651 263.577,68.092 265.217 C 68.390 265.557,68.873 266.412,69.166 267.117 C 69.458 267.823,69.826 268.400,69.984 268.400 C 70.142 268.400,70.492 268.883,70.761 269.474 C 71.369 270.809,73.554 273.600,73.991 273.600 C 74.831 273.600,75.014 271.186,75.200 257.600 L 75.400 243.000 77.138 243.037 C 79.654 243.091,79.587 242.568,79.594 262.300 L 79.600 280.400 78.600 280.427 C 73.056 280.575,73.390 280.748,70.476 276.200 C 68.461 273.055,68.255 272.756,67.300 271.587 C 66.805 270.980,66.400 270.319,66.400 270.118 C 66.400 269.916,65.995 269.318,65.500 268.790 C 64.525 267.749,64.268 267.360,62.892 264.854 C 62.392 263.944,61.829 263.200,61.640 263.200 C 61.452 263.200,61.073 262.660,60.800 262.000 C 60.527 261.340,60.147 260.800,59.957 260.800 C 59.766 260.800,59.366 260.215,59.067 259.500 C 58.768 258.785,58.226 257.953,57.862 257.651 C 57.498 257.349,57.200 256.876,57.200 256.600 C 57.200 256.324,56.920 255.865,56.577 255.581 C 56.234 255.296,55.703 254.464,55.397 253.732 C 55.091 252.999,54.647 252.400,54.411 252.400 C 54.174 252.400,53.804 251.938,53.589 251.372 C 53.303 250.618,52.959 250.379,52.299 250.472 L 51.400 250.600 51.295 265.474 L 51.190 280.348 50.095 280.474 C 49.493 280.543,48.505 280.535,47.900 280.455 L 46.800 280.309 46.806 262.455 C 46.809 252.635,46.944 244.405,47.106 244.166 C 48.222 242.518,51.837 242.424,53.480 244.001 M115.295 243.783 C 115.491 244.134,115.595 244.911,115.526 245.510 L 115.400 246.600 109.800 246.800 C 106.720 246.910,103.975 247.146,103.700 247.324 C 103.313 247.574,103.200 251.360,103.200 264.016 L 103.200 280.385 102.229 280.628 C 99.466 281.322,99.600 282.167,99.600 263.997 C 99.600 251.356,99.487 247.574,99.100 247.324 C 98.825 247.146,96.080 246.910,93.000 246.800 L 87.400 246.600 87.275 245.520 C 86.974 242.912,86.507 242.992,101.429 243.073 C 113.323 243.137,114.981 243.222,115.295 243.783 M147.286 244.481 C 147.803 246.862,148.055 246.800,137.827 246.800 C 128.944 246.800,128.405 246.842,128.014 247.574 C 127.345 248.824,127.490 257.028,128.206 258.412 L 128.812 259.584 137.106 259.692 L 145.400 259.800 145.524 261.300 L 145.648 262.800 137.501 262.800 C 127.141 262.800,127.841 262.358,127.667 269.003 C 127.579 272.339,127.698 274.471,128.015 275.237 L 128.497 276.400 137.803 276.400 L 147.108 276.400 147.754 277.386 C 148.109 277.928,148.400 278.823,148.400 279.374 L 148.400 280.376 136.900 280.488 C 130.575 280.550,124.905 280.543,124.300 280.473 L 123.200 280.347 123.200 262.053 C 123.200 251.042,123.351 243.609,123.580 243.380 C 123.806 243.154,128.621 243.033,135.480 243.081 L 147.000 243.161 147.286 244.481 M218.667 243.546 C 227.530 245.443,228.522 257.770,220.152 261.986 C 216.926 263.611,216.623 263.941,217.485 264.894 C 218.181 265.663,218.765 266.613,219.884 268.800 C 220.278 269.570,220.825 270.344,221.100 270.520 C 221.375 270.696,221.600 271.069,221.600 271.350 C 221.600 271.922,226.188 279.022,226.804 279.402 C 228.098 280.202,225.367 280.964,222.722 280.541 C 221.476 280.342,221.158 280.085,220.794 278.983 C 220.555 278.258,220.098 277.448,219.780 277.183 C 219.461 276.918,219.200 276.398,219.200 276.026 C 219.200 275.655,218.850 274.975,218.422 274.516 C 217.995 274.057,217.358 273.078,217.008 272.341 C 216.658 271.603,215.929 270.280,215.389 269.400 C 214.848 268.520,214.125 267.198,213.782 266.463 C 212.685 264.112,211.305 263.227,208.714 263.213 C 205.609 263.195,205.600 263.221,205.600 272.528 L 205.600 280.309 203.801 280.579 C 202.812 280.727,201.822 280.737,201.601 280.601 C 201.177 280.339,201.018 245.319,201.434 243.770 C 201.708 242.751,214.194 242.588,218.667 243.546 M250.605 243.275 C 251.596 243.727,252.670 245.595,254.011 249.200 C 254.297 249.970,254.772 250.884,255.066 251.231 C 255.360 251.579,255.602 252.119,255.604 252.431 C 255.606 252.744,256.050 253.900,256.591 255.000 C 257.132 256.100,257.581 257.293,257.587 257.651 C 257.594 258.009,257.869 258.525,258.197 258.798 C 258.526 259.070,258.992 260.037,259.234 260.947 C 259.476 261.856,259.912 262.870,260.203 263.200 C 260.494 263.530,260.859 264.484,261.014 265.320 C 261.169 266.155,261.540 267.083,261.837 267.380 C 262.135 267.678,262.547 268.672,262.753 269.589 C 262.959 270.507,263.394 271.559,263.719 271.929 C 264.045 272.298,264.441 273.230,264.600 274.000 C 264.759 274.770,265.125 275.670,265.414 276.000 C 266.070 276.751,267.240 280.094,266.948 280.384 C 266.828 280.503,265.735 280.576,264.518 280.546 C 262.159 280.489,261.617 280.095,261.606 278.431 C 261.603 277.899,261.321 277.155,260.981 276.778 C 260.640 276.402,260.145 275.227,259.881 274.167 C 259.099 271.032,258.527 270.857,248.806 270.775 L 240.612 270.706 239.352 272.348 C 238.658 273.251,237.965 274.667,237.812 275.495 C 237.658 276.323,237.294 277.270,237.003 277.600 C 236.711 277.930,236.412 278.643,236.336 279.184 C 236.186 280.266,233.862 281.047,232.100 280.609 C 230.962 280.326,230.969 279.755,232.133 277.560 C 232.647 276.592,233.198 275.274,233.358 274.632 C 233.518 273.989,233.998 273.020,234.425 272.478 C 234.851 271.936,235.200 271.079,235.200 270.575 C 235.200 270.070,235.446 269.411,235.747 269.110 C 236.048 268.809,236.430 268.121,236.595 267.581 C 236.962 266.383,238.569 262.704,239.557 260.800 C 239.956 260.030,240.408 258.883,240.561 258.252 C 240.714 257.620,241.094 256.849,241.404 256.539 C 241.715 256.228,242.094 255.305,242.247 254.487 C 242.400 253.669,242.747 252.820,243.018 252.600 C 243.290 252.380,243.735 251.480,244.008 250.600 C 244.281 249.720,244.658 248.804,244.847 248.565 C 245.035 248.326,245.447 247.399,245.763 246.505 C 246.897 243.291,248.416 242.278,250.605 243.275 M294.459 243.665 C 294.651 243.959,294.762 244.740,294.704 245.400 L 294.600 246.600 288.625 246.800 L 282.649 247.000 282.299 248.354 C 282.107 249.099,282.006 256.595,282.075 265.014 L 282.200 280.319 280.509 280.551 C 277.381 280.979,277.600 282.238,277.600 263.800 C 277.600 249.110,277.530 247.259,276.967 247.043 C 276.619 246.909,273.919 246.800,270.967 246.800 L 265.600 246.800 265.600 245.033 C 265.600 244.062,265.780 243.207,266.000 243.133 C 267.373 242.675,294.139 243.175,294.459 243.665 M325.477 243.838 C 327.411 246.483,326.439 246.797,316.267 246.813 C 305.549 246.829,306.246 246.410,306.289 252.807 C 306.315 256.531,306.469 257.846,306.970 258.611 L 307.618 259.600 315.533 259.600 C 324.119 259.600,324.996 259.793,324.738 261.622 L 324.600 262.600 316.113 262.800 C 308.897 262.970,307.527 263.100,306.960 263.668 C 305.990 264.639,305.983 273.904,306.951 275.382 L 307.609 276.386 317.104 276.493 L 326.600 276.600 326.830 278.320 C 327.133 280.592,328.011 280.440,314.504 280.456 L 302.600 280.471 302.489 262.535 C 302.428 252.671,302.465 244.240,302.571 243.800 C 302.856 242.626,324.617 242.661,325.477 243.838 M354.560 243.771 C 356.298 244.108,358.008 244.637,358.360 244.945 C 358.712 245.253,359.398 245.627,359.885 245.775 C 361.181 246.169,365.484 251.036,366.042 252.738 C 366.306 253.542,366.791 254.615,367.121 255.123 C 368.173 256.739,368.008 266.100,366.886 268.478 C 366.399 269.511,366.000 270.471,366.000 270.611 C 366.000 272.333,358.441 278.776,356.400 278.794 C 355.850 278.799,354.803 279.167,354.074 279.612 C 352.810 280.382,336.819 280.953,336.119 280.252 C 335.771 279.905,336.024 244.302,336.379 243.639 C 336.845 242.767,349.871 242.862,354.560 243.771 M206.080 247.280 C 205.114 248.246,205.439 259.086,206.450 259.627 C 208.286 260.610,216.355 259.914,218.493 258.588 C 222.062 256.375,222.302 250.451,218.926 247.900 C 217.286 246.660,207.187 246.173,206.080 247.280 M340.080 247.280 C 339.142 248.218,339.420 275.476,340.374 275.986 C 342.180 276.953,353.448 276.200,354.795 275.023 C 355.128 274.733,355.760 274.384,356.200 274.249 C 357.365 273.890,361.072 270.352,361.386 269.300 C 361.533 268.805,361.793 268.400,361.963 268.400 C 363.234 268.400,363.782 258.041,362.618 256.000 C 362.305 255.450,361.786 254.460,361.466 253.800 C 360.940 252.717,359.760 251.376,357.724 249.551 C 357.326 249.194,356.550 248.763,356.000 248.595 C 355.450 248.426,354.373 247.953,353.606 247.544 C 351.905 246.636,340.938 246.422,340.080 247.280 M217.927 248.694 C 219.118 249.466,219.729 250.202,220.005 251.194 C 221.430 256.325,218.802 258.723,211.332 259.104 L 207.223 259.314 206.812 258.231 C 206.276 256.822,206.278 249.375,206.814 248.374 C 207.549 247.001,215.678 247.236,217.927 248.694 M353.750 248.833 C 356.730 249.868,360.027 252.552,360.588 254.400 C 360.755 254.950,361.231 255.961,361.646 256.647 C 364.427 261.245,360.437 272.351,355.605 273.464 C 355.052 273.591,354.150 273.989,353.600 274.348 C 352.792 274.875,351.487 275.000,346.800 275.000 L 341.000 275.000 340.894 262.084 C 340.824 253.405,340.931 248.903,341.221 248.361 C 341.866 247.156,349.779 247.454,353.750 248.833 M247.728 250.880 C 247.506 251.166,247.094 252.252,246.812 253.292 C 246.531 254.333,246.053 255.390,245.750 255.641 C 245.448 255.892,245.194 256.481,245.187 256.949 C 245.181 257.417,244.732 258.700,244.191 259.800 C 243.650 260.900,243.206 262.091,243.204 262.446 C 243.202 262.801,242.840 263.550,242.400 264.109 C 241.485 265.272,241.392 266.032,242.080 266.720 C 242.839 267.479,255.348 267.386,255.986 266.616 C 256.558 265.928,256.207 263.870,255.406 263.205 C 255.107 262.957,254.742 262.041,254.595 261.169 C 254.447 260.297,254.104 259.361,253.831 259.088 C 253.558 258.815,253.202 258.054,253.040 257.396 C 252.877 256.738,252.419 255.480,252.022 254.600 C 251.624 253.720,251.138 252.460,250.942 251.800 C 250.547 250.470,248.501 249.884,247.728 250.880 M251.440 256.206 C 251.968 257.309,252.400 258.502,252.400 258.857 C 252.400 259.212,252.651 259.710,252.958 259.965 C 253.265 260.220,253.625 261.010,253.759 261.722 C 253.892 262.433,254.351 263.667,254.778 264.463 C 255.205 265.260,255.445 266.022,255.311 266.156 C 255.009 266.458,244.280 266.482,243.500 266.183 C 242.892 265.950,243.816 262.498,244.980 260.656 C 245.278 260.185,245.641 259.227,245.786 258.528 C 245.932 257.828,246.310 257.041,246.626 256.779 C 246.942 256.517,247.201 256.099,247.202 255.851 C 247.216 253.013,249.515 250.778,250.140 252.995 C 250.326 253.658,250.911 255.103,251.440 256.206 M61.942 296.222 C 60.637 296.696,58.400 298.487,58.400 299.058 C 58.400 299.179,58.101 299.909,57.735 300.680 C 56.078 304.173,59.867 308.899,65.024 309.770 C 69.332 310.498,70.120 315.652,66.080 316.666 C 64.365 317.096,61.470 316.452,60.521 315.428 C 59.575 314.408,58.120 314.423,57.723 315.456 C 57.324 316.497,58.020 318.026,59.111 318.505 C 59.710 318.769,60.294 319.111,60.408 319.267 C 61.309 320.493,66.167 320.783,67.651 319.700 C 68.178 319.315,68.958 318.806,69.385 318.569 C 73.503 316.280,72.243 308.523,67.538 307.201 C 62.306 305.730,60.465 304.113,60.968 301.432 C 61.438 298.923,65.480 297.847,67.743 299.627 C 69.226 300.793,70.960 300.546,71.122 299.146 C 71.257 297.983,69.670 296.400,68.370 296.400 C 67.972 296.400,67.536 296.220,67.400 296.000 C 67.058 295.446,63.705 295.583,61.942 296.222 M192.316 295.817 C 192.163 295.971,191.208 296.251,190.195 296.440 C 180.978 298.162,179.453 316.496,188.347 318.665 C 188.926 318.806,189.829 319.255,190.354 319.661 C 192.938 321.663,202.270 319.649,202.853 316.964 C 203.282 314.984,203.223 308.986,202.761 307.660 L 202.322 306.400 198.952 306.400 C 195.757 306.400,195.560 306.451,195.133 307.388 C 194.526 308.719,195.277 309.600,197.016 309.600 C 199.421 309.600,199.600 309.821,199.600 312.794 C 199.600 316.160,199.280 316.464,195.486 316.705 C 191.224 316.976,186.800 315.146,186.800 313.111 C 186.800 312.865,186.498 312.329,186.129 311.922 C 183.978 309.544,185.854 302.518,189.273 300.150 C 191.535 298.583,196.939 298.440,198.500 299.906 C 200.819 302.085,203.787 300.457,201.603 298.203 C 199.959 296.507,193.330 294.804,192.316 295.817 M228.228 295.955 C 228.107 296.150,227.402 296.423,226.659 296.562 C 224.647 296.940,222.370 300.070,222.424 302.385 C 222.499 305.607,226.208 309.051,230.374 309.767 C 232.152 310.072,233.943 311.617,234.240 313.100 C 234.874 316.268,228.493 318.096,225.739 315.535 C 224.361 314.253,223.000 314.682,223.000 316.397 C 223.000 317.817,223.813 318.525,227.126 319.991 C 228.719 320.695,231.780 320.488,232.909 319.600 C 233.469 319.160,234.089 318.800,234.288 318.800 C 235.259 318.800,236.901 316.375,237.095 314.655 C 237.559 310.536,235.994 308.127,232.120 306.996 C 230.977 306.663,229.931 306.212,229.797 305.995 C 229.663 305.778,229.195 305.600,228.758 305.600 C 227.523 305.600,226.000 303.826,226.000 302.387 C 226.000 299.388,230.389 297.617,232.909 299.600 C 235.297 301.478,237.922 299.496,235.700 297.493 C 234.151 296.097,228.819 294.999,228.228 295.955 M268.600 296.000 C 268.464 296.220,267.894 296.400,267.332 296.400 C 266.654 296.400,265.723 296.997,264.556 298.181 C 260.380 302.417,263.512 308.367,270.671 309.797 C 272.158 310.094,273.896 311.690,274.084 312.931 C 274.629 316.532,270.614 317.922,266.268 315.636 C 263.680 314.275,262.632 314.575,262.866 316.613 C 263.082 318.501,266.985 320.452,270.200 320.278 C 276.359 319.946,279.867 313.694,276.276 309.449 C 275.034 307.981,272.847 306.883,268.564 305.575 C 266.565 304.965,265.854 302.617,266.997 300.405 C 268.008 298.451,271.880 298.268,273.862 300.080 C 275.030 301.147,276.400 300.475,276.400 298.835 C 276.400 296.746,269.654 294.294,268.600 296.000 M359.800 296.000 C 359.664 296.220,359.210 296.400,358.790 296.400 C 357.479 296.400,355.443 298.561,354.846 300.586 C 353.612 304.772,356.747 308.698,362.200 309.797 C 364.553 310.271,365.803 311.979,365.644 314.506 C 365.494 316.909,359.035 317.569,357.410 315.346 C 356.807 314.521,355.049 314.788,354.869 315.732 C 354.610 317.087,355.188 318.317,356.298 318.772 C 356.904 319.021,357.850 319.487,358.400 319.807 C 361.211 321.442,367.028 319.466,368.290 316.447 C 370.060 312.210,368.174 308.312,363.707 306.974 C 362.556 306.630,361.511 306.179,361.384 305.974 C 361.257 305.768,360.819 305.600,360.412 305.600 C 358.813 305.600,357.000 302.262,357.906 300.986 C 359.434 298.835,362.447 298.222,364.710 299.601 C 366.180 300.498,367.976 300.659,368.046 299.900 C 368.237 297.828,367.608 296.913,365.755 296.565 C 365.005 296.424,364.293 296.150,364.172 295.955 C 363.870 295.467,360.106 295.506,359.800 296.000 M30.014 297.174 C 29.285 298.536,29.470 317.636,30.223 318.711 C 30.817 319.560,31.107 319.600,36.591 319.600 L 42.336 319.600 42.598 318.410 C 43.006 316.552,42.674 316.400,38.209 316.400 C 32.236 316.400,32.800 317.387,32.800 306.931 C 32.800 297.662,32.608 296.400,31.200 296.400 C 30.775 296.400,30.242 296.748,30.014 297.174 M48.080 296.880 C 47.137 297.823,47.427 317.707,48.400 318.856 L 49.200 319.800 50.000 318.856 C 51.219 317.416,51.243 297.465,50.026 296.814 C 49.029 296.280,48.668 296.292,48.080 296.880 M75.852 297.143 C 74.769 298.339,75.959 298.965,79.759 299.200 L 83.000 299.400 83.200 309.081 C 83.412 319.342,83.639 320.532,85.103 319.069 C 85.719 318.453,85.811 317.316,85.892 309.294 C 86.004 298.286,85.696 299.200,89.298 299.200 C 92.918 299.200,94.494 298.409,93.363 297.160 C 92.323 296.009,76.891 295.995,75.852 297.143 M99.029 297.029 C 97.929 298.128,98.106 317.118,99.229 318.546 L 100.058 319.600 106.200 319.600 C 112.696 319.600,113.600 319.357,113.600 317.614 C 113.600 316.541,112.857 316.400,107.210 316.400 C 101.337 316.400,101.600 316.578,101.600 312.616 C 101.600 309.341,101.746 309.250,107.224 309.114 L 111.800 309.000 111.800 307.600 L 111.800 306.200 107.224 306.086 C 101.600 305.946,101.534 305.900,101.684 302.238 L 101.800 299.400 107.041 299.200 C 112.987 298.973,114.440 298.447,112.797 297.117 C 111.553 296.110,100.022 296.036,99.029 297.029 M119.680 296.880 C 118.996 297.564,118.996 318.036,119.680 318.720 C 121.975 321.015,122.800 318.827,122.800 310.450 C 122.800 303.821,123.225 301.076,123.926 303.179 C 124.022 303.466,124.438 304.038,124.850 304.450 C 125.263 304.863,125.600 305.294,125.600 305.410 C 125.600 305.724,128.234 309.491,128.964 310.221 C 129.314 310.571,129.600 311.043,129.600 311.271 C 129.600 311.649,130.795 313.306,132.147 314.800 C 132.445 315.130,132.924 315.848,133.210 316.396 C 134.087 318.073,135.874 319.600,136.959 319.600 C 138.960 319.600,139.200 318.302,139.200 307.496 C 139.200 296.574,139.055 295.875,136.939 296.618 L 135.800 297.019 135.691 304.379 C 135.588 311.287,135.354 312.800,134.390 312.800 C 134.219 312.800,133.884 312.305,133.647 311.700 C 133.410 311.095,132.305 309.340,131.191 307.800 C 129.232 305.091,127.426 302.525,126.600 301.275 C 126.380 300.942,125.885 300.339,125.500 299.935 C 125.115 299.531,124.800 299.063,124.800 298.896 C 124.800 297.218,120.884 295.676,119.680 296.880 M147.300 296.812 L 146.400 297.174 146.400 307.797 L 146.400 318.420 147.488 318.833 C 149.477 319.590,149.600 318.938,149.600 307.604 C 149.600 296.162,149.546 295.910,147.300 296.812 M157.446 296.917 C 156.367 297.706,156.370 317.896,157.449 318.685 C 159.821 320.420,160.168 319.445,160.400 310.400 C 160.578 303.476,161.057 300.579,161.528 303.584 C 161.598 304.033,161.818 304.400,162.018 304.400 C 162.217 304.400,162.650 304.923,162.980 305.562 C 163.311 306.201,163.811 306.974,164.091 307.279 C 164.590 307.823,164.839 308.185,166.374 310.600 C 167.186 311.877,167.756 312.646,169.383 314.658 C 169.942 315.350,170.400 316.085,170.400 316.291 C 170.400 317.104,173.359 319.600,174.323 319.600 C 176.269 319.600,176.374 318.999,176.387 307.749 C 176.401 296.099,176.292 295.584,174.062 296.834 L 173.000 297.430 172.891 304.875 C 172.773 312.999,172.452 314.043,170.860 311.477 C 170.424 310.775,168.876 308.490,167.420 306.400 C 165.964 304.310,164.468 302.150,164.096 301.600 C 163.724 301.050,163.190 300.456,162.910 300.280 C 162.629 300.104,162.400 299.718,162.400 299.422 C 162.400 297.519,158.985 295.792,157.446 296.917 M241.048 297.009 C 240.399 297.658,241.226 299.660,242.621 300.817 C 242.939 301.082,243.200 301.484,243.200 301.711 C 243.200 301.939,243.650 302.714,244.200 303.436 C 244.750 304.157,245.200 304.911,245.200 305.111 C 245.200 305.312,245.560 305.802,246.000 306.200 C 246.440 306.598,246.800 307.142,246.800 307.408 C 246.800 307.674,247.160 308.350,247.600 308.909 C 248.284 309.779,248.400 310.532,248.400 314.101 C 248.400 317.645,248.511 318.377,249.135 318.941 C 250.551 320.223,251.200 318.746,251.200 314.242 C 251.200 309.977,251.171 310.061,254.260 305.304 C 255.437 303.491,256.400 301.835,256.400 301.623 C 256.400 301.412,256.633 301.096,256.919 300.920 C 258.156 300.156,259.200 297.657,258.552 297.009 C 257.165 295.622,255.467 297.154,251.689 303.200 C 249.931 306.013,250.130 305.915,248.913 304.583 C 248.301 303.914,247.563 302.924,247.273 302.383 C 245.935 299.885,245.301 298.840,244.772 298.257 C 244.457 297.911,243.968 297.352,243.684 297.014 C 243.025 296.230,241.829 296.228,241.048 297.009 M280.815 297.172 C 280.071 298.563,281.262 299.200,284.605 299.200 C 288.392 299.200,288.165 298.590,288.400 309.391 L 288.600 318.582 289.702 318.969 C 291.694 319.668,291.789 319.233,291.920 308.797 L 292.040 299.232 295.278 299.116 C 298.805 298.990,299.912 298.340,298.828 297.034 C 297.943 295.967,281.391 296.095,280.815 297.172 M304.014 297.174 C 303.285 298.536,303.470 317.636,304.223 318.711 C 304.823 319.568,305.081 319.600,311.384 319.600 L 317.922 319.600 318.325 318.444 C 318.958 316.627,318.383 316.400,313.153 316.400 C 306.959 316.400,307.200 316.539,307.200 312.971 C 307.200 309.321,307.371 309.200,312.541 309.200 C 317.116 309.200,317.600 309.047,317.600 307.600 C 317.600 306.153,317.116 306.000,312.541 306.000 C 307.421 306.000,307.200 305.852,307.200 302.429 C 307.200 299.087,306.990 299.200,313.213 299.200 C 318.309 299.200,319.263 298.812,318.352 297.110 C 317.745 295.977,304.624 296.035,304.014 297.174 M325.214 297.174 C 324.347 298.795,324.684 317.775,325.600 318.856 C 327.204 320.750,327.599 319.206,327.606 311.024 C 327.609 307.051,327.787 303.530,328.000 303.200 C 328.319 302.706,328.389 302.745,328.394 303.422 C 328.397 303.875,328.850 304.855,329.400 305.600 C 329.950 306.345,330.400 307.298,330.400 307.716 C 330.400 308.134,330.748 308.965,331.173 309.563 C 331.599 310.160,332.074 311.178,332.229 311.824 C 332.384 312.471,332.710 313.248,332.955 313.551 C 333.200 313.854,333.670 314.918,334.000 315.915 C 334.348 316.968,335.075 318.079,335.733 318.564 L 336.866 319.400 337.633 318.456 C 338.055 317.936,338.400 317.193,338.400 316.805 C 338.400 316.416,338.669 315.875,338.997 315.602 C 339.326 315.330,339.790 314.381,340.029 313.493 C 340.268 312.606,340.694 311.649,340.976 311.367 C 341.258 311.085,341.602 310.145,341.741 309.279 C 341.880 308.413,342.253 307.488,342.571 307.224 C 342.889 306.961,343.271 306.172,343.421 305.472 C 344.261 301.554,344.786 303.796,344.807 311.400 C 344.829 319.348,345.049 320.049,347.129 318.785 L 348.400 318.012 348.400 307.620 C 348.400 297.755,348.361 297.207,347.626 296.814 C 345.680 295.772,343.443 296.776,342.980 298.900 C 342.823 299.615,342.359 300.629,341.948 301.154 C 341.537 301.679,341.200 302.435,341.200 302.835 C 341.200 303.761,340.371 305.600,339.954 305.600 C 339.779 305.600,339.512 306.275,339.360 307.100 C 339.208 307.925,338.750 309.029,338.342 309.554 C 337.934 310.079,337.597 310.889,337.594 311.354 C 337.576 313.814,335.719 312.999,334.779 310.119 C 334.506 309.284,333.949 307.973,333.541 307.206 C 333.134 306.439,332.800 305.518,332.800 305.160 C 332.800 304.801,332.440 304.050,332.000 303.491 C 331.560 302.931,331.200 302.266,331.200 302.012 C 331.200 301.320,329.131 297.044,328.633 296.706 C 327.735 296.097,325.637 296.384,325.214 297.174 M49.600 307.600 C 49.600 313.250,49.440 317.651,49.231 317.781 C 48.891 317.991,48.393 298.233,48.720 297.493 C 49.345 296.077,49.600 299.002,49.600 307.600 M64.353 297.562 C 64.741 297.808,64.324 298.037,62.958 298.328 C 60.815 298.785,60.589 298.728,60.938 297.817 C 61.198 297.139,63.422 296.973,64.353 297.562 M69.119 297.541 C 70.247 298.257,68.698 298.791,66.853 298.322 C 65.670 298.022,65.302 297.782,65.668 297.549 C 66.349 297.118,68.444 297.113,69.119 297.541 M92.300 297.900 C 92.424 298.270,91.689 298.400,89.466 298.400 C 84.815 298.400,85.200 297.533,85.200 308.010 C 85.200 313.029,85.091 317.418,84.958 317.765 C 84.264 319.572,84.000 317.058,84.000 308.656 C 84.000 297.821,84.229 298.400,79.944 298.400 C 77.094 298.400,75.678 297.964,76.898 297.461 C 78.037 296.992,92.132 297.393,92.300 297.900 M111.701 297.800 C 111.762 298.047,109.847 298.243,106.708 298.312 C 100.579 298.447,100.576 298.449,100.979 303.151 C 101.306 306.966,101.306 308.233,100.978 312.074 C 100.775 314.443,100.856 315.429,101.328 316.376 C 101.984 317.691,100.899 319.132,100.157 317.931 C 99.849 317.432,99.675 297.658,99.977 297.356 C 100.348 296.985,111.605 297.411,111.701 297.800 M123.364 298.431 C 123.934 299.108,124.400 299.909,124.400 300.211 C 124.400 300.513,124.644 300.904,124.942 301.080 C 125.610 301.475,126.543 303.190,126.250 303.484 C 125.815 303.918,124.800 303.202,124.800 302.461 C 124.800 301.965,124.345 301.528,123.500 301.215 C 121.361 300.423,121.064 300.193,120.675 299.025 C 120.398 298.194,120.443 297.819,120.851 297.560 C 121.777 296.974,122.287 297.150,123.364 298.431 M138.075 307.860 C 137.931 319.417,137.703 320.067,134.900 316.916 C 133.118 314.913,133.295 314.000,135.316 314.768 C 137.074 315.437,137.200 314.850,137.200 305.987 C 137.200 298.402,137.358 296.661,137.973 297.493 C 138.098 297.662,138.144 302.327,138.075 307.860 M160.478 298.275 C 161.095 298.866,161.600 299.676,161.600 300.075 C 161.600 300.474,161.848 300.800,162.151 300.800 C 162.455 300.800,162.942 301.377,163.234 302.083 C 163.527 302.788,164.088 303.688,164.483 304.083 C 165.302 304.902,165.450 306.146,164.700 305.907 C 164.425 305.820,164.022 305.355,163.805 304.874 C 163.588 304.393,163.275 304.000,163.111 304.000 C 162.946 304.000,162.548 303.370,162.226 302.600 C 161.746 301.452,161.430 301.200,160.469 301.200 C 159.150 301.200,158.587 300.686,158.195 299.120 C 157.666 297.015,158.746 296.615,160.478 298.275 M175.600 307.634 L 175.600 317.620 174.510 318.034 C 173.530 318.407,173.308 318.314,172.320 317.124 C 171.040 315.581,170.800 314.145,171.900 314.611 C 174.237 315.602,174.191 315.756,174.302 306.600 C 174.408 297.966,174.505 296.970,175.197 297.398 C 175.450 297.555,175.600 301.361,175.600 307.634 M193.000 297.487 L 194.600 297.765 193.400 298.035 C 191.573 298.447,188.800 298.446,188.800 298.033 C 188.800 297.254,190.434 297.041,193.000 297.487 M199.970 298.236 C 201.194 299.266,201.280 300.000,200.176 300.000 C 199.859 300.000,199.600 299.733,199.600 299.408 C 199.600 298.817,199.202 298.673,196.228 298.191 C 195.079 298.005,194.810 297.839,195.228 297.574 C 196.386 296.841,198.695 297.164,199.970 298.236 M229.553 297.562 C 229.941 297.808,229.524 298.037,228.158 298.328 C 226.015 298.785,225.789 298.728,226.138 297.817 C 226.398 297.139,228.622 296.973,229.553 297.562 M234.279 297.517 C 235.493 298.289,234.144 298.848,232.230 298.366 C 230.931 298.039,230.502 297.782,230.867 297.550 C 231.531 297.129,233.637 297.109,234.279 297.517 M243.200 297.779 C 243.200 298.098,243.650 298.844,244.200 299.438 C 245.185 300.500,245.574 302.400,244.808 302.400 C 244.592 302.400,244.301 301.946,244.162 301.391 C 244.023 300.836,243.614 300.158,243.254 299.886 C 242.185 299.076,241.536 297.695,242.114 297.460 C 242.964 297.116,243.200 297.185,243.200 297.779 M257.426 298.717 C 257.287 299.155,256.833 299.603,256.418 299.711 C 255.953 299.833,255.612 300.338,255.531 301.024 C 255.375 302.354,254.400 302.863,254.400 301.614 C 254.400 301.145,254.850 300.345,255.400 299.835 C 255.950 299.325,256.400 298.644,256.400 298.321 C 256.400 297.510,256.872 297.112,257.313 297.553 C 257.515 297.755,257.566 298.278,257.426 298.717 M274.999 297.666 C 275.119 297.786,275.064 298.299,274.876 298.806 C 274.610 299.526,274.483 299.593,274.299 299.114 C 273.693 297.535,267.001 297.819,266.381 299.450 C 266.182 299.972,265.745 300.400,265.410 300.400 C 264.945 300.400,264.800 300.874,264.800 302.400 C 264.800 303.963,264.939 304.400,265.437 304.400 C 265.788 304.400,266.166 304.750,266.278 305.177 C 266.396 305.629,266.967 306.061,267.641 306.209 C 268.845 306.473,269.166 307.007,268.300 307.305 C 267.548 307.565,265.600 306.791,265.600 306.233 C 265.600 305.964,265.150 305.353,264.600 304.875 C 263.433 303.860,263.153 300.947,264.185 300.550 C 264.506 300.427,264.868 300.014,264.989 299.634 C 265.633 297.606,266.562 297.239,270.785 297.347 C 272.983 297.403,274.880 297.546,274.999 297.666 M298.300 297.900 C 298.424 298.271,297.677 298.400,295.407 298.400 C 290.485 298.400,290.800 297.714,290.800 308.414 C 290.800 313.466,290.665 317.600,290.500 317.600 C 290.335 317.601,290.255 313.545,290.321 308.589 L 290.443 299.577 289.034 298.989 C 288.217 298.647,286.360 298.400,284.613 298.400 C 282.184 298.400,281.600 298.282,281.600 297.792 C 281.600 296.973,298.027 297.079,298.300 297.900 M317.800 297.800 C 317.800 298.038,315.533 298.281,312.200 298.400 C 309.120 298.510,306.375 298.746,306.100 298.924 C 305.488 299.320,305.399 305.828,306.000 306.200 C 306.220 306.336,306.400 306.966,306.400 307.600 C 306.400 308.234,306.220 308.864,306.000 309.000 C 305.780 309.136,305.600 310.865,305.600 312.843 L 305.600 316.439 306.895 316.983 L 308.191 317.528 306.721 317.804 C 305.913 317.955,305.072 317.968,304.851 317.832 C 304.445 317.580,304.260 298.150,304.658 297.506 C 304.954 297.026,317.800 297.314,317.800 297.800 M328.386 297.974 C 329.053 299.219,328.890 300.683,328.061 300.900 C 326.998 301.178,326.800 302.736,326.800 310.826 C 326.800 317.301,326.499 319.478,325.842 317.765 C 325.511 316.902,325.534 297.799,325.867 297.467 C 326.419 296.914,327.988 297.230,328.386 297.974 M346.698 297.529 C 347.092 297.779,347.071 298.325,346.598 300.142 C 346.269 301.405,345.995 302.565,345.988 302.720 C 345.981 302.874,345.792 302.685,345.568 302.300 C 345.344 301.915,344.809 301.600,344.380 301.600 C 343.316 301.600,343.341 299.887,344.427 298.362 C 345.274 297.172,345.821 296.972,346.698 297.529 M361.153 297.562 C 361.754 297.943,361.433 298.093,358.941 298.593 C 357.551 298.872,357.211 299.581,357.211 302.200 C 357.211 304.780,357.571 305.538,359.050 306.073 C 360.555 306.617,360.662 307.479,359.198 307.264 C 357.640 307.035,356.030 305.565,355.760 304.126 C 355.354 301.965,355.934 299.142,356.831 298.908 C 357.254 298.797,357.600 298.473,357.600 298.187 C 357.600 297.282,360.034 296.854,361.153 297.562 M365.997 297.589 C 367.174 298.334,365.904 298.773,363.847 298.332 C 362.477 298.038,362.059 297.808,362.447 297.562 C 363.178 297.100,365.247 297.115,365.997 297.589 M31.600 306.951 C 31.600 314.744,31.699 316.384,32.196 316.796 C 32.923 317.400,32.622 318.000,31.590 318.000 C 30.862 318.000,30.821 317.530,30.713 307.800 C 30.625 299.846,30.710 297.599,31.100 297.600 C 31.486 297.600,31.600 299.737,31.600 306.951 M60.227 300.900 C 59.869 304.151,60.369 305.704,61.914 306.147 C 63.494 306.600,63.593 307.200,62.089 307.200 C 59.619 307.200,57.821 302.616,59.043 299.433 C 59.666 297.809,60.458 298.792,60.227 300.900 M188.325 299.500 C 188.252 299.885,187.800 300.256,187.321 300.325 C 186.793 300.400,186.400 300.782,186.325 301.293 C 186.175 302.310,185.200 302.747,185.200 301.797 C 185.200 300.985,187.189 298.800,187.928 298.800 C 188.220 298.800,188.399 299.115,188.325 299.500 M225.374 301.100 C 225.073 304.328,225.549 305.698,227.127 306.151 C 228.691 306.599,228.791 307.202,227.300 307.193 C 225.030 307.179,222.955 300.778,224.667 299.067 C 225.357 298.376,225.570 298.989,225.374 301.100 M330.222 302.174 C 330.526 303.796,330.033 304.985,329.559 303.773 C 329.121 302.655,329.135 300.800,329.582 300.800 C 329.792 300.800,330.080 301.418,330.222 302.174 M246.835 303.500 C 247.849 306.184,249.794 307.333,251.024 305.974 C 252.258 304.609,252.563 306.273,251.345 307.731 C 250.482 308.763,250.399 309.234,250.394 313.131 C 250.391 315.479,250.236 317.640,250.050 317.934 C 249.455 318.871,249.200 317.397,249.200 313.021 C 249.200 309.514,249.082 308.758,248.400 307.891 C 247.960 307.331,247.600 306.570,247.600 306.199 C 247.600 305.829,247.257 305.435,246.837 305.326 C 246.134 305.142,245.619 304.126,245.605 302.900 C 245.595 301.985,246.414 302.384,246.835 303.500 M254.037 302.912 C 253.960 303.899,253.459 305.200,253.157 305.200 C 252.740 305.200,252.671 303.062,253.075 302.658 C 253.406 302.328,254.069 302.502,254.037 302.912 M184.609 307.700 C 184.560 314.244,183.834 314.324,183.688 307.801 C 183.599 303.838,183.687 302.800,184.111 302.800 C 184.530 302.800,184.638 303.859,184.609 307.700 M342.794 303.900 C 342.786 305.274,342.221 306.281,341.820 305.633 C 341.461 305.052,341.947 302.800,342.432 302.800 C 342.634 302.800,342.797 303.295,342.794 303.900 M127.759 304.636 C 127.893 304.986,127.896 305.445,127.766 305.656 C 127.460 306.151,126.400 305.294,126.400 304.551 C 126.400 303.790,127.459 303.856,127.759 304.636 M159.098 314.300 C 159.025 316.225,158.965 314.650,158.965 310.800 C 158.965 306.950,159.025 305.375,159.098 307.300 C 159.171 309.225,159.171 312.375,159.098 314.300 M331.994 306.924 C 331.997 307.572,331.831 307.943,331.600 307.800 C 331.380 307.664,331.203 306.888,331.206 306.076 C 331.211 304.976,331.311 304.753,331.600 305.200 C 331.813 305.530,331.991 306.306,331.994 306.924 M346.372 312.100 C 346.389 315.519,346.249 317.600,346.000 317.600 C 345.749 317.600,345.610 315.252,345.628 311.300 C 345.645 307.408,345.788 305.306,346.000 305.800 C 346.189 306.240,346.356 309.075,346.372 312.100 M129.200 306.984 C 129.200 307.305,129.636 307.980,130.169 308.484 C 131.275 309.530,131.639 310.833,130.897 311.093 C 130.591 311.200,130.297 310.784,130.147 310.034 C 130.011 309.355,129.670 308.800,129.389 308.800 C 129.108 308.800,128.690 308.260,128.460 307.600 C 128.121 306.627,128.151 306.400,128.621 306.400 C 128.939 306.400,129.200 306.663,129.200 306.984 M166.844 307.726 C 167.056 308.520,166.984 308.800,166.565 308.800 C 166.254 308.800,165.998 308.665,165.995 308.500 C 165.992 308.335,165.874 307.771,165.734 307.246 C 165.547 306.550,165.624 306.341,166.018 306.473 C 166.314 306.571,166.686 307.135,166.844 307.726 M341.200 307.791 C 341.200 309.687,340.236 310.810,339.905 309.300 C 339.696 308.345,340.392 306.348,340.839 306.624 C 341.038 306.747,341.200 307.272,341.200 307.791 M202.157 308.233 C 203.130 310.767,202.270 317.445,200.928 317.782 C 198.981 318.271,198.034 317.593,199.620 316.845 C 200.998 316.196,201.000 316.190,201.116 313.142 C 201.256 309.449,200.816 308.800,198.171 308.800 C 197.134 308.800,196.400 308.615,196.400 308.353 C 196.400 308.108,196.733 307.994,197.140 308.100 C 197.547 308.207,198.582 308.158,199.440 307.993 C 201.787 307.540,201.895 307.550,202.157 308.233 M68.475 309.000 C 68.953 309.550,69.578 310.000,69.865 310.000 C 70.569 310.000,70.872 311.409,70.724 313.990 C 70.529 317.371,69.600 317.115,69.600 313.680 C 69.600 311.230,69.503 310.868,68.800 310.684 C 68.360 310.569,68.000 310.199,68.000 309.862 C 68.000 309.442,67.433 309.164,66.200 308.979 C 63.968 308.644,63.838 308.000,66.003 308.000 C 67.214 308.000,67.818 308.244,68.475 309.000 M233.838 309.000 C 234.431 309.550,235.063 310.000,235.242 310.000 C 235.913 310.000,236.544 313.191,236.167 314.683 C 235.593 316.960,234.671 316.933,235.014 314.649 C 235.342 312.457,235.001 310.800,234.219 310.800 C 233.908 310.800,233.543 310.450,233.407 310.021 C 233.231 309.467,232.648 309.166,231.380 308.976 C 229.175 308.645,229.043 308.000,231.179 308.000 C 232.310 308.000,233.066 308.284,233.838 309.000 M273.416 308.427 C 273.561 308.661,273.596 308.937,273.493 309.040 C 273.181 309.352,270.000 308.723,270.000 308.349 C 270.000 307.847,273.102 307.918,273.416 308.427 M365.170 308.770 C 365.593 309.193,366.313 309.739,366.770 309.984 C 368.878 311.112,367.376 318.000,365.021 318.000 C 364.116 318.000,364.425 317.103,365.497 316.618 C 368.267 315.364,366.452 309.621,363.086 308.990 C 361.207 308.637,361.151 308.000,363.000 308.000 C 363.848 308.000,364.703 308.303,365.170 308.770 M168.559 309.836 C 168.852 310.600,168.492 311.304,167.972 310.983 C 167.496 310.689,167.484 309.200,167.957 309.200 C 168.154 309.200,168.424 309.486,168.559 309.836 M275.357 310.105 C 275.855 310.893,275.471 311.390,274.617 311.062 C 273.903 310.788,273.760 309.053,274.471 309.290 C 274.731 309.377,275.129 309.743,275.357 310.105 M333.788 311.913 C 333.553 312.475,333.442 312.394,333.176 311.466 C 332.721 309.878,333.215 308.646,333.711 310.133 C 333.912 310.735,333.946 311.535,333.788 311.913 M339.031 313.863 C 338.907 314.186,338.624 314.338,338.401 314.201 C 338.019 313.965,338.169 312.522,338.714 311.200 C 339.031 310.431,339.343 313.052,339.031 313.863 M132.957 312.233 C 133.633 313.994,132.832 314.666,132.064 312.981 C 131.475 311.689,131.481 311.600,132.157 311.600 C 132.464 311.600,132.824 311.885,132.957 312.233 M170.437 312.900 C 170.771 314.151,169.874 314.513,169.446 313.300 C 169.311 312.915,169.089 312.358,168.954 312.062 C 168.788 311.699,168.942 311.569,169.425 311.662 C 169.820 311.738,170.275 312.295,170.437 312.900 M276.800 312.976 C 276.800 314.834,276.128 315.147,275.922 313.385 C 275.832 312.610,275.842 311.891,275.946 311.788 C 276.463 311.270,276.800 311.739,276.800 312.976 M186.218 314.058 C 186.563 315.143,188.386 316.771,189.276 316.787 C 190.086 316.802,190.570 317.447,190.025 317.785 C 189.341 318.208,187.637 317.546,187.387 316.760 C 187.255 316.342,186.838 316.000,186.461 316.000 C 185.785 316.000,184.667 313.867,185.110 313.423 C 185.549 312.984,185.950 313.214,186.218 314.058 M337.126 314.800 C 337.743 314.800,337.750 317.460,337.134 317.841 C 336.387 318.302,334.804 315.988,334.802 314.430 L 334.800 313.061 335.726 313.930 C 336.235 314.409,336.865 314.800,337.126 314.800 M275.200 316.392 C 275.200 317.340,274.988 317.638,274.171 317.843 C 272.876 318.168,271.941 317.400,273.160 317.013 C 273.623 316.866,274.187 316.398,274.414 315.973 C 274.991 314.895,275.200 315.006,275.200 316.392 M60.789 316.735 C 62.149 317.562,61.999 318.000,60.357 318.000 C 59.102 318.000,58.684 317.567,59.041 316.636 C 59.345 315.846,59.325 315.844,60.789 316.735 M358.800 317.629 C 358.800 318.045,357.197 318.127,356.240 317.760 C 355.771 317.580,355.712 317.337,356.005 316.790 C 356.420 316.016,358.800 316.731,358.800 317.629 M69.497 317.091 C 69.679 317.638,68.176 318.156,67.543 317.765 C 67.219 317.565,67.304 317.313,67.823 316.934 C 68.634 316.340,69.267 316.400,69.497 317.091 M226.400 316.985 C 227.279 317.475,227.315 317.575,226.699 317.814 C 225.605 318.239,223.988 317.697,224.257 316.996 C 224.538 316.263,225.099 316.261,226.400 316.985 M234.600 317.233 C 234.600 317.554,234.123 317.855,233.500 317.927 C 232.263 318.069,232.037 317.451,233.100 316.833 C 233.974 316.325,234.600 316.492,234.600 317.233 M267.016 317.227 C 267.445 317.920,266.929 318.113,265.408 317.828 C 264.621 317.680,264.083 317.389,264.212 317.180 C 264.533 316.662,266.690 316.698,267.016 317.227 M65.459 319.271 C 65.113 319.465,64.328 319.491,63.715 319.329 L 62.600 319.035 63.800 318.792 C 65.352 318.478,66.357 318.768,65.459 319.271 M362.630 319.287 C 362.267 319.490,361.391 319.520,360.685 319.353 L 359.400 319.050 360.600 318.805 C 362.268 318.465,363.554 318.770,362.630 319.287 M195.860 319.278 C 195.084 319.561,194.319 319.564,193.460 319.287 C 192.310 318.917,192.410 318.881,194.600 318.872 C 196.718 318.864,196.866 318.912,195.860 319.278 M230.874 319.146 C 230.387 319.454,228.400 319.300,228.400 318.953 C 228.400 318.869,229.075 318.803,229.900 318.806 C 230.856 318.810,231.209 318.933,230.874 319.146 M271.600 318.955 C 271.600 319.289,269.189 319.440,268.709 319.135 C 268.404 318.942,268.880 318.810,269.900 318.806 C 270.835 318.803,271.600 318.870,271.600 318.955 " stroke="none" fill="#828282" fill-rule="evenodd"></path><path id="path3" d="M118.400 95.868 C 110.318 98.695,110.318 110.795,118.400 113.940 C 123.841 116.056,130.673 112.788,131.435 107.704 C 132.798 98.619,126.606 92.997,118.400 95.868 " stroke="none" fill="#ababab" fill-rule="evenodd"></path></g></svg>