<svg id="svg" xmlns="http://www.w3.org/2000/svg" xmlns:xlink="http://www.w3.org/1999/xlink" width="400" height="200" viewBox="0, 0, 400,200"><g id="svgg"><path id="path1" d="M245.071 56.753 C 244.091 56.911,243.966 57.348,243.111 63.600 C 242.938 64.865,242.775 66.215,242.748 66.600 L 242.700 67.300 241.568 67.278 C 240.573 67.259,240.282 67.149,239.168 66.376 C 238.046 65.597,237.338 65.236,235.641 64.578 C 233.014 63.560,228.625 65.041,227.579 67.300 C 225.915 70.895,228.335 73.823,232.292 73.002 C 234.723 72.497,235.741 69.442,233.846 68.339 C 232.602 67.615,231.426 68.428,232.491 69.276 C 233.973 70.458,231.821 71.474,230.298 70.312 C 229.470 69.681,229.304 69.198,229.602 68.295 C 230.452 65.717,234.371 65.787,238.579 68.455 C 239.743 69.193,240.758 69.686,241.246 69.752 C 242.298 69.893,242.280 69.762,241.904 74.738 C 241.438 80.893,241.269 82.362,240.898 83.500 C 240.718 84.050,240.394 85.175,240.177 86.000 C 238.266 93.261,233.520 98.072,229.892 96.424 C 227.745 95.449,227.646 94.986,226.985 82.900 C 226.864 80.700,226.706 77.910,226.633 76.700 L 226.500 74.500 225.826 74.436 C 223.912 74.252,223.484 75.005,223.344 78.800 C 222.955 89.332,217.596 97.579,215.360 91.087 C 215.003 90.049,214.600 83.134,214.600 78.035 C 214.600 75.028,214.504 74.799,213.243 74.803 C 211.485 74.808,211.189 75.121,210.688 77.500 C 209.936 81.073,208.821 83.696,205.743 89.127 C 202.443 94.950,197.668 97.325,196.316 93.816 C 195.231 90.997,195.689 88.579,197.569 87.201 C 199.356 85.891,200.646 84.155,202.100 81.100 C 203.523 78.112,202.567 75.300,200.129 75.300 C 197.223 75.300,194.223 79.732,193.378 85.274 C 192.803 89.046,189.487 91.488,184.350 91.924 C 182.524 92.079,182.403 91.910,183.682 90.991 C 188.769 87.338,190.096 78.394,185.933 75.821 C 183.966 74.605,181.947 74.784,178.628 76.468 C 176.074 77.765,176.000 77.754,176.000 76.093 C 176.000 74.245,175.775 73.875,174.555 73.713 C 173.212 73.535,173.300 73.132,173.300 79.467 L 173.300 85.100 172.623 87.000 C 170.215 93.759,166.826 97.593,165.556 94.997 C 165.024 93.909,164.817 91.965,164.601 86.000 C 164.293 77.485,164.478 78.017,161.916 78.291 C 161.122 78.376,160.593 78.351,160.516 78.225 C 160.134 77.608,156.806 77.890,155.345 78.665 C 152.478 80.184,149.898 83.799,148.254 88.600 C 145.767 95.860,149.189 100.432,155.088 97.731 C 157.130 96.796,157.759 96.012,160.203 91.354 C 161.251 89.356,161.600 89.015,161.600 89.987 C 161.600 93.177,163.521 97.354,165.344 98.127 C 167.398 98.998,168.773 98.155,171.874 94.126 C 172.519 93.286,173.117 92.600,173.202 92.600 C 173.571 92.600,173.992 97.390,173.997 101.646 C 173.999 103.267,174.087 105.202,174.193 105.946 C 174.430 107.604,174.955 112.948,175.809 122.400 C 176.020 124.730,176.583 127.824,176.988 128.875 C 177.380 129.895,179.612 129.170,179.595 128.028 C 179.584 127.271,178.766 117.494,178.513 115.100 C 178.362 113.670,178.097 111.015,177.923 109.200 C 177.749 107.385,177.514 105.284,177.401 104.532 C 177.208 103.250,176.733 96.013,176.733 94.344 C 176.732 93.153,176.858 93.122,179.704 93.608 C 184.727 94.468,188.019 94.022,191.265 92.043 C 192.436 91.328,192.642 91.471,192.696 93.039 C 192.815 96.486,195.447 98.528,198.700 97.696 C 202.843 96.637,206.123 93.636,208.680 88.567 C 210.875 84.218,211.053 84.114,211.380 87.000 C 212.176 94.046,213.289 96.318,215.914 96.256 C 217.828 96.211,219.732 94.903,221.652 92.314 C 222.986 90.514,223.235 90.385,223.422 91.400 C 224.340 96.398,226.522 98.854,230.300 99.140 C 233.687 99.397,238.171 96.115,240.222 91.878 C 241.110 90.043,241.400 89.811,241.400 90.934 C 241.400 97.679,245.893 101.095,250.200 97.625 C 251.760 96.368,254.226 93.934,254.834 93.050 C 255.749 91.721,256.000 91.896,256.000 93.861 C 256.000 100.011,262.117 99.812,266.404 93.524 C 267.354 92.130,267.544 91.990,267.726 92.550 C 268.778 95.794,271.123 97.985,273.554 97.996 C 277.148 98.011,280.585 95.791,285.160 90.500 C 289.654 85.302,289.621 85.352,294.245 77.050 C 294.566 76.473,294.936 76.000,295.066 76.000 C 295.791 76.000,297.760 85.792,297.791 89.550 C 297.802 90.799,297.548 90.894,296.547 90.014 C 292.398 86.371,284.952 90.547,286.806 95.476 C 288.465 99.887,293.259 100.475,299.045 96.977 L 299.790 96.527 301.345 97.040 C 304.901 98.214,307.235 98.105,310.327 96.621 C 317.637 93.114,318.864 83.041,312.151 81.646 C 308.906 80.971,304.813 83.976,304.802 87.041 C 304.795 89.050,308.114 90.002,310.034 88.542 C 311.620 87.336,311.230 85.797,309.611 86.869 C 308.008 87.930,307.000 87.824,307.000 86.593 C 307.000 85.011,309.482 83.217,311.295 83.489 C 315.368 84.100,313.514 91.474,308.540 94.445 C 305.929 96.005,304.711 96.029,302.508 94.566 C 301.046 93.594,301.040 93.577,301.617 91.952 C 302.333 89.937,302.084 88.334,299.575 78.800 C 297.506 70.939,297.118 69.784,296.417 69.409 C 295.691 69.021,294.751 69.798,294.496 70.999 C 294.414 71.384,294.211 72.014,294.046 72.399 C 293.880 72.785,293.647 73.325,293.528 73.600 C 293.408 73.875,292.507 75.405,291.525 77.000 C 290.543 78.595,289.334 80.665,288.839 81.600 C 286.728 85.589,281.081 91.886,278.445 93.190 C 273.427 95.673,271.400 94.114,271.400 87.774 C 271.400 79.876,276.608 72.613,280.420 75.196 C 282.669 76.720,284.833 74.699,282.650 73.114 C 277.279 69.214,270.055 74.568,268.593 83.533 C 268.190 86.007,267.791 87.544,267.270 88.630 C 265.363 92.606,261.388 95.824,260.118 94.420 C 259.157 93.358,259.090 89.505,259.819 77.284 C 260.108 72.437,259.912 71.600,258.482 71.600 C 257.224 71.600,256.711 72.867,256.398 76.750 C 255.910 82.822,255.289 86.354,254.582 87.090 C 254.482 87.195,254.400 87.391,254.400 87.526 C 254.400 87.773,253.685 89.426,252.570 91.756 C 251.584 93.816,248.855 96.200,247.481 96.200 C 244.882 96.200,243.389 90.019,244.366 83.300 C 244.976 79.099,245.391 75.739,245.502 74.100 C 245.570 73.110,245.718 71.873,245.832 71.350 L 246.040 70.400 248.370 70.393 C 252.268 70.381,254.800 69.475,254.800 68.093 C 254.800 67.305,254.208 67.141,252.339 67.410 C 250.175 67.722,246.398 67.881,246.198 67.668 C 246.110 67.576,246.118 67.050,246.215 66.500 C 246.312 65.950,246.489 64.690,246.608 63.700 C 246.727 62.710,246.985 61.119,247.180 60.165 C 247.709 57.591,246.999 56.443,245.071 56.753 M111.930 61.302 C 109.877 62.974,107.578 66.125,105.145 70.600 C 104.816 71.205,104.384 71.972,104.185 72.305 C 103.986 72.638,103.703 73.141,103.557 73.422 C 102.847 74.792,101.266 76.994,101.000 76.985 C 100.835 76.980,99.890 76.029,98.900 74.872 C 97.910 73.714,96.875 72.518,96.600 72.214 C 96.325 71.909,95.474 70.958,94.709 70.100 C 90.253 65.098,84.039 64.771,79.075 69.277 C 74.240 73.665,78.364 79.925,84.700 77.817 C 87.622 76.844,88.705 72.892,86.380 71.690 C 85.619 71.296,84.024 71.304,83.871 71.703 C 83.714 72.113,84.153 72.600,84.680 72.600 C 86.001 72.600,86.342 73.876,85.383 75.225 C 84.179 76.914,81.891 76.741,80.996 74.892 C 79.235 71.254,84.144 67.378,88.459 69.000 C 90.352 69.711,94.305 73.186,95.206 74.931 C 95.532 75.561,95.580 75.633,96.287 76.517 C 97.167 77.618,98.341 80.412,98.591 82.000 C 98.721 82.825,98.952 84.175,99.103 85.000 C 99.255 85.825,99.477 87.715,99.597 89.200 C 99.717 90.685,99.905 92.755,100.015 93.800 C 100.125 94.845,100.300 97.140,100.404 98.900 C 101.033 109.544,100.951 109.056,102.172 109.395 C 103.687 109.816,104.701 109.666,105.514 108.900 C 106.352 108.110,106.342 108.336,105.699 104.300 C 105.055 100.256,104.068 93.754,103.589 90.400 C 103.487 89.685,103.315 88.515,103.206 87.800 C 102.576 83.663,102.978 81.244,104.800 78.200 C 105.426 77.155,106.585 75.057,107.377 73.538 C 109.087 70.260,110.254 68.399,111.793 66.500 C 115.166 62.337,115.327 62.020,114.586 60.981 C 113.975 60.122,113.275 60.206,111.930 61.302 M260.908 62.344 C 259.803 62.630,258.800 63.632,258.800 64.450 C 258.800 66.870,262.173 67.348,263.128 65.063 C 263.831 63.381,262.622 61.900,260.908 62.344 M136.272 75.991 C 134.727 76.359,133.530 77.561,132.246 80.034 C 131.126 82.190,130.554 83.779,129.596 87.400 C 128.566 91.290,128.686 95.037,129.942 98.200 C 131.722 102.682,135.865 101.287,140.189 94.749 C 141.901 92.159,141.894 92.149,142.091 97.800 C 142.150 99.505,142.347 103.442,142.528 106.549 L 142.858 112.197 142.304 115.949 C 141.536 121.151,140.922 122.637,138.779 124.471 C 133.724 128.799,124.424 121.251,125.779 113.920 C 126.729 108.781,133.200 106.162,133.200 110.917 C 133.200 112.722,132.519 113.306,131.104 112.715 C 129.658 112.110,128.771 112.683,129.209 113.939 C 129.798 115.630,134.173 115.312,134.793 113.533 C 135.909 110.332,135.144 107.167,133.043 106.289 C 129.792 104.931,127.179 106.112,124.470 110.165 C 120.681 115.834,123.139 123.929,129.573 126.973 C 135.260 129.662,139.398 128.860,143.163 124.337 C 145.638 121.364,146.715 115.746,146.028 109.400 C 145.915 108.355,145.638 105.835,145.413 103.800 C 144.344 94.124,144.300 93.512,144.300 88.200 C 144.300 85.285,144.380 81.665,144.479 80.155 C 144.704 76.704,144.325 76.219,142.030 77.020 C 141.496 77.206,141.289 77.174,140.672 76.810 C 139.316 76.010,137.561 75.683,136.272 75.991 M118.100 77.461 C 114.562 79.154,110.903 83.571,109.863 87.406 C 107.521 96.043,113.962 103.902,120.800 100.751 C 124.935 98.845,127.380 90.344,125.618 84.000 C 123.833 77.578,121.713 75.733,118.100 77.461 M184.433 77.983 C 186.093 79.289,186.407 82.285,185.147 84.809 C 183.540 88.026,178.711 91.623,176.922 90.936 C 176.210 90.663,176.061 83.217,176.739 81.750 C 178.175 78.640,182.547 76.499,184.433 77.983 M139.271 78.509 C 140.792 79.671,140.859 79.917,140.881 84.499 C 140.902 88.914,140.843 89.221,139.486 91.796 C 137.853 94.896,135.289 97.400,133.749 97.400 C 132.974 97.400,132.701 96.682,132.405 93.865 C 132.058 90.554,132.378 87.704,133.592 83.300 C 134.860 78.699,137.073 76.831,139.271 78.509 M199.430 79.818 C 199.304 81.398,197.364 84.600,196.532 84.600 C 195.998 84.600,197.438 80.874,198.522 79.454 C 199.198 78.568,199.519 78.697,199.430 79.818 M160.310 79.929 C 161.505 81.219,160.886 83.468,157.435 90.370 C 155.674 93.893,154.657 95.344,153.527 95.949 C 150.234 97.714,149.476 95.904,150.911 89.700 C 152.356 83.446,158.067 77.510,160.310 79.929 M120.881 80.337 C 124.571 83.063,124.045 95.946,120.165 97.880 C 117.074 99.420,114.852 97.758,113.874 93.173 C 113.091 89.500,114.581 83.074,116.622 81.327 C 118.394 79.811,119.744 79.497,120.881 80.337 M292.979 91.408 C 293.995 91.869,296.093 93.334,296.750 94.041 L 297.200 94.525 296.295 95.743 C 294.470 98.198,291.744 98.373,289.674 96.167 C 287.035 93.355,289.488 89.824,292.979 91.408 " stroke="none" fill="#ababab" fill-rule="evenodd"></path><path id="path2" d="M206.061 108.850 C 205.716 109.307,205.393 110.674,205.020 113.258 C 204.503 116.837,204.368 116.868,203.526 113.600 C 202.594 109.977,202.382 109.400,201.984 109.400 C 201.530 109.400,201.307 109.742,201.554 110.059 C 201.657 110.191,201.802 110.525,201.876 110.800 C 201.950 111.075,202.134 111.750,202.286 112.300 C 202.437 112.850,202.750 113.994,202.979 114.841 C 204.233 119.465,205.212 119.906,205.602 116.022 C 205.878 113.273,205.971 112.696,206.437 110.864 C 206.918 108.971,206.730 107.962,206.061 108.850 M305.278 109.118 C 305.086 109.881,305.326 116.008,305.571 116.607 C 305.682 116.878,305.825 117.346,305.889 117.647 C 306.193 119.067,307.325 118.556,308.117 116.641 C 308.876 114.806,309.000 114.732,309.003 116.110 C 309.006 117.682,309.160 118.200,309.623 118.200 C 310.076 118.200,310.046 118.546,310.005 113.900 C 309.970 109.962,309.861 109.436,309.136 109.714 C 308.922 109.796,308.800 110.067,308.800 110.457 C 308.800 110.795,308.715 111.348,308.611 111.686 C 308.507 112.024,308.283 112.998,308.112 113.851 C 307.151 118.660,306.116 117.552,306.105 111.703 C 306.101 109.034,306.062 108.699,305.757 108.640 C 305.524 108.595,305.371 108.747,305.278 109.118 M191.929 109.750 C 191.666 110.272,191.248 111.263,190.999 111.950 C 190.401 113.601,190.229 113.540,189.185 111.312 C 187.421 107.548,186.819 109.197,187.619 115.600 C 187.946 118.214,187.941 118.200,188.527 118.200 C 189.003 118.200,189.036 118.147,188.927 117.550 C 188.709 116.360,188.370 113.004,188.435 112.691 C 188.474 112.508,188.848 112.919,189.360 113.705 C 190.536 115.510,190.874 115.450,191.611 113.307 C 192.134 111.786,192.595 111.148,192.604 111.933 C 192.620 113.339,193.388 118.070,193.624 118.219 C 194.343 118.674,194.403 118.251,194.008 115.500 C 193.882 114.620,193.693 112.955,193.589 111.800 C 193.277 108.358,192.877 107.864,191.929 109.750 M210.017 109.126 C 208.199 109.443,208.149 109.511,208.287 111.500 C 208.348 112.380,208.398 114.331,208.399 115.837 C 208.400 119.141,208.418 119.159,210.618 118.105 C 211.427 117.717,212.288 117.400,212.533 117.400 C 213.056 117.400,213.249 117.159,213.079 116.718 C 212.909 116.274,212.440 116.320,211.238 116.900 C 209.593 117.694,209.480 117.639,209.325 115.975 C 209.164 114.244,209.197 114.199,211.045 113.598 C 212.633 113.083,213.054 112.849,212.886 112.577 C 212.692 112.263,211.840 112.387,210.684 112.899 C 209.247 113.534,209.200 113.492,209.200 111.583 C 209.200 109.766,209.360 109.600,211.113 109.600 C 212.001 109.600,212.218 109.416,211.750 109.058 C 211.589 108.936,210.970 108.960,210.017 109.126 M245.521 109.873 C 245.251 110.464,244.931 111.315,244.809 111.765 C 244.488 112.960,244.371 112.938,242.886 111.400 C 241.311 109.769,239.790 109.397,241.254 111.002 C 244.238 114.271,244.287 114.371,244.451 117.400 C 244.494 118.182,244.563 118.309,244.981 118.368 L 245.462 118.436 245.305 116.868 C 245.035 114.170,245.320 112.333,246.315 110.371 C 246.904 109.208,246.928 108.800,246.406 108.800 C 246.124 108.800,245.872 109.105,245.521 109.873 M258.649 109.189 C 257.323 109.404,256.886 110.177,257.615 111.017 C 257.977 111.435,258.027 111.746,258.015 113.497 C 257.985 117.617,258.686 120.117,259.500 118.800 C 259.568 118.690,259.800 118.600,260.016 118.600 C 260.526 118.600,262.085 117.160,262.400 116.399 C 262.738 115.584,262.504 114.845,261.653 114.043 L 260.934 113.365 261.467 112.278 C 262.691 109.781,261.698 108.692,258.649 109.189 M273.854 109.243 C 273.637 109.513,273.870 118.628,274.104 119.006 C 274.170 119.113,274.404 119.200,274.624 119.200 C 275.014 119.200,275.021 119.114,274.883 115.800 C 274.740 112.364,274.850 111.760,275.422 112.850 C 275.904 113.770,276.845 114.800,277.203 114.800 C 277.576 114.800,277.663 114.633,277.901 113.450 C 278.050 112.711,278.598 112.554,278.603 113.250 C 278.625 116.384,279.088 119.000,279.621 119.000 C 280.075 119.000,280.072 119.119,279.693 116.000 C 279.526 114.625,279.408 112.641,279.431 111.590 C 279.499 108.507,278.917 108.332,277.800 111.100 C 276.888 113.361,276.746 113.356,275.498 111.016 C 274.464 109.076,274.209 108.801,273.854 109.243 M293.081 109.147 C 292.871 109.294,293.056 116.653,293.296 117.716 C 293.394 118.148,294.154 118.600,294.782 118.600 C 295.292 118.600,296.948 116.768,297.437 115.663 C 298.338 113.627,296.634 109.764,294.644 109.329 C 294.345 109.263,293.920 109.161,293.700 109.102 C 293.480 109.043,293.201 109.063,293.081 109.147 M299.302 109.366 C 299.157 109.744,299.175 118.302,299.321 118.684 C 299.388 118.858,299.626 119.000,299.850 119.000 C 300.241 119.000,300.254 118.915,300.148 116.996 C 300.017 114.615,300.035 114.586,301.872 114.221 C 303.088 113.979,303.200 113.914,303.200 113.453 C 303.200 112.968,303.167 112.955,302.350 113.107 C 301.882 113.195,301.185 113.274,300.800 113.283 L 300.100 113.300 300.100 111.700 L 300.100 110.100 301.300 110.000 C 302.333 109.914,302.500 109.844,302.500 109.500 C 302.500 109.001,299.491 108.875,299.302 109.366 M312.340 109.126 C 312.131 109.335,312.177 118.453,312.388 118.788 C 312.541 119.029,312.737 119.037,313.600 118.838 C 314.167 118.707,314.849 118.600,315.115 118.600 C 315.496 118.600,315.600 118.495,315.600 118.112 C 315.600 117.444,315.352 117.344,314.365 117.609 C 312.997 117.978,312.949 117.817,313.031 113.104 C 313.100 109.080,312.995 108.472,312.340 109.126 M290.237 109.377 C 290.032 109.504,290.006 110.216,290.112 112.743 C 290.298 117.192,290.080 117.177,287.805 112.583 C 286.609 110.168,286.403 109.909,285.822 110.093 C 284.992 110.356,285.450 118.879,286.288 118.759 C 286.589 118.716,286.691 118.566,286.668 118.200 C 286.262 111.804,286.292 111.692,287.718 114.350 C 290.006 118.612,291.377 119.905,291.110 117.550 C 291.044 116.972,290.959 114.940,290.919 113.034 C 290.848 109.611,290.746 109.063,290.237 109.377 M197.500 109.686 C 196.090 110.314,196.000 110.541,196.001 113.458 C 196.002 116.439,196.205 117.438,196.945 118.125 C 198.846 119.886,200.479 116.976,200.105 112.491 C 199.904 110.081,198.941 109.044,197.500 109.686 M266.961 109.705 C 266.896 109.771,266.287 109.903,265.608 109.999 C 263.832 110.250,263.744 110.365,263.853 112.290 C 263.982 114.562,264.572 118.051,264.880 118.363 C 265.160 118.646,268.253 117.800,268.520 117.367 C 268.868 116.804,268.113 116.598,266.936 116.933 C 265.549 117.327,265.382 117.216,265.334 115.874 L 265.300 114.900 266.542 114.600 C 268.428 114.144,268.931 113.188,267.124 113.494 C 264.683 113.908,264.825 113.973,264.757 112.400 C 264.702 111.148,265.043 110.800,266.324 110.800 C 267.185 110.800,267.889 110.367,267.742 109.927 C 267.657 109.670,267.142 109.524,266.961 109.705 M224.612 110.086 C 224.468 110.259,224.404 110.400,224.469 110.400 C 224.534 110.400,224.511 110.603,224.418 110.850 C 224.305 111.149,224.345 111.490,224.537 111.866 C 224.715 112.213,224.816 112.946,224.800 113.766 C 224.785 114.500,224.827 115.415,224.894 115.800 C 225.428 118.908,225.635 119.352,226.298 118.801 C 226.496 118.637,226.534 118.451,226.416 118.229 C 226.319 118.048,226.180 117.450,226.107 116.900 C 226.034 116.350,225.929 115.660,225.875 115.366 C 225.787 114.895,225.919 114.734,226.996 114.003 C 230.481 111.636,230.068 109.549,226.200 109.979 C 225.925 110.010,225.514 109.976,225.286 109.904 C 225.022 109.820,224.778 109.886,224.612 110.086 M231.308 109.988 C 231.123 110.286,231.366 115.437,231.641 117.070 C 231.891 118.555,232.116 118.793,232.834 118.330 C 233.090 118.165,233.634 117.969,234.043 117.894 C 234.890 117.739,235.254 117.410,235.011 117.018 C 234.874 116.797,234.662 116.793,233.812 116.997 C 233.243 117.134,232.733 117.200,232.677 117.144 C 232.544 117.010,232.219 113.522,232.153 111.502 C 232.101 109.943,231.738 109.292,231.308 109.988 M237.536 110.093 C 237.226 110.403,236.916 112.374,236.480 116.819 C 236.369 117.954,236.399 118.157,236.693 118.270 C 237.208 118.467,237.400 118.252,237.400 117.477 C 237.400 116.839,237.480 116.742,238.315 116.373 C 239.511 115.844,239.659 115.930,240.062 117.379 C 240.392 118.565,240.863 118.991,241.116 118.332 C 241.225 118.046,240.487 115.691,239.781 114.073 C 239.181 112.699,238.402 110.400,238.536 110.400 C 238.598 110.400,238.537 110.265,238.400 110.100 C 238.088 109.724,237.906 109.723,237.536 110.093 M282.202 110.097 C 282.049 110.281,282.009 110.606,282.096 110.947 C 282.174 111.251,282.310 113.075,282.399 115.000 C 282.575 118.831,282.650 119.200,283.245 119.200 C 283.617 119.200,283.638 119.108,283.527 117.950 C 283.461 117.263,283.310 115.260,283.192 113.500 C 282.926 109.558,282.855 109.311,282.202 110.097 M198.644 110.350 C 200.258 112.198,199.104 119.173,197.481 117.379 C 196.521 116.318,197.051 110.000,198.100 110.000 C 198.231 110.000,198.476 110.158,198.644 110.350 M260.963 110.643 C 261.073 111.602,259.832 113.600,259.126 113.600 C 258.692 113.600,258.572 110.840,258.983 110.340 C 259.485 109.731,260.882 109.945,260.963 110.643 M295.256 110.601 C 297.278 112.192,297.184 116.116,295.089 117.489 C 294.250 118.038,294.206 117.874,293.894 113.084 C 293.710 110.263,294.046 109.650,295.256 110.601 M228.182 110.785 C 228.602 111.050,228.135 112.032,227.176 112.898 C 225.962 113.994,225.600 113.805,225.600 112.074 C 225.600 110.912,227.155 110.135,228.182 110.785 M238.784 114.002 C 239.324 115.359,239.319 115.373,238.325 115.535 C 237.488 115.670,237.404 115.357,237.824 113.689 C 238.115 112.532,238.213 112.564,238.784 114.002 M261.209 114.911 C 261.899 115.742,260.754 117.908,259.703 117.758 C 259.017 117.659,258.768 115.472,259.385 114.972 C 259.944 114.519,260.859 114.489,261.209 114.911 M215.476 117.290 C 215.323 117.688,215.549 118.000,215.990 118.000 C 216.384 118.000,216.596 117.657,216.454 117.250 C 216.334 116.905,215.612 116.935,215.476 117.290 M248.032 118.062 C 247.760 118.389,247.923 118.600,248.448 118.600 C 248.696 118.600,248.807 118.484,248.765 118.267 C 248.679 117.823,248.315 117.721,248.032 118.062 M318.000 118.206 C 318.000 118.681,318.530 118.950,318.845 118.635 C 319.002 118.478,318.992 118.331,318.807 118.108 C 318.445 117.672,318.000 117.726,318.000 118.206 " stroke="none" fill="#828282" fill-rule="evenodd"></path></g></svg>