<svg id="svg" xmlns="http://www.w3.org/2000/svg" xmlns:xlink="http://www.w3.org/1999/xlink" width="400" height="418" viewBox="0, 0, 400,418"><g id="svgg"><path id="path0" d="M42.768 20.357 C 41.541 20.491,39.921 20.895,39.168 21.256 C 38.416 21.616,37.170 22.209,36.400 22.572 C 32.047 24.628,25.354 30.576,24.149 33.460 C 23.854 34.167,23.443 34.850,23.235 34.978 C 23.028 35.106,22.653 35.884,22.402 36.706 C 22.152 37.528,21.554 38.920,21.073 39.800 L 20.200 41.400 20.108 135.258 C 20.009 236.309,19.907 231.228,22.005 228.995 C 22.519 228.448,23.156 228.000,23.421 228.000 C 23.687 228.000,25.598 226.605,27.668 224.900 C 29.739 223.195,32.236 221.265,33.217 220.611 C 34.198 219.957,36.051 218.562,37.335 217.511 C 38.619 216.460,39.822 215.600,40.008 215.600 C 40.195 215.600,41.431 214.745,42.756 213.700 C 44.081 212.655,47.558 210.133,50.483 208.096 C 53.407 206.059,56.430 203.945,57.200 203.399 C 57.970 202.853,59.140 202.131,59.800 201.794 C 60.460 201.458,61.810 200.568,62.800 199.817 C 63.790 199.066,65.555 197.855,66.721 197.126 C 67.888 196.397,70.797 194.540,73.185 193.000 C 75.574 191.460,78.110 189.840,78.822 189.400 C 84.405 185.947,87.171 184.287,88.200 183.771 C 88.860 183.441,90.210 182.637,91.200 181.986 C 92.190 181.335,93.544 180.547,94.208 180.234 C 94.873 179.922,95.755 179.291,96.170 178.833 C 96.585 178.375,97.092 178.000,97.297 178.000 C 97.502 178.000,100.219 176.589,103.335 174.865 C 106.451 173.141,110.170 171.125,111.600 170.385 C 113.030 169.645,116.000 168.097,118.200 166.944 C 120.400 165.792,124.630 163.657,127.600 162.200 C 130.570 160.743,133.360 159.349,133.800 159.102 C 134.240 158.855,135.140 158.404,135.800 158.101 C 137.007 157.545,137.526 157.285,139.000 156.497 C 139.440 156.262,140.880 155.585,142.200 154.994 C 143.520 154.402,145.500 153.498,146.600 152.983 C 147.700 152.469,149.050 151.924,149.600 151.772 C 150.150 151.620,151.061 151.171,151.624 150.774 C 152.188 150.378,153.178 149.925,153.824 149.768 C 154.471 149.612,155.450 149.172,156.000 148.791 C 156.550 148.411,157.566 147.977,158.259 147.827 C 158.951 147.677,159.834 147.205,160.221 146.777 C 160.607 146.350,161.409 146.000,162.002 146.000 C 162.596 146.000,163.873 145.580,164.840 145.067 C 165.808 144.553,167.129 144.001,167.776 143.840 C 168.422 143.679,169.412 143.224,169.976 142.829 C 170.539 142.434,171.936 141.890,173.080 141.621 C 174.224 141.351,175.371 140.876,175.629 140.565 C 175.887 140.254,176.499 140.000,176.989 140.000 C 177.480 140.000,178.727 139.550,179.762 139.000 C 180.796 138.450,181.955 138.000,182.337 138.000 C 182.718 138.000,183.744 137.628,184.615 137.174 C 185.487 136.719,187.190 136.015,188.400 135.609 C 189.610 135.203,191.860 134.390,193.400 133.804 C 194.940 133.218,197.280 132.424,198.600 132.040 C 199.920 131.655,201.566 131.045,202.258 130.682 C 202.950 130.319,204.300 129.898,205.258 129.746 C 206.216 129.594,207.450 129.157,208.000 128.775 C 208.550 128.394,209.878 127.973,210.952 127.841 C 212.025 127.709,213.465 127.256,214.152 126.834 C 214.838 126.412,216.120 125.951,217.000 125.809 C 217.880 125.667,219.410 125.217,220.400 124.808 C 221.390 124.400,223.325 123.781,224.700 123.433 C 226.075 123.085,228.325 122.515,229.700 122.167 C 231.075 121.819,233.010 121.201,234.000 120.793 C 234.990 120.385,236.765 119.941,237.944 119.806 C 239.123 119.671,240.473 119.309,240.944 119.002 C 241.415 118.695,243.035 118.247,244.545 118.007 C 246.055 117.767,247.945 117.238,248.745 116.832 C 249.545 116.427,251.370 115.962,252.800 115.801 C 254.230 115.639,255.872 115.265,256.449 114.969 C 257.027 114.674,259.007 114.172,260.849 113.854 C 262.692 113.537,264.920 112.997,265.800 112.656 C 266.680 112.314,268.270 112.027,269.333 112.018 C 270.396 112.008,272.556 111.560,274.133 111.023 C 275.710 110.485,278.350 109.925,280.000 109.778 C 281.650 109.630,283.759 109.183,284.686 108.784 C 285.613 108.384,287.863 107.939,289.686 107.794 C 291.509 107.649,294.271 107.186,295.826 106.765 C 297.380 106.344,299.505 106.000,300.548 106.000 C 301.592 106.000,303.200 105.833,304.123 105.629 C 308.819 104.590,312.620 103.974,316.600 103.605 C 319.020 103.381,321.900 103.026,323.000 102.816 C 324.100 102.605,327.880 102.232,331.400 101.985 C 334.920 101.739,338.970 101.280,340.400 100.965 C 342.019 100.609,347.601 100.240,355.200 99.986 C 373.386 99.379,378.821 99.010,379.237 98.354 C 379.748 97.547,379.700 46.534,379.187 44.797 C 378.960 44.029,378.421 42.100,377.988 40.511 C 377.556 38.923,376.842 37.033,376.403 36.311 C 375.963 35.590,375.602 34.631,375.601 34.179 C 375.600 33.213,367.266 24.400,366.354 24.400 C 366.025 24.400,365.145 23.950,364.400 23.400 C 363.655 22.850,362.872 22.400,362.661 22.400 C 362.450 22.400,361.270 21.905,360.039 21.300 L 357.800 20.200 201.400 20.157 C 115.380 20.133,43.996 20.223,42.768 20.357 M164.564 35.004 C 165.644 35.332,167.104 35.600,167.810 35.600 C 168.515 35.600,169.524 35.940,170.053 36.356 C 170.581 36.771,171.687 37.393,172.511 37.737 C 174.717 38.659,179.907 44.096,180.231 45.825 C 180.374 46.585,180.864 47.683,181.322 48.264 C 182.705 50.022,182.822 61.848,181.471 63.311 C 181.212 63.591,180.593 64.628,180.096 65.614 C 179.598 66.600,178.724 67.946,178.154 68.604 C 177.584 69.262,176.821 70.160,176.459 70.600 C 175.305 72.001,172.842 73.634,170.891 74.292 C 169.851 74.643,168.558 75.216,168.017 75.565 C 167.237 76.069,165.866 76.200,161.385 76.200 L 155.736 76.200 152.368 74.501 C 140.858 68.697,136.623 55.524,142.874 44.971 C 144.219 42.700,149.037 38.099,150.378 37.805 C 151.005 37.667,151.824 37.216,152.199 36.801 C 152.620 36.336,153.701 35.945,155.024 35.780 C 156.203 35.632,157.490 35.267,157.884 34.969 C 158.835 34.247,162.126 34.265,164.564 35.004 M217.639 36.279 C 218.284 36.924,218.582 42.327,218.048 43.700 L 217.620 44.800 212.218 44.800 C 205.680 44.800,206.471 42.714,206.262 60.514 C 206.065 77.280,206.520 76.000,200.761 76.000 C 195.187 76.000,195.600 77.269,195.600 60.140 C 195.600 43.215,196.239 44.800,189.416 44.800 C 182.923 44.800,182.593 44.576,182.617 40.186 C 182.644 35.324,181.318 35.649,200.786 35.731 C 212.884 35.782,217.285 35.925,217.639 36.279 M245.085 35.978 C 248.117 36.553,252.976 39.779,254.063 41.938 C 254.428 42.663,255.058 43.621,255.463 44.069 C 256.901 45.658,256.533 54.130,254.926 56.400 C 253.259 58.756,251.353 60.800,250.823 60.800 C 250.041 60.800,250.391 62.673,251.369 63.729 C 251.902 64.304,252.454 65.140,252.596 65.587 C 252.738 66.034,253.017 66.400,253.217 66.400 C 253.416 66.400,253.864 66.950,254.211 67.621 C 254.558 68.293,255.193 69.193,255.621 69.621 C 256.050 70.050,256.400 70.613,256.400 70.874 C 256.400 71.135,256.744 71.720,257.164 72.174 C 258.005 73.083,258.350 74.720,257.864 75.500 C 256.813 77.188,246.000 75.806,246.000 73.984 C 246.000 73.838,245.460 73.154,244.800 72.463 C 244.140 71.772,243.600 71.022,243.600 70.795 C 243.600 70.301,241.531 67.058,241.092 66.864 C 240.922 66.789,240.509 66.197,240.173 65.549 L 239.564 64.369 236.082 64.485 L 232.600 64.600 232.400 69.800 C 232.149 76.337,232.407 76.000,227.653 76.000 C 221.616 76.000,222.219 78.209,222.089 55.643 L 221.978 36.421 223.089 36.175 C 223.700 36.040,224.380 35.870,224.600 35.797 C 225.554 35.478,243.278 35.636,245.085 35.978 M269.200 37.213 C 269.200 38.090,269.021 38.188,266.600 38.630 L 265.000 38.921 266.461 39.291 C 268.017 39.685,268.385 40.334,268.395 42.700 C 268.399 43.713,268.569 44.000,269.167 44.000 C 270.161 44.000,270.281 43.556,269.995 40.952 C 269.773 38.933,269.812 38.800,270.632 38.800 C 272.076 38.800,272.609 42.695,271.300 43.683 C 270.915 43.974,270.401 44.569,270.157 45.006 C 269.465 46.246,268.400 46.260,268.400 45.029 C 268.400 43.508,265.603 43.524,264.186 45.053 C 263.377 45.926,263.106 46.020,262.605 45.604 C 261.724 44.873,261.865 44.075,262.900 43.928 C 264.221 43.740,264.270 39.867,262.954 39.679 C 262.217 39.574,262.074 39.818,261.841 41.579 C 261.598 43.406,261.129 44.102,260.679 43.300 C 259.116 40.514,262.755 36.400,266.783 36.400 C 268.946 36.400,269.200 36.485,269.200 37.213 M157.514 45.400 C 156.705 45.950,155.922 46.400,155.774 46.400 C 155.311 46.400,152.400 49.482,152.400 49.972 C 152.400 50.229,152.040 51.184,151.600 52.094 C 149.052 57.368,153.566 65.513,159.368 66.112 C 163.978 66.588,169.057 64.740,169.830 62.307 C 169.985 61.817,170.474 60.927,170.915 60.330 C 176.116 53.296,164.666 40.540,157.514 45.400 M232.942 45.293 C 232.408 46.158,232.272 52.613,232.768 53.540 C 233.733 55.344,242.767 54.584,244.577 52.547 C 248.078 48.606,244.462 44.800,237.218 44.800 C 234.502 44.800,233.151 44.956,232.942 45.293 M268.000 46.751 C 268.000 47.370,266.923 48.021,266.251 47.807 C 265.893 47.693,265.319 47.511,264.975 47.403 C 264.631 47.294,264.461 47.024,264.598 46.803 C 264.903 46.309,268.000 46.262,268.000 46.751 M144.625 85.822 C 145.888 86.402,146.831 87.149,147.130 87.806 C 147.844 89.373,147.359 89.670,145.591 88.749 C 144.403 88.129,143.175 87.910,140.635 87.863 L 137.258 87.800 135.846 89.400 C 132.129 93.611,135.355 100.000,141.198 100.000 C 142.968 100.000,143.637 99.822,144.200 99.200 C 144.935 98.388,146.590 98.152,147.501 98.730 C 147.868 98.964,147.709 99.322,146.901 100.075 C 145.116 101.740,144.139 102.052,140.463 102.128 L 136.977 102.200 135.331 100.600 C 130.286 95.697,130.961 88.450,136.674 86.177 C 137.595 85.811,138.444 85.264,138.560 84.961 C 138.857 84.185,142.050 84.638,144.625 85.822 M217.931 85.403 C 218.555 85.246,219.160 85.401,219.647 85.843 C 221.105 87.162,220.386 88.000,217.793 88.000 C 213.250 88.000,212.864 91.103,217.316 91.830 C 221.539 92.519,221.756 93.900,217.700 94.273 C 214.005 94.612,214.200 94.417,214.200 97.770 C 214.200 101.461,213.228 103.109,212.447 100.741 C 211.817 98.829,211.914 87.204,212.568 86.311 C 213.306 85.302,214.832 84.839,215.984 85.273 C 216.526 85.477,217.402 85.536,217.931 85.403 M163.785 86.100 C 164.649 87.334,163.723 88.000,161.142 88.000 C 158.375 88.000,157.086 88.680,157.397 89.975 C 157.756 91.465,158.691 91.998,160.976 92.014 C 162.089 92.022,163.434 92.269,163.964 92.563 L 164.929 93.097 163.964 93.702 C 163.434 94.035,162.159 94.312,161.130 94.317 C 157.854 94.334,157.608 94.531,157.876 96.920 C 158.167 99.504,158.630 100.134,160.031 99.854 C 161.266 99.607,163.844 100.223,164.237 100.860 C 164.726 101.650,163.428 101.988,159.874 101.994 C 154.854 102.003,154.091 101.353,155.242 98.051 C 155.524 97.243,155.547 96.605,155.305 96.292 C 155.096 96.021,154.897 93.797,154.863 91.348 C 154.784 85.604,154.521 85.819,162.277 85.263 C 162.786 85.226,163.420 85.579,163.785 86.100 M177.595 85.784 C 180.852 86.482,182.000 87.632,182.000 90.196 C 182.000 92.030,182.037 91.988,178.139 94.629 C 177.391 95.136,178.063 96.809,179.559 98.163 C 180.022 98.582,180.400 99.107,180.400 99.330 C 180.400 99.554,180.688 100.055,181.039 100.443 C 181.986 101.489,181.430 102.039,179.948 101.522 C 179.131 101.237,178.524 100.637,178.152 99.746 C 177.842 99.006,177.429 98.400,177.234 98.400 C 177.039 98.400,176.483 97.730,176.000 96.910 C 174.848 94.957,174.000 95.881,174.000 99.089 C 174.000 100.702,173.839 101.287,173.342 101.478 C 171.885 102.037,171.582 100.592,171.664 93.487 C 171.765 84.804,171.943 84.573,177.595 85.784 M195.960 86.158 L 196.860 87.115 195.217 88.038 L 193.575 88.961 193.815 94.255 C 194.085 100.210,193.836 101.200,192.066 101.200 L 190.961 101.200 191.059 96.300 C 191.113 93.605,191.262 90.829,191.391 90.131 C 191.589 89.054,191.487 88.820,190.712 88.589 C 186.871 87.442,187.430 85.701,191.705 85.497 C 193.297 85.421,194.704 85.323,194.830 85.279 C 194.957 85.236,195.465 85.631,195.960 86.158 M260.800 85.850 C 265.649 86.318,269.367 92.244,267.039 95.796 C 266.720 96.284,266.339 97.320,266.193 98.098 C 265.733 100.550,262.987 101.976,258.548 102.068 C 254.470 102.152,253.006 101.646,253.339 100.267 C 253.686 98.831,253.732 91.136,253.407 89.078 C 252.984 86.405,254.187 85.006,256.600 85.363 C 257.480 85.493,259.370 85.713,260.800 85.850 M245.978 86.358 C 246.602 87.525,245.593 88.076,243.050 87.958 C 240.501 87.840,239.600 88.382,239.600 90.035 C 239.600 91.463,240.536 91.996,243.074 92.013 C 245.261 92.027,246.661 92.779,245.906 93.534 C 245.650 93.790,244.441 94.006,243.220 94.013 C 237.834 94.044,237.892 99.598,243.283 100.000 C 248.589 100.396,247.461 101.998,241.846 102.039 C 236.914 102.075,236.818 101.987,236.712 97.286 C 236.431 84.920,236.131 85.600,241.875 85.600 C 245.094 85.600,245.624 85.698,245.978 86.358 M205.123 89.709 C 205.082 91.079,205.104 92.380,205.172 92.600 C 206.264 96.153,204.248 102.701,202.777 100.377 C 202.377 99.744,202.255 87.644,202.639 86.643 C 203.350 84.789,205.201 87.074,205.123 89.709 M229.909 93.449 C 230.023 101.035,229.710 102.578,228.382 100.978 C 227.664 100.114,227.379 87.349,228.058 86.530 C 229.489 84.806,229.796 85.954,229.909 93.449 M174.480 88.480 C 173.039 89.921,174.236 92.000,176.506 92.000 C 178.698 92.000,179.600 91.410,179.600 89.976 C 179.600 88.244,175.820 87.140,174.480 88.480 M256.509 88.468 C 255.985 89.100,255.721 98.825,256.207 99.612 C 256.716 100.436,260.904 99.907,262.007 98.879 C 262.526 98.396,263.082 98.000,263.243 98.000 C 263.404 98.000,263.842 97.055,264.217 95.900 C 264.592 94.745,265.038 93.647,265.209 93.460 C 265.380 93.273,265.178 92.778,264.760 92.360 C 264.342 91.942,264.000 91.184,264.000 90.676 C 264.000 88.585,257.904 86.788,256.509 88.468 " stroke="none" fill="#828282" fill-rule="evenodd"></path><path id="path1" d="M369.400 104.799 C 367.860 104.974,365.340 105.390,363.800 105.723 C 362.260 106.056,359.200 106.452,357.000 106.603 C 354.416 106.781,352.770 107.083,352.349 107.457 C 351.918 107.839,350.022 108.168,346.749 108.428 C 344.027 108.644,341.260 108.994,340.600 109.204 C 339.940 109.415,337.420 109.935,335.000 110.361 C 332.580 110.786,329.836 111.418,328.901 111.765 C 327.967 112.111,325.627 112.511,323.701 112.652 C 321.776 112.793,319.949 113.109,319.641 113.354 C 319.334 113.600,317.534 114.096,315.641 114.457 C 313.749 114.819,311.480 115.396,310.600 115.740 C 309.720 116.084,308.135 116.373,307.078 116.382 C 306.021 116.392,304.401 116.742,303.478 117.159 C 302.555 117.577,300.360 118.146,298.600 118.424 C 296.840 118.702,294.995 119.191,294.499 119.511 C 294.004 119.831,292.304 120.235,290.722 120.409 C 288.897 120.609,287.680 120.949,287.396 121.338 C 287.144 121.682,285.733 122.158,284.174 122.423 C 282.648 122.683,281.122 123.139,280.782 123.436 C 280.441 123.733,279.181 124.182,277.982 124.432 C 276.782 124.683,275.440 125.041,275.000 125.229 C 274.560 125.416,273.210 125.853,272.000 126.200 C 270.790 126.547,269.260 127.024,268.600 127.260 C 267.940 127.496,266.410 127.986,265.200 128.348 C 263.990 128.710,262.502 129.342,261.894 129.753 C 261.286 130.163,259.940 130.595,258.903 130.712 C 257.867 130.829,256.792 131.151,256.515 131.428 C 256.238 131.705,255.066 132.134,253.911 132.382 C 252.756 132.629,251.435 133.078,250.976 133.379 C 250.518 133.679,249.345 134.156,248.371 134.438 C 247.397 134.721,246.186 135.266,245.679 135.650 C 245.173 136.033,243.790 136.469,242.606 136.617 C 241.389 136.769,240.363 137.119,240.247 137.421 C 240.134 137.716,239.173 138.215,238.112 138.530 C 237.050 138.845,234.784 139.766,233.075 140.577 C 231.367 141.388,229.031 142.386,227.884 142.796 C 222.637 144.671,221.674 145.084,220.618 145.914 C 219.999 146.401,219.178 146.800,218.795 146.800 C 218.412 146.800,217.874 147.069,217.601 147.399 C 217.328 147.728,216.271 148.257,215.252 148.574 C 212.819 149.332,208.996 150.941,208.329 151.488 C 207.783 151.936,201.807 154.800,201.418 154.800 C 201.298 154.800,200.845 155.155,200.410 155.590 C 199.976 156.024,199.121 156.502,198.510 156.651 C 197.900 156.800,196.891 157.344,196.269 157.861 C 195.647 158.377,194.656 158.800,194.066 158.800 C 193.450 158.800,192.793 159.119,192.524 159.550 C 192.267 159.962,191.561 160.424,190.955 160.576 C 190.349 160.728,189.333 161.290,188.696 161.826 C 188.060 162.362,187.282 162.800,186.969 162.800 C 186.656 162.800,186.399 162.935,186.397 163.100 C 186.394 163.502,184.081 164.800,183.368 164.800 C 183.055 164.800,182.800 164.958,182.800 165.151 C 182.800 165.344,181.945 165.902,180.900 166.392 C 177.324 168.067,175.800 168.938,175.463 169.499 C 175.278 169.807,174.320 170.406,173.333 170.829 C 172.346 171.252,170.608 172.195,169.470 172.925 C 164.662 176.009,164.014 176.381,163.000 176.636 C 162.414 176.783,161.838 177.156,161.720 177.465 C 161.454 178.157,158.551 180.180,157.229 180.595 C 156.695 180.762,155.797 181.327,155.233 181.849 C 154.670 182.372,153.976 182.800,153.692 182.800 C 153.407 182.800,153.074 183.063,152.950 183.385 C 152.827 183.706,152.338 184.091,151.863 184.239 C 151.388 184.387,150.409 185.024,149.686 185.654 C 148.963 186.284,148.148 186.800,147.875 186.800 C 147.602 186.800,147.070 187.160,146.693 187.600 C 146.316 188.040,145.770 188.400,145.479 188.400 C 145.188 188.400,144.578 188.895,144.122 189.500 C 143.666 190.105,142.417 191.038,141.347 191.574 C 140.276 192.109,138.950 192.940,138.400 193.421 C 137.850 193.902,136.050 195.309,134.400 196.548 C 132.750 197.787,130.983 199.115,130.474 199.500 C 129.965 199.885,128.893 200.785,128.091 201.500 C 127.289 202.215,126.432 202.800,126.186 202.800 C 125.941 202.800,125.317 203.250,124.800 203.800 C 124.283 204.350,123.720 204.800,123.548 204.800 C 123.377 204.800,122.812 205.205,122.294 205.700 C 120.103 207.792,114.049 212.800,113.711 212.800 C 113.508 212.800,112.498 213.610,111.465 214.600 C 110.431 215.590,109.506 216.400,109.408 216.400 C 109.229 216.400,108.171 217.338,102.916 222.156 C 101.330 223.610,99.858 224.800,99.647 224.800 C 99.146 224.800,96.971 226.977,96.659 227.790 C 96.527 228.135,96.137 228.526,95.793 228.658 C 95.449 228.790,93.483 230.586,91.423 232.649 C 89.363 234.712,87.487 236.400,87.253 236.400 C 87.019 236.400,86.621 236.787,86.368 237.260 C 86.115 237.733,82.524 241.496,78.388 245.622 C 74.252 249.748,70.667 253.501,70.420 253.962 C 70.174 254.423,69.729 254.800,69.433 254.800 C 69.136 254.800,68.796 255.173,68.676 255.630 C 68.557 256.086,68.124 256.547,67.714 256.654 C 67.304 256.762,66.796 257.177,66.584 257.579 C 65.857 258.959,62.905 262.604,60.654 264.900 C 59.414 266.165,58.400 267.370,58.400 267.578 C 58.400 267.785,58.069 268.190,57.663 268.477 C 57.258 268.765,56.712 269.405,56.449 269.900 C 56.187 270.395,55.708 270.800,55.386 270.800 C 55.064 270.800,54.800 271.074,54.800 271.409 C 54.800 271.743,54.395 272.206,53.900 272.436 C 53.405 272.666,52.692 273.517,52.315 274.327 C 51.938 275.137,50.903 276.603,50.015 277.584 C 49.127 278.565,48.400 279.503,48.400 279.668 C 48.400 279.834,48.069 280.291,47.664 280.684 C 46.543 281.775,42.800 286.799,42.800 287.214 C 42.800 287.415,42.281 287.848,41.647 288.176 C 41.013 288.504,40.379 289.228,40.239 289.786 C 40.099 290.344,39.718 290.800,39.392 290.800 C 39.067 290.800,38.800 291.130,38.800 291.534 C 38.800 291.938,38.305 292.727,37.700 293.289 C 37.095 293.851,36.001 295.307,35.268 296.525 C 34.535 297.743,33.680 298.837,33.368 298.957 C 31.753 299.577,34.017 304.000,35.949 304.000 C 36.386 304.000,37.791 304.687,39.072 305.527 C 40.352 306.367,42.749 307.733,44.399 308.561 C 46.048 309.390,47.668 310.334,47.999 310.660 C 48.630 311.281,50.256 312.206,53.100 313.561 C 54.035 314.007,54.800 314.558,54.800 314.786 C 54.800 315.014,55.025 315.201,55.300 315.201 C 55.575 315.202,56.419 315.607,57.176 316.101 C 59.956 317.917,61.439 318.784,63.100 319.569 C 64.035 320.010,64.800 320.529,64.800 320.722 C 64.800 320.915,65.475 321.280,66.300 321.533 C 67.125 321.786,68.970 322.745,70.400 323.665 C 71.830 324.585,73.990 325.866,75.200 326.512 C 76.410 327.158,78.331 328.297,79.468 329.043 C 80.605 329.789,81.702 330.400,81.906 330.400 C 82.109 330.400,83.390 331.120,84.751 332.000 C 86.113 332.880,87.344 333.600,87.488 333.600 C 87.631 333.600,88.120 333.931,88.574 334.335 C 89.028 334.740,90.030 335.316,90.800 335.616 C 92.417 336.245,96.229 338.599,96.597 339.195 C 96.735 339.418,97.273 339.600,97.793 339.600 C 98.313 339.600,99.273 340.050,99.927 340.600 C 100.581 341.150,101.258 341.600,101.432 341.600 C 101.606 341.600,102.120 341.931,102.574 342.335 C 103.028 342.740,104.030 343.307,104.800 343.597 C 105.570 343.887,106.380 344.327,106.600 344.577 C 107.374 345.454,111.058 347.466,115.300 349.328 C 116.125 349.691,116.800 350.180,116.800 350.416 C 116.800 350.651,117.745 351.280,118.900 351.813 C 122.631 353.535,126.964 356.008,128.017 357.017 C 128.582 357.557,129.266 358.000,129.538 358.000 C 129.810 358.000,130.520 358.331,131.116 358.735 C 132.502 359.676,138.218 363.045,141.662 364.953 C 143.127 365.763,144.426 366.691,144.550 367.013 C 144.674 367.336,145.186 367.603,145.687 367.606 C 146.701 367.612,146.966 367.748,151.555 370.600 C 155.245 372.893,157.750 374.320,160.600 375.750 C 161.700 376.302,163.584 377.394,164.787 378.177 C 165.989 378.960,167.105 379.600,167.266 379.600 C 167.542 379.600,170.048 381.160,172.484 382.849 C 173.080 383.262,173.859 383.600,174.215 383.600 C 174.570 383.600,175.402 384.140,176.062 384.800 C 176.722 385.460,177.673 386.000,178.177 386.000 C 178.680 386.000,179.521 386.323,180.046 386.717 C 188.454 393.039,209.684 394.123,216.031 388.554 C 216.379 388.249,216.849 388.000,217.076 388.000 C 217.303 388.000,218.188 387.525,219.044 386.944 C 219.899 386.364,221.139 385.711,221.800 385.493 C 222.460 385.276,223.195 384.858,223.433 384.565 C 223.671 384.271,224.320 383.859,224.875 383.647 C 225.431 383.436,226.946 382.581,228.243 381.748 C 231.089 379.918,233.291 378.673,235.300 377.760 C 236.125 377.385,236.800 376.945,236.800 376.783 C 236.800 376.620,237.485 376.213,238.323 375.878 C 239.160 375.543,240.079 374.986,240.366 374.641 C 240.652 374.297,242.172 373.396,243.743 372.640 C 245.314 371.883,247.788 370.467,249.241 369.493 C 250.753 368.479,252.583 367.609,253.522 367.459 C 254.424 367.315,255.316 366.922,255.504 366.586 C 255.835 365.994,256.835 365.363,260.200 363.620 C 261.080 363.164,262.610 362.260,263.600 361.609 C 264.590 360.959,266.042 360.074,266.827 359.643 C 267.611 359.211,268.489 358.575,268.776 358.229 C 269.063 357.883,269.667 357.600,270.117 357.600 C 270.568 357.600,271.239 357.327,271.608 356.993 C 272.730 355.978,277.255 353.244,279.800 352.045 C 281.120 351.423,283.100 350.211,284.200 349.353 C 285.300 348.495,287.280 347.363,288.600 346.838 C 289.920 346.313,291.576 345.457,292.281 344.936 C 292.986 344.415,293.886 343.854,294.281 343.691 C 295.695 343.105,299.544 340.750,300.016 340.180 C 300.281 339.861,300.708 339.600,300.965 339.600 C 301.222 339.600,302.858 338.700,304.600 337.600 C 306.342 336.500,307.968 335.600,308.212 335.600 C 308.457 335.600,309.365 335.065,310.229 334.411 C 311.093 333.757,311.966 333.217,312.169 333.211 C 312.371 333.205,312.837 332.929,313.203 332.597 C 313.569 332.266,315.473 331.184,317.434 330.193 C 319.395 329.202,321.720 327.949,322.600 327.409 C 323.480 326.870,324.809 326.139,325.554 325.786 C 326.299 325.433,327.379 324.823,327.954 324.429 C 330.543 322.660,335.258 319.943,339.600 317.718 C 340.370 317.323,341.062 316.860,341.137 316.689 C 341.212 316.518,341.962 316.027,342.804 315.598 C 343.646 315.169,345.114 314.293,346.067 313.653 C 347.020 313.013,348.700 312.045,349.800 311.501 C 351.935 310.447,357.039 307.487,360.000 305.585 C 360.990 304.950,362.395 304.158,363.121 303.826 C 368.261 301.479,375.464 291.072,377.397 283.200 C 377.748 281.770,378.297 279.921,378.618 279.092 C 379.314 277.289,379.504 106.300,378.811 105.204 C 378.363 104.496,373.787 104.299,369.400 104.799 M317.200 195.935 C 319.730 195.881,329.759 195.829,339.486 195.819 C 360.115 195.797,358.495 195.431,358.734 200.165 C 358.963 204.692,358.784 204.800,351.047 204.800 C 345.004 204.800,344.889 204.816,344.652 205.700 C 344.519 206.195,344.408 215.805,344.405 227.056 C 344.399 250.943,344.779 248.992,340.008 249.653 L 337.016 250.067 335.973 248.901 C 334.860 247.654,334.142 237.148,334.587 228.600 C 334.679 226.840,334.725 222.340,334.690 218.600 C 334.655 214.860,334.621 210.605,334.613 209.145 C 334.593 205.152,334.136 204.797,329.038 204.812 C 326.099 204.821,325.191 204.935,325.700 205.232 C 326.085 205.456,326.400 205.959,326.400 206.350 C 326.400 206.741,326.835 207.469,327.366 207.968 C 327.898 208.467,328.449 209.340,328.591 209.906 C 328.733 210.473,329.194 211.374,329.614 211.909 C 330.035 212.444,330.490 213.538,330.625 214.341 C 330.760 215.143,331.166 216.430,331.528 217.200 C 332.463 219.191,332.480 226.794,331.552 227.857 C 331.195 228.266,330.779 229.580,330.628 230.777 C 330.337 233.069,327.692 237.871,325.556 239.984 C 324.982 240.551,324.387 241.410,324.235 241.890 C 324.082 242.371,323.382 243.224,322.679 243.785 C 321.975 244.345,321.116 245.072,320.770 245.399 C 320.423 245.725,319.523 246.200,318.770 246.453 C 318.016 246.706,317.109 247.164,316.753 247.471 C 316.397 247.778,315.028 248.249,313.711 248.517 C 312.394 248.786,311.013 249.258,310.642 249.565 C 308.998 250.929,299.177 250.828,296.996 249.425 C 296.554 249.140,295.211 248.697,294.012 248.440 C 292.814 248.183,291.555 247.731,291.216 247.436 C 290.877 247.141,290.118 246.653,289.529 246.350 C 287.676 245.398,281.600 239.967,281.600 239.262 C 281.600 239.042,281.177 238.353,280.660 237.731 C 277.366 233.771,274.670 220.370,276.749 218.291 C 276.997 218.043,277.200 217.273,277.200 216.580 C 277.200 214.943,277.914 212.919,278.581 212.663 C 278.869 212.552,279.322 211.558,279.587 210.454 C 279.908 209.117,280.391 208.236,281.034 207.814 C 281.565 207.466,282.000 206.916,282.000 206.591 C 282.000 206.266,282.261 206.000,282.580 206.000 C 282.899 206.000,283.304 205.754,283.480 205.452 C 283.828 204.857,288.865 200.317,290.679 198.964 C 291.296 198.504,292.610 197.839,293.600 197.487 C 294.590 197.134,296.120 196.560,297.000 196.210 C 298.335 195.680,299.758 195.613,305.600 195.804 C 309.450 195.930,314.670 195.989,317.200 195.935 M272.726 198.381 C 273.757 198.810,275.336 199.349,276.236 199.579 C 277.137 199.809,278.199 200.357,278.598 200.798 C 278.998 201.239,279.573 201.600,279.878 201.600 C 280.183 201.600,280.757 202.364,281.154 203.298 L 281.875 204.996 280.804 205.998 C 280.214 206.549,279.651 207.245,279.551 207.544 C 279.419 207.943,278.856 207.729,277.444 206.744 C 274.804 204.901,275.028 205.006,271.000 203.736 C 266.052 202.175,258.082 202.048,256.236 203.500 C 255.607 203.995,254.693 204.400,254.205 204.400 C 253.718 204.400,252.769 204.895,252.098 205.500 C 249.770 207.597,248.198 208.780,247.727 208.790 C 247.467 208.796,247.128 209.198,246.973 209.685 C 246.819 210.171,246.177 211.085,245.546 211.715 C 244.916 212.346,244.399 213.163,244.399 213.531 C 244.398 213.899,244.041 214.783,243.607 215.496 C 242.071 218.015,241.682 230.232,243.108 231.154 C 243.317 231.289,243.809 232.030,244.200 232.800 C 244.840 234.058,245.898 235.547,247.306 237.170 C 247.578 237.483,247.980 238.055,248.200 238.442 C 248.711 239.341,250.756 240.817,253.800 242.485 L 256.200 243.800 263.519 243.761 C 270.190 243.725,270.935 243.651,271.927 242.917 C 272.526 242.475,273.462 241.976,274.008 241.810 C 274.553 241.644,275.379 241.162,275.843 240.738 C 276.763 239.897,279.152 239.385,279.818 239.885 C 281.986 241.517,281.987 244.800,279.820 244.800 C 279.501 244.800,279.096 245.044,278.920 245.342 C 278.463 246.115,277.020 246.800,275.849 246.800 C 275.297 246.800,274.250 247.143,273.523 247.563 C 272.795 247.982,271.030 248.451,269.600 248.604 C 268.170 248.757,266.100 249.110,265.000 249.388 C 263.623 249.736,262.315 249.785,260.800 249.547 C 259.590 249.357,257.430 249.044,256.000 248.852 C 251.522 248.251,243.200 243.260,243.200 241.175 C 243.200 240.969,242.939 240.800,242.620 240.800 C 241.900 240.800,240.000 238.366,240.000 237.444 C 240.000 237.070,239.545 236.309,238.989 235.753 C 238.434 235.197,237.738 234.170,237.444 233.471 L 236.908 232.200 236.412 233.400 C 236.139 234.060,235.665 235.191,235.358 235.914 C 235.051 236.636,234.800 237.679,234.800 238.232 C 234.800 238.784,234.364 239.672,233.831 240.205 C 233.298 240.738,232.750 241.529,232.612 241.962 C 232.173 243.344,227.778 246.283,225.682 246.595 C 224.647 246.749,223.592 247.046,223.338 247.255 C 223.062 247.481,218.099 247.587,211.015 247.517 L 199.153 247.400 198.386 246.400 C 197.195 244.850,197.170 200.913,198.359 199.837 C 199.050 199.211,200.293 199.161,212.259 199.275 L 225.400 199.400 227.662 200.707 C 231.523 202.940,233.104 205.735,233.486 211.005 C 233.786 215.149,230.713 220.800,228.161 220.800 C 227.793 220.800,228.258 221.378,229.262 222.171 C 232.688 224.873,234.348 226.971,234.680 229.016 C 235.224 232.366,235.800 229.518,235.803 223.466 C 235.806 217.761,235.864 217.299,236.703 216.232 C 237.197 215.605,237.600 214.603,237.600 214.004 C 237.600 213.399,238.043 212.439,238.600 211.838 C 239.150 211.244,239.600 210.351,239.600 209.853 C 239.600 209.341,240.166 208.430,240.900 207.759 C 241.615 207.105,242.781 205.947,243.491 205.185 C 245.438 203.097,246.880 201.948,248.100 201.514 C 248.705 201.298,249.200 200.965,249.200 200.773 C 249.200 200.363,252.784 198.630,254.800 198.065 C 257.614 197.276,270.625 197.505,272.726 198.381 M364.400 199.965 C 364.400 201.733,363.306 202.508,361.946 201.705 C 360.382 200.780,360.357 199.116,361.900 198.554 C 363.314 198.038,364.400 198.651,364.400 199.965 M158.942 200.618 C 159.964 201.398,160.800 202.292,160.800 202.604 C 160.800 202.916,161.144 203.356,161.564 203.581 C 161.985 203.806,162.742 204.667,163.247 205.495 C 163.752 206.323,165.208 208.220,166.482 209.710 C 167.757 211.201,168.800 212.557,168.800 212.723 C 168.800 212.889,169.655 213.940,170.700 215.059 C 171.745 216.177,173.050 217.681,173.600 218.401 C 174.150 219.121,174.914 219.994,175.298 220.342 C 175.681 220.689,176.184 221.546,176.415 222.245 C 176.645 222.944,177.186 223.608,177.615 223.720 C 178.045 223.832,178.522 224.253,178.676 224.655 C 178.831 225.057,179.834 226.289,180.905 227.393 C 183.587 230.156,183.808 230.427,184.535 231.856 C 185.220 233.200,188.629 236.800,189.218 236.800 C 190.304 236.800,191.521 230.088,190.783 228.170 C 190.505 227.449,190.419 225.772,190.559 223.800 C 191.057 216.794,191.221 209.339,190.901 208.240 C 190.434 206.635,191.119 201.164,191.895 200.300 C 192.718 199.384,194.892 199.397,195.731 200.324 C 196.715 201.412,196.781 244.916,195.800 246.000 C 193.323 248.737,188.259 246.757,185.858 242.112 C 185.491 241.403,184.834 240.632,184.396 240.398 C 183.958 240.164,183.600 239.791,183.600 239.571 C 183.600 239.351,182.835 238.399,181.900 237.457 C 180.965 236.515,179.570 234.811,178.800 233.670 C 178.030 232.530,176.522 230.652,175.448 229.498 C 173.822 227.750,169.439 222.341,166.508 218.464 C 166.119 217.948,165.417 217.138,164.950 216.664 C 162.961 214.643,159.671 210.464,159.541 209.793 C 159.463 209.394,159.194 208.998,158.943 208.914 C 158.606 208.802,158.445 213.531,158.331 226.881 C 158.219 239.876,158.041 245.241,157.700 245.851 C 157.030 247.050,155.240 247.333,154.000 246.436 L 153.000 245.713 153.000 223.298 C 153.000 201.817,153.032 200.848,153.762 200.042 C 154.934 198.747,156.758 198.950,158.942 200.618 M204.331 204.670 C 203.159 204.980,202.863 206.813,203.215 211.576 C 203.398 214.048,203.463 216.292,203.359 216.562 C 202.877 217.818,204.701 219.082,207.295 219.291 C 211.671 219.642,222.745 218.969,223.519 218.305 C 223.894 217.984,224.508 217.613,224.884 217.480 C 228.773 216.103,228.249 205.492,224.250 204.644 C 222.962 204.371,205.375 204.394,204.331 204.670 M303.600 208.224 C 303.270 208.293,302.154 208.460,301.120 208.596 C 299.741 208.777,299.174 209.050,298.993 209.621 C 298.858 210.048,298.326 210.504,297.811 210.633 C 297.297 210.762,296.782 211.226,296.667 211.664 C 296.553 212.101,296.121 212.548,295.708 212.656 C 294.655 212.931,292.551 217.012,292.250 219.360 C 292.112 220.437,291.799 221.561,291.554 221.856 C 290.160 223.536,293.665 232.184,296.474 233.998 C 301.334 237.134,303.029 237.726,306.400 237.466 C 312.216 237.018,319.600 232.616,319.600 229.598 C 319.600 229.218,319.996 228.405,320.480 227.789 C 321.935 225.939,322.024 220.446,320.646 217.533 C 320.070 216.317,319.600 215.147,319.600 214.932 C 319.600 214.574,317.233 212.361,314.159 209.844 C 313.477 209.285,312.217 208.739,311.359 208.630 C 308.998 208.331,304.278 208.084,303.600 208.224 M288.682 209.900 C 288.458 211.066,288.775 211.779,289.105 210.850 C 289.212 210.548,289.637 209.963,290.050 209.550 C 290.783 208.817,290.779 208.800,289.847 208.800 C 289.124 208.800,288.842 209.067,288.682 209.900 M286.443 213.830 C 286.222 214.628,285.754 215.491,285.403 215.749 C 284.865 216.142,284.750 217.326,284.682 223.208 L 284.600 230.200 285.800 232.099 C 288.047 235.656,288.843 232.547,286.798 228.200 C 285.187 224.775,285.112 216.689,286.682 215.657 C 287.233 215.295,287.650 212.878,287.209 212.605 C 287.008 212.481,286.663 213.032,286.443 213.830 M204.700 224.521 L 203.200 224.879 203.200 232.976 L 203.200 241.072 204.300 241.598 C 205.944 242.384,223.307 242.172,224.904 241.346 C 229.197 239.126,230.117 236.938,229.635 230.097 C 229.616 229.821,229.150 229.203,228.600 228.725 C 228.050 228.247,227.600 227.663,227.600 227.428 C 227.600 226.234,224.621 224.627,222.213 224.520 C 215.096 224.206,206.014 224.206,204.700 224.521 M288.311 234.622 C 287.910 235.024,288.921 237.600,289.480 237.600 C 289.780 237.600,290.141 237.915,290.283 238.300 C 290.723 239.491,293.200 240.256,293.200 239.200 C 293.200 238.980,293.026 238.800,292.813 238.800 C 292.600 238.800,291.678 237.810,290.765 236.600 C 289.151 234.462,288.774 234.159,288.311 234.622 M294.226 240.758 C 293.942 241.218,294.943 241.600,296.433 241.600 C 297.813 241.600,297.984 240.996,296.700 240.652 C 295.408 240.306,294.481 240.346,294.226 240.758 M299.907 243.090 C 300.626 243.179,301.706 243.177,302.307 243.086 C 302.908 242.995,302.320 242.922,301.000 242.924 C 299.680 242.926,299.188 243.001,299.907 243.090 M213.977 258.255 C 215.906 258.641,216.562 259.986,216.665 263.765 C 216.767 267.543,216.480 268.098,213.973 268.971 C 210.649 270.128,210.220 269.732,209.791 265.104 C 209.277 259.565,210.502 257.560,213.977 258.255 M275.806 258.810 C 275.946 259.036,275.552 259.399,274.930 259.616 C 271.781 260.719,271.224 264.882,273.862 267.598 C 275.104 268.878,275.161 269.039,274.533 269.498 C 273.411 270.319,272.941 270.099,271.432 268.044 C 269.115 264.888,269.150 261.247,271.507 260.205 C 271.998 259.988,272.400 259.598,272.400 259.338 C 272.400 258.465,275.314 258.013,275.806 258.810 M162.123 260.700 C 163.278 263.923,162.639 268.800,161.062 268.800 C 160.364 268.800,158.177 266.389,157.801 265.204 C 157.249 263.465,156.568 264.462,155.805 268.128 C 155.503 269.580,154.736 269.326,154.119 267.570 C 153.577 266.027,153.850 260.523,154.509 259.691 C 155.251 258.755,157.986 260.216,158.013 261.562 C 158.072 264.511,159.488 263.287,160.632 259.300 C 160.912 258.321,161.452 258.827,162.123 260.700 M203.814 260.696 C 204.929 266.202,204.120 269.631,202.064 268.111 L 200.863 267.222 199.931 268.204 C 199.034 269.150,196.800 269.607,196.800 268.845 C 196.800 268.649,196.148 268.367,195.351 268.217 C 194.554 268.068,193.609 267.797,193.251 267.616 C 192.893 267.434,192.120 267.097,191.533 266.867 C 190.946 266.636,190.226 265.962,189.933 265.368 C 189.190 263.863,188.624 263.951,188.467 265.597 C 188.310 267.257,187.889 267.586,185.909 267.594 C 184.760 267.599,184.267 267.832,183.757 268.610 C 183.066 269.664,181.853 269.673,181.000 268.631 C 180.074 267.499,179.114 267.287,177.935 267.952 C 176.608 268.700,176.017 268.224,176.006 266.397 C 176.003 265.846,175.838 264.829,175.640 264.138 C 175.358 263.155,175.445 262.609,176.040 261.631 C 176.458 260.943,176.816 260.070,176.836 259.690 C 176.856 259.311,177.033 259.555,177.230 260.233 C 177.864 262.414,178.882 262.990,180.001 261.799 C 181.155 260.571,182.464 260.527,184.004 261.666 C 185.129 262.498,185.290 262.511,188.045 261.992 C 190.625 261.505,191.031 261.518,192.086 262.123 C 192.942 262.615,193.460 262.689,194.003 262.398 C 194.412 262.179,195.299 262.000,195.974 262.000 C 196.648 262.000,197.200 261.820,197.200 261.600 C 197.200 260.898,199.055 261.171,200.152 262.034 L 201.212 262.868 201.747 261.534 C 202.041 260.800,202.397 259.874,202.538 259.475 C 202.908 258.428,203.462 258.959,203.814 260.696 M303.588 259.971 C 304.181 261.404,304.649 261.597,308.200 261.883 C 309.740 262.007,311.180 262.236,311.400 262.392 C 312.382 263.089,313.216 263.103,314.074 262.439 C 315.359 261.444,316.671 261.214,318.965 261.580 C 320.778 261.869,321.000 261.812,321.827 260.850 C 323.356 259.073,325.609 262.106,324.273 264.144 C 323.878 264.748,323.818 265.295,324.071 265.980 C 324.446 266.994,323.823 269.200,323.162 269.200 C 322.640 269.200,321.600 266.965,321.600 265.843 C 321.600 265.296,321.420 264.736,321.200 264.600 C 320.965 264.455,320.800 264.885,320.800 265.645 C 320.800 267.068,319.842 268.400,318.818 268.400 C 318.456 268.400,317.954 268.606,317.702 268.858 C 317.358 269.202,316.706 269.052,315.082 268.258 C 313.893 267.676,312.488 267.186,311.960 267.168 C 311.346 267.148,311.216 267.054,311.600 266.908 C 313.056 266.354,313.386 263.200,311.987 263.200 C 309.676 263.200,308.284 264.316,308.547 265.959 C 308.828 267.717,308.495 268.000,306.141 268.000 C 303.975 268.000,303.100 267.365,303.398 266.010 C 303.539 265.369,303.463 264.762,303.223 264.614 C 302.957 264.450,302.800 264.858,302.800 265.714 C 302.800 267.697,301.518 268.812,300.400 267.800 C 299.960 267.402,299.597 266.609,299.594 266.038 C 299.582 264.106,298.931 263.818,298.644 265.618 C 297.899 270.273,296.041 269.900,295.822 265.051 C 295.654 261.327,296.825 259.602,298.384 261.275 C 298.833 261.757,299.201 261.982,299.201 261.775 C 299.212 259.241,302.692 257.809,303.588 259.971 M328.593 261.936 C 329.249 262.010,330.469 261.866,331.304 261.616 C 332.639 261.216,332.964 261.262,334.000 262.000 C 334.969 262.690,335.332 262.758,336.035 262.381 C 336.506 262.129,337.397 261.997,338.014 262.087 C 338.678 262.185,339.506 261.973,340.043 261.568 C 341.432 260.520,342.588 262.145,342.440 264.937 C 342.313 267.318,341.250 268.596,340.660 267.076 C 340.472 266.594,340.042 265.570,339.703 264.800 L 339.088 263.400 338.562 264.600 C 338.273 265.260,338.028 266.183,338.018 266.651 C 337.972 268.834,333.215 268.196,333.187 266.003 C 333.173 264.825,331.362 263.278,330.734 263.906 C 329.867 264.773,330.532 266.584,331.800 266.809 C 332.742 266.976,332.849 267.082,332.300 267.298 C 331.915 267.450,331.600 267.941,331.600 268.387 C 331.600 269.460,330.954 269.431,330.670 268.345 C 330.467 267.571,330.263 267.515,328.478 267.752 C 325.947 268.088,325.539 267.635,325.867 264.860 C 326.003 263.714,326.269 262.681,326.457 262.565 C 326.646 262.448,326.826 261.508,326.857 260.476 L 326.914 258.600 327.157 260.200 C 327.371 261.612,327.540 261.816,328.593 261.936 M174.612 262.077 C 174.745 262.669,174.658 263.518,174.420 263.963 C 174.181 264.409,174.092 265.454,174.221 266.287 C 174.513 268.169,173.638 269.661,172.699 268.882 C 171.527 267.909,171.246 261.633,172.309 260.188 L 173.000 259.250 173.685 260.125 C 174.062 260.606,174.479 261.484,174.612 262.077 M252.612 263.324 C 252.197 268.633,250.851 270.323,250.086 266.496 C 249.303 262.580,250.175 259.191,251.882 259.518 L 252.894 259.711 252.612 263.324 M212.447 260.313 C 211.968 261.207,212.574 262.062,213.449 261.726 C 214.164 261.452,214.153 260.625,213.428 260.023 C 212.972 259.645,212.773 259.704,212.447 260.313 M246.041 263.240 C 246.164 266.282,244.291 268.941,242.334 268.503 C 241.262 268.264,241.085 267.156,242.014 266.505 C 243.194 265.678,242.910 264.236,241.534 264.077 C 240.271 263.931,239.700 265.093,240.396 266.393 C 240.932 267.395,240.620 268.000,239.566 268.000 C 238.686 268.000,238.223 267.036,237.899 264.527 C 237.663 262.697,239.176 261.600,241.936 261.600 C 242.644 261.600,243.389 261.217,243.961 260.559 C 245.173 259.165,245.915 260.122,246.041 263.240 M293.785 260.772 C 294.698 262.536,294.226 268.800,293.181 268.800 C 292.663 268.800,292.381 268.158,291.996 266.099 C 291.800 265.055,291.534 263.750,291.406 263.200 C 291.255 262.556,291.459 261.738,291.980 260.900 C 292.967 259.313,293.029 259.308,293.785 260.772 M230.105 260.900 C 232.149 262.042,232.400 262.457,232.400 264.688 C 232.400 267.199,231.885 268.400,230.810 268.400 C 230.390 268.400,229.936 268.580,229.800 268.800 C 229.041 270.028,226.256 268.674,225.375 266.649 C 224.964 265.706,224.824 265.596,224.802 266.200 C 224.766 267.215,223.462 268.800,222.663 268.800 C 221.748 268.800,221.468 267.346,222.128 266.023 C 222.610 265.058,222.619 264.816,222.177 264.647 C 221.606 264.427,220.594 261.272,220.974 260.893 C 221.098 260.768,221.200 260.877,221.200 261.133 C 221.200 261.390,221.681 261.600,222.269 261.600 C 223.582 261.600,224.799 262.639,224.801 263.762 C 224.803 264.456,224.940 264.375,225.602 263.290 C 226.041 262.570,226.833 261.816,227.361 261.615 C 227.890 261.414,228.440 261.058,228.585 260.825 C 228.917 260.287,229.018 260.292,230.105 260.900 M258.345 261.433 C 259.043 261.780,259.885 262.590,260.217 263.233 C 260.968 264.686,260.951 264.688,261.930 263.029 C 263.457 260.441,265.129 261.897,264.341 265.129 C 263.653 267.948,263.216 268.315,262.144 266.970 C 261.202 265.790,260.311 266.006,259.816 267.536 C 259.586 268.247,257.841 269.208,256.820 269.187 C 256.265 269.176,256.266 269.124,256.830 268.687 C 257.941 267.827,258.400 265.060,257.605 264.007 C 256.753 262.878,256.400 263.534,256.400 266.245 C 256.400 269.228,254.030 269.039,253.972 266.051 C 253.956 265.253,253.799 264.240,253.621 263.800 C 253.214 262.790,253.820 262.000,255.000 262.000 C 255.496 262.000,256.126 261.730,256.400 261.400 C 257.003 260.673,256.816 260.670,258.345 261.433 M283.870 261.583 C 284.565 262.130,285.214 262.297,286.021 262.136 C 286.656 262.009,287.971 262.139,288.942 262.426 L 290.707 262.947 289.453 263.574 C 288.400 264.100,288.195 264.436,288.171 265.674 C 288.122 268.162,287.262 268.746,285.973 267.167 C 284.950 265.913,284.853 265.881,283.638 266.384 C 282.941 266.673,281.620 266.909,280.702 266.909 C 279.785 266.909,278.779 267.164,278.467 267.476 C 277.759 268.184,276.200 268.002,276.200 267.212 C 276.200 266.888,276.650 266.401,277.200 266.128 C 277.873 265.794,278.265 265.202,278.400 264.316 C 278.573 263.176,280.968 261.253,282.737 260.833 C 282.812 260.815,283.322 261.153,283.870 261.583 M350.567 261.946 C 350.683 262.135,351.685 262.053,352.794 261.766 C 356.453 260.817,359.207 264.441,357.217 267.586 C 356.836 268.188,356.000 266.691,356.000 265.407 C 356.000 263.895,353.729 264.517,353.015 266.225 C 351.618 269.570,348.071 268.887,348.076 265.274 C 348.081 261.672,349.350 259.977,350.567 261.946 M166.669 261.835 C 166.803 262.185,166.739 263.040,166.526 263.735 C 166.313 264.431,166.262 265.455,166.411 266.011 C 166.754 267.284,166.216 268.800,165.422 268.800 C 163.734 268.800,162.594 263.406,163.988 262.012 C 164.958 261.042,166.330 260.951,166.669 261.835 M170.389 262.186 C 171.358 263.355,170.035 268.400,168.759 268.400 C 167.955 268.400,167.760 267.826,167.474 264.600 C 167.213 261.671,168.841 260.322,170.389 262.186 M236.457 262.524 C 236.598 262.735,236.553 263.467,236.357 264.151 C 236.161 264.835,235.997 265.846,235.994 266.397 C 235.983 268.100,235.364 268.735,234.529 267.900 C 233.681 267.053,233.555 263.218,234.344 262.268 C 234.857 261.649,235.959 261.783,236.457 262.524 M220.790 263.100 C 220.761 266.542,219.727 268.223,218.096 267.480 C 217.054 267.005,217.040 263.757,218.075 262.510 C 218.935 261.474,220.801 261.879,220.790 263.100 M228.542 263.779 C 228.141 264.977,228.639 268.400,229.215 268.400 C 229.772 268.400,229.937 265.041,229.440 263.828 L 228.937 262.600 228.542 263.779 M196.632 264.214 C 196.337 265.389,196.658 266.800,197.219 266.800 C 197.906 266.800,198.091 264.865,197.486 264.002 C 196.899 263.163,196.896 263.164,196.632 264.214 M182.089 264.548 L 181.178 265.040 182.169 265.971 L 183.159 266.901 183.430 265.821 C 183.779 264.430,183.245 263.923,182.089 264.548 M315.915 264.546 C 315.296 265.016,315.289 265.149,315.838 265.933 C 316.615 267.042,317.138 267.032,317.567 265.900 C 318.136 264.397,317.162 263.598,315.915 264.546 M212.612 264.781 C 212.495 264.971,212.549 265.534,212.733 266.031 C 213.065 266.927,213.253 266.831,213.713 265.533 C 213.961 264.833,212.990 264.169,212.612 264.781 M229.396 273.669 C 230.741 274.473,231.754 275.434,232.164 276.294 L 232.811 277.650 233.859 276.825 C 235.060 275.881,236.889 275.743,237.556 276.547 C 238.102 277.205,237.599 277.701,235.800 278.277 C 234.792 278.600,234.580 278.898,234.476 280.134 C 234.347 281.659,234.402 281.715,236.500 282.174 C 238.282 282.565,237.892 283.600,235.963 283.600 C 234.695 283.600,234.281 283.430,234.128 282.847 C 233.790 281.554,231.243 281.409,229.989 282.611 C 228.176 284.347,224.535 283.338,223.817 280.900 C 223.607 280.185,223.292 279.600,223.117 279.600 C 222.655 279.600,222.728 277.292,223.200 277.000 C 223.420 276.864,223.600 276.331,223.600 275.815 C 223.600 274.947,226.051 272.449,226.937 272.413 C 227.123 272.406,228.230 272.971,229.396 273.669 M312.851 272.857 C 313.655 273.250,314.106 275.200,313.393 275.200 C 312.632 275.200,311.923 277.325,312.039 279.261 C 312.096 280.218,311.904 281.444,311.611 281.986 L 311.079 282.973 310.468 282.052 C 310.075 281.460,309.892 280.391,309.954 279.052 C 310.028 277.456,309.858 276.727,309.225 275.923 C 307.146 273.279,309.555 271.243,312.851 272.857 M302.369 279.451 C 302.390 281.103,302.594 282.063,302.996 282.396 C 303.962 283.198,303.333 283.524,301.674 283.081 C 300.485 282.764,299.540 282.818,297.576 283.312 C 295.133 283.928,294.968 283.922,293.764 283.178 C 293.072 282.750,292.142 282.400,291.697 282.400 C 290.167 282.400,289.092 281.137,289.564 279.895 C 289.948 278.884,289.904 278.800,288.990 278.800 C 287.867 278.800,287.867 278.799,288.371 280.123 C 288.795 281.240,287.549 282.121,286.085 281.738 C 285.648 281.624,285.169 281.726,285.022 281.965 C 284.874 282.204,284.155 282.400,283.425 282.400 C 282.695 282.400,281.890 282.650,281.637 282.956 C 280.784 283.983,279.241 283.979,278.430 282.947 C 277.518 281.788,276.911 281.756,275.788 282.811 C 274.256 284.251,273.796 283.557,273.834 279.864 C 273.880 275.397,274.835 274.160,276.200 276.800 C 276.921 278.195,277.443 278.326,277.800 277.201 C 278.139 276.131,279.721 275.790,281.654 276.369 C 282.524 276.629,283.568 276.737,283.975 276.608 C 284.381 276.479,287.999 276.323,292.013 276.261 C 299.826 276.140,300.726 275.874,300.831 273.656 C 300.913 271.926,302.342 277.311,302.369 279.451 M226.370 274.900 C 226.354 275.395,226.028 276.509,225.645 277.375 C 224.981 278.881,224.982 278.982,225.675 279.675 C 226.074 280.074,226.400 280.850,226.400 281.400 C 226.400 282.768,226.710 282.667,228.465 280.728 C 230.120 278.900,230.196 277.682,228.744 276.284 C 228.335 275.891,228.000 275.216,228.000 274.784 C 228.000 273.611,226.409 273.724,226.370 274.900 M272.201 276.003 C 272.609 276.791,272.687 277.447,272.447 278.078 C 272.255 278.585,272.186 279.919,272.294 281.042 C 272.472 282.889,272.407 283.105,271.613 283.313 C 270.244 283.670,269.244 280.287,269.548 276.329 C 269.701 274.340,271.244 274.151,272.201 276.003 M317.862 275.478 C 318.520 275.908,319.520 276.117,320.607 276.050 C 321.549 275.992,322.438 276.138,322.584 276.373 C 322.765 276.666,323.086 276.675,323.598 276.401 C 324.701 275.811,327.298 275.913,328.258 276.585 C 328.919 277.049,329.339 277.078,330.270 276.727 C 332.490 275.889,335.505 276.968,333.500 277.882 C 332.904 278.154,332.339 279.062,331.828 280.568 C 331.058 282.836,331.053 282.841,330.461 281.866 C 329.339 280.017,324.800 279.653,324.800 281.412 C 324.800 281.677,324.125 281.989,323.300 282.105 C 322.475 282.220,321.543 282.379,321.229 282.457 C 320.881 282.544,320.508 282.130,320.275 281.400 C 319.271 278.252,319.112 277.975,318.571 278.424 C 318.281 278.665,317.824 279.844,317.555 281.045 L 317.066 283.228 316.533 281.814 C 316.240 281.036,315.738 279.725,315.418 278.900 C 314.163 275.669,315.436 273.888,317.862 275.478 M244.800 276.479 C 245.350 276.466,246.247 276.397,246.793 276.327 C 247.733 276.207,247.802 276.336,248.113 278.800 C 248.293 280.230,248.599 281.559,248.793 281.753 C 249.323 282.283,250.466 279.210,250.196 277.982 C 249.858 276.442,250.841 275.740,251.821 276.823 C 253.024 278.153,252.775 281.918,251.406 283.096 C 249.228 284.970,245.860 283.614,245.695 280.799 C 245.500 277.489,245.339 277.167,244.103 277.637 C 242.039 278.422,241.657 281.095,243.443 282.265 C 244.853 283.189,243.769 284.195,242.059 283.549 C 239.632 282.633,238.728 280.425,239.765 277.949 C 240.555 276.062,240.814 275.891,242.400 276.217 C 243.170 276.375,244.250 276.493,244.800 276.479 M259.700 276.557 C 260.085 276.849,260.400 277.283,260.400 277.520 C 260.400 278.478,261.181 278.348,261.678 277.308 C 262.317 275.971,267.401 275.397,268.361 276.553 C 269.077 277.415,268.502 281.760,267.523 282.889 C 265.900 284.760,262.689 283.830,261.587 281.169 L 261.101 279.995 260.451 281.298 C 260.093 282.014,259.192 282.904,258.448 283.275 C 257.704 283.646,256.583 284.442,255.956 285.042 L 254.816 286.135 254.261 284.767 C 253.244 282.260,253.125 278.735,254.009 277.282 C 254.878 275.852,258.213 275.428,259.700 276.557 M341.822 276.408 C 342.583 276.698,343.280 276.678,344.211 276.342 C 345.874 275.740,352.198 276.416,352.921 277.272 C 354.285 278.888,354.773 278.975,355.977 277.822 L 357.125 276.722 357.616 278.913 C 358.326 282.089,357.576 284.319,355.447 285.358 C 353.120 286.494,351.839 285.928,351.677 283.693 C 351.609 282.762,351.511 282.000,351.458 282.000 C 351.405 282.000,349.893 282.720,348.097 283.600 C 343.623 285.793,342.975 285.755,343.061 283.300 C 343.098 282.255,343.042 281.895,342.937 282.500 C 342.820 283.175,342.487 283.609,342.073 283.623 C 341.703 283.635,340.363 283.680,339.095 283.723 C 337.277 283.784,336.746 283.663,336.585 283.153 C 336.472 282.797,336.024 282.184,335.590 281.791 C 332.286 278.801,337.124 274.622,341.822 276.408 M256.424 278.571 C 256.031 279.045,256.029 279.477,256.418 280.655 C 256.881 282.058,256.939 282.098,257.472 281.370 C 258.600 279.829,257.599 277.155,256.424 278.571 M280.296 278.580 C 279.387 279.244,279.406 280.901,280.331 281.738 C 281.439 282.740,281.600 282.573,281.600 280.424 C 281.600 278.223,281.322 277.829,280.296 278.580 M294.667 278.267 C 294.285 278.648,294.349 280.499,294.766 281.158 C 295.308 282.015,296.280 281.402,296.474 280.080 C 296.671 278.737,295.436 277.498,294.667 278.267 M337.984 278.619 C 337.561 279.129,337.592 279.494,338.157 280.678 C 338.904 282.245,339.365 282.092,339.725 280.158 C 340.063 278.345,338.995 277.401,337.984 278.619 M346.428 278.566 C 346.048 279.024,346.032 279.422,346.362 280.187 C 346.969 281.592,347.290 281.597,347.662 280.205 C 348.067 278.692,347.238 277.591,346.428 278.566 M264.581 278.904 C 264.238 279.799,264.519 281.418,265.000 281.312 C 265.220 281.264,265.459 280.747,265.531 280.164 C 265.688 278.899,264.956 277.928,264.581 278.904 M327.574 282.376 C 328.033 282.666,328.050 282.858,327.658 283.330 C 327.029 284.088,325.054 283.621,324.871 282.671 C 324.726 281.919,326.540 281.721,327.574 282.376 " stroke="none" fill="#adadad" fill-rule="evenodd"></path></g></svg>