<svg id="svg" xmlns="http://www.w3.org/2000/svg" xmlns:xlink="http://www.w3.org/1999/xlink" width="400" height="164.57142857142858" viewBox="0, 0, 400,164.57142857142858"><g id="svgg"><path id="path0" d="M173.980 36.125 L 166.209 36.170 165.445 36.987 C 165.024 37.437,164.628 38.017,164.565 38.277 C 164.501 38.537,164.247 39.050,163.999 39.417 C 163.751 39.783,163.460 40.356,163.351 40.688 C 163.243 41.021,163.011 41.422,162.837 41.580 C 162.662 41.739,162.472 42.083,162.414 42.345 C 162.356 42.608,162.116 43.106,161.879 43.453 C 161.642 43.800,161.299 44.421,161.117 44.833 C 160.935 45.246,160.609 45.795,160.393 46.054 C 160.177 46.314,160.000 46.705,160.000 46.924 C 160.000 47.143,159.792 47.568,159.537 47.869 C 159.283 48.170,158.972 48.717,158.847 49.083 C 158.722 49.450,158.449 49.954,158.241 50.204 C 158.032 50.454,157.770 50.941,157.657 51.287 C 157.544 51.634,157.277 52.126,157.064 52.383 C 156.850 52.639,156.593 53.154,156.493 53.528 C 156.392 53.901,156.137 54.393,155.926 54.620 C 155.715 54.848,155.454 55.331,155.345 55.693 C 155.236 56.056,155.018 56.482,154.860 56.640 C 154.702 56.798,154.432 57.299,154.260 57.755 C 154.087 58.211,153.779 58.808,153.576 59.083 C 153.372 59.358,153.151 59.771,153.085 60.000 C 153.019 60.229,152.747 60.761,152.482 61.181 C 152.217 61.602,152.000 62.027,152.000 62.127 C 152.000 62.226,151.816 62.526,151.591 62.794 C 151.366 63.061,151.023 63.704,150.830 64.221 C 150.636 64.739,150.382 65.220,150.265 65.290 C 150.148 65.360,149.914 65.792,149.745 66.250 C 149.576 66.708,149.267 67.292,149.059 67.547 C 148.850 67.802,148.609 68.266,148.523 68.578 C 148.436 68.891,148.177 69.350,147.947 69.598 C 147.716 69.847,147.481 70.299,147.424 70.603 C 147.367 70.908,147.132 71.380,146.903 71.652 C 146.674 71.925,146.368 72.496,146.223 72.920 C 146.078 73.345,145.779 73.887,145.559 74.125 C 145.339 74.363,145.113 74.751,145.058 74.987 C 145.003 75.223,144.798 75.677,144.604 75.994 C 144.179 76.687,143.527 77.918,142.927 79.161 C 142.685 79.662,142.383 80.187,142.257 80.328 C 142.131 80.468,141.898 80.921,141.739 81.333 C 141.579 81.746,141.306 82.243,141.131 82.438 C 140.956 82.634,140.704 83.155,140.571 83.596 C 140.438 84.038,140.178 84.561,139.992 84.758 C 139.260 85.538,139.599 85.579,147.105 85.630 L 153.993 85.677 154.746 84.654 C 155.161 84.091,155.500 83.461,155.500 83.255 C 155.500 83.049,155.686 82.606,155.913 82.272 C 156.140 81.937,156.490 81.270,156.691 80.790 C 156.892 80.310,157.144 79.804,157.251 79.667 C 157.359 79.529,157.616 78.988,157.823 78.465 C 158.031 77.941,158.293 77.436,158.408 77.341 C 158.522 77.246,158.751 76.867,158.918 76.497 C 159.326 75.592,158.234 75.650,173.856 75.703 L 187.796 75.750 188.142 76.167 C 188.333 76.396,188.491 76.726,188.494 76.901 C 188.498 77.076,188.705 77.488,188.956 77.817 C 189.207 78.146,189.552 78.828,189.722 79.333 C 189.891 79.837,190.133 80.308,190.258 80.379 C 190.383 80.450,190.618 80.938,190.780 81.463 C 190.942 81.987,191.283 82.709,191.538 83.067 C 191.792 83.424,192.000 83.822,192.000 83.950 C 192.000 84.409,192.514 85.165,192.995 85.414 C 193.726 85.792,207.751 85.793,208.169 85.415 C 208.502 85.113,208.082 83.586,207.490 82.951 C 207.309 82.757,207.085 82.317,206.993 81.973 C 206.900 81.630,206.646 81.137,206.429 80.878 C 206.211 80.619,205.948 80.094,205.845 79.711 C 205.742 79.328,205.471 78.794,205.244 78.523 C 205.016 78.252,204.727 77.741,204.602 77.387 C 204.477 77.033,204.178 76.453,203.938 76.098 C 203.697 75.744,203.500 75.320,203.500 75.156 C 203.500 74.993,203.296 74.617,203.047 74.320 C 202.798 74.024,202.460 73.400,202.296 72.933 C 202.132 72.465,201.899 72.008,201.778 71.917 C 201.656 71.825,201.416 71.375,201.244 70.917 C 201.072 70.458,200.722 69.791,200.465 69.433 C 200.209 69.076,200.000 68.625,200.000 68.432 C 200.000 68.238,199.805 67.870,199.567 67.613 C 199.329 67.356,199.059 66.869,198.967 66.531 C 198.876 66.193,198.636 65.692,198.435 65.417 C 198.235 65.142,197.928 64.579,197.754 64.167 C 197.581 63.754,197.314 63.267,197.163 63.083 C 197.011 62.900,196.785 62.487,196.660 62.167 C 196.534 61.846,196.222 61.250,195.966 60.842 C 195.710 60.435,195.500 59.977,195.500 59.826 C 195.500 59.674,195.286 59.255,195.025 58.894 C 194.763 58.533,194.459 57.965,194.349 57.632 C 194.240 57.299,194.048 56.943,193.925 56.840 C 193.801 56.738,193.529 56.225,193.320 55.702 C 193.111 55.178,192.773 54.546,192.568 54.296 C 192.363 54.046,192.141 53.597,192.075 53.297 C 192.010 52.998,191.774 52.515,191.551 52.223 C 191.329 51.931,191.074 51.427,190.984 51.102 C 190.894 50.776,190.647 50.302,190.434 50.047 C 190.222 49.792,189.958 49.307,189.848 48.969 C 189.738 48.631,189.496 48.162,189.311 47.926 C 189.126 47.691,188.847 47.135,188.691 46.692 C 188.534 46.248,188.202 45.643,187.953 45.346 C 187.704 45.050,187.500 44.675,187.500 44.512 C 187.500 44.350,187.291 43.924,187.035 43.567 C 186.779 43.209,186.480 42.610,186.370 42.235 C 186.260 41.861,186.022 41.421,185.842 41.258 C 185.661 41.094,185.387 40.576,185.232 40.105 C 185.078 39.635,184.777 39.040,184.563 38.784 C 184.350 38.528,184.096 38.024,183.999 37.663 C 183.807 36.948,182.627 35.964,182.053 36.040 C 181.886 36.062,178.253 36.100,173.980 36.125 M216.259 36.537 C 215.885 37.071,215.861 85.177,216.234 85.487 C 216.742 85.908,246.614 85.635,248.583 85.191 C 249.500 84.984,251.000 84.750,251.917 84.671 C 253.465 84.537,254.515 84.299,254.917 83.990 C 255.008 83.920,255.691 83.711,256.433 83.526 C 257.176 83.342,258.060 83.003,258.397 82.774 C 258.735 82.545,259.252 82.306,259.547 82.244 C 259.842 82.182,260.233 82.001,260.417 81.842 C 260.600 81.684,261.087 81.384,261.499 81.175 C 262.592 80.622,264.381 79.145,265.647 77.750 C 266.291 77.040,267.500 75.376,267.500 75.198 C 267.500 75.116,267.697 74.836,267.937 74.577 C 268.178 74.317,268.490 73.763,268.632 73.344 C 268.773 72.926,269.060 72.321,269.268 72.000 C 269.477 71.679,269.740 71.042,269.853 70.583 C 269.966 70.125,270.232 69.356,270.444 68.874 C 270.675 68.350,270.898 67.376,270.998 66.457 C 271.090 65.610,271.288 64.167,271.439 63.250 C 271.724 61.510,271.678 58.488,271.344 57.083 C 271.257 56.717,271.107 55.646,271.011 54.704 C 270.891 53.529,270.721 52.772,270.467 52.288 C 270.264 51.900,269.974 51.121,269.823 50.557 C 269.671 49.992,269.391 49.331,269.200 49.088 C 269.009 48.845,268.762 48.369,268.652 48.031 C 268.542 47.693,268.238 47.170,267.976 46.869 C 267.714 46.568,267.500 46.240,267.500 46.139 C 267.500 46.039,267.256 45.680,266.958 45.341 C 266.660 45.002,266.117 44.363,265.750 43.921 C 264.794 42.770,263.438 41.505,262.666 41.045 C 262.300 40.826,262.000 40.589,262.000 40.517 C 262.000 40.445,261.720 40.243,261.378 40.068 C 261.036 39.893,260.463 39.544,260.103 39.292 C 259.744 39.040,259.299 38.833,259.115 38.833 C 258.930 38.833,258.435 38.616,258.015 38.349 C 257.549 38.055,256.731 37.760,255.924 37.596 C 255.194 37.448,254.443 37.225,254.254 37.101 C 253.117 36.356,248.505 36.168,231.384 36.167 L 216.519 36.167 216.259 36.537 M280.269 36.577 C 279.857 37.207,279.857 84.231,280.269 85.100 L 280.538 85.667 301.729 85.667 L 322.920 85.667 323.168 85.292 C 323.573 84.681,323.632 76.088,323.234 75.649 C 322.958 75.344,322.480 75.333,309.000 75.333 C 295.477 75.333,295.043 75.324,294.763 75.015 C 294.308 74.511,294.430 66.203,294.901 65.684 C 295.218 65.333,295.221 65.333,308.020 65.333 C 320.506 65.333,320.826 65.325,320.994 65.011 C 321.293 64.453,321.221 56.421,320.911 55.823 L 320.656 55.329 308.120 55.333 C 301.225 55.336,295.496 55.337,295.389 55.335 C 294.212 55.323,294.053 46.872,295.215 46.133 C 295.326 46.063,301.352 46.004,308.607 46.003 C 321.099 46.000,321.816 45.984,322.170 45.697 C 322.692 45.275,322.758 37.062,322.244 36.493 C 321.953 36.172,321.596 36.167,301.243 36.167 L 280.538 36.167 280.269 36.577 M333.006 36.531 C 332.500 37.075,332.465 84.933,332.971 85.391 C 333.324 85.710,360.795 85.808,363.083 85.499 C 363.725 85.412,364.962 85.225,365.833 85.083 C 366.704 84.941,368.098 84.760,368.931 84.680 C 369.925 84.585,370.755 84.396,371.348 84.127 C 371.844 83.903,372.802 83.594,373.476 83.441 C 374.151 83.288,374.892 83.014,375.123 82.832 C 375.354 82.650,375.852 82.419,376.230 82.319 C 376.608 82.219,377.080 81.986,377.279 81.801 C 377.478 81.617,378.003 81.286,378.445 81.065 C 379.750 80.415,383.000 77.552,383.000 77.053 C 383.000 76.962,383.225 76.688,383.500 76.443 C 383.775 76.198,384.000 75.903,384.000 75.787 C 384.000 75.671,384.221 75.308,384.491 74.980 C 384.761 74.652,385.112 74.054,385.271 73.650 C 385.430 73.247,385.655 72.858,385.773 72.787 C 385.890 72.716,386.108 72.229,386.258 71.704 C 386.408 71.179,386.713 70.399,386.935 69.970 C 387.179 69.498,387.406 68.661,387.507 67.857 C 387.599 67.124,387.834 65.938,388.030 65.221 C 388.313 64.185,388.401 63.298,388.458 60.917 C 388.531 57.883,388.484 57.420,387.844 54.917 C 387.656 54.183,387.502 53.313,387.501 52.982 C 387.501 52.643,387.292 51.988,387.024 51.482 C 386.762 50.988,386.497 50.310,386.436 49.975 C 386.375 49.641,386.174 49.176,385.990 48.942 C 385.806 48.708,385.472 48.101,385.247 47.592 C 385.022 47.083,384.775 46.667,384.699 46.667 C 384.624 46.667,384.384 46.348,384.167 45.958 C 383.633 44.998,381.828 42.917,380.733 42.000 C 379.567 41.022,377.910 39.833,377.713 39.833 C 377.628 39.833,377.383 39.647,377.169 39.419 C 376.955 39.191,376.511 38.956,376.182 38.897 C 375.853 38.837,375.103 38.536,374.517 38.228 C 373.930 37.919,373.285 37.667,373.084 37.667 C 372.883 37.667,372.276 37.510,371.734 37.318 C 368.841 36.295,366.197 36.167,347.977 36.167 L 333.346 36.167 333.006 36.531 M242.583 45.819 C 245.682 45.941,245.986 45.981,246.896 46.392 C 247.434 46.635,247.997 46.834,248.146 46.834 C 248.665 46.836,249.657 47.181,249.932 47.455 C 250.083 47.607,250.555 47.895,250.979 48.095 C 252.189 48.666,254.267 50.794,254.859 52.068 C 255.033 52.443,255.323 52.938,255.504 53.167 C 255.712 53.431,255.893 54.042,255.997 54.833 C 256.087 55.521,256.322 56.571,256.519 57.167 C 257.048 58.766,257.040 62.708,256.504 64.494 C 256.299 65.178,256.069 66.180,255.992 66.721 C 255.914 67.277,255.680 67.966,255.454 68.310 C 255.234 68.644,255.004 69.119,254.943 69.366 C 254.713 70.294,252.508 72.641,251.194 73.357 C 250.797 73.573,250.234 73.881,249.944 74.041 C 249.654 74.202,249.243 74.333,249.030 74.333 C 248.817 74.333,248.305 74.531,247.891 74.774 C 247.251 75.149,246.852 75.234,245.195 75.349 C 244.125 75.424,242.275 75.599,241.083 75.739 C 239.757 75.895,237.448 75.995,235.132 75.997 L 231.347 76.000 230.923 75.543 L 230.500 75.087 230.500 60.632 L 230.500 46.177 230.958 45.929 C 231.488 45.641,236.784 45.591,242.583 45.819 M359.833 45.817 C 362.368 45.929,362.845 45.994,363.473 46.317 C 363.871 46.521,364.644 46.767,365.192 46.864 C 365.753 46.963,366.383 47.199,366.636 47.406 C 366.882 47.607,367.335 47.873,367.642 47.997 C 368.890 48.498,370.960 50.464,371.433 51.597 C 371.583 51.955,371.884 52.460,372.102 52.720 C 372.321 52.980,372.500 53.409,372.500 53.675 C 372.500 53.941,372.731 54.739,373.013 55.448 L 373.525 56.739 373.532 60.578 L 373.538 64.417 373.019 66.062 C 372.734 66.967,372.500 67.823,372.500 67.963 C 372.500 68.104,372.319 68.455,372.099 68.745 C 371.878 69.034,371.585 69.540,371.447 69.869 C 371.172 70.528,368.598 73.167,368.231 73.167 C 368.104 73.167,367.866 73.300,367.703 73.464 C 367.339 73.827,366.301 74.333,365.919 74.333 C 365.765 74.333,365.127 74.558,364.500 74.833 C 363.667 75.199,363.099 75.334,362.389 75.337 C 361.854 75.338,360.667 75.455,359.750 75.595 C 358.690 75.758,356.262 75.885,353.083 75.946 L 348.083 76.041 347.750 75.670 C 347.423 75.305,347.416 75.030,347.371 60.774 L 347.325 46.250 347.681 45.958 C 348.083 45.629,354.010 45.560,359.833 45.817 M174.832 47.765 C 175.062 48.322,175.419 49.042,175.625 49.366 C 175.831 49.691,176.000 50.101,176.000 50.279 C 176.000 50.456,176.217 50.943,176.482 51.361 C 176.747 51.779,177.017 52.375,177.083 52.685 C 177.149 52.996,177.371 53.475,177.576 53.750 C 177.781 54.025,178.081 54.663,178.243 55.167 C 178.405 55.671,178.641 56.166,178.767 56.267 C 179.031 56.478,179.500 57.532,179.500 57.913 C 179.500 58.054,179.725 58.480,180.000 58.860 C 180.275 59.239,180.500 59.692,180.500 59.867 C 180.500 60.218,180.930 61.120,181.249 61.439 C 181.362 61.552,181.584 62.044,181.742 62.531 C 181.901 63.018,182.123 63.529,182.237 63.667 C 182.869 64.430,183.233 65.743,182.905 66.071 C 182.502 66.474,164.767 66.468,164.192 66.065 L 163.809 65.797 164.143 65.440 C 164.327 65.244,164.603 64.708,164.757 64.250 C 164.912 63.792,165.139 63.358,165.262 63.287 C 165.385 63.216,165.615 62.729,165.774 62.204 C 165.933 61.679,166.189 61.100,166.344 60.917 C 166.752 60.433,167.000 59.904,167.000 59.517 C 167.000 59.331,167.219 58.929,167.486 58.625 C 167.753 58.321,168.025 57.788,168.090 57.441 C 168.155 57.094,168.375 56.609,168.580 56.363 C 168.784 56.118,169.085 55.504,169.248 55.000 C 169.411 54.496,169.682 53.952,169.849 53.791 C 170.017 53.631,170.245 53.181,170.357 52.791 C 170.469 52.402,170.705 51.873,170.881 51.616 C 171.057 51.359,171.342 50.767,171.513 50.299 C 171.683 49.831,171.960 49.292,172.127 49.099 C 172.295 48.907,172.570 48.323,172.740 47.800 C 172.997 47.009,173.121 46.839,173.482 46.782 C 174.285 46.655,174.412 46.747,174.832 47.765 M303.689 110.663 C 302.435 110.967,301.794 112.136,301.631 114.417 C 301.586 115.052,301.547 115.095,300.799 115.333 C 299.362 115.791,299.363 116.312,300.800 116.582 C 301.674 116.746,301.661 116.679,301.664 121.053 C 301.667 125.635,301.675 125.667,302.806 125.667 C 304.027 125.667,304.000 125.769,304.000 121.167 C 304.000 116.614,303.987 116.667,305.091 116.667 C 305.740 116.667,306.333 116.309,306.333 115.917 C 306.333 115.505,305.788 115.204,305.186 115.285 C 304.227 115.414,303.948 115.040,304.031 113.738 C 304.110 112.492,304.339 112.168,305.145 112.163 C 306.891 112.152,306.906 110.609,305.161 110.555 C 304.660 110.540,303.998 110.588,303.689 110.663 M142.875 110.991 C 141.880 111.821,142.853 112.352,145.141 112.227 C 147.603 112.092,147.398 111.481,147.500 119.250 L 147.583 125.583 148.488 125.635 C 149.735 125.706,149.694 125.916,149.673 119.507 C 149.648 111.748,149.547 112.022,152.346 112.233 C 154.224 112.375,155.101 111.763,154.195 110.942 C 153.700 110.495,143.417 110.538,142.875 110.991 M156.776 110.971 C 156.420 111.365,156.348 125.115,156.700 125.467 C 156.975 125.742,157.687 125.717,158.114 125.418 C 158.451 125.182,158.464 125.073,158.379 123.210 C 158.228 119.936,158.717 117.617,159.702 116.928 C 160.235 116.554,162.135 116.577,162.591 116.962 C 163.405 117.651,163.412 117.690,163.500 121.733 L 163.583 125.583 164.388 125.635 C 165.686 125.717,165.657 125.819,165.605 121.445 L 165.558 117.583 165.021 116.639 C 164.070 114.966,163.022 114.734,159.558 115.428 C 158.535 115.633,158.268 115.097,158.383 113.067 L 158.480 111.348 157.929 111.008 C 157.252 110.589,157.125 110.585,156.776 110.971 M189.962 110.958 C 189.821 111.119,189.652 111.438,189.586 111.667 C 189.521 111.896,189.287 112.349,189.068 112.673 C 188.849 112.998,188.606 113.603,188.529 114.017 C 188.451 114.431,188.188 115.064,187.944 115.424 C 187.700 115.783,187.500 116.191,187.501 116.330 C 187.502 116.714,186.952 118.167,186.805 118.167 C 186.734 118.167,186.514 118.710,186.316 119.375 C 186.118 120.040,185.819 120.735,185.651 120.921 C 185.483 121.106,185.248 121.631,185.128 122.087 C 185.008 122.544,184.700 123.269,184.444 123.700 C 183.667 125.006,183.836 125.583,184.994 125.583 L 185.905 125.583 186.222 124.750 C 186.820 123.176,186.956 122.915,187.508 122.291 L 188.061 121.667 190.906 121.671 L 193.750 121.676 194.387 122.268 C 194.999 122.836,195.500 123.855,195.500 124.529 C 195.500 125.397,197.278 126.086,197.823 125.429 C 198.101 125.094,197.889 124.087,197.328 123.083 C 197.072 122.625,196.734 121.800,196.576 121.250 C 196.419 120.700,196.149 120.049,195.976 119.804 C 195.803 119.558,195.599 119.023,195.522 118.614 C 195.446 118.205,195.203 117.581,194.983 117.227 C 194.763 116.873,194.488 116.208,194.371 115.750 C 194.254 115.292,194.017 114.723,193.844 114.486 C 193.672 114.249,193.372 113.524,193.179 112.876 C 192.615 110.981,190.860 109.936,189.962 110.958 M243.553 111.021 C 242.878 111.696,243.594 112.901,244.562 112.718 C 245.254 112.587,245.457 112.408,245.588 111.811 C 245.816 110.775,244.363 110.211,243.553 111.021 M266.450 110.964 C 266.000 111.461,266.228 112.564,266.817 112.739 C 267.872 113.053,268.965 111.928,268.425 111.083 C 268.121 110.609,266.841 110.531,266.450 110.964 M333.696 110.961 L 333.308 111.271 333.313 118.257 C 333.317 124.786,333.337 125.257,333.617 125.463 C 333.848 125.633,334.715 125.672,337.417 125.633 L 340.917 125.583 341.859 124.987 C 344.504 123.314,345.333 121.661,345.333 118.066 C 345.333 115.925,345.124 114.826,344.576 114.083 C 344.372 113.808,344.083 113.339,343.932 113.041 C 343.781 112.743,343.341 112.297,342.954 112.051 C 342.567 111.804,342.174 111.523,342.080 111.426 C 341.505 110.830,341.085 110.763,337.583 110.708 C 334.376 110.657,334.051 110.678,333.696 110.961 M355.762 110.929 C 354.880 111.811,356.224 113.397,357.268 112.706 C 357.717 112.408,357.914 111.365,357.589 111.006 C 357.213 110.591,356.145 110.545,355.762 110.929 M340.152 112.740 C 342.004 113.589,342.575 114.337,343.013 116.487 L 343.356 118.167 343.011 119.856 C 342.457 122.573,341.488 123.407,338.372 123.847 C 336.714 124.081,335.826 123.933,335.380 123.349 C 335.116 123.003,335.082 113.794,335.342 113.046 C 335.710 111.992,338.179 111.834,340.152 112.740 M260.344 113.157 C 259.971 113.507,259.667 113.947,259.667 114.134 C 259.667 114.728,259.474 115.006,258.894 115.249 C 258.002 115.622,258.080 116.667,259.000 116.667 C 259.747 116.667,259.833 117.079,259.833 120.662 C 259.833 125.410,260.093 125.901,262.553 125.798 C 264.366 125.723,264.608 124.824,262.931 124.396 C 261.854 124.121,261.923 124.370,261.860 120.563 C 261.796 116.714,261.809 116.667,262.911 116.667 C 263.794 116.667,264.295 116.218,264.008 115.682 C 263.823 115.336,263.510 115.214,262.589 115.129 C 262.176 115.091,262.070 114.987,261.952 114.500 C 261.431 112.364,261.301 112.255,260.344 113.157 M191.807 114.311 C 191.913 114.665,192.000 115.103,192.000 115.283 C 192.000 115.463,192.192 115.979,192.426 116.430 C 193.197 117.916,193.518 119.478,193.098 119.707 C 192.586 119.986,189.130 120.007,188.755 119.733 C 188.385 119.463,188.612 118.335,189.260 117.223 C 189.482 116.841,189.745 116.128,189.844 115.639 C 190.162 114.070,191.470 113.185,191.807 114.311 M171.417 115.151 C 170.275 115.355,169.713 115.774,168.876 117.044 L 168.083 118.247 168.083 120.582 C 168.083 124.906,170.398 126.681,174.728 125.676 C 175.541 125.487,176.906 124.142,177.078 123.359 C 177.411 121.841,175.448 121.901,174.775 123.429 C 173.971 125.256,170.907 124.742,170.336 122.686 C 169.893 121.090,170.104 120.982,173.692 120.964 C 176.944 120.948,177.069 120.908,177.255 119.807 C 177.602 117.747,176.260 115.476,174.577 115.276 C 172.807 115.066,172.058 115.037,171.417 115.151 M202.417 115.114 C 200.519 115.355,199.550 116.537,199.734 118.388 C 199.896 120.012,201.044 120.967,203.075 121.166 C 204.463 121.302,205.284 121.681,205.516 122.292 C 206.366 124.527,203.531 125.392,201.652 123.472 C 200.424 122.216,199.784 122.199,199.709 123.420 C 199.611 125.032,200.787 125.811,203.333 125.820 C 206.466 125.830,207.847 124.915,207.963 122.750 L 208.026 121.583 207.221 120.818 C 206.511 120.141,206.282 120.028,205.258 119.849 C 204.621 119.737,203.909 119.551,203.675 119.435 C 201.912 118.558,201.586 118.336,201.639 118.050 C 201.953 116.360,204.349 115.947,205.651 117.357 C 206.235 117.990,206.272 118.004,206.835 117.811 C 207.727 117.506,207.839 117.250,207.338 116.672 C 207.158 116.464,206.969 116.164,206.918 116.005 C 206.768 115.532,203.848 114.804,203.000 115.028 C 202.954 115.040,202.692 115.079,202.417 115.114 M212.388 115.168 C 211.300 115.392,210.699 115.784,210.329 116.509 C 209.197 118.728,210.576 120.864,213.337 121.167 C 215.482 121.403,216.424 122.363,215.762 123.642 C 215.099 124.925,213.323 124.858,211.973 123.500 C 210.899 122.419,210.900 122.419,210.246 122.668 C 209.755 122.855,209.768 123.945,210.268 124.513 C 210.396 124.658,210.500 124.848,210.500 124.936 C 210.500 126.228,215.881 126.164,217.157 124.857 C 219.216 122.748,218.437 120.329,215.543 119.841 C 213.682 119.527,211.900 118.566,211.973 117.917 C 212.134 116.492,214.798 116.000,215.784 117.212 C 216.395 117.964,216.585 118.039,217.215 117.775 C 218.117 117.398,218.053 116.894,216.945 115.643 C 216.586 115.238,213.574 114.924,212.388 115.168 M236.167 115.083 C 236.029 115.117,235.645 115.189,235.313 115.242 C 234.604 115.357,233.354 116.447,232.914 117.333 C 232.755 117.654,232.505 118.142,232.358 118.417 C 231.975 119.134,231.986 122.056,232.375 122.750 C 232.529 123.025,232.774 123.500,232.919 123.806 C 233.327 124.664,234.414 125.609,235.130 125.727 C 236.133 125.893,238.204 125.830,238.827 125.616 C 239.412 125.414,241.167 123.385,241.167 122.911 C 241.167 121.854,239.416 121.920,238.873 122.997 C 238.299 124.136,237.980 124.377,236.927 124.464 L 236.002 124.541 235.260 123.734 C 233.429 121.739,234.130 116.884,236.288 116.609 C 237.830 116.413,238.335 116.636,238.860 117.750 C 239.280 118.641,240.168 118.983,240.769 118.484 C 241.379 117.978,240.080 115.621,239.040 115.348 C 238.317 115.158,236.532 114.994,236.167 115.083 M250.755 115.167 C 249.657 115.365,249.229 115.613,248.991 116.189 C 248.882 116.452,248.735 116.667,248.664 116.667 C 248.594 116.667,248.492 116.779,248.440 116.917 C 248.079 117.858,249.593 118.131,250.475 117.284 C 251.731 116.078,253.966 116.345,254.506 117.766 C 254.831 118.620,254.074 119.167,252.565 119.167 C 248.721 119.167,246.323 122.735,248.622 125.034 C 249.650 126.062,253.044 126.176,253.937 125.212 L 254.332 124.786 254.678 125.227 C 255.096 125.757,255.817 125.812,256.240 125.344 C 256.689 124.848,256.552 117.811,256.069 116.587 C 255.575 115.332,253.264 114.715,250.755 115.167 M287.883 115.170 C 287.497 115.249,287.016 115.402,286.812 115.511 C 286.525 115.665,286.194 115.662,285.333 115.500 C 283.391 115.134,283.500 114.838,283.500 120.473 C 283.500 125.780,283.476 125.667,284.583 125.667 C 285.650 125.667,285.666 125.616,285.674 122.258 C 285.682 118.733,285.780 118.093,286.431 117.271 L 286.917 116.658 288.417 116.704 L 289.917 116.750 290.292 117.494 C 290.645 118.194,290.667 118.441,290.667 121.693 C 290.667 125.525,290.710 125.667,291.865 125.667 C 292.635 125.667,292.687 125.343,292.633 120.920 L 292.583 116.849 291.927 116.177 C 291.010 115.238,289.449 114.850,287.883 115.170 M310.502 115.277 C 309.320 115.582,309.051 115.770,308.184 116.894 L 307.464 117.827 307.376 119.553 C 307.212 122.779,307.420 123.380,309.291 125.066 C 310.457 126.117,314.471 126.173,315.515 125.152 C 315.788 124.885,316.077 124.667,316.157 124.667 C 317.267 124.667,318.191 119.072,317.258 118.000 C 317.138 117.862,316.910 117.487,316.752 117.167 C 316.360 116.374,315.393 115.527,314.675 115.347 C 313.553 115.066,311.456 115.031,310.502 115.277 M375.000 115.162 C 373.756 115.331,372.964 115.694,372.680 116.224 C 372.550 116.468,372.387 116.667,372.319 116.667 C 371.240 116.667,370.898 122.628,371.904 123.893 C 373.362 125.725,373.565 125.822,375.938 125.829 C 378.259 125.836,379.268 125.276,380.250 123.437 L 380.583 122.812 380.250 122.614 C 379.226 122.007,378.659 122.187,378.095 123.299 C 377.331 124.808,374.665 124.947,373.926 123.517 C 372.712 121.171,372.918 121.011,377.162 120.992 C 380.533 120.977,380.413 121.024,380.584 119.642 C 380.732 118.450,380.584 117.781,380.026 117.112 C 379.782 116.821,379.504 116.432,379.407 116.249 C 378.969 115.422,376.880 114.906,375.000 115.162 M222.667 115.392 C 221.952 115.649,220.691 116.907,220.564 117.490 C 220.512 117.725,220.364 118.258,220.233 118.675 C 219.911 119.701,219.904 120.951,220.215 121.935 C 220.356 122.383,220.517 123.018,220.571 123.345 C 220.695 124.087,222.211 125.468,223.137 125.683 C 226.305 126.419,229.248 125.269,229.820 123.072 C 229.938 122.620,230.145 121.894,230.281 121.458 C 230.503 120.743,230.499 120.548,230.237 119.458 C 230.078 118.794,229.885 117.981,229.808 117.653 C 229.630 116.888,228.476 115.702,227.615 115.398 C 226.780 115.104,223.477 115.099,222.667 115.392 M266.522 115.560 C 266.078 116.032,265.968 124.808,266.399 125.375 C 266.658 125.717,267.476 125.759,267.896 125.452 C 268.164 125.256,268.384 115.995,268.127 115.738 C 267.686 115.297,266.855 115.205,266.522 115.560 M273.167 115.465 C 272.559 115.742,271.290 117.183,270.966 117.965 C 270.735 118.521,270.747 122.417,270.981 123.033 C 271.398 124.131,273.185 125.624,274.240 125.756 C 277.609 126.177,279.189 125.552,280.490 123.285 C 281.193 122.059,281.394 118.888,280.811 118.226 C 280.661 118.056,280.387 117.614,280.201 117.245 C 279.833 116.511,278.729 115.480,278.129 115.308 C 277.320 115.077,273.772 115.189,273.167 115.465 M320.252 115.498 C 319.919 115.865,319.871 125.138,320.200 125.467 C 320.310 125.577,320.747 125.667,321.172 125.667 C 322.275 125.667,322.315 125.525,322.370 121.527 L 322.417 118.137 322.833 117.820 C 323.063 117.646,323.403 117.353,323.589 117.168 C 323.799 116.961,324.151 116.833,324.510 116.833 C 325.614 116.833,326.193 116.044,325.529 115.442 C 324.974 114.940,323.000 115.390,323.000 116.019 C 323.000 116.106,322.779 116.013,322.508 115.813 C 321.819 115.304,320.584 115.131,320.252 115.498 M351.419 115.418 C 351.053 115.548,350.661 115.782,350.548 115.937 C 350.358 116.197,350.305 116.184,349.898 115.777 C 349.409 115.288,348.913 115.220,348.440 115.579 C 348.151 115.798,348.131 116.124,348.137 120.500 C 348.143 125.534,348.165 125.667,348.995 125.667 C 349.916 125.667,350.000 125.361,350.000 122.020 C 350.000 118.162,350.379 117.384,352.570 116.747 C 353.820 116.383,354.044 116.080,353.444 115.564 C 352.920 115.114,352.382 115.075,351.419 115.418 M356.583 115.289 C 355.488 115.447,355.500 115.390,355.500 120.576 C 355.500 125.828,355.462 125.667,356.694 125.667 C 357.838 125.667,357.833 125.687,357.833 120.459 C 357.833 116.098,357.818 115.880,357.494 115.531 C 357.307 115.331,357.138 115.178,357.119 115.192 C 357.099 115.205,356.858 115.249,356.583 115.289 M360.188 115.560 C 359.780 115.995,359.894 116.747,360.538 117.870 C 360.763 118.262,361.044 118.938,361.161 119.372 C 361.279 119.806,361.476 120.244,361.600 120.347 C 361.724 120.450,361.995 121.070,362.203 121.725 C 362.411 122.381,362.742 123.158,362.938 123.453 C 363.134 123.748,363.347 124.273,363.412 124.619 C 363.700 126.159,365.223 126.174,366.286 124.648 C 366.580 124.225,366.890 123.574,366.973 123.202 C 367.057 122.830,367.285 122.302,367.480 122.028 C 367.675 121.754,367.987 121.038,368.173 120.437 C 368.358 119.836,368.611 119.286,368.734 119.214 C 368.857 119.142,369.086 118.636,369.243 118.090 C 369.401 117.543,369.711 116.881,369.932 116.619 C 370.393 116.071,370.401 116.020,370.101 115.625 C 369.568 114.923,368.130 115.362,367.927 116.289 C 367.862 116.582,367.635 117.079,367.422 117.393 C 367.209 117.707,366.984 118.216,366.923 118.524 C 366.773 119.280,366.489 120.030,366.237 120.333 C 366.123 120.471,365.906 121.013,365.754 121.539 C 365.602 122.064,365.403 122.540,365.312 122.597 C 365.120 122.715,364.500 122.206,364.500 121.930 C 364.500 121.828,364.311 121.466,364.080 121.125 C 363.848 120.785,363.590 120.139,363.504 119.689 C 363.419 119.239,363.172 118.611,362.956 118.293 C 362.740 117.974,362.470 117.297,362.356 116.786 C 362.122 115.743,362.003 115.604,361.138 115.368 C 360.603 115.222,360.484 115.246,360.188 115.560 M386.833 115.354 C 386.604 115.445,386.262 115.666,386.072 115.844 C 385.729 116.166,385.724 116.166,385.334 115.751 C 385.037 115.435,384.776 115.335,384.263 115.339 C 382.963 115.349,383.000 115.197,383.000 120.465 C 383.000 125.768,382.976 125.667,384.259 125.667 C 385.180 125.667,385.142 125.831,385.203 121.606 C 385.249 118.330,385.254 118.292,385.647 118.022 C 385.865 117.873,386.238 117.544,386.476 117.292 C 386.723 117.029,387.087 116.832,387.329 116.831 C 388.055 116.827,388.451 116.652,388.673 116.238 C 389.085 115.469,387.933 114.916,386.833 115.354 M243.595 115.595 C 243.370 115.821,243.333 116.507,243.333 120.562 C 243.333 125.591,243.346 125.667,244.168 125.667 C 245.208 125.667,245.201 125.697,245.208 120.508 L 245.213 115.787 244.815 115.566 C 244.282 115.270,243.911 115.279,243.595 115.595 M174.258 116.776 C 174.970 117.049,175.242 118.540,174.712 119.267 C 174.412 119.678,174.342 119.692,172.576 119.692 L 170.751 119.692 170.529 119.149 C 169.776 117.303,171.978 115.901,174.258 116.776 M226.186 116.600 C 227.825 116.825,229.008 120.239,228.115 122.167 C 227.107 124.342,225.813 124.998,223.870 124.321 C 222.308 123.777,221.340 119.789,222.412 118.316 C 222.639 118.005,222.894 117.597,222.978 117.410 C 223.330 116.631,224.415 116.358,226.186 116.600 M278.047 117.365 C 278.844 118.254,278.874 118.389,278.806 120.780 L 278.750 122.756 277.873 123.628 C 275.099 126.385,271.827 122.873,273.140 118.549 C 273.667 116.817,274.269 116.447,276.333 116.588 C 277.359 116.658,277.450 116.700,278.047 117.365 M314.601 117.409 C 315.356 118.255,315.498 118.744,315.494 120.500 C 315.491 121.968,315.281 122.769,314.751 123.333 C 314.506 123.593,314.162 123.962,313.986 124.153 C 313.438 124.749,311.572 124.653,310.731 123.986 C 308.569 122.271,308.995 117.107,311.339 116.613 C 312.720 116.321,313.884 116.606,314.601 117.409 M377.511 116.925 C 378.142 117.248,378.420 118.225,378.121 119.073 L 377.890 119.730 376.009 119.704 C 373.990 119.676,373.810 119.601,373.561 118.688 C 373.393 118.072,374.049 116.866,374.621 116.740 C 374.875 116.683,375.158 116.610,375.250 116.577 C 375.552 116.467,377.075 116.701,377.511 116.925 M253.423 120.344 C 253.483 120.441,253.714 120.590,253.936 120.674 C 254.767 120.990,254.786 122.157,253.976 123.191 C 253.714 123.525,253.500 123.878,253.500 123.976 C 253.500 124.862,250.902 124.601,250.218 123.646 C 249.398 122.502,249.825 121.597,251.500 120.931 C 251.912 120.767,252.438 120.529,252.667 120.404 C 253.175 120.125,253.283 120.117,253.423 120.344 M289.667 133.779 C 286.465 135.112,285.666 135.913,285.668 137.788 C 285.669 139.130,285.904 140.333,286.166 140.333 C 286.249 140.333,286.572 140.596,286.884 140.917 C 287.333 141.379,287.723 141.571,288.749 141.833 C 289.463 142.016,290.130 142.227,290.232 142.303 C 290.482 142.491,291.580 142.786,292.532 142.923 C 295.059 143.285,295.220 146.942,292.728 147.410 C 290.371 147.852,288.582 147.413,288.000 146.250 C 287.004 144.259,285.032 144.615,285.649 146.674 C 286.344 148.992,290.612 150.369,293.301 149.143 C 293.731 148.947,294.384 148.657,294.752 148.499 C 295.538 148.162,295.629 148.061,296.316 146.763 C 297.215 145.066,296.765 142.503,295.459 141.877 C 293.507 140.942,292.596 140.614,291.585 140.483 C 290.486 140.341,288.951 139.738,288.292 139.191 C 287.930 138.890,287.897 137.291,288.240 136.672 C 288.948 135.393,293.056 135.440,293.754 136.735 C 294.154 137.478,295.330 138.077,295.765 137.760 C 296.629 137.128,295.995 135.347,294.688 134.736 C 294.355 134.580,293.861 134.297,293.589 134.106 C 293.086 133.753,290.288 133.520,289.667 133.779 M145.417 134.558 C 145.209 135.055,145.167 136.254,145.167 141.641 C 145.167 149.138,145.196 149.333,146.305 149.333 C 147.312 149.333,147.499 148.756,147.505 145.619 C 147.512 142.374,147.426 142.497,149.685 142.510 C 152.104 142.524,152.864 142.882,153.026 144.085 C 153.542 147.930,153.569 148.027,154.393 148.958 C 154.787 149.404,155.047 149.430,155.416 149.060 C 155.899 148.577,155.467 144.053,154.854 143.167 C 153.944 141.850,153.902 140.500,154.772 140.500 C 155.255 140.500,155.573 139.468,155.578 137.882 L 155.583 136.348 154.833 135.583 C 154.421 135.163,153.896 134.776,153.667 134.724 C 153.438 134.673,152.912 134.515,152.500 134.374 C 151.978 134.196,150.825 134.094,148.708 134.039 L 145.667 133.959 145.417 134.558 M171.398 134.131 C 170.519 134.222,170.500 134.382,170.500 141.739 C 170.500 149.282,170.481 149.162,171.667 149.221 C 172.519 149.264,172.646 148.729,172.657 145.036 C 172.669 141.244,172.716 141.103,174.229 140.321 L 175.333 139.750 176.125 140.167 C 177.402 140.839,177.655 141.675,177.662 145.250 C 177.669 148.735,178.253 150.169,179.193 149.009 C 179.502 148.627,179.675 141.252,179.398 140.220 C 178.958 138.578,175.375 137.734,173.947 138.936 C 172.942 139.781,172.667 139.402,172.666 137.175 C 172.664 134.483,172.471 134.019,171.398 134.131 M207.750 134.146 C 206.496 134.414,206.724 136.046,208.028 136.133 C 209.073 136.203,209.452 135.785,209.159 134.885 C 208.868 133.994,208.751 133.932,207.750 134.146 M212.876 134.455 C 212.439 135.122,212.337 147.359,212.760 148.465 C 213.139 149.458,214.246 149.479,214.598 148.500 C 214.882 147.711,214.922 135.815,214.644 134.983 C 214.309 133.983,213.370 133.702,212.876 134.455 M218.697 134.152 C 218.614 134.206,218.418 134.501,218.260 134.809 C 217.704 135.894,219.384 136.688,220.299 135.772 C 220.964 135.108,219.502 133.630,218.697 134.152 M249.408 134.578 C 248.972 135.622,249.307 136.167,250.388 136.167 C 251.252 136.167,251.699 135.694,251.498 134.993 C 251.152 133.786,249.847 133.527,249.408 134.578 M335.311 134.165 C 334.883 134.421,334.752 135.467,335.098 135.850 C 335.642 136.451,337.167 136.141,337.167 135.430 C 337.167 134.926,336.782 134.167,336.525 134.164 C 336.374 134.163,336.100 134.126,335.917 134.082 C 335.733 134.037,335.461 134.075,335.311 134.165 M352.203 134.465 C 351.904 134.921,351.663 146.227,351.916 147.951 C 352.117 149.328,352.852 149.643,353.487 148.625 C 353.824 148.086,353.785 135.122,353.445 134.603 C 353.051 134.002,352.544 133.945,352.203 134.465 M357.953 134.141 C 357.676 134.250,357.004 135.112,357.001 135.361 C 356.995 136.025,358.719 136.253,359.256 135.660 C 359.630 135.247,358.774 133.804,358.278 134.012 C 358.263 134.018,358.116 134.076,357.953 134.141 M194.611 134.542 C 194.420 135.322,194.442 148.580,194.635 148.941 C 194.854 149.350,195.813 149.267,196.512 148.777 C 197.089 148.373,197.550 148.436,198.140 149.000 C 198.904 149.729,201.123 149.753,202.055 149.042 C 202.385 148.790,202.845 148.449,203.078 148.284 C 203.310 148.119,203.500 147.866,203.500 147.721 C 203.500 147.576,203.741 147.037,204.035 146.523 C 204.803 145.180,204.832 142.670,204.092 141.508 C 203.832 141.100,203.569 140.577,203.507 140.346 C 203.076 138.734,199.014 137.652,197.832 138.834 C 196.937 139.730,196.589 139.191,196.550 136.844 C 196.509 134.406,196.409 134.167,195.429 134.167 C 194.814 134.167,194.689 134.224,194.611 134.542 M152.069 136.135 C 153.796 136.442,153.923 139.697,152.233 140.340 C 151.608 140.577,147.945 140.545,147.700 140.300 C 147.351 139.951,147.430 136.391,147.792 136.180 C 148.120 135.989,151.071 135.958,152.069 136.135 M243.432 136.218 C 243.268 136.338,242.935 136.841,242.692 137.335 C 242.449 137.829,242.100 138.312,241.917 138.408 C 241.272 138.747,241.188 139.890,241.783 140.227 C 242.648 140.716,242.667 140.799,242.667 144.172 C 242.667 147.653,242.743 148.024,243.646 148.958 C 243.984 149.308,244.331 149.501,244.626 149.502 C 244.878 149.503,245.348 149.547,245.671 149.601 C 247.173 149.850,247.260 148.387,245.781 147.732 C 244.683 147.246,244.678 147.229,244.672 144.050 C 244.666 140.742,244.757 140.387,245.650 140.240 C 246.673 140.071,246.690 140.055,246.635 139.293 L 246.583 138.583 245.815 138.533 C 244.937 138.477,244.667 138.121,244.667 137.025 C 244.667 136.079,244.115 135.719,243.432 136.218 M374.616 136.120 C 374.127 136.194,374.011 136.380,373.677 137.624 C 373.539 138.137,373.352 138.402,372.994 138.587 C 372.496 138.844,372.235 140.000,372.674 140.000 C 373.494 140.000,373.666 140.686,373.671 143.951 C 373.675 147.391,373.795 148.241,374.326 148.614 C 374.521 148.750,374.808 148.995,374.965 149.157 C 375.481 149.692,377.750 149.744,377.949 149.226 C 378.146 148.712,377.836 148.193,377.208 147.988 C 376.032 147.602,376.000 147.496,376.000 144.000 C 376.000 140.438,376.066 140.234,377.259 140.137 C 377.917 140.083,377.917 140.083,377.967 139.292 L 378.018 138.500 377.182 138.500 C 376.196 138.500,376.000 138.267,376.000 137.100 C 376.000 136.379,375.682 135.940,375.219 136.025 C 375.145 136.039,374.873 136.082,374.616 136.120 M224.173 136.489 C 224.078 136.666,223.998 137.060,223.995 137.364 C 223.989 137.983,223.763 138.350,223.208 138.645 C 222.815 138.855,222.645 140.000,223.008 140.000 C 223.103 140.000,223.366 140.184,223.591 140.409 L 224.000 140.818 224.003 144.451 C 224.004 146.449,224.060 148.158,224.128 148.250 C 225.371 149.943,229.199 150.096,228.093 148.408 C 227.911 148.131,227.671 148.000,227.343 148.000 C 226.368 148.000,226.167 147.308,226.167 143.961 C 226.167 140.602,226.291 140.233,227.453 140.135 C 228.688 140.031,228.575 138.500,227.332 138.500 C 226.606 138.500,226.167 138.005,226.167 137.186 C 226.167 136.301,226.033 136.167,225.155 136.167 C 224.525 136.167,224.307 136.238,224.173 136.489 M162.143 138.344 C 159.147 139.052,157.597 142.802,158.736 146.583 C 159.451 148.954,162.708 150.374,164.855 149.250 C 165.164 149.089,165.693 148.817,166.031 148.646 C 166.716 148.300,166.822 148.172,167.123 147.333 C 167.502 146.278,166.469 145.650,165.692 146.462 C 164.926 147.262,163.885 147.998,163.375 148.100 C 162.236 148.328,160.331 146.604,160.336 145.351 C 160.341 144.248,160.307 144.259,163.993 144.163 C 167.088 144.082,167.357 144.050,167.678 143.729 L 168.024 143.383 167.486 141.733 C 166.805 139.645,166.810 139.651,164.770 138.561 C 164.266 138.292,162.855 138.175,162.143 138.344 M185.965 138.345 C 184.207 138.626,182.336 140.769,183.258 141.443 C 183.882 141.900,184.797 141.708,185.144 141.048 C 186.184 139.073,188.995 139.561,189.191 141.750 C 189.259 142.515,189.283 142.507,186.321 142.808 C 183.563 143.087,182.307 144.439,182.559 146.855 C 182.685 148.055,182.891 148.400,183.701 148.766 C 184.050 148.923,184.419 149.152,184.521 149.276 C 184.745 149.545,187.256 149.593,187.418 149.331 C 187.870 148.599,189.304 148.353,189.833 148.917 C 190.862 150.012,191.074 149.229,191.043 144.449 C 191.011 139.464,191.119 139.770,189.000 138.672 C 188.299 138.309,187.038 138.173,185.965 138.345 M233.798 138.338 C 231.313 138.757,229.774 141.847,232.202 141.543 C 232.687 141.482,232.893 141.344,233.150 140.908 C 234.204 139.120,236.979 139.693,236.995 141.702 C 237.001 142.483,236.691 142.667,235.367 142.667 C 232.305 142.667,230.829 143.687,230.237 146.210 C 229.730 148.374,233.997 150.693,235.578 149.112 C 236.159 148.532,237.113 148.442,237.726 148.910 C 238.862 149.776,239.000 149.299,239.000 144.503 C 239.000 140.611,238.850 139.500,238.324 139.500 C 238.218 139.500,237.840 139.269,237.484 138.988 C 236.934 138.552,235.252 138.075,234.667 138.190 C 234.621 138.199,234.230 138.265,233.798 138.338 M258.250 138.388 C 256.529 138.892,255.173 140.107,254.736 141.537 C 253.843 144.462,254.754 147.874,256.636 148.654 C 256.923 148.773,257.322 149.012,257.521 149.185 C 258.612 150.131,261.960 149.339,263.473 147.778 C 264.076 147.156,264.929 144.474,264.781 143.667 C 264.295 141.014,263.838 140.188,262.276 139.145 C 260.870 138.207,259.654 137.978,258.250 138.388 M272.051 138.344 C 271.759 138.404,271.278 138.657,270.982 138.906 C 270.618 139.213,270.334 139.326,270.098 139.259 C 267.403 138.494,267.500 138.317,267.500 143.981 C 267.500 148.882,267.554 149.167,268.478 149.167 C 269.536 149.167,269.574 149.042,269.680 145.222 C 269.790 141.258,269.848 141.040,270.946 140.426 C 272.113 139.772,272.468 139.745,273.348 140.237 C 274.491 140.877,274.551 141.098,274.657 145.057 L 274.750 148.530 275.218 148.932 C 276.446 149.987,276.583 149.545,276.583 144.545 L 276.583 140.308 275.839 139.634 C 274.568 138.484,273.360 138.072,272.051 138.344 M303.932 138.427 C 303.574 138.559,303.176 138.817,303.048 139.000 C 302.776 139.389,302.255 139.420,301.667 139.083 C 301.438 138.952,300.965 138.842,300.616 138.839 C 299.527 138.829,299.500 139.013,299.500 146.319 L 299.500 152.648 299.870 152.907 C 301.147 153.802,301.833 153.046,301.833 150.746 C 301.833 148.612,302.193 148.157,303.158 149.070 C 303.737 149.618,305.887 149.756,306.367 149.275 C 306.491 149.152,306.975 148.875,307.444 148.660 C 308.157 148.333,308.373 148.121,308.773 147.358 C 309.035 146.856,309.360 146.252,309.493 146.015 C 309.972 145.166,309.825 142.598,309.225 141.333 C 308.943 140.737,308.661 140.089,308.600 139.893 C 308.539 139.697,308.272 139.446,308.007 139.336 C 307.741 139.226,307.398 138.996,307.243 138.825 C 307.084 138.650,306.624 138.470,306.189 138.413 C 305.764 138.358,305.229 138.284,305.000 138.249 C 304.771 138.215,304.290 138.295,303.932 138.427 M315.515 138.360 C 315.203 138.450,314.715 138.694,314.432 138.904 C 314.149 139.113,313.782 139.332,313.617 139.390 C 313.453 139.448,313.206 139.740,313.069 140.039 C 312.931 140.339,312.630 140.846,312.398 141.166 C 311.753 142.061,311.840 146.550,312.517 147.281 C 312.756 147.539,312.996 147.877,313.050 148.033 C 313.105 148.189,313.397 148.443,313.700 148.598 C 314.002 148.753,314.429 149.020,314.647 149.190 C 315.832 150.113,319.078 149.363,320.413 147.857 C 321.174 146.999,321.223 146.861,320.926 146.408 C 320.432 145.654,319.392 145.880,318.777 146.874 C 318.621 147.126,318.242 147.437,317.934 147.565 C 317.626 147.694,317.323 147.882,317.261 147.983 C 317.088 148.262,316.149 148.202,315.804 147.890 C 315.635 147.738,315.329 147.530,315.124 147.429 C 314.273 147.011,313.837 145.016,314.471 144.442 C 314.731 144.208,315.214 144.167,317.715 144.167 C 321.274 144.167,321.435 144.090,321.253 142.500 C 321.133 141.457,320.864 140.500,320.690 140.500 C 320.625 140.500,320.444 140.284,320.288 140.020 C 320.133 139.756,319.745 139.417,319.427 139.266 C 319.109 139.115,318.752 138.895,318.633 138.776 C 318.139 138.283,316.530 138.068,315.515 138.360 M327.534 138.339 C 327.048 138.408,326.373 138.644,326.034 138.862 C 325.694 139.080,325.272 139.336,325.094 139.432 C 324.917 139.527,324.711 139.732,324.636 139.886 C 324.438 140.294,324.206 140.684,323.825 141.250 C 323.266 142.079,323.405 146.343,324.017 147.167 C 324.256 147.487,324.493 147.871,324.545 148.019 C 324.935 149.136,328.821 149.994,329.853 149.190 C 330.071 149.020,330.498 148.753,330.800 148.598 C 331.103 148.443,331.396 148.189,331.452 148.033 C 331.508 147.877,331.697 147.544,331.872 147.292 C 332.270 146.717,332.138 146.246,331.483 145.908 C 330.892 145.602,330.757 145.669,330.346 146.475 C 330.172 146.816,329.817 147.204,329.557 147.339 C 329.296 147.473,328.985 147.715,328.866 147.875 C 328.379 148.527,326.356 147.648,325.943 146.605 C 325.694 145.975,325.614 142.968,325.820 141.978 C 326.156 140.366,328.190 139.026,328.866 139.972 C 328.985 140.139,329.288 140.410,329.539 140.572 C 329.789 140.735,330.152 141.123,330.344 141.434 C 330.759 142.105,331.126 142.147,331.727 141.590 L 332.169 141.180 331.694 140.298 C 331.433 139.813,331.058 139.335,330.861 139.235 C 330.664 139.135,330.371 138.935,330.209 138.790 C 329.952 138.557,329.536 138.414,328.667 138.257 C 328.529 138.232,328.019 138.269,327.534 138.339 M344.083 138.250 C 343.992 138.281,343.572 138.353,343.151 138.410 C 342.730 138.466,342.243 138.622,342.068 138.757 C 341.893 138.891,341.488 139.172,341.167 139.381 C 340.657 139.713,340.577 139.858,340.533 140.537 C 340.442 141.940,341.375 141.964,342.839 140.594 C 344.417 139.118,346.333 139.745,346.333 141.737 C 346.333 142.557,346.060 142.681,344.132 142.735 C 342.470 142.781,341.878 142.932,341.370 143.439 C 341.249 143.560,341.017 143.755,340.853 143.871 C 339.571 144.787,339.102 146.697,339.902 147.745 C 341.204 149.453,343.868 150.168,344.974 149.108 C 345.546 148.560,346.401 148.523,347.267 149.009 C 348.519 149.713,348.721 149.027,348.641 144.326 C 348.585 140.986,348.572 140.875,348.167 140.271 C 347.304 138.987,345.108 137.899,344.083 138.250 M365.443 138.352 C 364.998 138.421,364.511 138.584,364.359 138.715 C 364.207 138.846,363.743 139.149,363.328 139.388 C 362.693 139.753,362.540 139.944,362.369 140.580 C 361.763 142.847,362.829 143.976,366.417 144.866 C 368.399 145.357,369.001 146.474,367.786 147.401 C 366.480 148.396,365.684 148.316,364.583 147.076 C 363.767 146.156,362.963 145.940,362.384 146.485 C 361.911 146.930,362.268 148.254,362.930 148.505 C 363.145 148.587,363.622 148.853,363.991 149.097 C 364.997 149.763,367.273 149.763,368.250 149.096 C 368.617 148.846,369.132 148.599,369.394 148.546 C 370.929 148.239,370.857 144.459,369.307 143.926 C 368.979 143.813,368.450 143.560,368.132 143.364 C 367.807 143.162,366.997 142.923,366.281 142.817 C 364.887 142.609,364.780 142.537,364.535 141.640 C 364.006 139.700,367.143 139.039,367.930 140.924 C 368.266 141.726,369.800 141.983,370.223 141.307 C 370.721 140.510,370.046 139.701,367.933 138.562 C 367.438 138.295,366.387 138.207,365.443 138.352 M384.083 138.250 C 383.992 138.281,383.572 138.353,383.151 138.410 C 382.730 138.466,382.243 138.622,382.068 138.757 C 381.893 138.891,381.497 139.170,381.189 139.376 C 380.179 140.049,379.892 141.669,380.549 142.993 C 380.924 143.751,382.954 144.674,385.146 145.084 C 386.340 145.307,386.883 147.500,385.744 147.500 C 385.635 147.500,385.354 147.650,385.121 147.833 C 384.273 148.500,383.278 148.130,381.873 146.625 C 381.287 145.998,379.634 146.240,379.893 146.915 C 381.377 150.782,388.422 150.177,388.532 146.174 C 388.570 144.791,386.204 142.836,384.487 142.832 C 383.512 142.830,382.869 142.503,382.451 141.796 L 382.040 141.100 382.478 140.760 C 382.719 140.574,383.053 140.251,383.220 140.044 C 383.795 139.330,385.568 139.964,386.176 141.100 C 386.512 141.729,388.051 141.828,388.279 141.235 C 388.704 140.126,385.423 137.791,384.083 138.250 M208.055 138.748 C 207.239 139.095,207.204 139.294,207.148 143.917 C 207.090 148.640,207.116 148.801,208.005 149.169 C 209.054 149.603,209.083 149.462,209.083 143.916 C 209.083 138.400,209.067 138.316,208.055 138.748 M218.710 138.710 C 218.258 139.289,218.167 140.203,218.179 144.067 C 218.195 149.180,218.423 149.957,219.606 148.940 L 220.083 148.529 220.133 144.236 C 220.166 141.401,220.121 139.793,220.001 139.503 C 219.762 138.926,218.937 138.419,218.710 138.710 M357.850 138.934 C 356.807 140.259,357.211 149.505,358.302 149.301 C 359.544 149.070,359.545 138.563,358.304 138.505 C 358.242 138.502,358.037 138.695,357.850 138.934 M250.171 138.852 C 249.515 139.114,249.505 139.190,249.503 143.926 C 249.500 148.816,249.500 148.820,250.433 149.128 C 251.412 149.451,251.500 149.028,251.500 144.008 C 251.500 138.742,251.402 138.361,250.171 138.852 M335.165 139.042 C 334.966 139.342,334.906 140.226,334.864 143.498 C 334.794 148.883,334.881 149.298,336.030 149.082 C 336.957 148.908,337.001 148.672,336.995 143.867 C 336.989 139.255,336.974 139.172,336.101 138.840 C 335.483 138.605,335.449 138.612,335.165 139.042 M163.688 139.910 C 165.148 140.544,166.020 141.962,165.332 142.585 C 164.897 142.978,160.821 142.892,160.410 142.481 C 159.918 141.989,161.918 139.691,162.855 139.672 C 163.004 139.669,163.379 139.776,163.688 139.910 M200.298 139.990 C 202.169 140.969,202.832 143.040,202.146 145.764 C 201.514 148.274,198.053 148.706,196.920 146.417 C 196.268 145.099,196.551 141.734,197.382 140.908 C 198.578 139.720,199.330 139.484,200.298 139.990 M260.737 140.174 C 261.283 140.482,261.744 140.891,261.913 141.215 C 262.066 141.509,262.301 141.938,262.436 142.167 C 262.797 142.779,262.686 145.671,262.287 146.070 C 262.129 146.228,262.000 146.441,262.000 146.543 C 262.000 146.836,261.304 147.500,260.997 147.500 C 260.844 147.500,260.583 147.650,260.417 147.833 C 260.052 148.236,258.977 148.286,258.608 147.917 C 258.471 147.780,258.165 147.595,257.929 147.505 C 257.693 147.415,257.355 147.096,257.177 146.796 C 256.999 146.496,256.755 146.140,256.635 146.004 C 256.176 145.488,256.247 142.829,256.749 141.768 C 257.623 139.920,259.182 139.296,260.737 140.174 M306.083 140.319 C 307.844 141.587,308.159 145.597,306.612 147.034 C 305.039 148.495,304.019 148.488,302.583 147.006 L 301.917 146.317 301.917 144.034 C 301.917 141.368,302.046 141.061,303.544 140.176 C 304.574 139.567,305.080 139.596,306.083 140.319 M317.599 140.083 C 317.865 140.312,318.164 140.500,318.264 140.500 C 318.838 140.500,319.240 142.247,318.741 142.574 C 318.198 142.930,315.188 142.939,314.507 142.587 L 314.030 142.340 314.314 141.546 C 314.478 141.088,314.753 140.675,314.965 140.570 C 315.166 140.469,315.463 140.270,315.624 140.127 C 315.911 139.872,316.323 139.724,316.849 139.686 C 316.995 139.675,317.333 139.854,317.599 140.083 M188.833 144.215 C 189.598 144.600,188.835 147.312,187.917 147.474 C 187.733 147.507,187.423 147.681,187.227 147.861 C 186.472 148.557,184.583 147.475,184.381 146.230 C 184.154 144.830,187.261 143.423,188.833 144.215 M236.630 144.259 C 237.362 144.772,236.600 147.500,235.724 147.500 C 235.601 147.500,235.342 147.658,235.148 147.852 C 234.782 148.218,233.654 148.213,233.531 147.844 C 233.501 147.753,233.227 147.525,232.923 147.337 C 231.761 146.619,232.625 144.415,234.184 144.121 C 235.119 143.944,236.273 144.010,236.630 144.259 M346.101 144.292 C 347.487 146.117,344.619 148.955,342.730 147.629 C 341.318 146.637,341.657 144.926,343.417 144.165 C 344.061 143.887,345.858 143.971,346.101 144.292 " stroke="none" fill="#878787" fill-rule="evenodd"></path><path id="path1" d="M62.500 11.350 C 61.106 11.456,59.977 11.648,59.087 11.930 C 58.356 12.161,57.213 12.420,56.547 12.505 C 55.882 12.589,55.030 12.815,54.655 13.006 C 54.280 13.197,53.403 13.500,52.707 13.678 C 52.011 13.856,51.323 14.107,51.179 14.236 C 51.035 14.365,50.491 14.593,49.970 14.743 C 49.450 14.894,48.836 15.165,48.606 15.345 C 48.376 15.526,47.885 15.781,47.515 15.911 C 47.145 16.042,46.560 16.340,46.216 16.574 C 45.871 16.809,45.475 17.001,45.336 17.002 C 45.197 17.003,44.767 17.255,44.379 17.563 C 43.992 17.871,43.430 18.223,43.129 18.347 C 42.829 18.470,42.453 18.734,42.294 18.933 C 42.135 19.133,41.822 19.342,41.597 19.398 C 41.373 19.455,41.038 19.712,40.854 19.971 C 40.670 20.229,40.231 20.571,39.879 20.730 C 39.526 20.889,39.165 21.181,39.077 21.379 C 38.989 21.577,38.736 21.781,38.516 21.832 C 38.122 21.923,37.947 22.128,37.767 22.708 C 37.713 22.884,37.512 23.000,37.261 23.000 C 36.832 23.000,36.488 23.425,36.620 23.792 C 36.791 24.269,37.833 23.757,37.833 23.195 C 37.833 23.088,37.981 23.000,38.161 23.000 C 38.341 23.000,38.747 22.742,39.061 22.428 C 39.376 22.113,39.939 21.773,40.311 21.673 C 40.684 21.572,41.048 21.390,41.119 21.267 C 41.191 21.144,41.550 20.892,41.917 20.706 C 42.283 20.521,42.725 20.212,42.898 20.021 C 43.071 19.830,43.483 19.625,43.815 19.566 C 44.146 19.508,44.608 19.282,44.841 19.064 C 45.075 18.847,45.646 18.556,46.110 18.418 C 46.574 18.280,47.134 18.026,47.353 17.854 C 47.572 17.681,48.239 17.407,48.834 17.245 C 49.429 17.082,50.031 16.851,50.172 16.732 C 50.430 16.512,52.179 16.000,52.673 16.000 C 52.821 16.000,53.422 15.805,54.007 15.567 C 54.703 15.285,55.623 15.083,56.661 14.985 C 57.535 14.903,59.214 14.677,60.393 14.483 C 62.915 14.067,67.239 14.101,69.667 14.555 C 70.446 14.700,71.887 14.896,72.869 14.988 C 74.064 15.101,74.972 15.290,75.619 15.560 C 76.149 15.781,76.921 16.014,77.333 16.076 C 78.324 16.226,79.191 16.494,79.500 16.746 C 79.637 16.857,80.237 17.082,80.833 17.245 C 81.428 17.407,82.095 17.681,82.314 17.854 C 82.533 18.026,83.076 18.275,83.519 18.407 C 83.963 18.539,84.527 18.832,84.771 19.059 C 85.016 19.287,85.458 19.517,85.752 19.573 C 86.047 19.628,86.424 19.824,86.592 20.009 C 86.759 20.194,87.223 20.490,87.622 20.667 C 88.021 20.843,88.624 21.215,88.962 21.494 C 89.300 21.772,89.653 22.002,89.746 22.005 C 89.840 22.007,90.135 22.232,90.403 22.505 C 90.670 22.777,90.972 23.000,91.074 23.000 C 91.176 23.000,91.378 23.131,91.522 23.292 C 91.667 23.452,92.291 23.996,92.909 24.500 C 94.130 25.497,96.552 27.867,97.531 29.024 C 98.858 30.590,99.500 31.417,99.500 31.556 C 99.500 31.636,99.683 31.846,99.907 32.022 C 100.131 32.198,100.367 32.509,100.431 32.713 C 100.496 32.917,100.800 33.413,101.108 33.816 C 101.415 34.218,101.667 34.644,101.667 34.761 C 101.667 34.878,101.839 35.186,102.049 35.446 C 102.259 35.705,102.575 36.254,102.751 36.667 C 102.927 37.079,103.241 37.648,103.450 37.931 C 103.659 38.213,103.878 38.701,103.935 39.014 C 103.992 39.327,104.218 39.850,104.437 40.177 C 104.656 40.504,104.950 41.216,105.091 41.760 C 105.232 42.305,105.489 43.023,105.661 43.357 C 105.834 43.691,106.105 44.628,106.263 45.440 C 106.421 46.252,106.655 47.127,106.784 47.385 C 107.898 49.609,107.875 61.989,106.751 64.833 C 106.625 65.154,106.397 66.128,106.245 66.997 C 106.085 67.912,105.806 68.858,105.580 69.247 C 105.366 69.615,105.137 70.216,105.070 70.582 C 105.003 70.948,104.735 71.658,104.474 72.161 C 104.213 72.663,104.000 73.228,104.000 73.416 C 104.000 73.604,103.786 74.018,103.525 74.337 C 103.264 74.656,102.959 75.193,102.849 75.531 C 102.738 75.869,102.499 76.334,102.318 76.565 C 102.137 76.796,101.845 77.309,101.669 77.705 C 101.494 78.101,101.159 78.605,100.925 78.825 C 100.691 79.045,100.500 79.315,100.500 79.425 C 100.500 79.536,100.377 79.728,100.227 79.852 C 100.077 79.977,99.775 80.363,99.555 80.712 C 99.335 81.060,99.027 81.476,98.869 81.637 C 98.712 81.799,98.293 82.288,97.938 82.726 C 96.842 84.078,94.103 86.693,92.500 87.917 C 91.660 88.558,90.688 89.327,90.341 89.625 C 89.994 89.923,89.613 90.167,89.496 90.167 C 89.378 90.167,89.049 90.344,88.766 90.560 C 88.482 90.776,87.856 91.152,87.375 91.396 C 86.894 91.640,86.500 91.899,86.500 91.972 C 86.500 92.046,86.081 92.238,85.568 92.400 C 85.056 92.561,84.291 92.912,83.869 93.180 C 83.447 93.448,82.963 93.667,82.794 93.667 C 82.625 93.667,82.005 93.892,81.417 94.167 C 80.828 94.442,80.208 94.667,80.037 94.667 C 79.598 94.667,77.995 95.134,77.500 95.407 C 77.270 95.533,76.070 95.756,74.833 95.901 C 73.596 96.047,71.587 96.290,70.368 96.442 C 68.573 96.665,67.941 96.682,67.035 96.529 C 66.420 96.425,64.904 96.257,63.667 96.155 C 60.715 95.911,59.827 95.754,58.564 95.249 C 57.988 95.018,57.156 94.781,56.716 94.723 C 56.277 94.665,55.512 94.403,55.018 94.142 C 54.524 93.880,53.976 93.667,53.801 93.667 C 53.510 93.667,51.944 92.954,50.500 92.163 C 50.179 91.988,49.523 91.649,49.042 91.410 C 48.560 91.171,48.167 90.902,48.167 90.812 C 48.167 90.722,47.848 90.500,47.458 90.319 C 46.594 89.916,45.251 88.975,44.605 88.319 C 44.342 88.052,44.072 87.833,44.005 87.833 C 43.693 87.833,39.000 83.217,39.000 82.911 C 39.000 82.843,38.719 82.467,38.375 82.075 C 37.505 81.085,36.500 79.728,36.500 79.544 C 36.500 79.460,36.312 79.214,36.081 78.998 C 35.851 78.782,35.590 78.338,35.501 78.011 C 35.412 77.684,35.150 77.199,34.919 76.932 C 34.689 76.666,34.500 76.377,34.500 76.291 C 34.500 76.072,33.986 74.969,33.743 74.667 C 33.633 74.529,33.415 74.004,33.259 73.500 C 33.102 72.996,32.801 72.246,32.590 71.833 C 32.378 71.421,32.127 70.621,32.030 70.056 C 31.934 69.492,31.698 68.721,31.506 68.344 C 31.257 67.857,31.111 67.119,31.000 65.788 C 30.914 64.759,30.714 62.921,30.555 61.703 C 30.307 59.798,30.296 59.275,30.474 57.953 C 30.588 57.108,30.783 55.329,30.908 54.000 C 31.089 52.062,31.220 51.402,31.565 50.667 C 31.803 50.163,31.997 49.595,31.998 49.405 C 32.001 48.912,32.495 47.296,32.735 47.000 C 32.846 46.862,33.069 46.314,33.230 45.782 C 33.391 45.250,33.707 44.543,33.932 44.211 C 34.158 43.879,34.387 43.415,34.443 43.179 C 34.498 42.943,34.679 42.600,34.844 42.417 C 35.009 42.233,35.302 41.715,35.495 41.264 C 35.687 40.813,35.959 40.362,36.098 40.260 C 36.237 40.158,36.515 39.804,36.717 39.474 C 37.367 38.406,38.046 37.419,38.199 37.319 C 38.470 37.141,37.607 35.762,37.051 35.484 C 36.560 35.238,36.038 34.847,34.750 33.759 C 34.247 33.334,33.647 32.895,32.417 32.053 C 32.050 31.802,31.300 31.212,30.750 30.741 C 30.200 30.270,29.563 29.789,29.333 29.673 C 29.104 29.556,28.767 29.317,28.583 29.142 C 28.226 28.802,27.559 28.316,26.292 27.475 C 25.856 27.187,25.500 26.893,25.500 26.822 C 25.500 26.752,25.219 26.523,24.875 26.315 C 24.531 26.106,24.100 25.801,23.917 25.637 C 22.004 23.922,21.083 23.713,20.540 24.869 C 20.350 25.272,20.072 25.704,19.921 25.829 C 19.771 25.954,19.536 26.324,19.399 26.651 C 19.263 26.978,19.011 27.396,18.840 27.581 C 18.541 27.905,18.234 28.459,17.179 30.583 C 16.906 31.133,16.530 31.808,16.343 32.083 C 16.155 32.358,16.002 32.719,16.001 32.884 C 16.000 33.050,15.746 33.663,15.436 34.248 C 15.126 34.832,14.779 35.710,14.665 36.197 C 14.551 36.684,14.358 37.198,14.236 37.338 C 14.015 37.593,13.500 39.337,13.500 39.831 C 13.500 39.975,13.277 40.616,13.005 41.255 C 12.732 41.894,12.506 42.717,12.502 43.083 C 12.499 43.450,12.279 44.618,12.013 45.679 C 10.904 50.110,10.893 63.217,11.995 66.406 C 12.183 66.950,12.407 68.016,12.493 68.774 C 12.580 69.531,12.832 70.624,13.055 71.201 C 13.277 71.778,13.581 72.769,13.730 73.404 C 13.879 74.039,14.106 74.677,14.233 74.821 C 14.361 74.965,14.599 75.571,14.763 76.167 C 14.926 76.762,15.232 77.514,15.443 77.836 C 15.654 78.158,15.875 78.683,15.935 79.003 C 15.996 79.322,16.226 79.827,16.448 80.125 C 16.670 80.424,16.933 80.911,17.034 81.209 C 17.135 81.506,17.375 81.974,17.567 82.248 C 17.759 82.522,18.053 83.047,18.219 83.415 C 18.385 83.782,18.662 84.234,18.836 84.419 C 19.009 84.604,19.263 85.022,19.399 85.349 C 19.536 85.676,19.765 86.041,19.908 86.160 C 20.052 86.279,20.366 86.737,20.606 87.178 C 20.846 87.620,21.145 88.020,21.271 88.068 C 21.397 88.117,21.500 88.266,21.500 88.401 C 21.500 88.536,21.781 88.979,22.125 89.385 C 22.469 89.791,22.900 90.300,23.083 90.517 C 23.267 90.733,23.575 91.118,23.768 91.372 C 24.700 92.597,27.141 95.167,27.373 95.167 C 27.443 95.167,27.500 95.279,27.500 95.417 C 27.500 95.554,27.558 95.667,27.629 95.667 C 27.700 95.667,28.136 96.023,28.598 96.458 C 29.490 97.299,29.639 97.426,31.333 98.777 C 31.929 99.252,32.688 99.872,33.020 100.154 C 33.352 100.436,33.706 100.667,33.806 100.667 C 33.906 100.667,34.245 100.892,34.558 101.167 C 34.871 101.442,35.194 101.667,35.276 101.667 C 35.357 101.667,35.700 101.894,36.036 102.171 C 36.373 102.449,36.933 102.795,37.281 102.940 C 37.629 103.086,38.127 103.384,38.386 103.602 C 38.646 103.821,39.059 104.049,39.305 104.109 C 39.550 104.168,40.050 104.419,40.417 104.667 C 40.783 104.914,41.308 105.170,41.583 105.235 C 41.858 105.300,42.356 105.532,42.689 105.750 C 43.023 105.968,43.735 106.274,44.273 106.429 C 44.810 106.585,45.423 106.847,45.635 107.013 C 45.847 107.178,46.447 107.397,46.968 107.499 C 47.490 107.600,48.306 107.874,48.782 108.107 C 49.281 108.351,50.179 108.596,50.903 108.686 C 51.593 108.772,52.517 109.000,52.954 109.193 C 53.507 109.436,54.742 109.662,57.000 109.931 C 58.788 110.144,60.737 110.395,61.333 110.489 C 62.676 110.701,66.959 110.702,68.083 110.490 C 69.129 110.293,72.327 109.895,74.083 109.743 C 74.840 109.677,75.836 109.459,76.386 109.238 C 76.918 109.023,77.914 108.770,78.598 108.675 C 79.283 108.580,80.159 108.340,80.546 108.142 C 80.933 107.944,81.808 107.643,82.490 107.472 C 83.172 107.301,83.857 107.046,84.014 106.904 C 84.170 106.763,84.737 106.513,85.274 106.349 C 85.811 106.186,86.542 105.853,86.898 105.609 C 87.255 105.366,87.667 105.166,87.815 105.166 C 87.963 105.165,88.308 105.010,88.583 104.822 C 88.858 104.634,89.467 104.305,89.937 104.092 C 90.407 103.879,90.841 103.623,90.902 103.523 C 90.964 103.424,91.366 103.187,91.796 102.997 C 92.227 102.806,92.730 102.513,92.915 102.345 C 93.099 102.177,93.505 101.910,93.818 101.752 C 94.130 101.594,94.542 101.316,94.734 101.135 C 94.926 100.953,95.286 100.699,95.533 100.569 C 95.781 100.439,96.043 100.235,96.117 100.116 C 96.190 99.996,96.531 99.728,96.875 99.519 C 97.219 99.310,97.500 99.081,97.500 99.009 C 97.500 98.937,97.781 98.685,98.125 98.449 C 98.933 97.896,99.612 97.292,101.250 95.668 C 103.257 93.679,103.717 93.182,104.649 92.000 C 105.118 91.404,105.727 90.675,106.001 90.380 C 106.275 90.084,106.500 89.771,106.500 89.683 C 106.500 89.595,106.599 89.425,106.719 89.304 C 107.170 88.850,109.139 85.791,109.708 84.658 C 109.918 84.241,110.257 83.688,110.461 83.428 C 110.665 83.169,110.909 82.670,111.004 82.319 C 111.098 81.969,111.345 81.472,111.552 81.216 C 111.759 80.960,112.022 80.383,112.137 79.934 C 112.251 79.486,112.492 78.912,112.671 78.660 C 112.851 78.408,113.117 77.725,113.263 77.142 C 113.409 76.560,113.711 75.692,113.934 75.213 C 114.156 74.735,114.383 73.985,114.437 73.547 C 114.492 73.109,114.753 72.104,115.018 71.314 C 115.283 70.524,115.500 69.540,115.500 69.128 C 115.500 68.182,116.081 64.426,116.338 63.710 C 116.581 63.033,116.475 55.972,116.204 54.750 C 115.771 52.798,115.643 52.005,115.547 50.670 C 115.483 49.783,115.297 48.882,115.048 48.253 C 114.830 47.701,114.548 46.664,114.421 45.949 C 114.294 45.233,114.046 44.370,113.869 44.030 C 113.692 43.691,113.417 42.964,113.259 42.415 C 113.100 41.866,112.834 41.192,112.668 40.917 C 112.502 40.642,112.271 40.079,112.155 39.667 C 112.039 39.254,111.762 38.668,111.539 38.365 C 111.316 38.061,111.066 37.565,110.982 37.263 C 110.899 36.960,110.607 36.383,110.335 35.981 C 110.062 35.579,109.838 35.162,109.836 35.054 C 109.835 34.947,109.646 34.636,109.416 34.363 C 109.187 34.090,108.868 33.576,108.708 33.220 C 108.548 32.864,108.210 32.351,107.958 32.080 C 107.706 31.809,107.500 31.493,107.500 31.378 C 107.500 31.263,107.275 30.955,107.000 30.692 C 106.725 30.429,106.500 30.159,106.500 30.092 C 106.500 30.025,106.162 29.585,105.750 29.113 C 105.337 28.642,105.000 28.206,105.000 28.145 C 105.000 28.083,104.756 27.781,104.458 27.473 C 104.160 27.164,103.537 26.500,103.073 25.998 C 101.347 24.128,97.900 21.079,97.000 20.627 C 96.771 20.512,96.444 20.246,96.274 20.035 C 96.103 19.824,95.634 19.497,95.232 19.307 C 94.829 19.118,94.500 18.900,94.500 18.823 C 94.500 18.745,94.179 18.540,93.786 18.366 C 93.393 18.193,92.862 17.856,92.606 17.619 C 92.350 17.382,91.919 17.139,91.650 17.080 C 91.380 17.020,90.947 16.794,90.688 16.576 C 90.430 16.358,89.850 16.057,89.401 15.907 C 88.951 15.756,88.433 15.497,88.250 15.331 C 88.067 15.166,87.617 14.950,87.250 14.851 C 86.883 14.753,86.292 14.516,85.935 14.324 C 85.579 14.132,84.719 13.829,84.025 13.652 C 83.331 13.474,82.440 13.172,82.045 12.981 C 81.649 12.790,80.761 12.563,80.070 12.478 C 79.380 12.392,78.420 12.174,77.937 11.993 C 76.148 11.324,67.565 10.966,62.500 11.350 M35.667 24.417 C 35.498 24.620,35.493 24.726,35.645 24.878 C 35.883 25.117,36.417 24.844,36.417 24.484 C 36.417 24.152,35.923 24.107,35.667 24.417 M34.667 25.750 C 34.667 25.903,34.747 26.001,34.846 25.968 C 34.944 25.935,35.025 25.837,35.025 25.750 C 35.025 25.663,34.944 25.565,34.846 25.532 C 34.747 25.499,34.667 25.597,34.667 25.750 M102.108 52.460 C 101.995 52.643,101.500 55.095,101.500 55.472 C 101.500 55.648,101.314 56.212,101.087 56.725 C 100.860 57.239,100.595 58.156,100.498 58.764 C 100.392 59.425,100.156 60.112,99.911 60.473 C 99.685 60.805,99.500 61.207,99.500 61.366 C 99.500 61.804,98.996 63.215,98.734 63.512 C 98.607 63.656,98.357 64.197,98.178 64.716 C 98.000 65.234,97.703 65.820,97.519 66.018 C 97.334 66.216,97.140 66.577,97.086 66.819 C 97.033 67.061,96.769 67.518,96.500 67.833 C 96.231 68.149,95.966 68.608,95.912 68.853 C 95.859 69.098,95.662 69.436,95.477 69.604 C 95.291 69.772,95.042 70.136,94.923 70.413 C 94.804 70.690,94.474 71.173,94.189 71.485 C 93.905 71.798,93.624 72.204,93.566 72.388 C 93.508 72.572,93.244 72.904,92.980 73.126 C 92.716 73.348,92.500 73.630,92.500 73.753 C 92.500 73.877,92.275 74.138,92.000 74.333 C 91.725 74.529,91.500 74.773,91.500 74.876 C 91.500 75.112,86.739 79.769,86.125 80.133 C 85.873 80.283,85.667 80.458,85.667 80.522 C 85.667 80.587,85.396 80.807,85.065 81.011 C 84.734 81.216,84.273 81.559,84.041 81.775 C 83.808 81.990,83.546 82.167,83.458 82.167 C 83.370 82.167,83.025 82.382,82.691 82.644 C 82.357 82.907,81.914 83.175,81.707 83.239 C 81.501 83.304,81.113 83.540,80.846 83.765 C 80.579 83.990,79.998 84.333,79.555 84.527 C 79.112 84.722,78.574 85.018,78.358 85.186 C 78.143 85.354,77.693 85.539,77.358 85.597 C 77.024 85.654,76.456 85.891,76.096 86.122 C 75.736 86.354,75.003 86.646,74.466 86.771 C 73.929 86.896,73.211 87.139,72.870 87.310 C 72.529 87.481,71.500 87.752,70.583 87.913 C 69.667 88.074,68.678 88.303,68.386 88.423 C 67.521 88.778,65.448 89.027,62.252 89.160 C 57.891 89.342,57.026 89.839,60.464 90.186 C 61.354 90.276,62.721 90.461,63.500 90.597 C 65.537 90.952,69.405 91.089,71.046 90.865 C 71.800 90.762,73.488 90.564,74.797 90.424 C 76.404 90.253,77.425 90.057,77.938 89.824 C 78.356 89.633,79.219 89.378,79.856 89.257 C 80.502 89.134,81.286 88.852,81.632 88.620 C 81.972 88.390,82.523 88.155,82.856 88.097 C 83.189 88.040,83.789 87.770,84.189 87.499 C 84.589 87.228,85.000 87.005,85.103 87.003 C 85.205 87.001,85.730 86.700,86.269 86.334 C 86.809 85.967,87.330 85.667,87.427 85.667 C 87.525 85.667,87.820 85.442,88.083 85.167 C 88.347 84.892,88.628 84.667,88.709 84.667 C 89.202 84.667,95.000 79.027,95.000 78.547 C 95.000 78.445,95.225 78.149,95.500 77.890 C 95.775 77.630,96.000 77.341,96.000 77.247 C 96.000 77.153,96.227 76.800,96.505 76.464 C 96.782 76.127,97.129 75.566,97.274 75.217 C 97.420 74.869,97.716 74.406,97.932 74.190 C 98.148 73.973,98.373 73.542,98.431 73.231 C 98.490 72.920,98.754 72.393,99.019 72.060 C 99.283 71.727,99.500 71.285,99.500 71.077 C 99.500 70.870,99.719 70.285,99.986 69.776 C 100.254 69.268,100.562 68.416,100.671 67.884 C 100.780 67.352,101.050 66.531,101.272 66.059 C 101.500 65.574,101.750 64.599,101.850 63.809 C 101.947 63.043,102.127 62.004,102.251 61.500 C 103.222 57.561,103.115 50.831,102.108 52.460 " stroke="none" fill="#ababab" fill-rule="evenodd"></path></g></svg>