<svg id="svg" xmlns="http://www.w3.org/2000/svg" xmlns:xlink="http://www.w3.org/1999/xlink" width="400" height="155.12465373961217" viewBox="0, 0, 400,155.12465373961217"><g id="svgg"><path id="path0" d="M32.333 2.762 C 31.646 2.887,30.221 3.109,29.167 3.257 C 28.113 3.404,26.942 3.660,26.565 3.826 C 26.189 3.992,25.364 4.253,24.732 4.407 C 24.100 4.562,23.396 4.818,23.167 4.977 C 22.938 5.136,22.412 5.363,22.000 5.482 C 21.587 5.600,21.063 5.868,20.833 6.077 C 20.604 6.286,20.229 6.503,20.000 6.558 C 19.771 6.614,19.324 6.830,19.007 7.038 C 18.322 7.488,17.297 8.122,16.510 8.583 C 16.197 8.767,15.689 9.160,15.381 9.458 C 15.074 9.756,14.761 10.000,14.686 10.000 C 14.375 10.000,9.376 15.122,8.840 15.989 C 8.774 16.096,8.554 16.386,8.351 16.633 C 8.148 16.881,7.616 17.683,7.170 18.417 C 6.724 19.150,6.215 19.938,6.039 20.167 C 5.863 20.396,5.664 20.808,5.597 21.083 C 5.531 21.358,5.266 21.921,5.008 22.333 C 4.751 22.746,4.489 23.308,4.426 23.583 C 4.363 23.858,4.129 24.473,3.906 24.948 C 3.682 25.424,3.392 26.326,3.260 26.952 C 3.128 27.579,2.932 28.314,2.824 28.587 C 1.556 31.784,1.606 41.494,2.914 45.833 C 3.121 46.521,3.384 47.496,3.499 48.000 C 3.614 48.504,3.806 49.029,3.925 49.167 C 4.044 49.304,4.233 49.792,4.344 50.250 C 4.455 50.708,4.712 51.308,4.914 51.583 C 5.117 51.858,5.380 52.383,5.499 52.750 C 5.618 53.117,5.861 53.604,6.039 53.833 C 6.218 54.063,6.460 54.481,6.578 54.764 C 6.696 55.046,7.064 55.646,7.395 56.097 C 7.727 56.548,8.241 57.254,8.539 57.667 C 9.082 58.419,9.335 58.715,10.418 59.872 C 10.738 60.214,11.004 60.552,11.009 60.622 C 11.014 60.692,11.370 61.069,11.801 61.458 C 12.231 61.848,13.104 62.654,13.740 63.250 C 14.375 63.846,14.945 64.333,15.005 64.333 C 15.066 64.333,15.333 64.525,15.599 64.760 C 15.865 64.994,16.308 65.305,16.583 65.450 C 16.858 65.595,17.295 65.891,17.554 66.107 C 17.814 66.323,18.097 66.500,18.183 66.500 C 18.270 66.500,18.723 66.762,19.189 67.083 C 19.656 67.404,20.146 67.667,20.280 67.667 C 20.413 67.667,20.761 67.845,21.053 68.063 C 21.345 68.281,21.883 68.553,22.250 68.668 C 23.603 69.092,23.644 69.323,23.735 77.083 C 23.832 85.412,24.207 86.500,26.984 86.500 C 27.442 86.500,27.997 86.582,28.217 86.682 L 28.616 86.864 28.735 92.807 C 29.011 106.608,29.351 120.487,29.493 123.750 C 29.576 125.675,29.727 131.075,29.827 135.750 C 30.149 150.747,30.711 153.186,34.039 154.018 C 37.236 154.818,39.708 153.491,41.958 149.767 C 42.119 149.501,42.446 149.051,42.685 148.767 C 42.925 148.483,43.236 148.025,43.376 147.750 C 43.517 147.474,43.790 147.107,43.983 146.932 C 44.176 146.758,44.333 146.532,44.333 146.431 C 44.333 146.329,44.594 145.947,44.913 145.582 C 45.233 145.216,45.495 144.840,45.497 144.745 C 45.499 144.651,45.725 144.328,45.999 144.028 C 46.274 143.727,46.539 143.279,46.589 143.032 C 46.639 142.785,46.824 142.310,47.002 141.975 C 47.519 140.999,47.597 140.107,47.214 139.553 C 47.035 139.295,46.766 138.770,46.617 138.387 C 46.322 137.630,46.246 137.533,44.457 135.640 C 43.793 134.937,43.037 134.137,42.777 133.861 C 41.868 132.897,41.778 129.650,42.620 128.167 C 43.198 127.148,43.192 126.098,42.603 125.231 C 42.363 124.878,42.167 124.468,42.167 124.320 C 42.167 124.171,41.943 123.720,41.670 123.317 C 40.608 121.750,41.219 120.681,43.750 119.679 C 44.874 119.233,45.711 118.309,45.418 117.835 C 45.284 117.618,43.101 116.167,42.908 116.166 C 42.755 116.166,42.139 115.690,41.378 114.983 C 40.863 114.505,41.154 113.974,42.873 112.258 C 44.332 110.802,44.415 110.658,44.587 109.282 C 44.830 107.335,44.140 105.845,42.636 105.068 C 42.381 104.935,42.031 104.536,41.858 104.179 L 41.545 103.531 42.360 102.809 C 42.808 102.412,43.316 102.036,43.488 101.972 C 43.660 101.908,44.151 101.589,44.580 101.261 C 45.008 100.934,45.453 100.667,45.567 100.667 C 45.682 100.667,45.957 100.472,46.179 100.234 C 46.402 99.996,46.783 99.698,47.026 99.571 C 48.262 98.928,47.529 97.213,45.667 96.389 C 44.918 96.057,43.000 94.822,43.000 94.672 C 43.000 94.453,43.753 94.199,45.000 93.996 C 45.688 93.884,46.438 93.698,46.667 93.583 C 46.896 93.467,47.540 93.320,48.099 93.256 C 49.726 93.070,50.577 92.165,50.151 91.076 C 50.081 90.897,50.019 90.000,50.013 89.083 C 50.001 87.152,49.763 83.392,49.413 79.583 C 48.618 70.939,48.706 69.127,49.942 68.671 C 50.322 68.530,50.776 68.286,50.950 68.129 C 51.124 67.971,51.588 67.729,51.982 67.590 C 52.375 67.451,52.921 67.149,53.195 66.919 C 53.468 66.688,53.788 66.500,53.906 66.500 C 54.024 66.500,54.449 66.238,54.852 65.918 C 55.254 65.598,55.641 65.336,55.711 65.335 C 55.895 65.333,57.711 63.835,57.968 63.474 C 58.088 63.305,58.264 63.167,58.360 63.167 C 58.570 63.167,61.619 60.055,62.636 58.802 C 63.846 57.314,63.999 57.112,64.550 56.267 C 65.320 55.089,65.919 54.042,66.401 53.034 C 66.632 52.548,66.984 51.923,67.182 51.646 C 67.379 51.368,67.610 50.836,67.693 50.464 C 67.777 50.092,68.033 49.390,68.263 48.904 C 68.493 48.419,68.751 47.586,68.838 47.053 C 68.925 46.519,69.139 45.708,69.314 45.250 C 70.417 42.366,70.382 31.266,69.261 28.585 C 69.125 28.258,68.930 27.524,68.828 26.953 C 68.727 26.383,68.424 25.448,68.155 24.875 C 67.886 24.301,67.667 23.724,67.667 23.591 C 67.667 23.458,67.367 22.780,67.000 22.083 C 66.633 21.387,66.333 20.720,66.333 20.601 C 66.333 20.482,66.177 20.244,65.986 20.071 C 65.795 19.898,65.529 19.494,65.395 19.172 C 65.261 18.851,65.013 18.437,64.845 18.252 C 64.677 18.068,64.417 17.674,64.267 17.378 C 63.999 16.848,63.828 16.628,62.835 15.529 C 62.559 15.224,62.332 14.924,62.331 14.862 C 62.326 14.682,59.852 12.180,58.511 11.000 C 57.834 10.404,57.018 9.673,56.698 9.375 C 56.378 9.077,56.043 8.833,55.955 8.833 C 55.867 8.833,55.437 8.571,55.000 8.250 C 54.563 7.929,54.136 7.667,54.051 7.667 C 53.966 7.667,53.744 7.525,53.557 7.351 C 53.144 6.966,52.266 6.500,51.954 6.500 C 51.828 6.500,51.554 6.318,51.345 6.096 C 51.128 5.865,50.597 5.604,50.108 5.487 C 49.636 5.375,49.025 5.120,48.750 4.922 C 48.475 4.724,47.820 4.477,47.295 4.374 C 46.770 4.270,46.095 4.077,45.795 3.944 C 44.899 3.547,44.664 3.491,42.836 3.239 C 41.872 3.106,40.446 2.889,39.667 2.757 C 37.897 2.459,33.996 2.461,32.333 2.762 M38.101 9.656 C 39.283 9.833,40.775 10.031,41.417 10.094 C 42.068 10.159,42.935 10.379,43.380 10.593 C 43.818 10.803,44.555 11.056,45.019 11.155 C 45.482 11.255,46.174 11.515,46.556 11.735 C 46.938 11.954,47.484 12.183,47.769 12.242 C 48.055 12.301,48.430 12.480,48.602 12.638 C 48.775 12.797,49.348 13.136,49.875 13.392 C 50.402 13.648,50.833 13.926,50.833 14.009 C 50.833 14.092,51.120 14.306,51.469 14.484 C 51.819 14.663,52.211 14.935,52.339 15.090 C 52.467 15.244,52.693 15.418,52.842 15.477 C 53.465 15.722,56.026 18.090,57.193 19.500 C 58.454 21.024,59.833 22.881,59.833 23.055 C 59.833 23.145,60.007 23.451,60.220 23.734 C 60.433 24.018,60.739 24.587,60.901 25.000 C 61.062 25.412,61.295 25.863,61.418 26.000 C 62.805 27.549,63.606 34.575,62.465 35.186 C 61.892 35.492,60.885 35.382,59.871 34.902 C 59.346 34.653,58.579 34.353,58.167 34.236 C 57.194 33.961,54.956 33.080,54.000 32.598 C 53.587 32.389,52.813 32.125,52.279 32.011 C 51.745 31.897,50.899 31.623,50.399 31.402 C 49.851 31.160,49.174 31.000,48.693 31.000 C 47.815 31.000,46.457 30.789,44.917 30.414 C 41.438 29.566,30.463 29.631,26.845 30.522 C 26.072 30.712,24.828 30.923,24.080 30.991 C 23.333 31.059,22.465 31.246,22.152 31.406 C 21.455 31.762,20.195 32.162,19.766 32.165 C 19.591 32.166,19.216 32.343,18.932 32.559 C 18.649 32.775,18.229 33.008,18.000 33.077 C 17.771 33.146,17.133 33.429,16.583 33.705 C 16.033 33.981,15.227 34.313,14.792 34.443 C 14.356 34.573,14.000 34.733,14.000 34.799 C 14.000 34.915,13.749 35.040,12.493 35.548 C 12.169 35.679,11.781 35.909,11.632 36.059 C 11.212 36.479,9.480 36.887,9.229 36.625 C 8.966 36.352,8.343 33.461,8.160 31.667 C 7.989 29.995,8.085 29.228,8.611 28.037 C 8.825 27.553,9.000 27.057,9.000 26.935 C 9.000 26.813,9.197 26.423,9.438 26.068 C 9.678 25.714,9.975 25.142,10.096 24.797 C 10.218 24.452,10.471 24.005,10.659 23.803 C 10.846 23.602,11.000 23.346,11.000 23.235 C 11.000 23.050,11.342 22.550,12.864 20.509 C 13.798 19.255,16.884 16.237,17.885 15.596 C 18.407 15.263,18.833 14.935,18.833 14.869 C 18.833 14.802,19.077 14.641,19.375 14.511 C 19.673 14.381,20.011 14.143,20.126 13.982 C 20.242 13.821,20.729 13.502,21.210 13.272 C 21.690 13.042,22.271 12.742,22.500 12.606 C 23.242 12.165,25.568 11.188,26.142 11.075 C 26.449 11.015,27.087 10.795,27.559 10.586 C 28.171 10.314,29.276 10.100,31.417 9.838 C 33.067 9.635,34.448 9.439,34.486 9.402 C 34.640 9.250,36.066 9.350,38.101 9.656 M129.917 13.366 C 129.733 13.470,129.528 13.636,129.461 13.736 C 129.394 13.835,129.337 22.408,129.336 32.787 L 129.333 51.658 129.825 51.912 C 130.241 52.128,131.314 52.167,136.794 52.167 C 143.410 52.167,144.428 52.093,146.225 51.485 C 146.761 51.304,147.548 51.112,147.975 51.058 C 148.401 51.004,149.069 50.778,149.460 50.556 C 149.850 50.333,150.474 50.043,150.846 49.912 C 151.218 49.781,151.723 49.518,151.969 49.328 C 152.215 49.138,152.934 48.610,153.567 48.156 C 154.200 47.701,154.932 47.124,155.193 46.873 C 155.454 46.622,155.799 46.297,155.959 46.150 C 156.325 45.814,156.780 45.269,157.406 44.417 C 157.674 44.050,157.989 43.655,158.105 43.539 C 158.221 43.423,158.483 43.029,158.688 42.664 C 158.893 42.299,159.117 42.000,159.184 42.000 C 159.251 42.000,159.436 41.606,159.593 41.125 C 159.751 40.644,160.012 40.062,160.173 39.832 C 160.509 39.351,160.756 38.477,160.924 37.170 C 160.989 36.668,161.145 35.965,161.271 35.607 C 161.590 34.704,161.584 30.433,161.263 29.464 C 161.133 29.071,160.937 28.150,160.827 27.417 C 160.700 26.573,160.485 25.869,160.242 25.500 C 160.030 25.179,159.804 24.627,159.739 24.272 C 159.675 23.918,159.424 23.393,159.181 23.106 C 158.938 22.818,158.592 22.298,158.411 21.949 C 158.231 21.600,157.915 21.156,157.708 20.962 C 157.502 20.768,157.333 20.548,157.333 20.475 C 157.333 20.364,155.974 18.976,153.998 17.070 C 153.768 16.848,153.493 16.667,153.386 16.667 C 153.279 16.667,152.971 16.481,152.701 16.253 C 152.431 16.026,151.864 15.692,151.441 15.511 C 151.019 15.329,150.465 15.030,150.211 14.846 C 149.958 14.662,149.386 14.432,148.941 14.335 C 148.497 14.237,147.897 14.035,147.608 13.885 C 146.322 13.216,130.975 12.766,129.917 13.366 M217.292 13.429 L 216.833 13.677 216.833 32.668 L 216.833 51.658 217.325 51.912 C 217.934 52.227,221.815 52.275,222.386 51.975 C 222.991 51.656,222.995 51.618,222.997 45.395 C 223.000 40.002,223.029 39.350,223.275 39.145 C 223.497 38.961,225.086 38.900,231.400 38.833 C 238.989 38.753,239.275 38.738,240.000 38.393 C 240.412 38.197,241.125 37.903,241.583 37.741 C 242.042 37.578,242.608 37.270,242.842 37.056 C 243.077 36.842,243.348 36.667,243.446 36.667 C 243.858 36.667,247.167 33.137,247.167 32.698 C 247.167 32.620,247.392 32.218,247.666 31.803 C 247.941 31.388,248.237 30.681,248.323 30.232 C 248.409 29.784,248.596 28.970,248.739 28.423 C 249.280 26.364,248.607 21.045,247.713 20.303 C 247.585 20.197,247.379 19.867,247.255 19.570 C 246.855 18.612,244.742 16.327,243.542 15.554 C 243.060 15.243,242.667 14.929,242.667 14.855 C 242.667 14.781,242.348 14.619,241.958 14.497 C 241.569 14.374,240.912 14.109,240.500 13.908 C 239.098 13.226,238.057 13.166,227.653 13.173 C 219.199 13.179,217.683 13.216,217.292 13.429 M260.609 13.471 C 260.177 13.949,260.203 18.469,260.641 19.010 L 260.949 19.391 266.516 19.350 L 272.083 19.309 272.667 19.703 L 273.250 20.097 273.293 35.878 L 273.335 51.659 273.826 51.913 C 274.461 52.241,278.369 52.270,279.000 51.951 L 279.417 51.740 279.500 35.930 L 279.583 20.119 280.054 19.768 C 280.513 19.426,280.686 19.417,286.345 19.417 L 292.164 19.417 292.415 18.788 C 292.814 17.793,292.770 14.004,292.355 13.526 L 292.044 13.167 276.465 13.167 C 261.583 13.167,260.873 13.180,260.609 13.471 M303.958 13.389 C 303.684 13.607,303.667 14.726,303.667 32.667 C 303.667 50.611,303.684 51.726,303.958 51.935 C 304.456 52.312,309.534 52.188,309.934 51.789 C 310.115 51.608,310.010 13.610,309.828 13.428 C 309.538 13.138,304.319 13.103,303.958 13.389 M322.750 13.366 C 322.276 13.635,322.167 13.856,322.345 14.188 C 322.430 14.348,322.500 14.610,322.500 14.772 C 322.500 14.933,322.676 15.257,322.892 15.491 C 323.107 15.725,323.410 16.243,323.564 16.642 C 323.718 17.040,324.029 17.639,324.255 17.972 C 324.482 18.305,324.667 18.695,324.667 18.838 C 324.667 18.981,324.927 19.508,325.246 20.008 C 325.564 20.508,325.827 21.031,325.829 21.170 C 325.831 21.309,326.010 21.684,326.226 22.003 C 326.441 22.322,326.721 22.883,326.847 23.250 C 326.973 23.617,327.239 24.142,327.438 24.417 C 327.638 24.692,327.876 25.193,327.967 25.531 C 328.059 25.870,328.323 26.395,328.554 26.698 C 328.785 27.002,329.029 27.475,329.095 27.750 C 329.162 28.025,329.426 28.550,329.683 28.917 C 329.939 29.283,330.200 29.808,330.263 30.083 C 330.325 30.358,330.541 30.771,330.743 31.000 C 330.944 31.229,331.210 31.754,331.334 32.167 C 331.457 32.579,331.694 33.071,331.861 33.259 C 332.027 33.447,332.271 33.962,332.404 34.404 C 332.537 34.845,332.791 35.366,332.969 35.562 C 333.147 35.757,333.386 36.217,333.500 36.583 C 333.614 36.950,333.875 37.475,334.079 37.750 C 334.283 38.025,334.547 38.550,334.667 38.917 C 334.786 39.283,335.045 39.808,335.242 40.083 C 335.439 40.358,335.700 40.878,335.822 41.239 C 335.944 41.599,336.187 42.048,336.363 42.237 C 336.538 42.425,336.761 42.892,336.857 43.276 C 336.954 43.659,337.164 44.113,337.325 44.286 C 337.486 44.459,337.744 44.979,337.898 45.443 C 338.052 45.906,338.363 46.459,338.589 46.672 C 338.815 46.884,339.000 47.186,339.000 47.342 C 339.000 47.750,339.439 48.742,339.724 48.978 C 339.858 49.089,340.015 49.384,340.073 49.632 C 340.271 50.480,340.540 51.000,340.781 51.000 C 341.320 51.000,342.157 50.129,342.500 49.211 C 342.691 48.702,342.993 48.099,343.173 47.871 C 343.353 47.642,343.500 47.331,343.500 47.180 C 343.500 47.029,343.762 46.498,344.083 46.000 C 344.404 45.502,344.667 44.977,344.667 44.833 C 344.667 44.690,344.929 44.165,345.250 43.667 C 345.571 43.169,345.833 42.596,345.833 42.393 C 345.833 42.191,346.017 41.807,346.242 41.540 C 346.466 41.274,346.807 40.657,346.999 40.170 C 347.191 39.683,347.495 39.098,347.674 38.870 C 347.853 38.642,348.000 38.331,348.000 38.180 C 348.000 38.029,348.262 37.498,348.583 37.000 C 348.904 36.502,349.169 35.980,349.171 35.839 C 349.173 35.698,349.436 35.174,349.754 34.674 C 350.073 34.174,350.333 33.626,350.333 33.455 C 350.333 33.284,350.515 32.906,350.737 32.614 C 350.959 32.322,351.191 31.883,351.252 31.638 C 351.313 31.393,351.619 30.796,351.931 30.310 C 352.244 29.825,352.500 29.307,352.500 29.159 C 352.500 29.011,352.719 28.559,352.987 28.154 C 353.255 27.748,353.529 27.192,353.597 26.917 C 353.664 26.642,353.885 26.192,354.087 25.917 C 354.289 25.642,354.542 25.154,354.649 24.833 C 354.757 24.512,355.017 23.988,355.229 23.667 C 355.440 23.346,355.660 22.892,355.718 22.657 C 355.776 22.423,356.049 21.898,356.325 21.491 C 356.602 21.083,356.872 20.518,356.927 20.235 C 356.982 19.952,357.205 19.513,357.422 19.260 C 357.640 19.007,357.938 18.438,358.085 17.996 C 358.231 17.554,358.459 17.103,358.591 16.993 C 358.723 16.884,358.906 16.515,358.998 16.173 C 359.090 15.831,359.389 15.221,359.663 14.818 C 360.247 13.956,360.268 13.810,359.862 13.442 C 359.483 13.099,354.400 13.031,353.781 13.360 C 353.324 13.603,352.506 14.516,352.503 14.786 C 352.500 15.015,351.970 16.206,351.815 16.333 C 351.628 16.486,351.167 17.480,351.167 17.729 C 351.167 17.864,350.988 18.187,350.769 18.448 C 350.550 18.708,350.276 19.236,350.160 19.622 C 350.045 20.008,349.806 20.479,349.629 20.668 C 349.453 20.857,349.190 21.366,349.045 21.798 C 348.900 22.230,348.605 22.795,348.391 23.054 C 348.176 23.314,348.000 23.644,348.000 23.788 C 348.000 23.933,347.747 24.509,347.437 25.067 C 347.127 25.626,346.818 26.271,346.751 26.500 C 346.683 26.729,346.464 27.142,346.263 27.417 C 346.063 27.692,345.809 28.223,345.701 28.597 C 345.592 28.971,345.331 29.478,345.121 29.722 C 344.911 29.967,344.644 30.491,344.526 30.888 C 344.409 31.285,344.172 31.731,343.999 31.879 C 343.826 32.027,343.602 32.456,343.500 32.832 C 343.399 33.208,343.096 33.862,342.827 34.287 C 342.558 34.712,342.289 35.316,342.230 35.631 C 341.970 37.017,340.534 37.030,340.162 35.650 C 340.072 35.314,339.888 34.948,339.755 34.838 C 339.622 34.727,339.360 34.227,339.173 33.727 C 338.985 33.227,338.683 32.658,338.500 32.461 C 338.316 32.265,338.167 32.014,338.167 31.905 C 338.167 31.692,336.492 28.315,336.211 27.961 C 336.119 27.845,335.947 27.450,335.830 27.083 C 335.712 26.717,335.455 26.192,335.258 25.917 C 335.061 25.642,334.799 25.117,334.675 24.750 C 334.552 24.383,334.284 23.858,334.080 23.583 C 333.877 23.308,333.665 22.889,333.608 22.651 C 333.552 22.413,333.243 21.779,332.920 21.244 C 332.597 20.708,332.333 20.160,332.333 20.026 C 332.333 19.891,332.161 19.549,331.950 19.266 C 331.739 18.982,331.463 18.427,331.337 18.033 C 331.211 17.639,331.050 17.281,330.979 17.237 C 330.908 17.193,330.504 16.451,330.081 15.588 C 329.659 14.725,329.162 13.827,328.978 13.593 L 328.642 13.167 325.863 13.172 C 324.107 13.175,322.961 13.246,322.750 13.366 M372.208 13.498 L 371.667 13.828 371.667 32.729 L 371.667 51.630 372.337 51.899 C 373.205 52.246,395.826 52.292,396.833 51.949 L 397.417 51.750 397.417 48.758 L 397.417 45.765 397.000 45.649 C 396.771 45.585,392.492 45.526,387.492 45.517 C 380.661 45.504,378.350 45.450,378.200 45.300 C 377.873 44.973,377.922 36.968,378.254 36.325 L 378.509 35.833 387.513 35.833 C 395.257 35.833,396.585 35.798,397.008 35.579 L 397.500 35.325 397.500 32.756 C 397.500 30.883,397.443 30.150,397.292 30.052 C 397.177 29.977,392.906 29.879,387.800 29.833 C 380.499 29.768,378.470 29.704,378.300 29.534 C 378.008 29.242,377.892 20.663,378.171 19.991 C 378.438 19.344,379.079 19.304,388.411 19.348 C 395.049 19.379,396.515 19.344,396.923 19.149 L 397.417 18.912 397.417 16.248 L 397.417 13.583 396.833 13.384 C 395.673 12.989,372.871 13.094,372.208 13.498 M185.367 13.867 C 185.257 13.977,185.167 14.156,185.167 14.265 C 185.167 14.374,184.914 14.831,184.604 15.280 C 184.295 15.730,183.989 16.335,183.926 16.625 C 183.862 16.914,183.670 17.329,183.498 17.547 C 183.327 17.765,183.036 18.340,182.852 18.824 C 182.668 19.308,182.413 19.827,182.285 19.977 C 182.157 20.127,181.922 20.583,181.764 20.990 C 181.606 21.398,181.326 21.944,181.140 22.204 C 180.955 22.464,180.734 22.928,180.650 23.235 C 180.565 23.542,180.271 24.075,179.998 24.420 C 179.724 24.764,179.500 25.213,179.500 25.416 C 179.500 25.620,179.303 26.077,179.062 26.432 C 178.822 26.786,178.523 27.364,178.399 27.716 C 178.275 28.068,178.033 28.557,177.860 28.803 C 177.687 29.049,177.461 29.512,177.356 29.833 C 177.252 30.154,176.942 30.754,176.667 31.167 C 176.393 31.579,176.168 32.035,176.167 32.180 C 176.167 32.324,175.947 32.774,175.680 33.180 C 175.412 33.585,175.139 34.142,175.075 34.417 C 175.010 34.692,174.786 35.104,174.577 35.333 C 174.368 35.563,174.101 36.087,173.983 36.500 C 173.865 36.912,173.604 37.475,173.403 37.750 C 173.203 38.025,172.983 38.438,172.916 38.667 C 172.848 38.896,172.540 39.541,172.230 40.099 C 171.920 40.658,171.667 41.228,171.667 41.365 C 171.667 41.503,171.525 41.743,171.353 41.899 C 171.180 42.055,170.908 42.536,170.747 42.966 C 170.587 43.397,170.293 43.975,170.094 44.250 C 169.895 44.525,169.633 45.087,169.513 45.500 C 169.393 45.913,169.116 46.429,168.898 46.648 C 168.679 46.866,168.500 47.173,168.500 47.329 C 168.500 47.662,166.925 50.783,166.540 51.212 C 165.949 51.871,167.076 52.155,170.250 52.147 C 173.041 52.140,173.472 51.994,173.920 50.903 C 174.105 50.452,174.381 49.896,174.533 49.667 C 174.685 49.438,174.939 48.913,175.097 48.500 C 175.255 48.087,175.478 47.637,175.592 47.500 C 175.706 47.362,175.962 46.901,176.160 46.475 C 176.382 45.998,176.661 45.662,176.886 45.602 C 177.420 45.459,194.385 45.483,194.593 45.628 C 194.768 45.750,195.188 46.512,195.946 48.083 C 196.167 48.542,196.421 49.029,196.511 49.167 C 196.601 49.304,196.861 49.829,197.089 50.333 C 197.703 51.689,197.715 51.704,198.426 51.957 C 199.310 52.272,204.324 52.187,204.730 51.850 C 205.081 51.559,205.070 51.412,204.673 51.042 C 204.493 50.874,204.160 50.328,203.933 49.827 C 203.706 49.326,203.366 48.692,203.178 48.417 C 202.990 48.142,202.835 47.802,202.834 47.661 C 202.834 47.520,202.571 46.998,202.250 46.500 C 201.929 46.002,201.667 45.478,201.667 45.336 C 201.667 45.194,201.493 44.816,201.281 44.497 C 201.070 44.178,200.760 43.542,200.592 43.083 C 200.425 42.625,200.158 42.100,199.998 41.917 C 199.838 41.733,199.623 41.321,199.520 41.000 C 199.417 40.679,199.108 40.079,198.834 39.667 C 198.559 39.254,198.334 38.797,198.334 38.650 C 198.334 38.503,198.110 38.053,197.836 37.650 C 197.563 37.247,197.293 36.678,197.236 36.386 C 197.180 36.094,196.994 35.729,196.824 35.575 C 196.653 35.420,196.396 34.940,196.252 34.506 C 196.108 34.073,195.806 33.468,195.581 33.163 C 195.355 32.857,195.123 32.339,195.065 32.012 C 195.007 31.685,194.790 31.229,194.583 31.000 C 194.375 30.771,194.107 30.283,193.986 29.917 C 193.865 29.550,193.606 29.025,193.409 28.750 C 193.212 28.475,192.962 27.981,192.855 27.652 C 192.747 27.323,192.473 26.802,192.246 26.495 C 192.019 26.187,191.833 25.814,191.833 25.667 C 191.833 25.519,191.612 25.050,191.343 24.625 C 191.073 24.199,190.747 23.542,190.619 23.164 C 190.492 22.786,190.267 22.336,190.120 22.164 C 189.973 21.993,189.731 21.492,189.582 21.051 C 189.433 20.611,189.137 20.063,188.923 19.833 C 188.710 19.604,188.484 19.175,188.422 18.881 C 188.360 18.586,188.116 18.061,187.880 17.714 C 187.645 17.367,187.380 16.821,187.293 16.500 C 187.206 16.179,186.996 15.766,186.825 15.581 C 186.655 15.397,186.359 14.891,186.167 14.456 C 185.799 13.623,185.690 13.543,185.367 13.867 M97.745 14.614 C 97.610 14.820,97.500 15.145,97.500 15.336 C 97.500 15.744,97.052 16.667,96.854 16.667 C 96.779 16.667,96.594 17.048,96.444 17.513 C 96.293 17.979,96.034 18.560,95.868 18.805 C 95.701 19.050,95.424 19.587,95.251 20.000 C 95.079 20.412,94.845 20.862,94.731 21.000 C 94.618 21.137,94.364 21.681,94.167 22.208 C 93.970 22.735,93.754 23.167,93.686 23.167 C 93.524 23.167,93.000 24.268,93.000 24.609 C 93.000 24.754,92.779 25.125,92.508 25.433 C 92.238 25.741,91.966 26.276,91.904 26.621 C 91.843 26.967,91.657 27.400,91.493 27.583 C 91.328 27.767,91.046 28.306,90.866 28.782 C 90.686 29.258,90.380 29.849,90.186 30.096 C 89.992 30.343,89.833 30.651,89.833 30.781 C 89.833 31.039,89.357 32.033,89.170 32.167 C 89.105 32.212,88.914 32.618,88.744 33.068 C 88.574 33.517,88.275 34.080,88.079 34.318 C 87.883 34.555,87.627 35.101,87.510 35.531 C 87.392 35.961,87.199 36.349,87.081 36.395 C 86.963 36.440,86.703 36.913,86.504 37.447 C 86.304 37.980,86.033 38.537,85.900 38.684 C 85.767 38.831,85.523 39.336,85.358 39.806 C 85.192 40.276,84.944 40.793,84.805 40.955 C 84.667 41.117,84.384 41.678,84.177 42.202 C 83.969 42.725,83.695 43.240,83.568 43.346 C 83.440 43.452,83.258 43.827,83.163 44.179 C 83.069 44.530,82.814 45.029,82.598 45.286 C 82.381 45.543,82.128 46.032,82.034 46.372 C 81.940 46.712,81.710 47.205,81.523 47.467 C 81.337 47.729,81.024 48.350,80.829 48.847 C 80.633 49.344,80.383 49.862,80.272 50.000 C 78.869 51.739,79.440 52.168,83.147 52.161 C 86.187 52.156,86.236 52.141,86.706 51.125 C 86.865 50.781,87.059 50.500,87.139 50.500 C 87.218 50.500,87.409 50.108,87.564 49.630 C 87.718 49.151,87.982 48.607,88.150 48.421 C 88.318 48.235,88.590 47.722,88.755 47.280 C 88.919 46.839,89.259 46.258,89.510 45.989 L 89.967 45.500 98.658 45.500 L 107.349 45.500 107.781 45.958 C 108.019 46.210,108.396 46.829,108.621 47.333 C 108.845 47.837,109.126 48.362,109.243 48.500 C 109.361 48.637,109.552 49.050,109.666 49.417 C 109.781 49.783,110.053 50.322,110.271 50.614 C 110.488 50.906,110.667 51.258,110.667 51.396 C 110.667 52.029,111.295 52.167,114.162 52.163 C 117.969 52.158,118.256 51.912,116.902 49.810 C 116.589 49.325,116.333 48.805,116.333 48.654 C 116.333 48.503,116.157 48.120,115.942 47.803 C 115.726 47.485,115.417 46.876,115.253 46.449 C 115.090 46.021,114.858 45.590,114.737 45.490 C 114.617 45.390,114.390 44.920,114.234 44.446 C 114.077 43.971,113.781 43.358,113.576 43.083 C 113.371 42.808,113.152 42.343,113.090 42.050 C 113.028 41.757,112.759 41.243,112.493 40.908 C 112.226 40.573,111.962 40.050,111.905 39.747 C 111.848 39.444,111.656 39.040,111.479 38.849 C 111.302 38.659,110.998 38.090,110.805 37.585 C 110.612 37.080,110.393 36.667,110.319 36.667 C 110.245 36.667,110.021 36.218,109.821 35.669 C 109.621 35.121,109.359 34.590,109.238 34.490 C 109.117 34.390,108.890 33.920,108.734 33.446 C 108.577 32.971,108.282 32.358,108.078 32.083 C 107.875 31.808,107.614 31.283,107.500 30.917 C 107.386 30.550,107.157 30.100,106.993 29.917 C 106.828 29.733,106.546 29.193,106.365 28.715 C 106.185 28.237,105.918 27.728,105.773 27.582 C 105.628 27.437,105.432 27.031,105.337 26.681 C 105.243 26.330,105.020 25.859,104.843 25.633 C 104.665 25.407,104.369 24.827,104.186 24.343 C 104.002 23.859,103.744 23.340,103.614 23.190 C 103.483 23.040,103.251 22.532,103.098 22.061 C 102.945 21.591,102.672 21.073,102.492 20.910 C 102.312 20.747,102.083 20.309,101.983 19.936 C 101.883 19.564,101.622 19.047,101.405 18.789 C 101.187 18.530,100.932 18.031,100.837 17.681 C 100.743 17.330,100.529 16.865,100.363 16.647 C 100.197 16.429,99.965 15.987,99.847 15.667 C 99.404 14.459,99.323 14.367,98.642 14.302 C 98.111 14.252,97.945 14.310,97.745 14.614 M35.083 15.182 C 34.625 15.356,34.130 15.499,33.984 15.499 C 33.838 15.500,33.407 15.869,33.027 16.321 C 30.681 19.103,32.138 24.863,35.434 25.836 C 36.966 26.289,39.085 25.023,40.009 23.104 C 40.190 22.726,40.488 22.155,40.670 21.836 C 40.939 21.363,41.000 20.944,41.000 19.573 L 41.000 17.892 40.235 16.904 C 39.349 15.761,39.361 15.770,37.797 15.238 C 36.407 14.765,36.192 14.760,35.083 15.182 M144.167 19.651 C 144.487 19.753,145.237 19.916,145.833 20.012 C 146.429 20.108,147.066 20.320,147.250 20.484 C 147.433 20.648,147.899 20.905,148.284 21.054 C 148.669 21.203,149.194 21.510,149.451 21.737 C 149.707 21.965,150.292 22.465,150.750 22.849 C 151.208 23.234,151.710 23.738,151.864 23.970 C 152.018 24.201,152.263 24.457,152.407 24.538 C 152.552 24.619,152.772 24.925,152.897 25.218 C 153.022 25.510,153.285 25.931,153.481 26.152 C 153.676 26.374,153.941 26.906,154.068 27.335 C 154.196 27.763,154.474 28.445,154.686 28.849 C 155.305 30.024,155.279 35.030,154.648 36.250 C 154.411 36.708,154.167 37.340,154.107 37.653 C 154.047 37.966,153.825 38.453,153.614 38.736 C 153.404 39.019,153.036 39.587,152.797 40.000 C 152.557 40.412,152.205 40.860,152.014 40.995 C 151.823 41.130,151.667 41.336,151.667 41.453 C 151.667 41.571,151.598 41.667,151.514 41.667 C 151.430 41.667,151.149 41.896,150.889 42.176 C 150.329 42.780,148.431 44.077,147.739 44.330 C 147.470 44.429,146.875 44.711,146.417 44.959 L 145.583 45.408 140.695 45.413 C 136.047 45.416,135.796 45.401,135.570 45.093 C 135.371 44.820,135.333 42.857,135.333 32.589 C 135.333 19.143,135.277 19.849,136.382 19.507 C 137.083 19.291,143.404 19.408,144.167 19.651 M237.667 19.702 C 238.079 19.846,238.617 20.009,238.862 20.065 C 239.584 20.229,241.508 22.265,242.145 23.538 C 242.841 24.929,242.886 27.563,242.229 28.452 C 242.040 28.708,241.760 29.159,241.606 29.455 C 240.962 30.701,239.370 31.872,237.689 32.338 C 236.022 32.800,223.709 32.781,223.244 32.316 C 222.913 31.984,222.865 20.281,223.193 19.885 C 223.587 19.411,224.544 19.348,230.667 19.393 C 235.831 19.432,237.047 19.485,237.667 19.702 M186.525 29.213 C 186.860 29.783,187.189 30.437,187.257 30.664 C 187.325 30.892,187.555 31.342,187.767 31.664 C 187.980 31.987,188.266 32.568,188.402 32.957 C 188.539 33.346,188.804 33.828,188.992 34.030 C 189.180 34.231,189.333 34.518,189.333 34.666 C 189.333 34.815,189.596 35.372,189.917 35.905 C 190.237 36.438,190.500 36.958,190.501 37.062 C 190.501 37.165,190.643 37.483,190.817 37.768 C 191.560 38.986,190.894 39.167,185.667 39.167 C 181.103 39.167,180.771 39.122,180.310 38.447 C 180.199 38.283,180.881 36.598,181.233 36.167 C 181.346 36.029,181.579 35.579,181.751 35.167 C 181.924 34.754,182.202 34.215,182.369 33.969 C 182.537 33.723,182.775 33.234,182.899 32.882 C 183.023 32.531,183.322 31.953,183.562 31.598 C 183.803 31.244,184.000 30.832,184.000 30.683 C 184.000 30.534,184.262 30.022,184.583 29.546 C 184.904 29.070,185.167 28.617,185.167 28.540 C 185.167 27.692,185.824 28.017,186.525 29.213 M99.302 28.546 C 99.399 28.663,99.604 29.129,99.758 29.581 C 99.912 30.034,100.217 30.639,100.435 30.926 C 100.654 31.213,100.833 31.575,100.833 31.730 C 100.833 31.994,101.276 32.815,101.518 33.000 C 101.578 33.046,101.752 33.451,101.904 33.900 C 102.056 34.349,102.322 34.916,102.495 35.160 C 102.668 35.403,102.943 35.936,103.105 36.343 C 103.267 36.750,103.497 37.183,103.617 37.305 C 105.106 38.815,104.098 39.163,98.229 39.165 C 93.221 39.167,92.623 38.975,93.474 37.636 C 93.867 37.019,94.204 36.351,94.530 35.542 C 94.650 35.244,94.798 35.000,94.859 35.000 C 94.921 35.000,95.169 34.480,95.412 33.846 C 95.655 33.211,95.954 32.607,96.077 32.505 C 96.200 32.403,96.351 32.116,96.413 31.868 C 96.475 31.620,96.745 31.085,97.013 30.680 C 97.281 30.274,97.500 29.846,97.500 29.727 C 97.500 28.697,98.749 27.879,99.302 28.546 M18.506 40.238 C 19.557 40.368,20.624 40.554,20.878 40.651 C 21.132 40.748,22.220 40.911,23.295 41.012 C 26.227 41.288,27.057 42.075,27.676 45.167 C 27.795 45.762,28.066 46.625,28.278 47.083 C 28.768 48.143,28.764 48.863,28.255 51.289 C 28.029 52.368,27.758 53.809,27.654 54.493 C 27.549 55.176,27.324 55.995,27.154 56.313 C 26.984 56.630,26.764 57.280,26.665 57.757 C 26.566 58.235,26.274 58.958,26.015 59.365 C 25.757 59.773,25.455 60.381,25.344 60.718 C 25.109 61.429,24.043 62.391,23.668 62.231 C 23.530 62.172,23.229 62.084,23.000 62.035 C 22.771 61.986,22.219 61.696,21.773 61.390 C 21.327 61.084,20.886 60.833,20.793 60.833 C 20.700 60.833,20.344 60.590,20.001 60.292 C 19.659 59.994,18.937 59.436,18.398 59.052 C 16.978 58.042,13.784 54.811,13.265 53.861 C 13.182 53.708,12.938 53.404,12.723 53.186 C 12.509 52.967,12.333 52.699,12.333 52.590 C 12.333 52.481,12.152 52.221,11.930 52.013 C 11.708 51.804,11.363 51.247,11.162 50.775 C 10.962 50.303,10.669 49.767,10.511 49.583 C 10.353 49.400,10.132 48.929,10.020 48.537 C 9.909 48.145,9.633 47.554,9.409 47.222 C 9.184 46.891,9.000 46.457,9.000 46.258 C 9.000 46.059,8.813 45.418,8.583 44.833 C 8.060 43.499,8.057 42.842,8.571 42.085 C 8.794 41.757,9.000 41.435,9.030 41.370 C 9.116 41.177,10.284 40.342,10.700 40.175 C 11.301 39.934,16.394 39.975,18.506 40.238 M62.171 40.788 C 63.209 41.581,63.625 42.515,63.439 43.633 C 63.124 45.528,62.987 46.066,62.697 46.549 C 62.521 46.843,62.241 47.458,62.075 47.917 C 61.909 48.375,61.646 48.938,61.489 49.167 C 61.333 49.396,61.085 49.871,60.938 50.223 C 60.791 50.575,60.483 51.087,60.252 51.361 C 60.022 51.635,59.833 51.965,59.833 52.096 C 59.833 52.226,59.571 52.611,59.250 52.951 C 58.929 53.291,58.667 53.636,58.667 53.716 C 58.667 53.996,54.212 58.654,53.937 58.662 C 53.856 58.665,53.507 58.910,53.162 59.208 C 52.102 60.121,51.077 60.824,50.526 61.016 C 50.237 61.117,50.000 61.271,50.000 61.359 C 50.000 62.269,47.095 62.466,46.691 61.583 C 46.566 61.308,46.288 60.821,46.075 60.500 C 45.862 60.179,45.637 59.692,45.574 59.417 C 45.512 59.142,45.283 58.604,45.065 58.223 C 44.847 57.841,44.590 57.128,44.493 56.639 C 44.396 56.150,44.135 55.150,43.914 54.417 C 42.870 50.952,42.899 46.710,43.984 44.333 C 44.172 43.921,44.328 43.416,44.330 43.212 C 44.345 41.635,44.923 41.278,47.914 40.993 C 49.012 40.889,50.049 40.729,50.219 40.639 C 51.088 40.173,52.841 40.022,57.000 40.052 L 61.250 40.083 62.171 40.788 M150.750 60.250 C 150.200 60.369,149.262 60.554,148.667 60.661 C 147.196 60.924,145.833 61.321,145.833 61.486 C 145.833 61.560,145.425 61.749,144.927 61.906 C 144.428 62.063,143.922 62.310,143.802 62.455 C 143.682 62.601,143.318 62.839,142.993 62.985 C 141.895 63.478,137.333 67.720,137.333 68.248 C 137.333 68.364,137.215 68.558,137.070 68.678 C 136.925 68.798,136.589 69.327,136.323 69.853 C 136.058 70.379,135.765 70.856,135.673 70.913 C 135.580 70.970,135.382 71.444,135.233 71.967 C 135.083 72.489,134.775 73.313,134.549 73.797 C 133.751 75.503,133.628 82.604,134.360 84.667 C 134.539 85.171,134.829 86.014,135.004 86.540 C 135.363 87.616,136.551 89.864,136.927 90.175 C 137.062 90.287,137.290 90.625,137.432 90.926 C 137.673 91.434,139.880 93.762,140.947 94.633 C 141.469 95.059,142.782 96.024,143.067 96.191 C 144.744 97.172,145.339 97.470,145.794 97.556 C 146.094 97.613,146.751 97.855,147.255 98.093 C 149.112 98.971,157.675 99.049,158.826 98.199 C 159.101 97.995,159.797 97.709,160.372 97.564 C 160.946 97.419,161.568 97.161,161.752 96.991 C 161.937 96.822,162.369 96.565,162.713 96.421 C 163.667 96.023,165.200 94.787,166.976 92.985 C 169.083 90.848,169.304 90.586,169.684 89.771 C 169.861 89.393,170.192 88.828,170.419 88.517 C 170.647 88.206,170.833 87.806,170.833 87.630 C 170.833 87.454,171.011 86.996,171.228 86.613 C 172.787 83.863,172.813 74.779,171.269 72.423 C 171.121 72.196,170.844 71.596,170.654 71.089 C 170.465 70.582,170.253 70.167,170.184 70.167 C 170.116 70.167,169.890 69.792,169.683 69.333 C 169.476 68.875,169.238 68.500,169.155 68.500 C 169.072 68.500,168.825 68.219,168.606 67.875 C 167.517 66.167,162.491 62.000,161.519 62.000 C 161.386 62.000,160.862 61.766,160.355 61.480 C 159.793 61.162,159.040 60.906,158.425 60.822 C 157.870 60.746,156.704 60.531,155.833 60.344 C 154.052 59.962,152.233 59.928,150.750 60.250 M187.389 60.197 C 186.827 60.469,186.838 60.072,186.836 79.672 L 186.833 98.261 187.317 98.547 C 187.761 98.809,188.657 98.833,198.026 98.825 C 209.848 98.816,211.199 98.749,212.117 98.128 C 212.465 97.893,212.937 97.644,213.165 97.576 C 213.965 97.337,217.167 94.375,217.167 93.874 C 217.167 93.800,217.429 93.332,217.749 92.835 C 218.069 92.338,218.374 91.666,218.427 91.341 C 218.480 91.016,218.630 90.248,218.761 89.634 C 219.035 88.355,219.057 87.081,218.824 86.000 C 218.735 85.587,218.595 84.826,218.513 84.307 C 218.413 83.677,218.165 83.070,217.765 82.476 C 217.436 81.987,217.167 81.506,217.167 81.406 C 217.167 81.306,216.978 81.048,216.748 80.832 C 215.964 80.095,215.890 78.333,216.642 78.333 C 216.716 78.333,216.883 78.127,217.012 77.875 C 217.142 77.623,217.487 77.011,217.780 76.515 C 218.073 76.019,218.363 75.307,218.424 74.932 C 218.485 74.557,218.639 73.840,218.767 73.340 C 219.070 72.157,219.063 70.645,218.750 69.444 C 218.612 68.916,218.500 68.308,218.500 68.092 C 218.500 67.752,218.270 67.252,217.243 65.359 C 216.642 64.250,214.892 62.455,213.939 61.969 C 213.565 61.778,213.070 61.483,212.838 61.313 C 212.606 61.142,212.079 60.932,211.667 60.844 C 211.254 60.757,210.393 60.532,209.754 60.343 C 208.420 59.950,188.174 59.817,187.389 60.197 M232.979 60.276 C 232.603 60.728,232.552 97.884,232.927 98.455 C 233.237 98.929,237.819 98.993,238.625 98.535 L 239.000 98.322 239.000 79.415 L 239.000 60.509 238.508 60.254 C 237.764 59.869,233.302 59.886,232.979 60.276 M252.988 60.265 C 252.594 60.739,252.548 98.093,252.940 98.526 C 253.336 98.963,277.342 99.009,277.963 98.574 C 278.485 98.209,278.540 93.572,278.029 93.109 C 277.753 92.860,276.869 92.833,268.820 92.831 C 263.923 92.829,259.826 92.770,259.715 92.700 C 259.005 92.249,259.000 92.142,259.000 75.942 C 259.000 61.832,258.977 60.522,258.725 60.312 C 258.264 59.929,253.301 59.888,252.988 60.265 M292.869 60.338 C 292.565 60.824,292.563 98.257,292.867 98.624 C 293.216 99.045,298.571 98.858,298.907 98.413 C 299.213 98.009,299.298 61.897,298.996 60.810 C 298.781 60.034,298.658 60.005,295.582 60.002 C 293.249 60.000,293.066 60.023,292.869 60.338 M312.951 60.208 C 312.634 60.445,312.414 65.648,312.698 66.208 C 312.834 66.478,313.308 66.500,319.056 66.500 C 323.664 66.500,325.318 66.552,325.467 66.700 C 325.619 66.853,325.667 70.558,325.667 82.359 C 325.667 98.709,325.660 98.575,326.438 98.770 C 327.135 98.945,331.396 98.757,331.792 98.533 L 332.167 98.322 332.167 82.638 C 332.167 67.896,332.184 66.940,332.458 66.732 C 332.687 66.558,333.986 66.509,338.516 66.505 C 345.712 66.499,345.053 66.818,344.974 63.376 C 344.927 61.354,344.863 60.819,344.621 60.451 L 344.326 60.000 328.778 60.000 C 316.600 60.000,313.170 60.045,312.951 60.208 M360.153 60.193 C 359.673 60.533,360.138 61.410,361.720 63.150 C 361.920 63.369,362.196 63.717,362.333 63.922 C 362.471 64.127,362.921 64.725,363.333 65.252 C 363.746 65.778,364.251 66.443,364.455 66.729 C 364.836 67.263,364.995 67.463,366.212 68.936 C 367.554 70.561,367.917 71.028,368.000 71.234 C 368.121 71.536,368.833 72.446,369.458 73.097 C 369.756 73.407,370.000 73.701,370.000 73.750 C 370.000 73.841,371.909 76.280,372.821 77.354 C 373.103 77.686,373.333 78.036,373.333 78.133 C 373.333 78.230,373.508 78.447,373.721 78.614 C 373.935 78.782,374.404 79.329,374.763 79.829 L 375.417 80.739 375.505 89.494 C 375.554 94.310,375.610 98.263,375.630 98.280 C 375.650 98.296,375.785 98.427,375.929 98.571 C 376.328 98.971,380.352 98.948,381.167 98.541 L 381.750 98.250 381.833 89.333 C 381.925 79.568,381.849 80.261,382.976 78.917 C 383.283 78.550,383.754 77.987,384.021 77.667 C 384.289 77.346,384.769 76.774,385.087 76.396 C 385.406 76.019,385.667 75.654,385.667 75.585 C 385.667 75.517,385.873 75.216,386.125 74.917 C 386.377 74.617,386.921 73.943,387.333 73.417 C 387.746 72.892,388.290 72.270,388.542 72.037 C 388.794 71.803,389.000 71.529,389.000 71.428 C 389.000 71.328,389.191 71.021,389.424 70.748 C 389.657 70.474,390.220 69.734,390.674 69.103 C 391.128 68.472,391.668 67.783,391.874 67.572 C 392.081 67.361,392.512 66.844,392.833 66.423 C 393.154 66.002,393.612 65.416,393.851 65.121 C 394.089 64.825,394.379 64.403,394.495 64.183 C 394.701 63.792,395.066 63.360,396.082 62.307 C 396.357 62.023,396.707 61.458,396.861 61.053 L 397.141 60.315 396.726 60.158 C 396.498 60.071,395.002 60.000,393.400 60.000 C 390.027 60.000,389.581 60.115,388.925 61.154 C 388.689 61.528,388.436 61.833,388.363 61.833 C 388.290 61.833,387.999 62.152,387.715 62.542 C 387.087 63.403,384.892 66.283,384.597 66.632 C 384.480 66.771,384.183 67.116,383.937 67.400 C 383.691 67.684,383.137 68.401,382.705 68.994 C 382.272 69.586,381.750 70.253,381.543 70.476 C 381.336 70.699,381.167 70.944,381.167 71.019 C 381.167 71.162,380.610 71.821,379.295 73.232 L 378.507 74.078 377.712 73.218 C 376.786 72.217,375.984 71.203,375.167 69.996 C 374.846 69.523,374.358 68.890,374.083 68.590 C 373.808 68.290,373.283 67.651,372.917 67.169 C 372.550 66.688,372.025 66.011,371.750 65.665 C 371.475 65.319,370.988 64.682,370.667 64.250 C 370.346 63.818,369.933 63.299,369.750 63.097 C 369.567 62.895,369.196 62.435,368.926 62.073 C 368.656 61.712,368.300 61.267,368.134 61.083 C 367.968 60.900,367.726 60.600,367.597 60.417 C 367.316 60.020,360.679 59.820,360.153 60.193 M81.123 61.075 C 80.851 61.274,80.833 62.419,80.833 79.806 L 80.833 98.326 81.240 98.592 C 81.880 99.011,86.155 98.881,86.655 98.428 L 87.011 98.105 86.994 87.453 C 86.984 81.595,87.001 76.778,87.030 76.750 C 87.616 76.186,87.970 76.473,93.697 82.172 C 96.780 85.240,99.404 87.825,99.528 87.917 C 99.653 88.008,99.876 88.179,100.024 88.296 C 100.259 88.481,100.907 87.890,105.022 83.737 C 110.673 78.034,110.370 78.333,110.503 78.333 C 110.562 78.333,110.711 78.146,110.833 77.917 C 110.956 77.688,111.124 77.500,111.207 77.500 C 111.396 77.500,111.833 77.071,111.833 76.885 C 111.833 76.809,111.989 76.650,112.180 76.531 C 113.010 76.012,113.000 75.882,113.002 87.312 C 113.004 95.545,113.052 98.010,113.216 98.333 L 113.428 98.750 116.272 98.750 C 118.442 98.750,119.182 98.696,119.392 98.521 C 119.815 98.169,119.733 61.214,119.309 60.947 C 119.082 60.803,117.928 61.879,112.447 67.345 C 108.824 70.960,105.722 74.041,105.554 74.193 C 105.311 74.413,103.888 75.836,102.122 77.624 C 102.009 77.738,101.741 78.001,101.527 78.208 C 101.312 78.414,100.945 78.787,100.712 79.037 L 100.287 79.490 99.768 79.085 C 99.250 78.679,99.168 78.601,98.267 77.667 C 98.001 77.392,97.720 77.167,97.642 77.167 C 97.564 77.167,97.500 77.054,97.500 76.917 C 97.500 76.779,97.433 76.667,97.352 76.667 C 97.225 76.667,93.763 73.277,92.982 72.388 C 92.835 72.220,92.572 71.963,92.399 71.815 C 92.225 71.668,91.958 71.406,91.804 71.232 C 91.650 71.059,90.844 70.251,90.012 69.437 C 89.181 68.623,88.500 67.905,88.500 67.840 C 88.500 67.776,88.321 67.627,88.102 67.510 C 87.883 67.393,87.607 67.117,87.490 66.898 C 87.373 66.679,87.213 66.500,87.134 66.500 C 86.998 66.500,83.167 62.678,83.167 62.542 C 83.167 62.414,82.688 62.000,82.540 62.000 C 82.457 62.000,82.286 61.807,82.160 61.570 C 81.849 60.990,81.480 60.814,81.123 61.075 M156.164 66.680 C 156.575 66.775,157.025 66.952,157.164 67.072 C 157.303 67.193,157.717 67.386,158.083 67.501 C 159.213 67.854,159.459 67.996,161.058 69.214 C 162.088 69.998,164.000 72.122,164.000 72.482 C 164.000 72.577,164.225 72.911,164.500 73.225 C 164.775 73.538,165.049 74.047,165.109 74.356 C 165.168 74.664,165.412 75.292,165.650 75.750 C 166.199 76.807,166.324 82.230,165.816 83.007 C 165.670 83.232,165.377 83.904,165.167 84.500 C 164.956 85.096,164.608 85.815,164.392 86.099 C 164.176 86.383,164.000 86.703,164.000 86.810 C 164.000 87.153,160.731 90.294,159.977 90.675 C 159.577 90.878,159.041 91.191,158.785 91.371 C 158.529 91.551,157.817 91.804,157.202 91.932 C 156.587 92.060,155.801 92.278,155.455 92.416 C 154.402 92.836,151.774 92.753,150.234 92.250 C 149.532 92.021,148.798 91.833,148.604 91.833 C 148.409 91.832,147.987 91.667,147.667 91.466 C 147.346 91.265,146.734 90.935,146.307 90.732 C 145.248 90.229,142.399 87.360,141.958 86.352 C 141.773 85.929,141.483 85.387,141.314 85.146 C 140.897 84.551,140.000 80.764,140.000 79.596 C 140.000 78.003,140.830 74.530,141.398 73.750 C 141.598 73.475,141.856 73.033,141.971 72.768 C 142.086 72.504,142.365 72.142,142.590 71.965 C 142.816 71.787,143.000 71.545,143.000 71.425 C 143.000 71.207,145.443 68.833,145.668 68.833 C 145.733 68.833,146.116 68.572,146.518 68.252 C 146.921 67.932,147.400 67.668,147.583 67.665 C 147.767 67.662,148.254 67.496,148.667 67.296 C 149.079 67.096,149.717 66.843,150.083 66.733 C 150.913 66.484,155.152 66.447,156.164 66.680 M209.563 66.752 C 209.895 66.891,210.167 67.070,210.167 67.150 C 210.167 67.230,210.434 67.422,210.760 67.577 C 211.086 67.732,211.398 67.984,211.451 68.138 C 211.505 68.291,211.709 68.642,211.905 68.917 C 212.734 70.081,212.958 72.193,212.367 73.264 C 212.211 73.546,211.947 74.035,211.780 74.349 C 211.613 74.663,211.238 75.088,210.946 75.292 C 210.655 75.496,210.205 75.832,209.946 76.040 L 209.476 76.417 201.685 76.466 C 196.668 76.498,193.736 76.455,193.447 76.345 L 193.000 76.175 193.000 71.537 C 193.000 68.153,193.054 66.846,193.200 66.700 C 193.530 66.370,208.764 66.418,209.563 66.752 M209.765 83.377 C 210.488 83.804,211.488 84.589,211.494 84.734 C 211.497 84.817,211.671 85.117,211.881 85.401 C 212.923 86.814,212.991 88.551,212.059 89.983 C 211.382 91.022,210.681 91.833,210.458 91.833 C 210.378 91.833,209.886 92.040,209.365 92.292 L 208.417 92.750 200.945 92.750 C 193.741 92.750,193.465 92.738,193.237 92.426 C 192.987 92.085,192.869 83.520,193.111 83.278 C 193.330 83.059,209.388 83.155,209.765 83.377 M89.667 111.116 C 87.766 111.453,85.715 112.084,85.122 112.513 C 84.752 112.781,84.367 113.002,84.267 113.004 C 83.788 113.013,81.313 115.707,80.828 116.747 C 80.688 117.048,80.483 117.403,80.372 117.537 C 79.120 119.045,79.095 125.613,80.334 127.500 C 80.484 127.729,80.738 128.199,80.897 128.545 C 81.556 129.980,85.005 132.995,85.992 133.002 C 86.134 133.003,86.662 133.207,87.167 133.456 L 88.083 133.909 94.917 133.996 C 101.980 134.086,102.833 134.180,102.833 134.869 C 102.833 134.941,102.932 135.000,103.052 135.000 C 103.846 135.000,105.073 137.167,105.142 138.689 C 105.211 140.200,103.832 142.833,102.972 142.833 C 102.901 142.833,102.410 143.039,101.880 143.291 L 100.917 143.749 90.381 143.833 C 80.584 143.911,79.824 143.937,79.550 144.212 C 79.034 144.728,79.101 148.881,79.633 149.380 L 80.027 149.750 91.222 149.750 C 103.199 149.750,103.754 149.717,104.918 148.926 C 105.264 148.692,105.654 148.500,105.785 148.500 C 106.364 148.500,109.300 145.675,109.770 144.667 C 109.919 144.346,110.171 143.933,110.329 143.750 C 110.487 143.567,110.697 143.079,110.795 142.667 C 110.894 142.254,111.099 141.417,111.251 140.807 C 111.638 139.262,111.536 137.885,110.810 134.818 C 110.732 134.489,110.514 134.042,110.327 133.826 C 110.139 133.610,109.850 133.129,109.685 132.758 C 109.303 131.903,107.338 129.894,106.525 129.528 C 106.185 129.375,105.731 129.086,105.517 128.886 C 105.303 128.686,104.836 128.473,104.479 128.413 C 104.122 128.353,103.437 128.148,102.957 127.958 C 102.142 127.636,101.638 127.606,95.417 127.515 C 91.456 127.456,88.637 127.349,88.471 127.250 C 87.981 126.958,86.500 125.611,86.500 125.458 C 86.500 125.377,86.299 125.047,86.053 124.725 C 85.336 123.786,85.277 121.654,85.937 120.550 C 86.199 120.110,86.520 119.540,86.649 119.283 C 86.778 119.026,87.095 118.707,87.354 118.573 C 87.612 118.439,88.099 118.143,88.435 117.915 L 89.047 117.500 99.732 117.500 C 109.578 117.500,110.461 117.477,110.981 117.208 L 111.545 116.917 111.516 114.417 C 111.488 111.996,111.474 111.903,111.073 111.500 L 110.659 111.083 100.371 111.063 C 94.713 111.051,89.896 111.075,89.667 111.116 M125.567 111.351 C 125.053 111.919,124.985 148.985,125.497 149.497 C 125.960 149.960,149.807 150.033,150.463 149.574 C 151.029 149.177,151.040 144.289,150.475 143.987 C 150.217 143.848,147.664 143.803,141.266 143.823 C 130.228 143.858,131.455 144.560,131.535 138.255 L 131.583 134.426 132.000 134.216 C 132.320 134.054,134.476 134.004,141.303 134.002 C 147.105 134.001,150.300 133.940,150.511 133.827 C 150.811 133.667,150.833 133.451,150.833 130.750 C 150.833 128.049,150.811 127.833,150.511 127.673 C 150.300 127.560,147.094 127.500,141.255 127.500 C 133.312 127.500,132.276 127.470,131.911 127.231 L 131.500 126.962 131.500 122.458 C 131.500 118.363,131.527 117.933,131.792 117.732 C 132.026 117.554,133.880 117.510,141.183 117.505 C 149.917 117.500,150.293 117.487,150.569 117.182 C 150.946 116.766,150.905 111.736,150.521 111.275 C 150.116 110.788,126.011 110.861,125.567 111.351 M165.165 111.542 C 164.841 112.073,164.835 112.435,164.834 130.613 L 164.833 149.142 165.272 149.488 C 165.854 149.945,169.838 150.011,170.463 149.574 L 170.833 149.314 170.833 143.516 C 170.833 136.224,170.073 137.097,176.476 137.038 C 182.217 136.986,182.309 137.005,182.956 138.375 C 183.162 138.810,183.394 139.167,183.472 139.167 C 183.550 139.167,183.710 139.459,183.828 139.816 C 183.945 140.173,184.205 140.642,184.404 140.858 C 184.603 141.073,184.899 141.583,185.061 141.990 C 185.223 142.398,185.482 142.848,185.636 142.990 C 185.791 143.133,186.088 143.587,186.298 144.000 C 187.090 145.558,187.600 146.469,187.838 146.752 C 187.973 146.914,188.199 147.337,188.341 147.694 C 188.482 148.051,188.923 148.679,189.320 149.088 L 190.042 149.833 192.817 149.833 C 196.329 149.833,196.751 149.632,196.060 148.283 C 195.910 147.990,195.730 147.712,195.661 147.667 C 195.591 147.621,195.330 147.152,195.081 146.625 C 194.832 146.098,194.568 145.667,194.494 145.667 C 194.421 145.667,194.228 145.310,194.065 144.875 C 193.902 144.440,193.612 143.933,193.421 143.750 C 193.230 143.567,192.968 143.154,192.839 142.833 C 192.710 142.512,192.430 142.018,192.219 141.734 C 192.007 141.451,191.833 141.129,191.833 141.020 C 191.833 140.815,191.348 139.983,191.139 139.830 C 191.074 139.782,190.865 139.407,190.675 138.997 C 190.484 138.586,190.135 137.987,189.900 137.667 C 189.140 136.632,189.586 135.356,190.813 135.055 C 191.053 134.996,191.415 134.772,191.617 134.557 C 191.819 134.343,192.048 134.167,192.126 134.167 C 192.329 134.167,193.711 132.795,194.079 132.229 C 194.250 131.966,194.527 131.652,194.695 131.532 C 194.863 131.412,195.000 131.186,195.000 131.030 C 195.000 130.874,195.257 130.364,195.571 129.897 C 195.885 129.431,196.191 128.757,196.252 128.400 C 196.312 128.042,196.520 127.263,196.714 126.667 C 197.205 125.164,197.204 122.830,196.712 121.333 C 196.516 120.737,196.309 119.943,196.251 119.569 C 196.194 119.194,195.889 118.524,195.573 118.081 C 195.258 117.637,195.000 117.175,195.000 117.053 C 195.000 116.522,191.404 113.000,190.863 113.000 C 190.767 113.000,190.320 112.771,189.869 112.491 C 189.419 112.210,188.532 111.869,187.900 111.733 C 184.456 110.988,184.670 111.000,174.900 111.000 L 165.495 111.000 165.165 111.542 M207.204 111.167 C 206.899 111.295,206.844 111.415,206.921 111.788 C 207.144 112.865,207.411 113.605,207.690 113.921 C 207.854 114.107,208.107 114.595,208.251 115.005 C 208.395 115.415,208.692 116.021,208.911 116.353 C 209.129 116.684,209.390 117.257,209.489 117.625 C 209.588 117.993,209.778 118.385,209.912 118.496 C 210.045 118.606,210.312 119.121,210.506 119.640 C 210.699 120.159,210.993 120.733,211.159 120.917 C 211.325 121.100,211.559 121.550,211.681 121.917 C 211.802 122.283,212.030 122.733,212.187 122.917 C 212.345 123.100,212.603 123.587,212.763 124.000 C 212.922 124.412,213.157 124.873,213.285 125.023 C 213.413 125.173,213.670 125.698,213.855 126.190 C 214.041 126.681,214.326 127.233,214.488 127.417 C 214.651 127.600,214.878 128.102,214.994 128.533 C 215.110 128.964,215.344 129.442,215.513 129.596 C 215.683 129.749,215.935 130.264,216.074 130.741 C 216.212 131.218,216.480 131.747,216.668 131.918 C 216.856 132.088,217.091 132.545,217.188 132.933 C 217.286 133.321,217.493 133.776,217.648 133.944 C 217.803 134.112,218.104 134.678,218.315 135.202 C 218.527 135.725,218.800 136.236,218.921 136.337 C 219.043 136.438,219.269 136.925,219.425 137.420 C 219.580 137.914,219.850 138.447,220.023 138.604 C 220.196 138.761,220.384 139.176,220.440 139.526 C 220.496 139.877,220.726 140.347,220.951 140.572 C 221.176 140.798,221.468 141.338,221.599 141.774 C 221.730 142.210,221.975 142.720,222.143 142.908 C 222.312 143.096,222.576 143.576,222.730 143.975 C 222.884 144.374,223.196 144.972,223.422 145.305 C 223.648 145.638,223.833 146.033,223.833 146.182 C 223.833 146.331,224.017 146.724,224.242 147.056 C 224.467 147.387,224.742 147.979,224.853 148.371 C 225.174 149.506,226.167 149.816,226.167 148.780 C 226.167 148.688,226.383 148.268,226.648 147.848 C 226.912 147.427,227.223 146.788,227.338 146.426 C 227.453 146.065,227.688 145.618,227.860 145.433 C 228.032 145.249,228.246 144.832,228.337 144.507 C 228.427 144.182,228.726 143.587,229.000 143.183 C 229.275 142.780,229.500 142.322,229.500 142.165 C 229.500 142.008,229.678 141.617,229.896 141.296 C 230.114 140.975,230.388 140.421,230.505 140.064 C 230.622 139.708,230.888 139.192,231.096 138.917 C 231.304 138.642,231.524 138.216,231.585 137.971 C 231.646 137.727,231.952 137.129,232.265 136.644 C 232.577 136.158,232.833 135.640,232.833 135.493 C 232.833 135.345,233.053 134.892,233.320 134.487 C 233.588 134.082,233.863 133.525,233.930 133.250 C 233.998 132.975,234.219 132.525,234.423 132.250 C 234.627 131.975,234.894 131.450,235.018 131.083 C 235.142 130.717,235.403 130.192,235.599 129.917 C 235.796 129.642,236.001 129.229,236.056 129.000 C 236.110 128.771,236.420 128.173,236.744 127.672 C 237.068 127.171,237.333 126.622,237.333 126.453 C 237.333 126.283,237.512 125.906,237.729 125.614 C 237.947 125.322,238.219 124.783,238.333 124.417 C 238.448 124.050,238.679 123.598,238.848 123.412 C 239.017 123.226,239.273 122.738,239.418 122.329 C 239.562 121.919,239.864 121.304,240.090 120.962 C 240.315 120.620,240.500 120.242,240.500 120.121 C 240.500 120.000,240.761 119.492,241.079 118.992 C 241.398 118.492,241.705 117.844,241.762 117.553 C 241.820 117.261,242.006 116.896,242.176 116.741 C 242.347 116.587,242.611 116.076,242.764 115.605 C 242.917 115.135,243.177 114.600,243.342 114.417 C 243.615 114.113,243.873 113.520,244.369 112.056 C 244.717 111.026,244.647 110.999,241.547 111.006 C 238.211 111.012,237.684 111.220,237.117 112.756 C 236.949 113.211,236.638 113.771,236.426 114.000 C 236.214 114.229,235.990 114.702,235.928 115.051 C 235.866 115.400,235.671 115.829,235.496 116.004 C 235.320 116.180,235.052 116.705,234.899 117.172 C 234.746 117.640,234.511 118.132,234.375 118.267 C 234.240 118.403,233.982 118.904,233.801 119.382 C 233.620 119.859,233.372 120.362,233.249 120.500 C 233.126 120.638,232.864 121.181,232.667 121.708 C 232.470 122.235,232.256 122.667,232.191 122.667 C 231.998 122.667,231.500 123.607,231.500 123.971 C 231.500 124.156,231.305 124.540,231.066 124.823 C 230.828 125.107,230.527 125.688,230.399 126.116 C 230.270 126.543,230.040 127.030,229.887 127.199 C 229.735 127.368,229.473 127.893,229.306 128.367 C 229.140 128.841,228.925 129.277,228.830 129.336 C 228.734 129.394,228.502 129.849,228.314 130.346 C 228.126 130.843,227.862 131.373,227.727 131.523 C 227.592 131.673,227.350 132.143,227.189 132.568 C 227.028 132.992,226.731 133.544,226.528 133.794 C 226.326 134.045,226.020 134.435,225.849 134.661 C 225.460 135.175,225.156 134.978,224.834 134.002 C 224.713 133.634,224.556 133.333,224.485 133.333 C 224.415 133.333,224.196 132.902,223.999 132.375 C 223.802 131.848,223.542 131.304,223.421 131.167 C 223.300 131.029,222.977 130.421,222.704 129.814 C 222.431 129.208,222.130 128.663,222.034 128.604 C 221.938 128.545,221.807 128.253,221.745 127.956 C 221.682 127.660,221.459 127.189,221.250 126.911 C 221.042 126.632,220.747 126.041,220.596 125.596 C 220.445 125.152,220.179 124.606,220.004 124.384 C 219.829 124.161,219.595 123.703,219.484 123.365 C 219.373 123.027,219.107 122.518,218.891 122.234 C 218.676 121.951,218.500 121.622,218.500 121.505 C 218.500 121.387,218.200 120.748,217.833 120.083 C 217.467 119.419,217.167 118.779,217.167 118.662 C 217.167 118.544,216.991 118.216,216.775 117.932 C 216.560 117.649,216.286 117.117,216.167 116.750 C 216.047 116.383,215.783 115.858,215.579 115.583 C 215.375 115.308,215.114 114.783,214.999 114.417 C 214.884 114.050,214.706 113.648,214.603 113.523 C 214.501 113.399,214.229 112.911,214.000 112.440 C 213.399 111.204,213.081 111.091,210.083 111.046 C 208.708 111.026,207.413 111.080,207.204 111.167 M259.561 111.195 C 258.839 111.544,258.845 111.389,258.828 130.605 L 258.811 149.051 259.160 149.401 C 259.515 149.757,263.221 150.023,264.247 149.766 C 265.016 149.573,265.008 149.784,264.961 130.226 C 264.918 112.277,264.907 111.691,264.599 111.351 C 264.243 110.957,260.304 110.835,259.561 111.195 M296.917 111.102 C 296.642 111.142,295.892 111.284,295.250 111.417 C 294.608 111.549,293.604 111.733,293.019 111.824 C 292.434 111.914,291.609 112.169,291.186 112.390 C 290.763 112.610,290.177 112.843,289.884 112.907 C 289.590 112.970,289.074 113.243,288.736 113.511 C 288.398 113.780,288.027 114.000,287.913 114.000 C 287.457 114.000,282.500 118.585,282.500 119.007 C 282.500 119.070,282.282 119.371,282.016 119.675 C 281.750 119.980,281.438 120.515,281.323 120.865 C 281.208 121.214,281.052 121.500,280.978 121.500 C 280.779 121.500,280.394 122.325,280.268 123.025 C 280.207 123.359,280.021 123.809,279.853 124.025 C 278.613 125.620,278.600 134.909,279.835 137.063 C 279.999 137.349,280.255 138.015,280.404 138.542 C 280.554 139.069,280.753 139.500,280.847 139.500 C 280.942 139.500,281.172 139.847,281.360 140.271 C 281.923 141.543,284.936 145.157,285.441 145.164 C 285.545 145.165,285.673 145.276,285.724 145.410 C 285.775 145.543,286.138 145.855,286.530 146.102 C 286.922 146.350,287.341 146.651,287.462 146.772 C 287.583 146.893,287.960 147.120,288.299 147.277 C 288.639 147.434,289.089 147.693,289.299 147.852 C 289.509 148.012,290.184 148.304,290.799 148.502 C 291.414 148.700,292.033 148.966,292.175 149.093 C 293.189 150.002,304.167 149.929,304.167 149.014 C 304.167 148.944,304.485 148.795,304.875 148.684 C 306.404 148.245,309.408 146.514,310.616 145.375 C 310.932 145.077,311.260 144.833,311.345 144.833 C 312.034 144.833,311.310 143.794,309.225 141.792 L 307.534 140.168 306.885 140.459 C 306.528 140.619,306.014 140.924,305.743 141.137 C 304.895 141.802,303.034 142.833,302.682 142.833 C 302.497 142.833,301.912 143.002,301.381 143.208 C 299.974 143.756,296.401 143.755,294.880 143.207 C 294.310 143.001,293.680 142.833,293.479 142.833 C 293.279 142.833,292.883 142.662,292.599 142.453 C 292.315 142.243,291.896 141.991,291.667 141.892 C 290.937 141.576,288.171 139.191,288.168 138.876 C 288.167 138.763,288.010 138.575,287.819 138.460 C 287.628 138.344,287.282 137.875,287.050 137.417 C 286.818 136.958,286.524 136.464,286.395 136.318 C 286.267 136.171,286.050 135.609,285.913 135.068 C 285.776 134.526,285.533 133.785,285.373 133.421 C 284.970 132.499,284.958 128.333,285.357 127.583 C 285.503 127.308,285.721 126.671,285.841 126.167 C 285.962 125.662,286.223 125.025,286.422 124.750 C 286.621 124.475,286.909 124.008,287.061 123.712 C 287.569 122.725,290.226 120.001,291.072 119.600 C 291.363 119.462,291.733 119.203,291.895 119.024 C 292.056 118.846,292.465 118.648,292.803 118.586 C 293.140 118.523,293.679 118.334,294.000 118.166 C 295.077 117.601,295.705 117.500,298.131 117.500 C 300.493 117.500,301.657 117.674,302.169 118.102 C 302.308 118.218,302.795 118.408,303.252 118.523 C 303.709 118.638,304.271 118.888,304.500 119.080 C 307.084 121.242,307.343 121.235,309.597 118.942 C 311.976 116.523,312.017 117.001,309.213 114.482 C 308.917 114.217,308.572 114.000,308.446 114.000 C 308.320 114.000,307.906 113.775,307.526 113.500 C 307.147 113.225,306.736 113.000,306.613 113.000 C 306.490 113.000,306.021 112.808,305.570 112.573 C 304.098 111.806,298.557 110.864,296.917 111.102 M326.046 111.451 C 325.755 111.895,325.467 147.808,325.745 148.947 C 325.973 149.879,325.308 149.833,338.569 149.833 C 353.048 149.833,351.333 150.239,351.333 146.810 C 351.333 143.399,352.526 143.783,342.058 143.821 C 335.581 143.845,333.112 143.801,332.796 143.657 C 332.095 143.338,331.981 142.529,332.035 138.255 L 332.083 134.426 332.500 134.216 C 332.820 134.054,334.976 134.004,341.803 134.002 C 347.605 134.001,350.800 133.940,351.011 133.827 C 351.456 133.589,351.510 128.200,351.071 127.762 C 350.840 127.530,349.772 127.500,341.863 127.498 C 334.987 127.496,332.820 127.446,332.500 127.284 L 332.083 127.074 332.039 122.516 C 331.998 118.323,332.018 117.939,332.289 117.734 C 332.527 117.554,334.340 117.510,341.683 117.505 C 350.417 117.500,350.793 117.487,351.069 117.182 C 351.446 116.766,351.405 111.736,351.021 111.275 C 350.812 111.024,349.725 111.000,338.567 111.000 L 326.341 111.000 326.046 111.451 M375.000 111.242 C 372.167 111.905,371.645 112.064,371.298 112.371 C 371.088 112.557,370.714 112.796,370.466 112.903 C 369.963 113.119,368.372 114.607,367.546 115.633 C 364.623 119.264,364.561 125.266,367.405 129.311 C 368.462 130.815,371.050 132.847,372.176 133.059 C 372.495 133.118,373.055 133.336,373.420 133.542 C 374.071 133.910,374.213 133.918,381.000 134.000 C 384.862 134.047,388.024 134.152,388.160 134.240 C 390.989 136.059,391.930 138.925,390.456 141.231 C 389.941 142.038,389.200 142.833,388.965 142.833 C 388.898 142.833,388.410 143.040,387.880 143.292 L 386.917 143.750 376.400 143.833 C 367.824 143.901,365.833 143.959,365.609 144.145 C 365.376 144.339,365.333 144.745,365.333 146.758 L 365.333 149.142 365.789 149.501 L 366.244 149.859 377.581 149.788 C 389.636 149.712,389.786 149.702,390.997 148.889 C 391.316 148.675,391.642 148.500,391.721 148.500 C 392.595 148.500,396.667 144.078,396.667 143.129 C 396.667 143.012,396.853 142.317,397.081 141.583 C 397.608 139.885,397.655 137.672,397.192 136.318 C 397.022 135.822,396.829 135.126,396.763 134.771 C 396.358 132.586,392.591 128.910,390.167 128.335 C 389.662 128.216,388.950 128.002,388.583 127.861 C 388.040 127.651,386.701 127.586,381.333 127.510 C 374.073 127.407,374.449 127.465,373.229 126.265 C 370.619 123.697,371.017 120.171,374.152 118.075 L 374.888 117.583 386.019 117.500 C 394.712 117.435,397.197 117.370,397.362 117.205 C 397.572 116.995,397.602 112.324,397.398 111.630 C 397.352 111.473,397.037 111.267,396.699 111.173 C 395.738 110.906,376.171 110.969,375.000 111.242 M186.264 117.800 C 186.546 117.956,187.071 118.233,187.430 118.417 C 187.790 118.600,188.147 118.851,188.226 118.975 C 188.304 119.098,188.553 119.360,188.780 119.557 C 189.006 119.754,189.349 120.196,189.543 120.541 C 189.736 120.885,189.944 121.167,190.004 121.167 C 190.319 121.167,190.526 122.566,190.474 124.340 C 190.414 126.349,189.694 128.144,188.839 128.415 C 188.682 128.465,188.464 128.673,188.354 128.878 C 188.244 129.082,187.593 129.550,186.906 129.917 L 185.659 130.583 178.574 130.572 C 172.108 130.562,171.464 130.536,171.203 130.274 C 170.733 129.805,170.768 118.082,171.240 117.737 C 171.772 117.348,185.550 117.406,186.264 117.800 " stroke="none" fill="#858585" fill-rule="evenodd"></path></g></svg>