<svg id="svg" xmlns="http://www.w3.org/2000/svg" xmlns:xlink="http://www.w3.org/1999/xlink" width="400" height="400" viewBox="0, 0, 400,400"><g id="svgg"><path id="path0" d="M192.200 7.210 C 187.747 8.254,181.698 10.651,180.498 11.847 C 180.221 12.122,179.618 12.467,179.156 12.614 C 178.695 12.760,177.687 13.308,176.916 13.831 C 176.145 14.355,174.554 15.237,173.380 15.792 C 172.207 16.347,171.128 16.992,170.984 17.225 C 170.840 17.459,170.335 17.818,169.861 18.024 C 169.388 18.230,168.100 18.931,167.000 19.582 C 165.900 20.233,164.591 20.950,164.091 21.176 C 163.591 21.402,162.151 22.255,160.891 23.070 C 159.631 23.886,157.398 25.160,155.928 25.902 C 154.458 26.644,153.041 27.509,152.779 27.825 C 152.517 28.141,152.078 28.400,151.805 28.400 C 151.532 28.400,150.814 28.789,150.210 29.264 C 149.606 29.738,147.917 30.730,146.456 31.467 C 143.791 32.812,142.710 33.444,139.000 35.826 C 137.900 36.532,136.566 37.241,136.034 37.403 C 135.503 37.564,134.243 38.278,133.234 38.989 C 132.226 39.700,130.860 40.556,130.200 40.890 C 129.012 41.491,126.287 42.969,124.385 44.044 C 123.843 44.350,123.040 44.892,122.600 45.248 C 122.160 45.605,121.260 46.175,120.600 46.515 C 117.945 47.882,116.160 48.843,115.400 49.314 C 112.410 51.167,108.804 53.200,108.508 53.200 C 108.314 53.200,107.535 53.666,106.778 54.235 C 106.020 54.804,105.040 55.435,104.600 55.639 C 104.160 55.842,103.080 56.460,102.200 57.011 C 101.320 57.563,100.150 58.191,99.600 58.407 C 99.050 58.623,98.402 58.935,98.160 59.100 C 95.589 60.853,94.156 61.714,91.600 63.042 C 89.950 63.899,87.460 65.359,86.067 66.286 C 84.674 67.214,82.604 68.436,81.467 69.003 C 80.330 69.569,78.590 70.563,77.600 71.210 C 76.610 71.857,75.530 72.509,75.200 72.659 C 74.870 72.808,74.150 73.237,73.600 73.613 C 73.050 73.988,72.150 74.429,71.600 74.593 C 71.050 74.758,70.240 75.219,69.800 75.619 C 69.360 76.019,68.550 76.548,68.000 76.794 C 67.450 77.040,66.280 77.681,65.400 78.218 C 64.520 78.755,63.202 79.473,62.471 79.815 C 61.740 80.156,60.300 81.021,59.271 81.736 C 58.242 82.452,56.230 83.640,54.800 84.375 C 53.370 85.110,51.771 86.046,51.246 86.456 C 50.721 86.865,50.059 87.200,49.775 87.200 C 49.490 87.200,49.009 87.448,48.706 87.751 C 48.403 88.054,46.995 88.901,45.577 89.634 C 42.890 91.022,38.986 94.026,37.101 96.157 C 35.210 98.295,32.000 102.354,32.000 102.607 C 32.000 102.740,31.268 104.403,30.374 106.302 C 29.480 108.202,28.645 110.306,28.517 110.978 C 28.390 111.650,27.996 112.740,27.643 113.400 C 27.065 114.480,27.000 118.656,27.000 155.000 L 27.000 195.400 27.885 195.526 C 28.372 195.595,31.342 195.022,34.485 194.252 C 37.628 193.482,42.000 192.546,44.200 192.173 C 46.400 191.799,48.380 191.353,48.600 191.181 C 48.820 191.010,50.350 190.680,52.000 190.448 C 53.650 190.216,55.900 189.765,57.000 189.446 C 58.100 189.127,60.170 188.745,61.600 188.597 C 63.030 188.449,65.820 187.996,67.800 187.590 C 69.780 187.184,72.930 186.728,74.800 186.576 C 76.670 186.425,78.650 186.126,79.200 185.912 C 80.309 185.480,88.643 184.092,93.000 183.612 C 94.540 183.443,98.860 182.932,102.600 182.477 C 106.340 182.022,111.920 181.449,115.000 181.203 C 118.080 180.957,122.130 180.506,124.000 180.200 C 125.870 179.894,128.840 179.629,130.600 179.610 C 132.360 179.592,136.680 179.315,140.200 178.994 C 161.890 177.021,229.584 176.902,246.800 178.807 C 248.670 179.014,253.710 179.368,258.000 179.594 C 262.290 179.820,267.438 180.261,269.441 180.573 C 271.443 180.885,275.493 181.254,278.441 181.393 C 281.388 181.532,286.860 181.996,290.600 182.424 C 294.340 182.852,298.840 183.368,300.600 183.569 C 308.540 184.480,314.000 185.243,316.400 185.777 C 317.830 186.096,320.440 186.469,322.200 186.608 C 323.960 186.746,326.840 187.139,328.600 187.480 C 330.360 187.822,333.510 188.337,335.600 188.626 C 339.497 189.165,343.862 190.039,347.400 190.988 C 348.500 191.283,350.660 191.729,352.200 191.978 C 353.740 192.228,356.170 192.688,357.600 193.001 C 359.030 193.314,361.281 193.757,362.602 193.985 C 363.923 194.213,365.633 194.597,366.402 194.837 C 369.278 195.737,370.777 195.909,371.209 195.389 C 371.494 195.046,371.588 182.158,371.507 154.744 L 371.388 114.600 370.494 112.310 C 370.002 111.050,369.600 109.773,369.600 109.470 C 369.600 108.510,366.142 102.156,364.465 100.035 C 363.578 98.912,362.738 97.635,362.599 97.197 C 362.460 96.759,362.221 96.400,362.069 96.400 C 361.916 96.400,361.073 95.758,360.196 94.974 C 357.622 92.674,354.752 90.400,354.423 90.400 C 354.256 90.400,352.517 89.414,350.559 88.210 C 348.602 87.005,345.740 85.379,344.200 84.596 C 342.660 83.814,340.590 82.646,339.600 82.002 C 337.853 80.864,336.462 80.069,333.636 78.591 C 332.886 78.199,331.266 77.211,330.036 76.395 C 328.806 75.580,327.350 74.773,326.800 74.603 C 326.250 74.432,325.710 74.171,325.600 74.023 C 325.490 73.874,324.212 73.095,322.761 72.291 C 321.310 71.487,319.893 70.553,319.612 70.215 C 319.332 69.877,318.898 69.600,318.649 69.600 C 318.400 69.600,316.307 68.498,313.998 67.150 C 311.689 65.803,308.630 64.067,307.200 63.293 C 305.770 62.519,304.171 61.551,303.646 61.143 C 303.121 60.734,302.468 60.400,302.195 60.400 C 301.922 60.400,301.481 60.138,301.215 59.818 C 300.949 59.498,299.442 58.582,297.866 57.783 C 296.290 56.984,294.190 55.808,293.200 55.170 C 292.210 54.531,290.680 53.647,289.800 53.205 C 286.975 51.787,283.823 49.943,283.000 49.226 C 282.560 48.843,281.570 48.291,280.800 47.999 C 280.030 47.707,279.116 47.228,278.769 46.934 C 278.421 46.640,278.018 46.400,277.873 46.400 C 277.727 46.400,276.325 45.577,274.756 44.572 C 273.187 43.566,271.521 42.579,271.052 42.379 C 270.583 42.178,269.480 41.562,268.600 41.010 C 267.720 40.458,266.235 39.609,265.300 39.124 C 264.365 38.638,263.600 38.096,263.600 37.920 C 263.600 37.744,263.402 37.600,263.160 37.600 C 262.918 37.600,260.938 36.565,258.761 35.300 C 256.583 34.035,254.008 32.550,253.038 32.000 C 252.068 31.450,250.271 30.415,249.043 29.700 C 247.816 28.985,246.636 28.400,246.420 28.400 C 246.205 28.400,245.847 28.061,245.625 27.646 C 245.403 27.231,244.796 26.785,244.277 26.655 C 243.336 26.419,241.408 25.362,238.000 23.215 C 237.010 22.591,235.030 21.486,233.600 20.760 C 232.170 20.034,230.464 19.071,229.808 18.620 C 228.348 17.615,227.466 17.099,225.400 16.040 C 224.520 15.589,223.440 14.992,223.000 14.714 C 222.560 14.435,220.991 13.441,219.513 12.504 C 218.035 11.567,216.688 10.800,216.519 10.800 C 216.350 10.800,215.309 10.363,214.206 9.830 C 208.925 7.275,197.648 5.933,192.200 7.210 M269.516 111.648 C 273.722 112.978,276.652 116.205,275.080 117.777 C 273.300 119.557,271.147 119.958,270.129 118.698 C 267.894 115.934,262.668 116.171,260.682 119.127 C 256.114 125.923,263.789 134.024,269.797 128.749 C 271.807 126.984,275.600 128.214,275.600 130.631 C 275.600 133.666,264.124 138.466,262.634 136.055 C 262.517 135.865,261.611 135.483,260.622 135.206 C 258.012 134.475,254.762 131.208,253.611 128.158 C 249.833 118.142,259.224 108.395,269.516 111.648 M294.714 113.460 C 296.369 114.723,296.236 116.027,294.281 117.689 C 292.811 118.939,292.502 119.006,291.631 118.257 C 290.022 116.871,285.647 116.335,284.300 117.357 C 283.320 118.101,283.425 118.582,284.700 119.186 C 286.646 120.108,287.360 120.344,289.461 120.764 C 298.473 122.562,299.557 132.455,291.096 135.675 C 284.016 138.369,273.991 133.173,278.182 128.982 C 279.430 127.734,280.191 127.746,282.065 129.045 C 284.184 130.513,288.161 130.849,289.600 129.681 L 290.600 128.869 289.642 128.037 C 288.627 127.156,286.429 126.406,284.849 126.402 C 279.837 126.390,275.505 119.437,277.997 115.405 C 280.793 110.881,289.938 109.817,294.714 113.460 M118.111 112.024 C 126.928 114.472,123.953 127.600,114.582 127.600 C 110.206 127.600,110.001 127.774,109.994 131.514 C 109.987 135.025,109.892 135.246,108.079 135.980 C 106.308 136.697,103.801 136.002,103.452 134.698 C 102.967 132.890,103.172 112.588,103.680 112.080 C 104.292 111.468,115.944 111.422,118.111 112.024 M142.320 112.080 C 143.048 112.808,142.917 115.825,142.124 116.619 C 141.546 117.197,140.789 117.270,136.919 117.121 C 133.025 116.972,132.304 117.043,131.776 117.627 C 131.189 118.275,131.315 120.361,131.943 120.427 C 132.085 120.442,134.270 120.487,136.800 120.527 C 142.332 120.615,142.400 120.650,142.400 123.410 C 142.400 126.269,141.973 126.477,136.344 126.357 C 131.671 126.257,131.220 126.421,131.206 128.220 C 131.195 129.760,131.942 130.000,136.780 130.006 C 139.321 130.009,141.645 130.167,141.944 130.357 C 142.821 130.913,143.017 134.210,142.242 135.392 L 141.582 136.400 134.610 136.400 C 123.987 136.400,124.814 137.489,124.806 123.487 L 124.800 112.374 125.700 112.012 C 127.119 111.442,141.742 111.502,142.320 112.080 M161.672 112.915 C 169.404 116.598,170.642 129.658,163.600 133.255 C 163.050 133.536,162.318 133.996,161.974 134.278 C 160.605 135.398,154.753 136.485,151.000 136.317 C 145.170 136.056,145.601 136.966,145.595 124.886 C 145.592 119.229,145.488 114.222,145.363 113.760 C 144.663 111.149,156.662 110.528,161.672 112.915 M176.209 112.266 C 177.280 113.337,176.946 134.334,175.838 135.558 C 174.975 136.511,172.100 136.740,171.280 135.920 C 170.759 135.399,170.555 112.378,171.067 111.867 C 171.641 111.293,175.538 111.595,176.209 112.266 M194.135 112.328 C 194.497 112.728,195.138 114.033,195.559 115.228 C 195.981 116.423,196.604 118.120,196.945 119.000 C 197.286 119.880,197.573 120.983,197.582 121.451 C 197.592 121.919,197.870 122.526,198.200 122.800 C 198.530 123.074,198.800 123.478,198.800 123.699 C 198.800 123.920,199.235 125.112,199.767 126.350 C 203.421 134.856,203.486 136.400,200.190 136.400 C 197.904 136.400,196.088 135.492,195.760 134.183 C 194.875 130.659,185.764 131.134,184.611 134.765 C 184.311 135.711,181.855 136.518,180.290 136.185 C 177.941 135.686,176.879 133.978,178.137 132.720 C 178.907 131.950,179.600 130.561,179.600 129.788 C 179.600 129.423,179.932 128.646,180.338 128.062 C 180.745 127.478,181.274 126.280,181.514 125.400 C 182.029 123.517,183.595 119.223,184.537 117.113 C 184.901 116.295,185.200 115.553,185.200 115.463 C 185.200 115.374,185.665 114.468,186.234 113.450 L 187.268 111.600 190.372 111.600 C 192.865 111.600,193.606 111.743,194.135 112.328 M219.626 112.014 C 220.205 112.324,220.398 112.853,220.394 114.114 C 220.385 116.684,220.066 116.939,216.815 116.976 C 213.081 117.019,213.213 116.655,213.206 126.881 L 213.200 135.562 211.700 135.979 C 209.657 136.546,209.154 136.501,208.043 135.647 L 207.087 134.911 207.167 126.331 L 207.247 117.750 206.169 117.259 C 205.511 116.959,204.426 116.867,203.385 117.023 C 200.544 117.449,198.532 113.803,200.700 112.157 C 201.580 111.489,218.408 111.362,219.626 112.014 M236.955 112.131 C 242.487 113.801,243.587 121.186,238.990 125.783 L 237.584 127.190 238.566 128.746 C 239.106 129.602,239.827 130.910,240.166 131.651 C 240.506 132.393,240.994 133.287,241.251 133.638 C 241.518 134.003,241.604 134.730,241.451 135.338 C 240.943 137.363,235.847 136.538,234.637 134.235 C 230.587 126.527,227.910 125.444,228.300 131.671 C 228.573 136.030,225.325 138.068,222.541 135.284 C 221.687 134.430,221.902 113.282,222.776 112.229 C 223.424 111.448,234.441 111.372,236.955 112.131 M250.203 112.005 C 250.587 112.627,250.497 135.263,250.109 135.651 C 249.190 136.570,246.215 136.492,245.312 135.525 C 244.069 134.194,243.833 113.004,245.052 112.113 C 245.883 111.505,249.843 111.423,250.203 112.005 M110.500 117.465 C 109.893 117.710,109.835 120.544,110.414 121.626 C 111.601 123.844,117.200 121.936,117.200 119.315 C 117.200 117.512,113.153 116.394,110.500 117.465 M151.784 117.625 C 151.294 118.419,151.596 129.350,152.118 129.681 C 154.028 130.895,158.961 129.739,160.500 127.717 C 162.709 124.814,161.298 118.256,158.292 117.450 C 156.788 117.047,152.063 117.174,151.784 117.625 M228.629 117.729 C 227.687 118.418,228.093 121.408,229.210 122.005 C 232.561 123.799,236.909 120.846,234.977 118.089 C 234.239 117.036,229.913 116.790,228.629 117.729 M190.034 121.364 C 187.740 123.806,187.811 126.400,190.173 126.400 C 192.529 126.400,192.899 125.761,192.073 123.114 C 191.178 120.243,191.128 120.199,190.034 121.364 " stroke="none" fill="#aba9a9" fill-rule="evenodd"></path><path id="path1" d="M171.400 190.812 C 168.980 190.989,165.290 191.323,163.200 191.555 C 161.110 191.788,155.800 192.091,151.400 192.229 C 145.918 192.402,142.393 192.710,140.200 193.208 C 138.440 193.608,135.110 194.052,132.800 194.195 C 130.490 194.337,127.790 194.699,126.800 195.000 C 125.810 195.300,122.875 195.742,120.277 195.983 C 117.680 196.223,114.440 196.683,113.077 197.004 C 111.715 197.325,109.520 197.602,108.200 197.618 C 106.880 197.634,104.900 197.820,103.800 198.030 C 102.700 198.241,99.910 198.686,97.600 199.021 C 95.290 199.355,92.230 199.894,90.800 200.219 C 89.370 200.544,86.592 201.005,84.626 201.244 C 82.660 201.483,80.680 201.910,80.226 202.192 C 79.772 202.474,77.989 202.815,76.265 202.950 C 74.541 203.085,72.561 203.465,71.865 203.795 C 71.169 204.125,69.700 204.653,68.600 204.968 C 67.500 205.283,65.340 205.936,63.800 206.418 C 62.260 206.900,59.920 207.569,58.600 207.904 C 57.280 208.239,55.297 208.938,54.194 209.457 C 53.091 209.976,51.898 210.400,51.543 210.400 C 51.188 210.400,50.690 210.650,50.437 210.956 C 50.183 211.261,49.143 211.721,48.125 211.977 C 47.106 212.234,45.902 212.704,45.448 213.022 C 44.994 213.340,44.237 213.600,43.767 213.600 C 42.872 213.600,38.183 215.838,37.271 216.700 C 36.981 216.975,36.528 217.200,36.266 217.200 C 36.003 217.200,35.161 217.536,34.394 217.947 C 33.627 218.357,32.416 218.821,31.702 218.978 C 30.989 219.134,30.258 219.525,30.079 219.845 C 29.899 220.166,29.223 220.570,28.576 220.743 L 27.400 221.058 27.400 253.143 C 27.400 277.887,27.511 285.298,27.886 285.530 C 28.153 285.695,28.570 286.753,28.812 287.881 C 29.054 289.009,29.600 290.616,30.026 291.451 C 30.452 292.286,30.800 293.179,30.800 293.436 C 30.800 293.692,31.065 294.122,31.389 294.391 C 31.714 294.660,32.100 295.537,32.248 296.340 C 32.396 297.143,32.896 298.175,33.359 298.634 C 33.821 299.093,34.650 300.064,35.200 300.792 C 37.573 303.936,42.673 308.406,44.675 309.099 C 45.492 309.382,46.260 309.764,46.381 309.948 C 46.501 310.132,47.275 310.599,48.100 310.986 C 48.925 311.374,49.600 311.851,49.600 312.046 C 49.600 312.241,49.856 312.400,50.169 312.400 C 50.482 312.400,51.275 312.851,51.929 313.402 C 52.584 313.953,53.678 314.516,54.360 314.652 C 55.042 314.788,55.600 315.038,55.600 315.207 C 55.600 315.375,56.320 315.801,57.200 316.153 C 58.080 316.505,58.800 316.953,58.800 317.148 C 58.800 317.343,59.340 317.727,60.000 318.000 C 60.660 318.273,61.200 318.641,61.200 318.818 C 61.200 318.994,61.875 319.358,62.700 319.627 C 63.525 319.896,64.629 320.450,65.154 320.858 C 65.679 321.266,66.326 321.600,66.592 321.600 C 66.858 321.600,67.402 321.960,67.800 322.400 C 68.198 322.840,68.738 323.200,69.000 323.200 C 69.262 323.200,69.793 323.550,70.179 323.977 C 70.566 324.405,71.359 324.865,71.941 324.999 C 72.524 325.133,73.990 325.860,75.200 326.614 C 76.410 327.369,77.839 328.177,78.376 328.412 C 78.912 328.646,79.581 329.165,79.861 329.566 C 80.142 329.967,80.921 330.404,81.593 330.539 C 82.265 330.673,83.206 331.147,83.683 331.592 C 84.160 332.036,84.883 332.400,85.288 332.400 C 85.693 332.400,86.129 332.670,86.255 333.000 C 86.382 333.330,86.723 333.600,87.012 333.600 C 87.302 333.600,88.073 334.050,88.727 334.600 C 89.381 335.150,90.124 335.600,90.379 335.600 C 90.634 335.600,91.505 336.050,92.314 336.600 C 93.123 337.150,93.986 337.600,94.231 337.600 C 94.475 337.600,95.199 338.050,95.838 338.600 C 96.477 339.149,97.231 339.599,97.513 339.600 C 97.794 339.600,98.129 339.870,98.255 340.200 C 98.382 340.530,98.781 340.803,99.143 340.806 C 99.504 340.809,100.250 341.073,100.800 341.392 C 101.350 341.712,102.565 342.332,103.500 342.772 C 104.435 343.212,105.200 343.758,105.200 343.986 C 105.200 344.214,105.472 344.400,105.804 344.400 C 106.136 344.400,106.720 344.765,107.102 345.211 C 107.484 345.657,108.494 346.210,109.345 346.439 C 110.197 346.668,111.266 347.203,111.722 347.628 C 112.178 348.053,112.680 348.400,112.838 348.400 C 112.996 348.400,114.357 349.210,115.863 350.199 C 117.368 351.189,118.803 351.999,119.051 351.999 C 119.299 352.000,119.717 352.258,119.979 352.574 C 120.241 352.890,120.984 353.265,121.631 353.407 C 122.278 353.549,122.984 353.996,123.200 354.400 C 123.416 354.804,124.135 355.254,124.797 355.399 C 125.459 355.545,126.000 355.822,126.000 356.017 C 126.000 356.211,127.393 357.040,129.097 357.859 C 130.800 358.678,132.544 359.675,132.972 360.074 C 133.400 360.473,133.981 360.800,134.261 360.800 C 134.542 360.800,134.965 361.160,135.200 361.600 C 135.445 362.057,136.038 362.400,136.583 362.400 C 137.109 362.400,138.073 362.850,138.727 363.400 C 139.381 363.950,140.168 364.400,140.476 364.400 C 141.010 364.400,141.492 364.711,143.936 366.639 C 144.521 367.101,145.513 367.604,146.140 367.757 C 146.767 367.910,147.757 368.359,148.340 368.755 C 152.580 371.632,154.465 372.759,155.737 373.179 C 156.542 373.445,157.200 373.792,157.200 373.951 C 157.200 374.109,157.842 374.471,158.626 374.755 C 159.410 375.039,160.150 375.525,160.269 375.835 C 160.388 376.146,160.701 376.400,160.965 376.400 C 161.229 376.400,162.055 376.850,162.800 377.400 C 163.545 377.950,164.453 378.400,164.816 378.400 C 165.179 378.400,165.796 378.753,166.186 379.185 C 166.577 379.617,167.505 380.171,168.248 380.416 C 168.992 380.661,169.600 381.028,169.600 381.231 C 169.600 381.434,169.808 381.600,170.062 381.600 C 170.316 381.600,171.081 382.024,171.762 382.542 C 172.443 383.061,173.447 383.626,173.992 383.799 C 174.538 383.971,175.438 384.409,175.992 384.772 C 177.392 385.689,178.358 386.261,180.100 387.204 C 180.925 387.651,181.600 388.164,181.600 388.345 C 181.600 388.526,182.352 388.899,183.271 389.174 C 184.190 389.449,185.315 389.907,185.771 390.190 C 186.227 390.474,187.384 390.822,188.342 390.964 C 189.300 391.106,190.650 391.526,191.342 391.896 C 193.232 392.908,205.213 392.883,207.122 391.863 C 207.848 391.475,209.347 391.050,210.452 390.919 C 211.557 390.788,212.678 390.465,212.942 390.201 C 213.206 389.937,214.137 389.494,215.011 389.216 C 215.885 388.939,216.780 388.489,217.000 388.217 C 217.220 387.945,218.015 387.380,218.768 386.961 C 219.520 386.543,221.500 385.435,223.168 384.501 C 224.835 383.567,226.875 382.504,227.700 382.140 C 228.525 381.776,229.200 381.343,229.200 381.178 C 229.200 380.781,233.431 378.400,234.136 378.400 C 234.437 378.400,235.169 377.950,235.762 377.400 C 236.356 376.850,237.083 376.400,237.378 376.400 C 237.673 376.400,238.011 376.148,238.129 375.840 C 238.247 375.532,238.987 375.068,239.772 374.809 C 240.557 374.550,241.200 374.179,241.200 373.984 C 241.200 373.790,241.965 373.431,242.900 373.187 C 243.835 372.942,244.780 372.530,245.000 372.271 C 245.603 371.561,248.584 369.600,249.060 369.600 C 249.290 369.600,249.898 369.235,250.413 368.789 C 250.927 368.343,251.809 367.869,252.374 367.737 C 252.938 367.604,253.760 367.192,254.200 366.821 C 255.372 365.834,257.200 364.705,258.851 363.948 C 259.649 363.583,260.424 363.085,260.574 362.842 C 260.724 362.599,261.280 362.400,261.810 362.400 C 262.362 362.400,262.954 362.060,263.200 361.600 C 263.435 361.160,263.878 360.800,264.183 360.800 C 264.489 360.800,265.247 360.386,265.869 359.881 C 266.491 359.375,268.202 358.381,269.670 357.670 C 271.139 356.960,272.399 356.249,272.470 356.090 C 272.542 355.930,273.230 355.484,274.000 355.097 C 274.770 354.710,276.120 353.942,277.000 353.390 C 278.673 352.340,280.231 351.600,280.768 351.600 C 280.941 351.600,281.569 351.150,282.162 350.600 C 282.756 350.050,283.483 349.600,283.778 349.600 C 284.073 349.600,284.409 349.353,284.525 349.051 C 284.641 348.750,285.245 348.375,285.868 348.219 C 286.490 348.063,287.322 347.590,287.716 347.168 C 288.109 346.745,288.749 346.400,289.138 346.400 C 289.527 346.400,290.455 345.950,291.200 345.400 C 291.945 344.850,292.771 344.400,293.035 344.400 C 293.299 344.400,293.611 344.149,293.728 343.843 C 293.914 343.359,298.741 340.800,299.468 340.800 C 299.613 340.800,300.018 340.526,300.366 340.190 C 301.293 339.299,303.787 337.721,304.759 337.413 C 305.221 337.266,305.600 337.007,305.600 336.837 C 305.600 336.420,307.455 335.600,308.399 335.600 C 308.818 335.600,309.304 335.349,309.480 335.043 C 309.824 334.444,311.801 333.187,313.900 332.232 C 314.615 331.907,315.200 331.460,315.200 331.239 C 315.200 331.017,315.845 330.715,316.634 330.567 C 317.423 330.419,318.530 329.871,319.093 329.349 C 319.656 328.827,320.341 328.400,320.616 328.400 C 320.890 328.400,321.211 328.148,321.329 327.840 C 321.447 327.532,322.187 327.068,322.972 326.809 C 323.757 326.550,324.400 326.186,324.400 326.000 C 324.400 325.814,325.054 325.446,325.854 325.182 C 327.267 324.716,329.581 323.364,330.800 322.292 C 331.130 322.002,332.660 321.145,334.200 320.387 C 335.740 319.629,337.238 318.782,337.529 318.505 C 337.819 318.227,338.292 318.000,338.580 318.000 C 338.867 318.000,339.349 317.702,339.651 317.338 C 339.953 316.974,340.785 316.432,341.500 316.133 C 342.215 315.834,342.800 315.420,342.800 315.213 C 342.800 315.006,343.475 314.717,344.300 314.571 C 345.125 314.426,346.070 314.003,346.400 313.633 C 347.204 312.729,349.628 311.245,352.850 309.683 C 354.308 308.977,356.198 307.759,357.050 306.978 C 360.189 304.100,360.801 303.600,361.188 303.600 C 361.406 303.600,361.934 302.913,362.363 302.073 C 362.791 301.234,363.425 300.311,363.771 300.024 C 364.117 299.737,364.400 299.273,364.400 298.994 C 364.400 298.714,364.670 298.382,365.000 298.255 C 365.330 298.129,365.600 297.811,365.600 297.550 C 365.600 297.289,366.018 296.519,366.530 295.838 C 367.041 295.157,367.695 293.745,367.982 292.700 C 368.269 291.655,368.650 290.800,368.827 290.800 C 369.005 290.800,369.274 289.945,369.425 288.900 C 369.575 287.855,369.991 286.370,370.349 285.600 C 370.930 284.351,371.012 280.801,371.112 252.720 L 371.223 221.241 370.320 220.757 C 369.823 220.491,369.175 220.032,368.880 219.737 C 368.585 219.443,367.862 219.099,367.272 218.973 C 366.682 218.848,365.460 218.398,364.556 217.973 C 363.652 217.548,362.736 217.200,362.520 217.200 C 361.958 217.200,357.254 214.811,356.997 214.395 C 356.878 214.203,355.931 213.926,354.891 213.780 C 353.851 213.633,352.612 213.270,352.137 212.972 C 351.663 212.674,350.403 212.215,349.337 211.951 C 348.272 211.688,347.268 211.252,347.106 210.983 C 346.944 210.713,346.002 210.371,345.011 210.223 C 344.020 210.074,342.957 209.700,342.648 209.390 C 342.339 209.081,340.787 208.558,339.199 208.227 C 337.611 207.895,336.107 207.459,335.856 207.258 C 335.605 207.056,334.594 206.757,333.609 206.595 C 332.624 206.432,331.396 206.023,330.881 205.685 C 330.366 205.348,329.034 204.928,327.922 204.752 C 326.809 204.576,325.606 204.169,325.249 203.846 C 324.874 203.507,323.102 203.096,321.049 202.871 C 319.096 202.657,317.382 202.294,317.240 202.065 C 317.098 201.835,315.546 201.467,313.791 201.247 C 312.036 201.026,309.931 200.565,309.113 200.223 C 308.295 199.880,307.108 199.600,306.475 199.600 C 305.843 199.600,304.262 199.232,302.963 198.782 C 301.525 198.285,298.721 197.823,295.800 197.602 C 293.160 197.403,290.412 197.062,289.693 196.846 C 288.974 196.629,286.322 196.248,283.800 196.000 C 281.278 195.752,278.626 195.370,277.907 195.152 C 277.188 194.935,273.990 194.507,270.800 194.201 C 267.610 193.896,263.920 193.382,262.600 193.059 C 261.147 192.703,257.043 192.375,252.200 192.227 C 247.800 192.092,242.040 191.696,239.400 191.346 C 233.986 190.628,179.764 190.203,171.400 190.812 M246.000 232.469 C 247.650 232.777,249.206 233.156,249.458 233.312 C 249.710 233.468,250.019 233.326,250.146 232.998 C 250.480 232.127,289.246 232.092,289.968 232.961 C 290.263 233.317,290.391 234.744,290.317 236.861 L 290.200 240.200 284.600 240.297 C 281.520 240.351,278.640 240.478,278.200 240.580 C 277.411 240.762,277.402 241.041,277.527 260.495 C 277.678 284.048,278.030 282.400,272.846 282.400 C 270.276 282.400,269.601 282.261,268.868 281.578 L 267.985 280.755 268.093 260.782 C 268.180 244.443,268.103 240.771,267.667 240.604 C 266.770 240.260,260.061 240.378,259.836 240.742 C 259.720 240.930,260.069 241.501,260.612 242.012 C 261.156 242.522,261.600 243.237,261.600 243.600 C 261.600 243.963,262.050 244.683,262.600 245.200 C 263.150 245.717,263.600 246.457,263.600 246.846 C 263.600 247.235,263.791 247.671,264.025 247.815 C 266.032 249.056,266.243 264.054,264.285 266.342 C 263.975 266.704,263.616 267.298,263.488 267.662 C 262.506 270.445,256.791 277.591,255.534 277.607 C 255.241 277.611,254.576 278.061,254.058 278.607 C 253.540 279.153,252.797 279.600,252.407 279.600 C 252.017 279.600,251.475 279.869,251.202 280.197 C 250.930 280.526,249.963 280.986,249.053 281.221 C 248.144 281.455,246.833 281.906,246.140 282.223 C 244.431 283.005,235.635 283.024,233.860 282.250 C 233.167 281.948,231.835 281.491,230.900 281.234 C 229.965 280.978,229.200 280.609,229.200 280.415 C 229.200 280.221,228.592 279.861,227.848 279.616 C 227.105 279.371,226.177 278.817,225.786 278.385 C 225.396 277.953,224.879 277.595,224.638 277.590 C 224.072 277.576,220.617 274.015,220.282 273.100 C 219.658 271.399,218.922 272.391,218.961 274.879 L 219.000 277.357 217.400 277.735 C 216.520 277.943,215.667 278.337,215.505 278.612 C 215.343 278.886,214.713 279.229,214.105 279.374 C 213.497 279.519,212.100 279.977,211.000 280.393 C 206.211 282.202,198.732 283.098,197.421 282.021 C 197.189 281.831,196.143 281.547,195.095 281.391 C 194.048 281.235,192.759 280.769,192.232 280.354 C 191.705 279.939,191.001 279.600,190.668 279.600 C 190.334 279.600,189.527 279.150,188.873 278.600 C 188.219 278.050,187.546 277.600,187.376 277.600 C 187.206 277.600,186.782 277.335,186.434 277.010 C 186.085 276.686,185.125 275.857,184.300 275.169 C 183.475 274.480,182.800 273.660,182.800 273.346 C 182.800 273.032,182.523 272.669,182.185 272.539 C 181.847 272.409,181.300 271.740,180.970 271.051 C 180.640 270.363,179.823 268.810,179.155 267.600 C 178.038 265.578,177.640 264.080,176.939 259.253 C 176.606 256.961,177.510 250.974,178.455 249.206 C 178.865 248.439,179.200 247.593,179.200 247.327 C 179.200 247.060,179.650 246.356,180.200 245.762 C 180.750 245.169,181.200 244.434,181.200 244.130 C 181.200 243.338,184.944 239.600,185.736 239.600 C 186.101 239.600,186.400 239.326,186.400 238.991 C 186.400 238.657,186.850 238.178,187.400 237.927 C 187.950 237.677,188.400 237.342,188.400 237.183 C 188.400 236.602,193.056 234.623,195.000 234.379 C 196.100 234.240,198.105 233.887,199.456 233.593 C 201.586 233.129,202.411 233.145,205.656 233.715 C 207.715 234.077,210.217 234.474,211.216 234.598 C 212.870 234.804,216.646 236.392,217.180 237.106 C 217.301 237.268,217.760 237.599,218.200 237.841 C 218.809 238.177,219.029 238.775,219.121 240.341 C 219.264 242.783,219.149 242.741,221.000 241.040 C 222.580 239.588,222.947 239.230,224.991 237.140 C 226.773 235.318,227.197 235.019,228.780 234.467 C 229.533 234.205,230.456 233.711,230.833 233.370 C 231.209 233.030,232.571 232.648,233.859 232.522 C 235.146 232.397,236.470 232.136,236.800 231.943 C 237.572 231.492,242.161 231.754,246.000 232.469 M296.700 234.698 C 298.359 236.870,295.352 240.864,293.385 239.100 C 293.079 238.825,292.552 238.368,292.214 238.084 C 291.876 237.801,291.600 237.033,291.600 236.378 C 291.600 234.091,295.304 232.871,296.700 234.698 M105.952 236.300 C 107.836 238.590,108.047 238.839,110.300 241.439 C 111.455 242.772,112.400 244.064,112.400 244.311 C 112.400 244.558,112.649 244.904,112.953 245.080 C 113.257 245.256,114.506 246.660,115.729 248.200 C 116.952 249.740,118.260 251.342,118.636 251.759 C 119.011 252.177,121.124 254.697,123.331 257.359 C 125.538 260.022,127.582 262.344,127.872 262.520 C 128.162 262.696,128.400 263.115,128.400 263.451 C 128.400 263.788,129.165 264.840,130.100 265.789 C 132.594 268.319,133.272 269.212,133.581 270.365 C 133.733 270.934,134.115 271.400,134.429 271.400 C 134.914 271.400,135.013 268.723,135.089 253.655 C 135.186 234.099,135.087 234.800,137.769 234.800 C 140.545 234.800,140.400 233.546,140.400 257.493 C 140.400 282.129,140.770 279.797,136.865 279.799 C 134.598 279.800,134.777 279.924,132.284 276.634 C 131.798 275.993,130.995 275.072,130.500 274.588 C 130.005 274.104,129.600 273.570,129.600 273.400 C 129.600 273.230,129.195 272.683,128.700 272.184 C 128.205 271.684,127.551 270.970,127.246 270.596 C 126.941 270.223,125.726 268.779,124.546 267.388 C 123.366 265.997,122.400 264.702,122.400 264.511 C 122.400 264.320,121.296 263.001,119.947 261.581 C 118.598 260.162,117.323 258.512,117.113 257.916 C 116.904 257.320,116.388 256.723,115.967 256.589 C 115.545 256.456,115.200 256.205,115.200 256.031 C 115.200 255.858,114.795 255.258,114.300 254.697 C 113.805 254.136,113.040 253.214,112.600 252.647 C 112.160 252.080,111.119 250.847,110.286 249.908 C 109.453 248.969,108.469 247.705,108.100 247.100 C 107.730 246.495,107.231 246.000,106.991 246.000 C 106.751 246.000,106.359 245.505,106.120 244.900 C 105.796 244.080,105.674 248.291,105.643 261.420 C 105.611 274.542,105.477 279.163,105.120 279.520 C 104.322 280.318,101.692 280.120,101.214 279.226 C 100.666 278.203,100.644 237.263,101.190 235.826 C 101.843 234.110,104.355 234.360,105.952 236.300 M166.620 235.152 C 166.829 235.345,167.713 235.732,168.585 236.011 C 170.690 236.685,174.326 240.313,174.667 242.080 C 174.807 242.806,175.164 243.755,175.461 244.189 C 176.312 245.434,175.132 251.821,173.959 252.321 C 173.803 252.387,173.145 252.948,172.497 253.568 C 171.849 254.187,171.079 254.774,170.787 254.871 C 169.924 255.159,170.634 256.285,172.369 257.381 C 173.254 257.939,174.249 258.920,174.580 259.562 C 174.912 260.203,175.412 260.804,175.692 260.897 C 176.059 261.019,176.239 262.530,176.340 266.330 C 176.531 273.504,175.538 275.325,169.696 278.520 L 167.400 279.775 155.086 279.788 C 144.567 279.798,142.717 279.713,142.392 279.200 C 141.673 278.065,141.892 236.732,142.623 235.689 C 143.283 234.746,165.640 234.245,166.620 235.152 M196.663 239.384 C 196.258 239.691,195.241 240.058,194.404 240.199 C 193.485 240.355,192.272 241.008,191.341 241.849 C 190.493 242.614,189.350 243.516,188.800 243.852 C 187.608 244.581,185.200 247.976,185.200 248.928 C 185.200 249.298,184.862 249.938,184.448 250.352 C 182.771 252.029,182.504 262.652,184.088 264.679 C 184.294 264.942,184.884 265.932,185.399 266.879 C 185.914 267.825,186.632 269.140,186.996 269.800 C 187.636 270.961,190.214 273.100,191.682 273.687 C 192.077 273.845,192.400 274.146,192.400 274.356 C 192.400 274.566,193.075 274.955,193.900 275.220 C 194.725 275.484,195.716 275.977,196.102 276.315 C 197.103 277.189,207.316 277.170,208.322 276.293 C 208.695 275.967,209.720 275.475,210.600 275.198 C 211.480 274.922,212.417 274.524,212.682 274.314 C 213.820 273.412,216.254 272.400,217.285 272.400 C 218.848 272.400,217.819 267.852,215.925 266.395 C 214.108 264.998,214.012 250.775,215.807 248.793 C 216.133 248.432,216.400 247.850,216.400 247.499 C 216.400 247.148,216.864 246.310,217.430 245.637 C 218.666 244.168,218.579 242.954,217.248 243.102 C 216.417 243.193,214.599 242.200,213.308 240.950 C 213.037 240.687,212.047 240.345,211.108 240.189 C 210.169 240.033,208.914 239.657,208.320 239.353 C 206.803 238.576,197.697 238.601,196.663 239.384 M148.100 240.265 C 147.728 240.415,147.600 242.154,147.600 247.033 L 147.600 253.600 155.951 253.600 C 162.886 253.600,164.386 253.498,164.800 253.000 C 165.074 252.670,165.606 252.400,165.982 252.400 C 168.906 252.400,171.683 246.000,169.738 243.743 C 169.332 243.272,168.615 242.403,168.144 241.811 C 167.649 241.189,166.637 240.584,165.744 240.377 C 164.143 240.006,148.982 239.909,148.100 240.265 M239.299 243.981 C 237.923 244.144,236.483 244.555,236.099 244.892 C 235.714 245.229,235.040 245.615,234.599 245.748 C 234.159 245.882,233.349 246.555,232.799 247.244 C 232.250 247.934,231.391 248.957,230.890 249.518 C 230.390 250.079,229.879 251.002,229.755 251.569 C 229.632 252.136,229.276 253.528,228.965 254.662 C 228.243 257.296,228.252 258.747,229.000 260.538 C 229.330 261.328,229.600 262.430,229.600 262.988 C 229.600 264.032,233.673 268.400,234.646 268.400 C 234.904 268.400,235.207 268.642,235.321 268.938 C 235.434 269.233,236.629 269.709,237.975 269.995 C 239.322 270.280,240.519 270.669,240.635 270.857 C 241.124 271.647,247.402 270.184,248.831 268.946 C 249.179 268.646,249.649 268.400,249.877 268.400 C 250.298 268.400,252.987 265.531,254.800 263.146 C 256.264 261.221,256.336 252.222,254.898 250.733 C 254.403 250.220,253.273 248.963,252.386 247.941 C 249.444 244.548,245.232 243.274,239.299 243.981 M226.400 244.849 C 226.400 245.555,226.500 245.615,226.996 245.204 C 227.598 244.704,227.469 244.000,226.776 244.000 C 226.569 244.000,226.400 244.382,226.400 244.849 M224.667 245.867 C 224.281 246.253,224.338 248.800,224.733 248.800 C 225.141 248.800,225.998 246.132,225.689 245.822 C 225.391 245.524,224.992 245.542,224.667 245.867 M222.406 251.900 C 222.158 253.165,221.766 254.687,221.536 255.283 C 219.624 260.225,226.503 273.600,230.956 273.600 C 232.436 273.600,232.249 272.942,230.600 272.346 C 229.830 272.067,229.200 271.671,229.200 271.466 C 229.200 271.260,228.795 270.683,228.300 270.184 C 224.318 266.166,222.944 261.439,223.462 253.539 C 223.756 249.048,223.150 248.106,222.406 251.900 M147.600 266.592 L 147.600 274.785 148.662 275.051 C 150.883 275.609,164.879 274.888,166.800 274.117 C 169.662 272.969,169.964 272.687,170.805 270.387 C 172.440 265.912,170.439 260.446,166.914 259.765 C 166.207 259.628,165.420 259.265,165.165 258.958 C 164.795 258.512,162.979 258.400,156.151 258.400 L 147.600 258.400 147.600 266.592 M232.935 274.877 C 233.740 275.170,234.199 275.161,234.515 274.845 C 234.842 274.518,234.540 274.408,233.380 274.432 C 231.818 274.463,231.813 274.468,232.935 274.877 M237.200 276.400 C 237.200 276.628,238.363 276.797,239.900 276.794 C 241.791 276.790,242.420 276.672,242.000 276.400 C 241.207 275.887,237.200 275.887,237.200 276.400 M215.700 290.313 C 216.085 290.649,216.400 291.153,216.400 291.433 C 216.400 292.724,217.651 293.292,218.576 292.422 C 219.712 291.355,220.172 291.385,221.810 292.635 C 223.083 293.605,223.222 293.630,224.072 293.035 C 224.570 292.686,225.343 292.394,225.789 292.387 C 226.235 292.380,226.932 292.123,227.337 291.816 C 227.742 291.509,228.804 291.135,229.696 290.984 C 230.588 290.833,231.895 290.469,232.599 290.175 C 233.699 289.715,234.003 289.727,234.764 290.260 C 235.565 290.821,235.716 290.819,236.356 290.240 C 238.016 288.738,241.600 289.686,241.600 291.627 C 241.600 293.182,242.571 293.555,243.746 292.451 C 245.014 291.260,246.694 291.331,247.273 292.600 C 247.725 293.592,248.210 293.877,248.467 293.300 C 248.884 292.362,252.400 291.189,252.400 291.989 C 252.400 293.111,254.998 293.060,255.481 291.928 C 256.003 290.702,257.412 290.396,258.370 291.300 C 258.742 291.651,258.949 291.668,259.064 291.357 C 259.915 289.063,261.600 289.368,261.600 291.816 C 261.600 294.206,261.901 294.388,263.445 292.932 C 264.977 291.487,266.020 291.260,266.800 292.200 C 267.074 292.530,267.487 292.800,267.717 292.800 C 267.948 292.800,268.466 293.098,268.869 293.462 C 269.271 293.826,269.600 293.934,269.600 293.702 C 269.600 293.144,272.240 291.600,273.192 291.600 C 275.976 291.600,277.766 297.439,275.588 299.411 C 274.439 300.451,273.400 299.395,273.400 297.188 C 273.400 295.014,272.614 294.977,272.542 297.147 C 272.461 299.556,271.323 300.770,270.180 299.664 C 269.415 298.925,269.377 298.926,268.226 299.735 C 266.580 300.892,264.668 300.804,263.305 299.510 L 262.200 298.460 261.000 299.428 C 259.140 300.928,256.485 300.810,255.878 299.200 C 255.315 297.710,255.168 297.710,254.319 299.203 C 253.449 300.730,250.240 300.970,249.000 299.600 C 248.602 299.160,248.136 298.800,247.965 298.800 C 247.794 298.800,247.540 299.160,247.400 299.600 C 247.197 300.239,246.795 300.400,245.400 300.400 C 244.005 300.400,243.603 300.239,243.400 299.600 C 243.099 298.652,242.843 298.614,241.781 299.358 C 241.181 299.778,240.312 299.846,238.254 299.633 C 236.375 299.439,234.663 299.535,232.769 299.942 L 230.015 300.533 229.027 299.466 C 228.483 298.880,227.841 298.400,227.601 298.400 C 227.316 298.400,227.258 297.900,227.434 296.961 C 227.671 295.695,227.613 295.539,226.952 295.667 C 226.370 295.779,226.229 296.098,226.328 297.081 C 226.476 298.559,225.820 300.000,225.000 300.000 C 224.319 300.000,223.600 298.781,223.600 297.626 C 223.600 296.668,223.285 296.609,222.274 297.376 C 221.653 297.847,221.622 298.047,222.064 298.753 C 222.950 300.173,220.007 301.550,218.757 300.300 C 217.245 298.788,215.762 298.459,215.413 299.558 C 215.122 300.476,212.904 300.980,211.549 300.437 C 207.905 298.974,206.775 294.611,209.181 291.290 C 210.724 289.159,213.844 288.691,215.700 290.313 M104.707 290.500 C 104.951 290.995,105.264 291.808,105.404 292.306 C 105.724 293.448,106.262 293.140,106.595 291.623 C 107.132 289.176,109.771 289.155,110.259 291.593 C 110.520 292.902,111.833 293.301,112.255 292.200 C 112.567 291.388,113.327 291.446,114.890 292.399 C 116.612 293.448,116.765 293.420,117.275 291.956 C 117.667 290.833,117.835 290.733,119.020 290.926 C 119.825 291.056,120.614 290.924,121.066 290.582 C 122.568 289.444,124.330 290.085,124.069 291.675 C 123.878 292.839,125.465 293.367,126.283 292.411 C 127.191 291.351,128.107 291.386,129.439 292.532 C 130.576 293.510,131.492 293.419,133.874 292.088 C 135.219 291.336,136.266 291.503,137.135 292.608 C 137.970 293.670,139.698 293.415,140.520 292.108 C 140.972 291.389,141.982 291.477,143.670 292.382 C 145.269 293.239,145.600 293.001,145.600 290.994 C 145.600 289.482,147.140 289.249,148.291 290.588 C 149.073 291.497,149.229 292.122,149.227 294.339 C 149.225 295.803,149.264 297.720,149.312 298.600 C 149.409 300.373,147.890 301.012,145.993 299.996 C 145.450 299.706,144.979 299.681,144.674 299.926 C 143.627 300.768,141.592 300.887,140.497 300.169 C 139.818 299.724,138.726 299.483,137.515 299.511 C 135.306 299.561,134.570 298.759,135.005 296.777 C 135.230 295.752,135.150 295.600,134.382 295.600 C 133.615 295.600,133.531 295.757,133.740 296.800 C 134.232 299.260,133.005 300.671,131.533 299.340 C 130.849 298.721,130.742 298.746,129.821 299.740 C 128.661 300.991,127.116 301.116,126.045 300.045 C 125.243 299.243,123.574 299.348,121.046 300.359 C 120.136 300.724,119.713 300.706,119.046 300.276 C 117.698 299.408,116.473 299.230,115.975 299.831 C 115.126 300.853,112.821 300.999,111.910 300.088 C 111.150 299.328,110.985 299.311,109.484 299.841 C 107.694 300.472,106.400 299.852,106.400 298.362 C 106.400 297.099,105.613 297.112,104.896 298.385 C 104.112 299.779,102.686 300.335,101.795 299.596 C 101.082 299.004,100.938 291.637,101.614 290.374 C 102.208 289.263,104.138 289.342,104.707 290.500 M159.304 290.616 C 159.907 291.175,160.400 291.974,160.400 292.393 C 160.400 293.588,161.003 293.661,162.012 292.588 C 163.117 291.411,164.816 291.294,165.475 292.348 C 166.201 293.511,167.683 293.583,169.219 292.531 C 170.794 291.452,171.701 291.357,172.400 292.200 C 172.674 292.530,173.225 292.800,173.625 292.800 C 174.025 292.800,174.451 292.959,174.571 293.153 C 174.691 293.347,175.533 293.137,176.443 292.687 C 177.769 292.030,178.245 291.961,178.843 292.334 C 180.069 293.099,180.961 292.876,182.572 291.400 C 185.630 288.599,186.800 289.557,186.800 294.864 C 186.800 299.634,185.889 300.800,182.164 300.800 C 181.158 300.800,179.321 298.567,179.011 296.970 L 178.708 295.400 178.209 297.324 C 177.571 299.790,177.108 300.269,175.892 299.715 C 175.192 299.396,174.776 299.428,174.205 299.846 C 172.963 300.754,169.364 300.570,168.658 299.562 C 167.982 298.597,166.679 298.797,165.484 300.050 C 165.091 300.462,164.551 300.798,164.284 300.795 C 163.077 300.781,162.006 300.250,161.786 299.557 C 161.465 298.545,160.361 298.601,158.963 299.700 C 157.354 300.965,154.192 300.924,153.140 299.625 C 152.294 298.580,152.055 291.793,152.814 290.374 C 153.495 289.102,157.847 289.265,159.304 290.616 M193.654 290.100 C 193.684 290.375,193.729 291.123,193.754 291.763 C 193.812 293.221,194.547 293.505,195.470 292.427 C 196.389 291.353,197.520 291.400,198.952 292.571 L 200.104 293.513 202.039 292.708 C 204.479 291.694,205.293 291.955,205.126 293.697 C 205.038 294.611,204.721 295.119,204.067 295.400 C 203.306 295.726,203.170 296.024,203.329 297.020 C 203.657 299.073,202.403 300.356,200.981 299.425 C 199.908 298.721,199.860 298.723,199.239 299.501 C 197.575 301.582,193.251 299.850,193.157 297.065 C 193.117 295.884,193.089 295.911,192.741 297.465 C 191.775 301.767,190.018 300.481,189.736 295.264 C 189.548 291.778,189.582 291.582,190.552 290.612 C 191.607 289.557,193.561 289.234,193.654 290.100 M282.406 291.405 C 282.647 292.761,283.602 292.914,285.893 291.965 C 288.002 291.092,290.000 293.274,290.000 296.450 C 290.000 299.384,289.466 299.974,287.130 299.621 C 286.179 299.478,284.987 299.459,284.483 299.580 C 279.733 300.718,278.342 298.740,279.381 292.321 C 279.797 289.749,281.994 289.084,282.406 291.405 M212.057 293.436 C 211.276 295.148,212.126 298.614,212.985 297.224 C 213.129 296.991,213.659 296.800,214.162 296.800 C 215.368 296.800,216.400 295.610,216.400 294.219 C 216.400 293.202,216.296 293.121,215.258 293.328 C 214.577 293.465,213.793 293.330,213.315 292.995 C 212.589 292.487,212.470 292.528,212.057 293.436 M245.373 295.519 L 244.545 296.200 245.459 297.149 L 246.373 298.097 246.857 297.034 C 247.560 295.492,246.598 294.510,245.373 295.519 M258.269 295.364 C 257.975 296.130,258.409 297.642,258.845 297.372 C 259.307 297.086,259.305 295.312,258.842 295.026 C 258.645 294.904,258.387 295.056,258.269 295.364 M265.222 295.373 C 264.851 295.821,264.878 296.194,265.343 297.073 L 265.940 298.200 266.323 297.200 C 266.913 295.657,266.103 294.312,265.222 295.373 M112.663 295.470 C 112.270 295.864,112.346 297.119,112.780 297.388 C 113.431 297.790,114.065 296.152,113.455 295.645 C 113.164 295.404,112.808 295.325,112.663 295.470 M163.747 295.794 C 163.389 296.728,164.306 297.594,164.810 296.797 C 165.017 296.468,165.134 296.031,165.068 295.825 C 164.853 295.142,164.005 295.122,163.747 295.794 M181.798 295.604 C 181.492 296.098,181.930 297.600,182.380 297.600 C 182.785 297.600,183.236 295.982,182.957 295.531 C 182.678 295.079,182.100 295.115,181.798 295.604 M127.006 295.990 C 126.691 296.500,127.346 296.804,127.953 296.429 C 128.354 296.181,128.331 296.059,127.846 295.873 C 127.505 295.742,127.127 295.795,127.006 295.990 M141.078 295.856 C 140.652 296.282,141.185 296.780,141.811 296.541 C 142.132 296.417,142.296 296.155,142.174 295.958 C 141.915 295.539,141.439 295.494,141.078 295.856 M170.626 295.958 C 170.504 296.155,170.668 296.417,170.989 296.541 C 171.615 296.780,172.148 296.282,171.722 295.856 C 171.361 295.494,170.885 295.539,170.626 295.958 M251.050 295.919 C 250.645 296.575,251.558 297.465,251.974 296.819 C 252.370 296.202,252.186 295.600,251.600 295.600 C 251.406 295.600,251.158 295.744,251.050 295.919 M170.400 303.000 C 170.674 303.330,171.196 303.600,171.560 303.600 C 171.924 303.600,172.714 304.161,173.315 304.846 C 174.178 305.829,174.596 306.029,175.304 305.794 C 177.269 305.143,178.980 305.354,179.395 306.300 C 179.901 307.453,180.292 307.433,181.435 306.200 C 182.495 305.056,184.405 304.862,185.346 305.803 C 185.720 306.177,186.044 306.253,186.198 306.003 C 187.240 304.317,188.908 305.852,189.237 308.800 L 189.482 311.000 189.541 308.780 C 189.619 305.845,191.042 304.564,192.404 306.204 C 192.847 306.739,192.957 306.740,193.353 306.214 C 194.291 304.966,198.212 304.956,199.364 306.199 C 200.209 307.110,200.428 307.192,200.628 306.670 C 201.165 305.271,205.210 304.894,206.710 306.103 C 207.291 306.572,207.270 306.589,207.932 305.053 C 208.364 304.050,208.580 303.936,209.646 304.149 C 210.317 304.283,211.207 304.210,211.625 303.987 C 212.734 303.393,214.232 303.912,214.761 305.074 C 215.134 305.892,215.394 306.028,216.111 305.781 C 217.985 305.134,220.042 305.395,220.779 306.373 C 221.479 307.300,221.484 307.301,222.051 306.492 C 223.022 305.106,226.892 304.841,227.839 306.096 L 228.575 307.072 229.247 306.243 C 230.098 305.192,234.800 305.000,235.134 306.003 C 235.256 306.369,235.508 306.063,235.799 305.196 C 236.952 301.754,239.587 303.496,239.628 307.729 C 239.644 309.308,239.801 310.960,239.978 311.400 C 240.743 313.303,238.438 314.343,236.486 312.975 C 235.676 312.408,235.535 312.408,234.968 312.975 C 234.624 313.319,234.006 313.600,233.595 313.600 C 233.184 313.600,232.738 313.776,232.605 313.992 C 232.455 314.235,232.105 314.245,231.681 314.018 C 229.488 312.839,228.460 312.535,227.842 312.880 C 226.460 313.654,225.600 312.887,225.594 310.873 C 225.587 308.624,225.040 307.449,224.661 308.866 C 224.523 309.380,224.408 310.453,224.405 311.251 C 224.399 313.049,223.599 313.842,222.426 313.214 C 221.972 312.971,221.600 312.564,221.600 312.309 C 221.600 312.055,221.362 312.173,221.071 312.571 C 220.517 313.328,217.716 314.483,217.516 314.037 C 217.159 313.242,214.170 312.575,213.200 313.074 C 211.966 313.709,210.125 313.741,208.451 313.158 C 207.630 312.872,207.010 312.852,206.692 313.102 C 205.259 314.226,200.400 313.592,200.400 312.281 C 200.400 312.044,200.033 312.243,199.584 312.725 C 199.136 313.206,198.447 313.600,198.054 313.600 C 197.661 313.600,196.917 314.050,196.400 314.600 C 194.507 316.615,192.734 315.461,193.019 312.400 L 193.186 310.600 192.762 312.061 C 192.276 313.740,190.540 314.197,187.707 313.392 L 186.200 312.964 186.336 310.511 C 186.519 307.209,186.130 306.533,184.726 307.712 C 183.044 309.125,182.926 310.238,184.380 310.989 C 185.729 311.687,185.917 312.425,184.985 313.358 C 184.186 314.157,182.051 313.800,181.096 312.707 C 180.394 311.904,180.390 311.905,179.605 312.903 C 178.854 313.857,176.800 314.640,176.800 313.971 C 176.800 313.797,176.434 313.538,175.988 313.396 C 175.541 313.254,174.741 312.670,174.211 312.099 L 173.247 311.059 172.790 312.061 C 171.997 313.803,170.127 314.355,167.817 313.528 C 165.133 312.568,164.366 310.689,164.981 306.584 C 165.370 303.992,169.149 301.493,170.400 303.000 M249.436 303.259 C 249.552 303.446,250.270 303.600,251.032 303.600 C 252.121 303.600,252.514 303.814,252.873 304.600 C 253.226 305.374,253.628 305.600,254.657 305.600 C 255.740 305.600,256.031 305.785,256.236 306.600 C 256.556 307.877,256.943 307.861,257.910 306.533 C 258.898 305.178,261.879 305.005,263.228 306.225 C 264.025 306.947,264.085 306.949,264.463 306.273 C 264.783 305.701,265.344 305.572,267.331 305.616 C 268.689 305.647,272.216 305.596,275.169 305.505 C 279.854 305.360,280.626 305.426,281.227 306.027 C 281.855 306.655,281.969 306.660,282.551 306.078 C 283.049 305.580,283.428 305.528,284.294 305.841 C 284.986 306.091,286.042 306.107,287.116 305.884 C 289.803 305.327,290.123 305.818,289.919 310.185 C 289.760 313.577,289.673 313.881,288.504 315.111 C 286.510 317.210,283.200 316.891,283.200 314.600 C 283.200 312.441,281.584 312.501,278.200 314.785 C 276.536 315.908,276.100 315.813,275.417 314.180 C 274.902 312.946,274.721 312.814,274.038 313.180 C 273.179 313.639,271.102 313.724,269.725 313.354 C 268.775 313.100,268.000 311.387,268.000 309.540 C 268.000 307.567,267.345 308.301,266.965 310.700 L 266.600 313.000 265.000 313.045 C 264.120 313.070,262.798 313.288,262.063 313.528 C 260.110 314.167,258.449 313.700,257.577 312.267 L 256.837 311.050 256.443 312.086 C 255.493 314.586,254.230 313.726,253.675 310.200 C 253.326 307.985,253.293 307.929,253.248 309.474 C 253.130 313.587,251.799 314.487,249.578 311.958 C 248.106 310.282,248.033 310.248,248.017 311.224 C 247.946 315.458,245.444 314.190,245.200 309.796 C 245.019 306.547,244.913 306.162,244.100 305.805 C 243.216 305.417,242.984 304.628,243.420 303.492 C 243.667 302.849,249.054 302.641,249.436 303.259 M168.400 306.800 C 167.332 307.868,167.392 308.858,168.602 310.164 C 169.787 311.443,170.220 311.286,170.564 309.454 C 171.069 306.760,169.888 305.312,168.400 306.800 M248.900 306.328 C 248.122 306.438,248.000 306.695,248.000 308.215 C 248.000 310.153,248.673 310.333,249.579 308.638 C 250.312 307.270,249.989 306.173,248.900 306.328 M177.735 308.073 C 176.012 308.906,176.174 310.620,178.000 310.865 C 178.916 310.989,179.010 310.857,179.123 309.300 C 179.253 307.510,179.127 307.399,177.735 308.073 M203.026 309.040 C 202.714 310.282,203.347 311.213,204.034 310.526 C 204.566 309.994,204.368 308.318,203.748 308.114 C 203.499 308.032,203.174 308.449,203.026 309.040 M217.625 309.580 C 217.608 310.527,217.729 310.831,218.012 310.548 C 218.285 310.275,218.294 309.809,218.038 309.168 C 217.674 308.258,217.649 308.283,217.625 309.580 M231.600 309.633 C 231.600 310.335,231.785 310.805,232.030 310.723 C 232.267 310.645,232.447 310.450,232.430 310.290 C 232.413 310.130,232.400 309.640,232.400 309.200 C 232.400 308.760,232.220 308.400,232.000 308.400 C 231.780 308.400,231.600 308.955,231.600 309.633 " stroke="none" fill="#838485" fill-rule="evenodd"></path></g></svg>