<svg id="svg" xmlns="http://www.w3.org/2000/svg" xmlns:xlink="http://www.w3.org/1999/xlink" width="400" height="88.62275449101797" viewBox="0, 0, 400,88.62275449101797"><g id="svgg"><path id="path0" d="M191.667 2.417 C 191.553 2.554,191.248 2.667,190.989 2.667 C 190.708 2.667,190.425 2.801,190.286 3.000 C 190.157 3.183,189.853 3.349,189.609 3.369 C 189.353 3.391,189.126 3.531,189.072 3.703 C 189.020 3.866,188.868 4.000,188.734 4.000 C 188.599 4.000,188.446 4.112,188.394 4.250 C 188.341 4.387,188.209 4.500,188.100 4.500 C 187.843 4.500,186.500 5.869,186.500 6.131 C 186.500 6.242,186.387 6.333,186.250 6.333 C 186.112 6.333,186.000 6.481,186.000 6.661 C 186.000 6.880,185.919 6.959,185.757 6.896 C 185.595 6.834,185.478 6.946,185.407 7.228 C 185.349 7.462,185.195 7.740,185.067 7.847 C 184.938 7.954,184.833 8.332,184.833 8.687 C 184.833 9.222,184.776 9.333,184.500 9.333 C 184.207 9.333,184.167 9.444,184.167 10.250 C 184.167 10.935,184.106 11.167,183.928 11.167 C 183.703 11.167,183.458 11.627,183.514 11.941 C 183.528 12.019,183.531 12.665,183.520 13.375 L 183.500 14.667 182.984 14.667 C 182.609 14.667,182.445 14.757,182.382 15.000 C 182.316 15.250,182.154 15.333,181.731 15.333 C 181.340 15.333,181.167 15.410,181.167 15.583 C 181.167 15.721,181.021 15.833,180.842 15.833 C 180.663 15.833,180.307 16.020,180.050 16.247 C 179.266 16.943,179.187 17.000,179.007 17.000 C 178.911 17.000,178.833 17.141,178.833 17.314 C 178.833 17.488,178.684 17.667,178.500 17.715 C 178.317 17.763,178.167 17.917,178.167 18.056 C 178.167 18.196,178.016 18.359,177.831 18.417 C 177.646 18.476,177.536 18.590,177.586 18.670 C 177.635 18.751,177.524 18.898,177.338 18.998 C 177.152 19.097,177.000 19.345,177.000 19.549 C 177.000 19.753,176.850 20.013,176.667 20.128 C 176.454 20.261,176.333 20.517,176.333 20.835 C 176.333 21.167,176.250 21.333,176.083 21.333 C 175.810 21.333,175.709 22.737,175.971 22.899 C 176.047 22.945,177.185 22.995,178.500 23.009 C 180.692 23.033,180.914 23.063,181.168 23.376 C 181.485 23.768,182.333 23.674,182.333 23.247 C 182.333 23.111,182.397 23.000,182.476 23.000 C 182.674 23.000,183.500 22.216,183.500 22.027 C 183.500 21.942,183.652 21.832,183.838 21.784 C 184.024 21.735,184.155 21.597,184.130 21.477 C 184.104 21.356,184.247 21.233,184.446 21.202 C 184.646 21.172,184.899 21.039,185.008 20.907 C 185.135 20.754,185.523 20.667,186.072 20.667 C 186.707 20.667,187.032 20.578,187.295 20.333 C 187.625 20.026,187.883 20.000,190.660 20.000 L 193.667 20.000 193.667 19.417 C 193.667 18.861,193.639 18.833,193.083 18.833 C 192.676 18.833,192.500 18.758,192.500 18.583 C 192.500 18.444,192.352 18.333,192.167 18.333 C 191.944 18.333,191.833 18.222,191.833 18.000 C 191.833 17.815,191.722 17.667,191.583 17.667 C 191.446 17.667,191.333 17.547,191.333 17.401 C 191.333 17.255,191.183 17.096,191.000 17.048 C 190.766 16.987,190.667 16.821,190.667 16.489 C 190.667 16.229,190.560 15.957,190.429 15.883 C 190.263 15.790,190.184 15.399,190.166 14.583 C 190.114 12.123,190.153 11.667,190.417 11.667 C 190.591 11.667,190.667 11.491,190.667 11.083 C 190.667 10.611,190.730 10.500,191.000 10.500 C 191.222 10.500,191.333 10.389,191.333 10.167 C 191.333 9.981,191.444 9.833,191.583 9.833 C 191.721 9.833,191.833 9.721,191.833 9.583 C 191.833 9.446,191.967 9.333,192.130 9.333 C 192.293 9.333,192.535 9.183,192.667 9.000 C 192.799 8.817,193.066 8.667,193.261 8.667 C 193.456 8.667,193.751 8.517,193.917 8.333 C 194.367 7.835,197.299 7.835,197.750 8.333 C 197.916 8.517,198.211 8.667,198.406 8.667 C 198.600 8.667,198.868 8.817,199.000 9.000 C 199.132 9.183,199.336 9.333,199.453 9.333 C 199.571 9.333,199.667 9.446,199.667 9.583 C 199.667 9.722,199.815 9.833,200.000 9.833 C 200.222 9.833,200.333 9.944,200.333 10.167 C 200.333 10.389,200.444 10.500,200.667 10.500 C 200.937 10.500,201.000 10.611,201.000 11.083 C 201.000 11.491,201.075 11.667,201.250 11.667 C 201.459 11.667,201.500 12.019,201.500 13.833 C 201.500 15.478,201.450 15.990,201.292 15.958 C 201.168 15.934,201.063 16.130,201.032 16.441 C 200.998 16.795,200.876 16.994,200.657 17.051 C 200.479 17.097,200.333 17.250,200.333 17.390 C 200.333 17.530,200.183 17.692,200.000 17.750 C 199.817 17.808,199.667 17.963,199.667 18.095 C 199.667 18.226,199.554 18.333,199.417 18.333 C 199.279 18.333,199.167 18.446,199.167 18.583 C 199.167 18.759,198.990 18.833,198.573 18.833 C 198.003 18.833,197.981 18.855,198.031 19.375 L 198.083 19.917 201.237 19.962 C 204.161 20.004,204.407 20.032,204.621 20.337 C 204.811 20.607,205.045 20.667,205.926 20.667 C 206.770 20.667,207.000 20.720,207.000 20.917 C 207.000 21.054,207.112 21.167,207.250 21.167 C 207.387 21.167,207.650 21.317,207.833 21.500 C 208.017 21.683,208.272 21.833,208.400 21.833 C 208.529 21.833,208.712 22.058,208.808 22.333 C 208.904 22.608,209.062 22.833,209.158 22.833 C 209.254 22.833,209.333 22.990,209.333 23.182 C 209.333 23.391,209.467 23.566,209.667 23.618 C 209.917 23.684,210.000 23.846,210.000 24.269 C 210.000 24.660,210.077 24.833,210.250 24.833 C 210.460 24.833,210.500 25.192,210.500 27.063 C 210.500 28.841,210.449 29.334,210.250 29.500 C 210.112 29.614,210.000 29.961,210.000 30.270 C 210.000 30.722,209.934 30.833,209.667 30.833 C 209.444 30.833,209.333 30.944,209.333 31.167 C 209.333 31.350,209.250 31.500,209.148 31.500 C 208.892 31.500,208.173 32.204,208.170 32.458 C 208.168 32.573,208.017 32.667,207.833 32.667 C 207.648 32.667,207.500 32.778,207.500 32.917 C 207.500 33.054,207.387 33.167,207.250 33.167 C 207.112 33.167,207.000 33.305,207.000 33.474 C 207.000 33.643,206.850 33.917,206.667 34.083 C 206.359 34.362,206.333 34.597,206.333 37.109 L 206.333 39.833 207.385 39.833 C 208.207 39.833,208.516 39.760,208.795 39.500 C 209.017 39.293,209.383 39.167,209.759 39.167 C 210.224 39.167,210.385 39.090,210.452 38.833 C 210.509 38.616,210.679 38.500,210.941 38.500 C 211.163 38.500,211.387 38.388,211.440 38.250 C 211.492 38.113,211.678 38.000,211.851 38.000 C 212.134 38.000,212.244 37.822,212.186 37.458 C 212.176 37.390,212.317 37.333,212.500 37.333 C 212.683 37.333,212.833 37.230,212.833 37.103 C 212.833 36.976,212.983 36.833,213.167 36.785 C 213.350 36.737,213.500 36.586,213.500 36.450 C 213.500 36.314,213.612 36.159,213.750 36.106 C 213.887 36.054,214.000 35.896,214.000 35.755 C 214.000 35.611,214.145 35.500,214.333 35.500 C 214.603 35.500,214.667 35.389,214.667 34.917 C 214.667 34.462,214.734 34.333,214.972 34.333 C 215.140 34.333,215.290 34.221,215.306 34.083 C 215.321 33.946,215.346 33.725,215.361 33.593 C 215.376 33.460,215.470 33.366,215.569 33.384 C 215.670 33.402,215.773 33.101,215.801 32.708 C 215.843 32.136,215.915 32.000,216.176 32.000 C 216.464 32.000,216.500 31.878,216.500 30.911 C 216.500 30.098,216.563 29.799,216.750 29.727 C 216.958 29.647,217.000 29.183,217.000 26.982 C 217.000 24.739,216.962 24.333,216.750 24.333 C 216.556 24.333,216.500 24.111,216.500 23.332 C 216.500 22.536,216.431 22.271,216.167 22.045 C 215.959 21.867,215.833 21.553,215.833 21.213 C 215.833 20.890,215.755 20.684,215.643 20.708 C 215.538 20.731,215.386 20.506,215.305 20.208 C 215.223 19.909,215.047 19.667,214.912 19.667 C 214.761 19.667,214.667 19.506,214.667 19.250 C 214.667 18.944,214.578 18.833,214.333 18.833 C 214.150 18.833,214.000 18.724,214.000 18.590 C 214.000 18.312,212.768 17.000,212.507 17.000 C 212.411 17.000,212.333 16.887,212.333 16.750 C 212.333 16.611,212.185 16.500,212.000 16.500 C 211.812 16.500,211.667 16.389,211.667 16.245 C 211.667 15.993,211.437 15.843,210.935 15.770 C 210.793 15.749,210.618 15.668,210.546 15.589 C 210.475 15.511,210.529 15.507,210.667 15.581 C 210.845 15.677,210.868 15.662,210.747 15.530 C 210.654 15.428,210.324 15.325,210.014 15.302 C 209.637 15.273,209.424 15.160,209.372 14.963 C 209.317 14.753,209.131 14.667,208.731 14.667 L 208.167 14.667 208.149 13.458 C 208.139 12.794,208.115 12.137,208.094 12.000 C 208.074 11.862,208.044 11.619,208.029 11.458 C 208.013 11.298,207.887 11.167,207.750 11.167 C 207.558 11.167,207.500 10.954,207.500 10.250 C 207.500 9.444,207.460 9.333,207.167 9.333 C 206.899 9.333,206.833 9.222,206.833 8.770 C 206.833 8.461,206.721 8.114,206.583 8.000 C 206.446 7.886,206.333 7.652,206.333 7.481 C 206.333 7.310,206.183 7.076,206.000 6.961 C 205.817 6.847,205.667 6.659,205.667 6.543 C 205.667 6.428,205.554 6.333,205.417 6.333 C 205.279 6.333,205.167 6.234,205.167 6.112 C 205.167 5.856,204.549 5.263,204.125 5.113 C 203.965 5.057,203.833 4.896,203.833 4.755 C 203.833 4.615,203.729 4.500,203.601 4.500 C 203.473 4.500,203.326 4.387,203.273 4.250 C 203.220 4.112,203.033 4.000,202.857 4.000 C 202.655 4.000,202.546 3.893,202.560 3.708 C 202.577 3.502,202.439 3.400,202.089 3.360 C 201.817 3.330,201.494 3.161,201.371 2.985 C 201.235 2.791,200.951 2.667,200.645 2.667 C 200.369 2.667,200.030 2.554,199.893 2.417 C 199.521 2.045,191.975 2.045,191.667 2.417 M175.589 29.925 C 175.110 30.287,175.045 31.166,175.489 31.282 C 175.778 31.358,175.833 31.504,175.833 32.191 C 175.833 32.740,175.910 33.040,176.067 33.100 C 176.195 33.149,176.349 33.447,176.408 33.762 C 176.472 34.102,176.613 34.333,176.758 34.333 C 176.891 34.333,177.000 34.483,177.000 34.667 C 177.000 34.850,177.105 35.000,177.234 35.000 C 177.362 35.000,177.548 35.231,177.646 35.513 C 177.744 35.794,177.902 35.977,177.996 35.919 C 178.092 35.860,178.167 35.966,178.167 36.161 C 178.167 36.380,178.324 36.568,178.593 36.670 C 178.828 36.760,178.974 36.908,178.917 37.000 C 178.860 37.092,178.912 37.168,179.032 37.170 C 179.152 37.171,179.427 37.359,179.642 37.586 C 179.858 37.814,180.185 38.000,180.369 38.000 C 180.597 38.000,180.672 38.079,180.606 38.250 C 180.535 38.435,180.630 38.500,180.968 38.500 C 181.235 38.500,181.527 38.639,181.667 38.833 C 181.820 39.046,182.098 39.167,182.434 39.167 C 182.821 39.167,182.984 39.255,183.048 39.500 C 183.125 39.793,183.276 39.833,184.300 39.833 C 185.181 39.833,185.488 39.894,185.560 40.083 C 185.691 40.425,199.360 40.466,199.292 40.125 C 199.269 40.010,199.344 39.935,199.458 39.958 C 199.619 39.990,199.667 39.294,199.667 36.917 L 199.667 33.833 192.500 33.833 C 186.485 33.833,185.333 33.796,185.333 33.601 C 185.333 33.346,184.983 33.167,184.486 33.167 C 184.311 33.167,184.167 33.054,184.167 32.917 C 184.167 32.778,184.019 32.667,183.833 32.667 C 183.611 32.667,183.500 32.556,183.500 32.333 C 183.500 32.148,183.389 32.000,183.250 32.000 C 183.112 32.000,183.000 31.928,183.000 31.841 C 183.000 31.645,182.204 30.833,182.012 30.833 C 181.935 30.833,181.833 30.683,181.785 30.500 C 181.718 30.245,181.558 30.167,181.099 30.167 C 180.678 30.167,180.500 30.093,180.500 29.917 C 180.500 29.551,176.073 29.559,175.589 29.925 " stroke="none" fill="#ababab" fill-rule="evenodd"></path><path id="path1" d="M191.987 48.337 C 191.425 48.469,191.345 48.932,191.382 51.869 L 191.417 54.583 198.583 54.673 C 206.194 54.768,205.901 54.755,205.761 54.983 C 205.655 55.154,206.043 55.333,206.519 55.333 C 206.698 55.333,206.887 55.446,206.940 55.583 C 206.992 55.721,207.131 55.833,207.248 55.833 C 207.365 55.833,207.500 55.983,207.548 56.167 C 207.596 56.350,207.746 56.500,207.880 56.500 C 208.017 56.500,208.168 56.714,208.222 56.987 C 208.285 57.298,208.457 57.517,208.701 57.594 C 208.912 57.660,209.181 57.854,209.301 58.024 C 209.429 58.206,209.721 58.333,210.009 58.333 C 210.334 58.333,210.500 58.418,210.500 58.583 C 210.500 58.794,210.876 58.833,212.883 58.833 C 215.474 58.833,215.729 58.754,215.497 58.023 C 215.421 57.781,215.310 57.227,215.252 56.792 C 215.181 56.263,215.067 56.000,214.906 56.000 C 214.744 56.000,214.667 55.813,214.667 55.417 C 214.667 54.944,214.603 54.833,214.333 54.833 C 214.063 54.833,214.000 54.722,214.000 54.250 C 214.000 53.843,213.925 53.667,213.750 53.667 C 213.611 53.667,213.500 53.519,213.500 53.333 C 213.500 53.111,213.389 53.000,213.167 53.000 C 212.944 53.000,212.833 52.889,212.833 52.667 C 212.833 52.483,212.729 52.333,212.601 52.333 C 212.473 52.333,212.326 52.221,212.273 52.083 C 212.220 51.946,212.071 51.833,211.941 51.833 C 211.812 51.833,211.666 51.683,211.618 51.500 C 211.570 51.317,211.412 51.167,211.266 51.167 C 211.120 51.167,211.000 51.053,211.000 50.913 C 211.000 50.774,210.813 50.574,210.583 50.470 C 210.354 50.365,210.167 50.217,210.167 50.140 C 210.167 50.063,209.982 50.000,209.756 50.000 C 209.516 50.000,209.271 49.862,209.167 49.667 C 209.049 49.447,208.818 49.333,208.489 49.333 C 208.199 49.333,207.949 49.229,207.894 49.083 C 207.821 48.894,207.513 48.833,206.620 48.833 C 205.787 48.833,205.359 48.757,205.156 48.573 C 204.869 48.314,192.991 48.100,191.987 48.337 M182.368 49.085 C 182.250 49.222,181.911 49.333,181.614 49.333 C 181.265 49.333,180.989 49.451,180.833 49.667 C 180.701 49.850,180.492 50.000,180.369 50.000 C 180.177 50.000,179.086 50.718,178.833 51.011 C 178.787 51.064,178.619 51.156,178.458 51.215 C 178.298 51.274,178.167 51.438,178.167 51.578 C 178.167 51.718,178.103 51.833,178.026 51.833 C 177.804 51.833,177.000 52.574,177.000 52.779 C 177.000 52.881,176.887 53.008,176.750 53.060 C 176.612 53.113,176.500 53.308,176.500 53.493 C 176.500 53.679,176.350 53.924,176.167 54.039 C 175.983 54.153,175.833 54.379,175.833 54.540 C 175.833 54.701,175.733 54.833,175.611 54.833 C 175.489 54.833,175.378 54.927,175.364 55.042 C 175.268 55.845,175.092 56.372,174.896 56.448 C 174.742 56.507,174.667 56.820,174.667 57.397 C 174.667 58.053,174.587 58.328,174.333 58.545 C 173.843 58.965,173.823 63.748,174.310 64.270 C 174.512 64.486,174.649 64.947,174.702 65.585 C 174.746 66.125,174.869 66.595,174.975 66.630 C 175.080 66.666,175.167 66.832,175.167 67.000 C 175.167 67.484,175.349 67.833,175.601 67.833 C 175.749 67.833,175.833 68.018,175.833 68.339 C 175.833 68.628,175.937 68.884,176.077 68.937 C 176.211 68.989,176.366 69.174,176.422 69.349 C 176.477 69.524,176.630 69.667,176.761 69.667 C 176.893 69.667,177.000 69.793,177.000 69.948 C 177.000 70.229,178.783 72.000,179.065 72.000 C 179.147 72.000,179.309 72.131,179.427 72.292 C 179.544 72.452,179.702 72.590,179.778 72.598 C 180.110 72.632,180.491 72.880,180.411 73.009 C 180.363 73.086,180.586 73.199,180.906 73.259 C 181.226 73.319,181.575 73.473,181.681 73.601 C 181.787 73.729,182.127 73.833,182.437 73.833 L 183.000 73.833 183.000 75.423 C 183.000 76.531,183.073 77.123,183.242 77.381 C 183.375 77.584,183.504 78.041,183.527 78.396 C 183.555 78.800,183.682 79.111,183.869 79.227 C 184.049 79.340,184.167 79.614,184.167 79.920 C 184.167 80.235,184.293 80.517,184.500 80.667 C 184.683 80.799,184.833 81.043,184.833 81.209 C 184.833 81.375,184.946 81.554,185.083 81.606 C 185.221 81.659,185.333 81.807,185.333 81.934 C 185.333 82.062,185.446 82.167,185.583 82.167 C 185.721 82.167,185.833 82.243,185.833 82.337 C 185.833 82.649,187.204 84.000,187.521 84.000 C 187.696 84.000,187.833 84.117,187.833 84.266 C 187.833 84.412,187.978 84.569,188.155 84.615 C 188.332 84.662,188.517 84.805,188.567 84.933 C 188.616 85.062,188.882 85.167,189.161 85.167 C 189.498 85.167,189.667 85.250,189.667 85.415 C 189.667 85.575,189.901 85.700,190.330 85.769 C 190.695 85.827,191.079 85.978,191.184 86.104 C 191.478 86.459,198.924 86.439,199.060 86.083 C 199.113 85.946,199.365 85.831,199.620 85.827 C 200.074 85.822,201.079 85.370,200.750 85.320 C 200.658 85.305,200.804 85.247,201.074 85.189 C 201.344 85.131,201.551 85.008,201.535 84.917 C 201.518 84.825,201.748 84.665,202.044 84.562 C 202.341 84.458,202.565 84.289,202.542 84.187 C 202.519 84.084,202.623 84.000,202.773 84.000 C 203.058 84.000,203.833 83.263,203.833 82.991 C 203.833 82.904,203.948 82.833,204.089 82.833 C 204.229 82.833,204.387 82.720,204.441 82.581 C 204.494 82.442,204.759 82.092,205.029 81.803 C 205.299 81.514,205.562 81.065,205.614 80.805 C 205.666 80.546,205.803 80.333,205.919 80.333 C 206.035 80.333,206.177 80.078,206.236 79.766 C 206.295 79.454,206.453 79.156,206.588 79.105 C 206.770 79.035,206.833 78.724,206.833 77.899 C 206.833 77.032,206.898 76.740,207.125 76.573 C 207.334 76.421,207.423 76.108,207.438 75.472 C 207.475 73.860,207.482 73.833,207.821 73.833 C 207.998 73.833,208.256 73.720,208.395 73.581 C 208.534 73.442,208.877 73.283,209.157 73.227 C 209.437 73.171,209.667 73.058,209.667 72.975 C 209.667 72.893,209.854 72.754,210.083 72.667 C 210.313 72.580,210.500 72.394,210.500 72.254 C 210.500 72.114,210.622 72.000,210.772 72.000 C 211.164 72.000,212.167 71.345,212.167 71.089 C 212.167 70.970,212.317 70.833,212.500 70.785 C 212.683 70.737,212.833 70.578,212.833 70.432 C 212.833 70.286,212.899 70.167,212.980 70.167 C 213.060 70.167,213.225 69.923,213.345 69.625 C 213.465 69.327,213.662 69.023,213.782 68.950 C 213.902 68.877,214.000 68.720,214.000 68.601 C 214.000 68.482,214.150 68.249,214.333 68.083 C 214.540 67.896,214.667 67.570,214.667 67.224 C 214.667 66.830,214.743 66.667,214.927 66.667 C 215.282 66.667,215.191 65.593,214.833 65.561 C 214.696 65.549,213.515 65.530,212.208 65.519 C 210.217 65.503,209.833 65.460,209.833 65.250 C 209.833 64.942,209.270 64.921,208.970 65.218 C 208.849 65.337,208.619 65.485,208.458 65.546 C 208.298 65.607,208.167 65.762,208.167 65.892 C 208.167 66.022,208.009 66.169,207.817 66.219 C 207.624 66.270,207.513 66.386,207.569 66.477 C 207.625 66.568,207.520 66.691,207.336 66.749 C 207.151 66.808,207.000 66.963,207.000 67.095 C 207.000 67.226,206.897 67.333,206.770 67.333 C 206.644 67.333,206.452 67.440,206.343 67.571 C 206.234 67.704,205.673 67.860,205.078 67.923 C 204.490 67.986,203.923 68.142,203.818 68.269 C 203.667 68.450,202.986 68.500,200.667 68.500 C 198.170 68.500,197.673 68.541,197.488 68.764 C 197.191 69.123,197.481 69.567,198.058 69.636 C 198.306 69.666,198.500 69.794,198.500 69.928 C 198.500 70.059,198.567 70.167,198.648 70.167 C 198.986 70.167,200.333 71.697,200.333 72.080 C 200.333 72.331,200.456 72.516,200.667 72.583 C 200.976 72.682,201.000 72.836,201.000 74.750 C 201.000 76.664,200.976 76.818,200.667 76.917 C 200.442 76.988,200.333 77.169,200.333 77.470 C 200.333 77.779,200.151 78.070,199.750 78.405 C 199.429 78.672,199.167 78.991,199.167 79.112 C 199.167 79.234,199.025 79.333,198.851 79.333 C 198.678 79.333,198.492 79.446,198.440 79.583 C 198.387 79.721,198.157 79.833,197.928 79.833 C 197.682 79.833,197.439 79.970,197.333 80.167 C 197.170 80.471,196.984 80.500,195.198 80.500 C 193.447 80.500,193.211 80.465,192.955 80.167 C 192.798 79.983,192.482 79.833,192.252 79.833 C 191.991 79.833,191.833 79.739,191.833 79.583 C 191.833 79.446,191.752 79.333,191.654 79.333 C 191.440 79.333,190.409 78.292,189.864 77.527 C 189.623 77.187,189.475 76.736,189.470 76.318 C 189.465 75.951,189.357 75.547,189.230 75.421 C 188.926 75.116,188.937 74.373,189.250 74.060 C 189.387 73.922,189.500 73.523,189.500 73.173 C 189.500 72.760,189.588 72.502,189.750 72.440 C 189.887 72.387,190.000 72.216,190.000 72.061 C 190.000 71.905,190.108 71.659,190.239 71.514 C 191.050 70.619,191.532 70.167,191.672 70.167 C 191.761 70.167,191.833 70.054,191.833 69.917 C 191.833 69.682,192.127 69.587,192.642 69.658 C 192.766 69.675,192.817 69.609,192.757 69.511 C 192.696 69.413,192.726 69.333,192.823 69.333 C 192.921 69.333,193.000 69.221,193.000 69.083 C 193.000 68.946,192.921 68.833,192.823 68.833 C 192.726 68.833,192.690 68.764,192.742 68.679 C 192.799 68.587,191.514 68.519,189.544 68.509 C 186.866 68.496,186.216 68.448,186.068 68.250 C 185.963 68.111,185.505 67.975,184.998 67.933 C 184.423 67.885,184.059 67.766,183.964 67.596 C 183.883 67.452,183.651 67.333,183.449 67.333 C 183.233 67.333,182.881 67.093,182.595 66.750 C 182.328 66.429,182.009 66.167,181.888 66.167 C 181.766 66.167,181.667 66.026,181.667 65.854 C 181.667 65.682,181.554 65.447,181.417 65.333 C 181.279 65.219,181.167 65.033,181.167 64.919 C 181.167 64.805,181.015 64.518,180.829 64.282 C 180.454 63.805,180.381 58.805,180.750 58.856 C 180.842 58.868,181.001 58.587,181.105 58.231 C 181.209 57.875,181.377 57.602,181.480 57.625 C 181.583 57.648,181.667 57.549,181.667 57.405 C 181.667 57.085,182.677 55.840,182.941 55.836 C 183.254 55.831,184.167 54.948,184.167 54.650 C 184.167 54.498,184.281 54.279,184.421 54.163 C 184.632 53.988,184.667 53.527,184.629 51.434 L 184.583 48.917 183.583 48.877 C 182.865 48.848,182.523 48.907,182.368 49.085 " stroke="none" fill="#ababab" fill-rule="evenodd"></path><path id="path2" d="M208.883 24.561 C 208.901 24.661,208.729 24.764,208.500 24.791 C 207.381 24.922,207.008 25.031,207.044 25.215 C 207.068 25.337,206.836 25.437,206.458 25.468 C 206.049 25.502,205.833 25.603,205.833 25.760 C 205.833 25.892,205.683 26.000,205.500 26.000 C 205.278 26.000,205.167 26.111,205.167 26.333 C 205.167 26.635,204.656 26.794,204.227 26.625 C 204.169 26.602,204.059 26.752,203.983 26.958 C 203.906 27.165,203.729 27.333,203.589 27.333 C 203.448 27.333,203.333 27.441,203.333 27.572 C 203.333 27.703,203.182 27.859,202.998 27.917 C 202.813 27.976,202.703 28.090,202.752 28.170 C 202.802 28.251,202.691 28.398,202.505 28.498 C 202.319 28.597,202.167 28.793,202.167 28.932 C 202.167 29.072,202.110 29.152,202.042 29.111 C 201.869 29.006,201.594 29.349,201.530 29.750 C 201.501 29.933,201.370 30.167,201.238 30.268 C 201.107 30.370,201.000 30.689,201.000 30.977 C 201.000 31.389,200.929 31.500,200.667 31.500 C 200.378 31.500,200.333 31.611,200.333 32.327 C 200.333 32.979,200.264 33.192,200.007 33.330 C 199.678 33.506,199.452 47.081,199.765 47.895 C 199.879 48.193,205.512 48.313,205.962 48.027 C 206.127 47.922,206.182 46.366,206.212 41.016 C 206.247 34.685,206.273 34.123,206.542 33.926 C 206.702 33.809,206.833 33.590,206.833 33.440 C 206.833 33.290,206.899 33.167,206.979 33.167 C 207.192 33.167,208.667 31.721,208.667 31.511 C 208.667 31.413,208.750 31.333,208.852 31.333 C 209.251 31.333,209.828 30.578,209.830 30.051 C 209.832 29.722,209.953 29.435,210.146 29.300 C 210.870 28.793,210.574 24.833,209.812 24.833 C 209.721 24.833,209.693 24.758,209.750 24.667 C 209.807 24.575,209.792 24.490,209.718 24.479 C 209.103 24.382,208.854 24.406,208.883 24.561 M217.167 27.384 C 217.167 29.737,217.139 29.973,216.833 30.250 C 216.650 30.416,216.500 30.697,216.500 30.875 C 216.500 31.058,216.645 31.236,216.833 31.285 C 217.018 31.333,217.167 31.512,217.167 31.686 C 217.167 31.889,217.285 32.000,217.500 32.000 C 217.691 32.000,217.833 32.111,217.833 32.260 C 217.833 32.403,217.908 32.474,217.999 32.417 C 218.091 32.361,218.252 32.504,218.357 32.735 C 218.462 32.967,218.613 33.117,218.691 33.068 C 218.769 33.020,218.833 33.060,218.833 33.157 C 218.833 33.538,218.864 33.587,219.177 33.703 C 219.411 33.790,219.500 33.981,219.500 34.398 C 219.500 35.137,219.643 35.500,219.934 35.500 C 220.126 35.500,220.167 36.132,220.167 39.083 L 220.167 42.667 220.646 42.667 C 221.044 42.667,221.142 42.583,221.224 42.172 C 221.325 41.664,221.973 40.880,222.223 40.963 C 222.299 40.989,222.402 40.857,222.450 40.671 C 222.499 40.485,222.643 40.333,222.769 40.333 C 222.896 40.333,223.000 40.221,223.000 40.083 C 223.000 39.946,223.126 39.833,223.281 39.833 C 223.435 39.833,223.717 39.687,223.907 39.509 C 224.114 39.315,224.535 39.168,224.958 39.143 C 225.470 39.113,225.691 39.018,225.760 38.801 C 225.902 38.354,227.177 38.378,227.461 38.833 C 227.619 39.086,227.850 39.167,228.418 39.167 C 228.972 39.167,229.167 39.232,229.167 39.417 C 229.167 39.554,229.265 39.667,229.385 39.667 C 229.505 39.667,229.765 39.817,229.962 40.000 C 230.158 40.183,230.435 40.333,230.576 40.333 C 230.721 40.333,230.833 40.477,230.833 40.661 C 230.833 40.841,230.983 41.069,231.167 41.167 C 231.350 41.265,231.500 41.489,231.500 41.664 C 231.500 41.840,231.601 42.043,231.725 42.117 C 231.848 42.190,231.997 42.550,232.054 42.916 C 232.112 43.282,232.273 43.666,232.413 43.768 C 232.742 44.008,232.740 44.976,232.410 45.341 C 232.268 45.497,232.107 45.916,232.051 46.271 C 231.995 46.626,231.848 46.977,231.725 47.050 C 231.601 47.123,231.500 47.405,231.500 47.675 C 231.500 48.056,231.425 48.167,231.167 48.167 C 230.944 48.167,230.833 48.278,230.833 48.500 C 230.833 48.685,230.722 48.833,230.583 48.833 C 230.446 48.833,230.333 48.937,230.333 49.065 C 230.333 49.196,230.088 49.342,229.766 49.403 C 229.454 49.461,229.156 49.620,229.105 49.755 C 229.051 49.893,228.799 50.000,228.523 50.000 C 228.244 50.000,227.995 50.107,227.940 50.250 C 227.866 50.441,227.553 50.500,226.606 50.500 C 225.660 50.500,225.346 50.441,225.273 50.250 C 225.207 50.079,224.939 50.000,224.422 50.000 C 223.778 50.000,223.667 49.951,223.667 49.667 C 223.667 49.444,223.556 49.333,223.333 49.333 C 223.148 49.333,223.000 49.222,223.000 49.083 C 223.000 48.944,222.852 48.833,222.667 48.833 C 222.483 48.833,222.352 48.775,222.375 48.703 C 222.398 48.631,222.185 48.345,221.901 48.067 C 221.617 47.789,221.336 47.369,221.277 47.133 C 221.160 46.667,220.813 46.454,220.417 46.606 C 220.205 46.687,220.167 47.243,220.167 50.184 C 220.167 54.248,220.202 53.861,219.811 54.134 C 219.626 54.264,219.500 54.553,219.500 54.850 C 219.500 55.331,218.966 56.278,218.542 56.550 C 218.427 56.623,218.333 56.792,218.333 56.925 C 218.333 57.058,218.183 57.167,218.000 57.167 C 217.817 57.167,217.666 57.260,217.665 57.375 C 217.664 57.615,216.631 58.233,215.958 58.396 C 215.706 58.456,215.500 58.617,215.500 58.753 C 215.500 59.163,210.569 59.115,210.461 58.704 C 210.411 58.512,210.199 58.394,209.856 58.368 C 209.565 58.346,209.179 58.179,208.997 57.997 C 208.815 57.815,208.554 57.667,208.417 57.667 C 208.279 57.667,208.167 57.554,208.167 57.417 C 208.167 57.278,208.019 57.167,207.833 57.167 C 207.639 57.167,207.500 57.056,207.500 56.901 C 207.500 56.755,207.350 56.596,207.167 56.548 C 206.966 56.496,206.832 56.320,206.831 56.106 C 206.827 55.617,206.656 55.426,206.167 55.363 C 205.938 55.333,205.665 55.200,205.562 55.067 C 205.191 54.590,199.931 54.813,199.861 55.309 C 199.784 55.852,199.976 56.535,200.172 56.414 C 200.266 56.355,200.336 56.611,200.339 57.032 C 200.344 57.731,200.673 58.438,200.891 58.220 C 200.951 58.160,201.009 58.311,201.021 58.556 C 201.056 59.313,201.092 59.418,201.299 59.375 C 201.410 59.352,201.500 59.490,201.500 59.682 C 201.500 59.891,201.634 60.066,201.833 60.118 C 202.017 60.166,202.167 60.309,202.167 60.436 C 202.167 60.563,202.279 60.667,202.417 60.667 C 202.554 60.667,202.655 60.723,202.640 60.792 C 202.585 61.051,202.878 61.500,203.101 61.500 C 203.229 61.500,203.333 61.566,203.333 61.647 C 203.333 61.728,203.483 61.834,203.667 61.882 C 203.850 61.930,204.000 62.088,204.000 62.234 C 204.000 62.380,204.107 62.500,204.239 62.500 C 204.370 62.500,204.525 62.650,204.583 62.833 C 204.642 63.017,204.793 63.167,204.920 63.167 C 205.046 63.167,205.217 63.286,205.298 63.432 C 205.380 63.577,205.496 63.690,205.557 63.682 C 206.034 63.617,206.333 63.705,206.333 63.909 C 206.333 64.058,206.574 64.195,206.958 64.264 C 207.302 64.326,207.691 64.461,207.824 64.563 C 208.014 64.712,208.038 64.698,207.936 64.500 C 207.862 64.355,207.909 64.373,208.048 64.542 C 208.217 64.748,208.528 64.833,209.118 64.833 C 209.742 64.833,210.025 64.918,210.256 65.173 C 210.754 65.724,216.016 65.621,215.806 65.065 C 215.775 64.983,216.207 64.879,216.766 64.833 C 217.325 64.787,217.888 64.665,218.016 64.561 C 218.145 64.457,218.499 64.319,218.803 64.254 C 219.107 64.188,219.396 64.030,219.446 63.901 C 219.495 63.772,219.714 63.667,219.931 63.667 C 220.158 63.667,220.584 63.418,220.928 63.083 C 221.258 62.762,221.634 62.500,221.763 62.500 C 221.892 62.500,222.091 62.350,222.205 62.167 C 222.320 61.983,222.545 61.833,222.707 61.833 C 222.892 61.833,223.000 61.707,223.000 61.490 C 223.000 61.301,223.067 61.188,223.148 61.238 C 223.229 61.289,223.388 61.218,223.502 61.081 C 223.615 60.945,223.652 60.833,223.583 60.833 C 223.515 60.833,223.543 60.733,223.645 60.610 C 223.747 60.487,223.775 60.325,223.707 60.250 C 223.639 60.175,223.677 60.167,223.791 60.233 C 223.921 60.308,224.071 60.194,224.193 59.926 C 224.299 59.692,224.487 59.500,224.610 59.500 C 224.747 59.500,224.833 59.307,224.833 59.000 C 224.833 58.722,224.981 58.352,225.167 58.167 C 225.350 57.983,225.500 57.611,225.500 57.339 C 225.500 56.639,225.882 56.500,227.811 56.500 C 229.331 56.500,229.487 56.471,229.583 56.167 C 229.672 55.887,229.836 55.833,230.595 55.833 C 231.288 55.833,231.500 55.775,231.500 55.583 C 231.500 55.415,231.668 55.333,232.016 55.333 C 232.391 55.333,232.555 55.243,232.618 55.000 C 232.684 54.750,232.846 54.667,233.269 54.667 C 233.660 54.667,233.833 54.590,233.833 54.417 C 233.833 54.279,233.941 54.167,234.072 54.167 C 234.203 54.167,234.358 54.017,234.417 53.833 C 234.475 53.650,234.630 53.500,234.761 53.500 C 234.893 53.500,235.000 53.393,235.000 53.261 C 235.000 53.130,235.150 52.975,235.333 52.917 C 235.517 52.858,235.667 52.711,235.667 52.590 C 235.667 52.468,235.779 52.326,235.917 52.273 C 236.054 52.220,236.167 52.062,236.167 51.922 C 236.167 51.778,236.312 51.667,236.500 51.667 C 236.770 51.667,236.833 51.556,236.833 51.083 C 236.833 50.696,236.911 50.500,237.066 50.500 C 237.309 50.500,237.500 50.154,237.500 49.713 C 237.500 49.570,237.610 49.370,237.744 49.268 C 237.884 49.161,238.003 48.753,238.024 48.302 C 238.045 47.872,238.104 47.525,238.156 47.530 C 238.644 47.579,238.667 47.448,238.667 44.583 C 238.667 41.778,238.654 41.667,238.333 41.667 C 238.040 41.667,238.000 41.556,238.000 40.750 C 238.000 40.046,237.942 39.833,237.750 39.833 C 237.612 39.833,237.500 39.689,237.500 39.514 C 237.500 39.017,237.320 38.667,237.066 38.667 C 236.911 38.667,236.833 38.471,236.833 38.083 C 236.833 37.661,236.760 37.500,236.568 37.500 C 236.422 37.500,236.263 37.350,236.215 37.167 C 236.167 36.983,236.024 36.833,235.897 36.833 C 235.770 36.833,235.667 36.726,235.667 36.595 C 235.667 36.463,235.517 36.308,235.333 36.250 C 235.150 36.192,235.000 36.046,235.000 35.925 C 235.000 35.804,234.835 35.662,234.632 35.609 C 234.430 35.556,234.314 35.463,234.375 35.403 C 234.527 35.251,233.392 34.500,233.012 34.500 C 232.843 34.500,232.666 34.350,232.618 34.167 C 232.551 33.910,232.391 33.833,231.922 33.833 C 231.588 33.833,231.355 33.767,231.405 33.686 C 231.495 33.540,231.202 33.208,230.958 33.181 C 230.890 33.173,230.533 33.167,230.167 33.167 C 229.685 33.167,229.500 33.097,229.500 32.917 C 229.500 32.708,229.167 32.667,227.500 32.667 C 225.510 32.667,225.500 32.665,225.500 32.273 C 225.500 31.776,224.595 29.961,224.429 30.126 C 224.361 30.194,224.321 30.175,224.339 30.083 C 224.358 29.992,224.355 29.860,224.332 29.792 C 224.264 29.581,224.209 29.342,224.188 29.157 C 224.176 29.060,224.095 29.024,224.008 29.078 C 223.921 29.132,223.769 29.024,223.669 28.838 C 223.570 28.652,223.378 28.500,223.244 28.500 C 223.110 28.500,223.000 28.350,223.000 28.167 C 223.000 27.983,222.896 27.833,222.769 27.833 C 222.643 27.833,222.500 27.683,222.452 27.500 C 222.404 27.317,222.245 27.167,222.099 27.167 C 221.953 27.167,221.833 27.054,221.833 26.917 C 221.833 26.778,221.685 26.667,221.500 26.667 C 221.317 26.667,221.167 26.601,221.167 26.520 C 221.167 26.440,220.923 26.275,220.625 26.155 C 220.327 26.035,220.023 25.838,219.950 25.718 C 219.877 25.598,219.614 25.500,219.365 25.500 C 219.111 25.500,218.832 25.369,218.726 25.200 C 218.604 25.005,218.301 24.887,217.853 24.860 L 217.167 24.820 217.167 27.384 " stroke="none" fill="#ababab" fill-rule="evenodd"></path><path id="path3" d="M175.455 23.186 C 175.292 23.278,175.203 23.424,175.256 23.510 C 175.313 23.602,174.899 23.667,174.261 23.667 C 173.350 23.667,173.135 23.722,172.961 24.000 C 172.822 24.223,172.573 24.333,172.210 24.333 C 171.838 24.333,171.667 24.412,171.667 24.583 C 171.667 24.737,171.511 24.833,171.264 24.833 C 170.717 24.833,170.315 25.002,170.428 25.185 C 170.520 25.334,170.249 25.493,169.786 25.561 C 169.655 25.580,169.418 25.724,169.262 25.881 C 169.105 26.038,168.907 26.167,168.821 26.167 C 168.736 26.167,168.667 26.279,168.667 26.417 C 168.667 26.556,168.519 26.667,168.333 26.667 C 168.108 26.667,168.000 26.778,168.000 27.010 C 168.000 27.199,167.933 27.312,167.852 27.262 C 167.680 27.155,167.290 27.568,167.431 27.708 C 167.483 27.760,167.369 27.852,167.179 27.913 C 166.933 27.991,166.833 28.163,166.833 28.511 C 166.833 28.889,166.758 29.000,166.500 29.000 C 166.296 29.000,166.165 29.113,166.161 29.292 C 166.158 29.452,166.046 29.729,165.911 29.907 C 165.777 30.085,165.667 30.516,165.667 30.865 C 165.667 31.324,165.596 31.500,165.411 31.500 C 165.271 31.500,165.113 31.613,165.060 31.750 C 164.984 31.949,164.629 32.000,163.327 32.000 C 162.118 32.000,161.627 32.063,161.448 32.242 C 161.315 32.375,161.160 32.438,161.103 32.381 C 161.046 32.324,161.000 32.365,161.000 32.472 C 161.000 32.585,160.744 32.667,160.393 32.667 C 160.018 32.667,159.696 32.778,159.548 32.958 C 159.416 33.119,159.353 33.161,159.407 33.053 C 159.516 32.836,158.591 33.236,158.167 33.591 C 158.029 33.705,157.767 33.830,157.583 33.868 C 157.400 33.906,157.271 34.032,157.296 34.149 C 157.322 34.266,157.191 34.402,157.005 34.450 C 156.819 34.499,156.667 34.643,156.667 34.769 C 156.667 34.896,156.517 35.000,156.333 35.000 C 156.031 35.000,155.919 35.178,155.984 35.554 C 155.998 35.630,155.926 35.641,155.826 35.579 C 155.723 35.515,155.604 35.618,155.553 35.817 C 155.501 36.016,155.326 36.167,155.147 36.167 C 154.944 36.167,154.833 36.285,154.833 36.500 C 154.833 36.685,154.722 36.833,154.583 36.833 C 154.446 36.833,154.333 36.903,154.333 36.988 C 154.333 37.073,154.202 37.274,154.042 37.435 C 153.739 37.737,153.722 37.780,153.688 38.333 C 153.676 38.517,153.562 38.667,153.434 38.667 C 153.143 38.667,153.000 39.030,153.000 39.769 C 153.000 40.126,152.905 40.380,152.750 40.440 C 152.539 40.521,152.500 41.076,152.500 44.018 C 152.500 47.002,152.536 47.500,152.750 47.500 C 152.925 47.500,153.000 47.677,153.000 48.094 C 153.000 48.772,153.273 49.390,153.508 49.245 C 153.595 49.191,153.667 49.339,153.667 49.573 C 153.667 49.808,153.754 50.000,153.861 50.000 C 153.968 50.000,154.010 50.045,153.954 50.101 C 153.855 50.201,153.974 50.386,154.542 51.012 C 154.702 51.189,154.833 51.408,154.833 51.500 C 154.833 51.592,154.983 51.667,155.167 51.667 C 155.389 51.667,155.500 51.778,155.500 52.000 C 155.500 52.183,155.604 52.333,155.731 52.333 C 155.857 52.333,156.000 52.483,156.048 52.667 C 156.096 52.850,156.255 53.000,156.401 53.000 C 156.547 53.000,156.667 53.112,156.667 53.250 C 156.667 53.391,156.816 53.500,157.010 53.500 C 157.199 53.500,157.312 53.567,157.262 53.648 C 157.211 53.729,157.263 53.873,157.377 53.967 C 157.599 54.152,157.659 54.167,158.167 54.167 C 158.352 54.167,158.500 54.278,158.500 54.417 C 158.500 54.591,158.676 54.667,159.083 54.667 C 159.556 54.667,159.667 54.730,159.667 55.000 C 159.667 55.288,159.778 55.333,160.480 55.333 C 160.999 55.333,161.367 55.424,161.500 55.583 C 161.661 55.778,162.112 55.833,163.520 55.833 C 164.882 55.833,165.323 55.885,165.292 56.042 C 165.269 56.156,165.344 56.231,165.458 56.208 C 165.600 56.180,165.667 56.406,165.667 56.917 C 165.667 57.472,165.731 57.667,165.917 57.667 C 166.054 57.667,166.167 57.811,166.167 57.986 C 166.167 58.483,166.346 58.833,166.601 58.833 C 166.729 58.833,166.833 58.983,166.833 59.167 C 166.833 59.350,166.905 59.500,166.992 59.500 C 167.199 59.500,168.000 60.301,168.000 60.508 C 168.000 60.595,168.150 60.667,168.333 60.667 C 168.556 60.667,168.667 60.778,168.667 61.000 C 168.667 61.183,168.771 61.333,168.899 61.333 C 169.027 61.333,169.174 61.446,169.227 61.583 C 169.280 61.721,169.433 61.833,169.567 61.833 C 169.701 61.833,169.858 61.982,169.916 62.163 C 169.973 62.345,170.072 62.486,170.135 62.477 C 170.593 62.412,170.973 62.545,171.038 62.795 C 171.085 62.975,171.298 63.105,171.587 63.129 C 171.846 63.150,172.182 63.280,172.334 63.417 C 172.708 63.755,173.767 63.746,173.899 63.403 C 173.954 63.258,174.000 61.941,174.000 60.477 C 174.000 58.915,174.063 57.853,174.152 57.908 C 174.351 58.031,174.285 57.597,174.060 57.308 C 173.964 57.185,173.838 56.951,173.781 56.790 C 173.723 56.629,173.618 56.506,173.546 56.518 C 173.176 56.579,172.985 56.454,172.747 55.995 C 172.603 55.717,172.422 55.529,172.344 55.577 C 172.266 55.625,172.155 55.477,172.098 55.249 C 172.041 55.020,171.883 54.833,171.747 54.833 C 171.577 54.833,171.500 54.656,171.500 54.268 C 171.500 53.919,171.404 53.666,171.250 53.606 C 171.038 53.525,171.000 52.952,170.997 49.880 C 170.995 46.141,170.969 45.954,170.434 45.862 C 170.069 45.799,169.840 46.091,169.836 46.625 C 169.834 46.831,169.748 47.000,169.644 47.000 C 169.422 47.000,168.667 47.779,168.667 48.009 C 168.667 48.096,168.517 48.167,168.333 48.167 C 168.111 48.167,168.000 48.278,168.000 48.500 C 168.000 48.742,167.889 48.833,167.595 48.833 C 167.373 48.833,167.078 48.946,166.940 49.083 C 166.803 49.221,166.441 49.336,166.137 49.339 C 165.571 49.344,164.919 49.696,165.114 49.891 C 165.173 49.951,164.890 50.000,164.485 50.000 C 163.927 50.000,163.696 49.918,163.539 49.667 C 163.387 49.423,163.150 49.333,162.660 49.333 C 162.218 49.333,161.957 49.248,161.894 49.083 C 161.839 48.941,161.590 48.833,161.316 48.833 C 160.944 48.833,160.833 48.757,160.833 48.500 C 160.833 48.278,160.722 48.167,160.500 48.167 C 160.278 48.167,160.167 48.056,160.167 47.833 C 160.167 47.611,160.056 47.500,159.833 47.500 C 159.588 47.500,159.500 47.389,159.500 47.078 C 159.500 46.846,159.387 46.613,159.250 46.560 C 159.094 46.500,159.000 46.246,159.000 45.883 C 159.000 45.442,158.920 45.281,158.667 45.215 C 158.330 45.127,158.125 42.634,158.458 42.686 C 158.890 42.755,159.000 42.614,159.000 41.990 C 159.000 41.618,159.067 41.355,159.149 41.406 C 159.320 41.511,159.500 41.125,159.500 40.653 C 159.500 40.444,159.616 40.333,159.833 40.333 C 160.017 40.333,160.167 40.226,160.167 40.095 C 160.167 39.963,160.317 39.808,160.500 39.750 C 160.683 39.692,160.833 39.537,160.833 39.405 C 160.833 39.274,160.946 39.157,161.083 39.146 C 161.221 39.134,161.414 39.116,161.513 39.104 C 161.612 39.093,161.790 38.952,161.907 38.792 C 162.024 38.631,162.320 38.500,162.565 38.500 C 162.810 38.500,163.054 38.387,163.106 38.250 C 163.180 38.059,163.493 38.000,164.434 38.000 C 165.419 38.000,165.667 38.050,165.667 38.250 C 165.667 38.435,165.860 38.500,166.411 38.500 C 166.984 38.500,167.196 38.576,167.333 38.833 C 167.431 39.017,167.622 39.167,167.756 39.167 C 167.890 39.167,168.000 39.279,168.000 39.417 C 168.000 39.554,168.085 39.667,168.189 39.667 C 168.413 39.667,169.073 40.349,169.220 40.732 C 169.277 40.879,169.438 41.000,169.578 41.000 C 169.801 41.000,169.918 41.305,169.852 41.713 C 169.804 42.000,170.366 42.022,170.673 41.744 C 170.979 41.467,171.000 41.214,171.000 37.808 C 171.000 35.056,171.049 34.177,171.201 34.208 C 171.416 34.253,171.447 34.148,171.479 33.269 C 171.494 32.856,171.589 32.682,171.833 32.618 C 172.017 32.570,172.167 32.420,172.167 32.285 C 172.167 32.150,172.319 31.999,172.505 31.950 C 172.691 31.902,172.822 31.799,172.796 31.723 C 172.745 31.567,173.275 31.020,173.765 30.724 C 173.940 30.618,174.070 30.465,174.053 30.383 C 174.037 30.302,174.262 30.219,174.553 30.198 C 174.845 30.177,175.167 30.049,175.268 29.913 C 175.519 29.580,180.691 29.543,180.625 29.875 C 180.599 30.005,180.817 30.103,181.208 30.135 C 181.552 30.164,181.833 30.254,181.833 30.335 C 181.833 30.560,183.274 31.504,183.409 31.368 C 183.474 31.303,183.509 31.325,183.487 31.417 C 183.406 31.742,183.706 32.500,183.915 32.500 C 184.032 32.500,184.167 32.650,184.215 32.833 C 184.275 33.064,184.442 33.167,184.758 33.167 C 185.008 33.167,185.309 33.298,185.426 33.458 C 185.681 33.807,190.667 34.016,190.667 33.679 C 190.667 33.580,190.757 33.519,190.868 33.542 C 190.979 33.565,191.081 33.417,191.095 33.213 C 191.109 33.009,191.064 32.877,190.994 32.920 C 190.801 33.040,190.667 32.551,190.667 31.724 C 190.667 31.282,190.565 30.874,190.417 30.726 C 190.279 30.589,190.167 30.312,190.167 30.112 C 190.167 29.911,190.017 29.653,189.833 29.539 C 189.650 29.424,189.500 29.185,189.500 29.007 C 189.500 28.829,189.401 28.623,189.279 28.550 C 189.158 28.477,189.010 28.285,188.951 28.125 C 188.892 27.965,188.729 27.833,188.589 27.833 C 188.448 27.833,188.333 27.714,188.333 27.568 C 188.333 27.422,188.183 27.263,188.000 27.215 C 187.817 27.167,187.667 27.024,187.667 26.897 C 187.667 26.770,187.554 26.667,187.417 26.667 C 187.279 26.667,187.167 26.559,187.167 26.428 C 187.167 26.297,187.024 26.144,186.849 26.088 C 186.674 26.033,186.489 25.878,186.437 25.744 C 186.386 25.610,186.191 25.500,186.005 25.500 C 185.819 25.500,185.685 25.406,185.708 25.292 C 185.731 25.177,185.656 25.102,185.542 25.125 C 185.427 25.148,185.333 25.092,185.333 25.000 C 185.333 24.908,185.181 24.833,184.995 24.833 C 184.809 24.833,184.613 24.721,184.560 24.583 C 184.502 24.432,184.251 24.333,183.925 24.333 C 183.597 24.333,183.267 24.203,183.083 24.000 C 182.855 23.748,182.570 23.667,181.916 23.667 C 181.307 23.667,180.944 23.573,180.688 23.352 C 180.275 22.994,176.030 22.859,175.455 23.186 M185.042 40.444 C 184.880 40.509,184.833 42.044,184.833 47.328 C 184.833 53.988,184.826 54.130,184.500 54.215 C 184.257 54.278,184.167 54.442,184.167 54.818 C 184.167 55.154,184.084 55.333,183.928 55.333 C 183.797 55.333,183.642 55.483,183.583 55.667 C 183.525 55.850,183.370 56.000,183.239 56.000 C 183.107 56.000,183.000 56.107,183.000 56.238 C 183.000 56.370,182.831 56.501,182.625 56.530 C 182.375 56.566,182.266 56.680,182.299 56.875 C 182.327 57.040,182.244 57.167,182.108 57.167 C 181.977 57.167,181.826 57.279,181.773 57.417 C 181.720 57.554,181.562 57.667,181.422 57.667 C 181.196 57.667,181.057 58.388,181.208 58.773 C 181.231 58.831,181.090 58.938,180.894 59.010 C 180.560 59.134,180.536 59.265,180.511 61.086 C 180.476 63.645,180.617 64.080,181.490 64.094 C 181.852 64.100,182.115 64.052,182.075 63.987 C 181.975 63.824,182.430 63.667,183.000 63.667 C 183.584 63.667,184.025 63.508,183.918 63.336 C 183.843 63.214,184.764 62.926,185.054 62.982 C 185.130 62.996,185.145 62.934,185.089 62.842 C 185.033 62.751,185.174 62.629,185.404 62.572 C 185.634 62.514,185.867 62.324,185.922 62.150 C 185.977 61.976,186.144 61.833,186.293 61.833 C 186.660 61.833,187.664 61.133,187.666 60.875 C 187.666 60.760,187.774 60.667,187.905 60.667 C 188.037 60.667,188.192 60.517,188.250 60.333 C 188.308 60.150,188.430 60.000,188.520 60.000 C 188.610 60.000,188.793 59.737,188.927 59.417 C 189.061 59.096,189.236 58.833,189.316 58.833 C 189.396 58.833,189.502 58.676,189.553 58.483 C 189.603 58.291,189.716 58.178,189.805 58.232 C 189.994 58.349,190.167 57.963,190.167 57.421 C 190.167 57.209,190.279 56.992,190.417 56.940 C 190.583 56.876,190.667 56.613,190.667 56.154 C 190.667 55.685,190.776 55.349,191.008 55.107 C 191.427 54.670,191.535 40.731,191.122 40.469 C 190.900 40.328,185.385 40.305,185.042 40.444 " stroke="none" fill="#ababab" fill-rule="evenodd"></path><path id="path4" d="M180.754 23.160 C 180.613 23.389,180.738 23.560,180.984 23.476 C 181.085 23.441,181.098 23.323,181.015 23.191 C 180.911 23.023,180.844 23.015,180.754 23.160 M175.272 29.921 C 175.192 30.128,175.235 30.142,175.504 29.998 C 175.890 29.791,175.927 29.667,175.601 29.667 C 175.473 29.667,175.325 29.781,175.272 29.921 M216.611 29.778 C 216.285 30.104,216.496 30.555,216.833 30.250 C 217.017 30.084,217.167 29.885,217.167 29.808 C 217.167 29.640,216.770 29.619,216.611 29.778 M88.560 31.750 C 88.506 31.892,88.257 32.000,87.984 32.000 C 87.683 32.000,87.425 32.125,87.295 32.333 C 87.180 32.517,87.021 32.667,86.942 32.667 C 86.717 32.667,86.006 33.392,86.003 33.625 C 86.001 33.740,85.896 33.833,85.768 33.833 C 85.516 33.833,85.333 34.182,85.333 34.662 C 85.333 34.828,85.221 35.008,85.083 35.060 C 84.929 35.119,84.833 35.372,84.833 35.719 C 84.833 36.070,84.708 36.395,84.500 36.583 C 84.315 36.750,84.167 37.097,84.167 37.359 C 84.167 37.620,84.017 37.983,83.833 38.167 C 83.611 38.389,83.500 38.722,83.500 39.167 C 83.500 39.648,83.431 39.833,83.250 39.833 C 83.071 39.833,83.000 40.016,83.000 40.474 C 83.000 40.903,82.890 41.215,82.667 41.417 C 82.460 41.604,82.333 41.930,82.333 42.276 C 82.333 42.660,82.256 42.833,82.083 42.833 C 81.891 42.833,81.833 43.046,81.833 43.750 C 81.833 44.556,81.793 44.667,81.500 44.667 C 81.230 44.667,81.167 44.778,81.167 45.250 C 81.167 45.611,81.040 45.960,80.833 46.167 C 80.627 46.373,80.500 46.722,80.500 47.083 C 80.500 47.491,80.425 47.667,80.250 47.667 C 80.062 47.667,80.000 47.868,80.000 48.481 C 80.000 49.154,79.943 49.309,79.667 49.382 C 79.414 49.448,79.333 49.609,79.333 50.047 C 79.333 50.366,79.221 50.719,79.083 50.833 C 78.940 50.952,78.833 51.316,78.833 51.687 C 78.833 52.128,78.760 52.333,78.601 52.333 C 78.303 52.333,78.167 52.699,78.167 53.494 C 78.167 53.988,78.093 54.147,77.833 54.215 C 77.580 54.281,77.500 54.442,77.500 54.887 C 77.500 55.209,77.418 55.500,77.317 55.533 C 77.216 55.567,77.094 55.948,77.045 56.380 C 76.992 56.852,76.873 57.167,76.748 57.167 C 76.505 57.167,76.339 57.687,76.336 58.458 C 76.334 58.828,76.254 59.000,76.083 59.000 C 75.912 59.000,75.833 59.172,75.833 59.546 C 75.833 59.886,75.707 60.200,75.500 60.378 C 75.270 60.575,75.167 60.870,75.167 61.332 C 75.167 61.815,75.097 62.000,74.917 62.000 C 74.707 62.000,74.667 62.362,74.667 64.255 C 74.667 66.106,74.711 66.528,74.917 66.606 C 75.054 66.659,75.167 66.814,75.167 66.950 C 75.167 67.086,75.317 67.237,75.500 67.285 C 75.683 67.333,75.833 67.476,75.833 67.603 C 75.833 67.754,76.028 67.833,76.397 67.833 C 76.821 67.833,76.983 67.916,77.048 68.167 C 77.128 68.471,77.276 68.500,78.750 68.500 C 80.224 68.500,80.372 68.471,80.452 68.167 C 80.517 67.916,80.679 67.833,81.103 67.833 C 81.481 67.833,81.667 67.755,81.667 67.595 C 81.667 67.463,81.817 67.308,82.000 67.250 C 82.248 67.171,82.333 66.998,82.333 66.572 C 82.333 66.111,82.398 66.000,82.667 66.000 C 82.943 66.000,83.000 65.889,83.000 65.354 C 83.000 64.983,83.106 64.619,83.250 64.500 C 83.399 64.376,83.500 64.012,83.500 63.600 C 83.500 63.098,83.592 62.841,83.833 62.667 C 84.050 62.510,84.167 62.235,84.167 61.880 L 84.167 61.333 90.750 61.333 L 97.333 61.333 97.333 61.917 C 97.333 62.278,97.460 62.627,97.667 62.833 C 97.902 63.069,98.000 63.389,98.000 63.922 C 98.000 64.439,98.079 64.707,98.250 64.773 C 98.401 64.831,98.500 65.083,98.500 65.409 C 98.500 65.737,98.631 66.067,98.833 66.250 C 99.017 66.416,99.168 66.671,99.170 66.817 C 99.174 67.250,99.917 67.833,100.462 67.833 C 100.821 67.833,100.986 67.927,101.048 68.167 C 101.127 68.469,101.276 68.500,102.650 68.500 C 103.983 68.500,104.189 68.460,104.372 68.167 C 104.511 67.944,104.761 67.833,105.123 67.833 C 105.484 67.833,105.667 67.753,105.667 67.595 C 105.667 67.463,105.817 67.308,106.000 67.250 C 106.248 67.171,106.333 66.998,106.333 66.572 C 106.333 66.175,106.410 66.000,106.583 66.000 C 106.786 66.000,106.833 65.734,106.833 64.604 C 106.833 63.566,106.769 63.154,106.583 63.000 C 106.431 62.873,106.333 62.508,106.333 62.063 C 106.333 61.444,106.283 61.333,106.000 61.333 C 105.711 61.333,105.667 61.222,105.667 60.495 C 105.667 59.903,105.593 59.628,105.417 59.560 C 105.279 59.508,105.166 59.266,105.164 59.024 C 105.161 58.327,104.981 57.833,104.731 57.833 C 104.573 57.833,104.500 57.623,104.500 57.167 C 104.500 56.722,104.389 56.389,104.167 56.167 C 103.981 55.981,103.833 55.611,103.833 55.333 C 103.833 55.000,103.750 54.833,103.583 54.833 C 103.391 54.833,103.333 54.620,103.333 53.917 C 103.333 53.111,103.293 53.000,103.000 53.000 C 102.711 53.000,102.667 52.889,102.667 52.161 C 102.667 51.570,102.593 51.295,102.417 51.227 C 102.267 51.170,102.167 50.919,102.167 50.602 C 102.167 50.265,102.046 49.987,101.833 49.833 C 101.589 49.657,101.500 49.402,101.500 48.880 C 101.500 48.278,101.448 48.167,101.167 48.167 C 100.879 48.167,100.833 48.056,100.833 47.351 C 100.833 46.780,100.758 46.507,100.583 46.440 C 100.428 46.380,100.333 46.126,100.333 45.769 C 100.333 45.030,100.190 44.667,99.899 44.667 C 99.740 44.667,99.667 44.461,99.667 44.018 C 99.667 43.595,99.580 43.336,99.417 43.273 C 99.250 43.209,99.167 42.947,99.167 42.490 C 99.167 41.942,99.099 41.784,98.833 41.715 C 98.556 41.643,98.500 41.488,98.500 40.798 C 98.500 40.109,98.444 39.954,98.167 39.882 C 97.897 39.811,97.833 39.654,97.833 39.059 C 97.833 38.558,97.753 38.292,97.583 38.227 C 97.420 38.164,97.333 37.905,97.333 37.482 C 97.333 36.944,97.276 36.833,97.000 36.833 C 96.711 36.833,96.667 36.722,96.667 35.995 C 96.667 35.429,96.591 35.127,96.433 35.067 C 96.305 35.017,96.151 34.720,96.092 34.405 C 96.028 34.065,95.887 33.833,95.742 33.833 C 95.609 33.833,95.500 33.714,95.500 33.568 C 95.500 33.422,95.350 33.263,95.167 33.215 C 94.983 33.167,94.833 33.024,94.833 32.897 C 94.833 32.770,94.726 32.667,94.595 32.667 C 94.463 32.667,94.308 32.517,94.250 32.333 C 94.171 32.085,93.998 32.000,93.572 32.000 C 93.175 32.000,93.000 31.924,93.000 31.750 C 93.000 31.541,92.648 31.500,90.828 31.500 C 89.051 31.500,88.639 31.545,88.560 31.750 M381.894 31.750 C 381.825 31.929,381.544 32.000,380.899 32.000 C 380.111 32.000,380.000 32.041,380.000 32.333 C 380.000 32.618,379.889 32.667,379.245 32.667 C 378.727 32.667,378.459 32.745,378.394 32.917 C 378.341 33.054,378.149 33.167,377.967 33.167 C 377.776 33.167,377.599 33.308,377.548 33.500 C 377.487 33.734,377.321 33.833,376.992 33.833 C 376.669 33.833,376.489 33.937,376.417 34.167 C 376.358 34.350,376.203 34.500,376.072 34.500 C 375.941 34.500,375.833 34.612,375.833 34.750 C 375.833 34.889,375.685 35.000,375.500 35.000 C 375.278 35.000,375.167 35.111,375.167 35.333 C 375.167 35.517,375.063 35.667,374.936 35.667 C 374.809 35.667,374.666 35.817,374.618 36.000 C 374.570 36.183,374.412 36.333,374.266 36.333 C 374.084 36.333,374.000 36.485,374.000 36.814 C 374.000 37.154,373.903 37.320,373.667 37.382 C 373.411 37.448,373.333 37.609,373.333 38.068 C 373.333 38.489,373.259 38.667,373.083 38.667 C 372.890 38.667,372.833 38.885,372.833 39.630 C 372.833 40.402,372.767 40.641,372.500 40.833 C 372.198 41.051,372.167 41.265,372.167 43.120 C 372.167 44.944,372.203 45.203,372.500 45.500 C 372.735 45.735,372.833 46.056,372.833 46.589 C 372.833 47.106,372.912 47.374,373.083 47.440 C 373.221 47.492,373.333 47.629,373.333 47.742 C 373.333 47.855,373.483 48.084,373.667 48.250 C 373.850 48.416,374.000 48.697,374.000 48.875 C 374.000 49.058,374.145 49.236,374.333 49.285 C 374.517 49.333,374.667 49.471,374.667 49.592 C 374.667 49.712,374.817 49.858,375.000 49.917 C 375.183 49.975,375.333 50.086,375.333 50.165 C 375.333 50.243,375.551 50.355,375.816 50.413 C 376.097 50.475,376.335 50.655,376.384 50.843 C 376.444 51.072,376.614 51.167,376.967 51.167 C 377.255 51.167,377.505 51.272,377.560 51.417 C 377.620 51.571,377.873 51.667,378.225 51.667 C 378.654 51.667,378.816 51.749,378.882 52.000 C 378.954 52.278,379.109 52.333,379.818 52.333 C 380.429 52.333,380.667 52.398,380.667 52.564 C 380.667 52.834,381.171 52.995,382.030 52.998 C 382.367 52.999,382.755 53.112,382.893 53.250 C 383.049 53.406,383.459 53.500,383.988 53.500 C 384.599 53.500,384.833 53.564,384.833 53.732 C 384.833 54.021,385.195 54.167,385.912 54.167 C 386.249 54.167,386.502 54.264,386.560 54.417 C 386.620 54.574,386.875 54.667,387.245 54.667 C 387.722 54.667,387.833 54.730,387.833 55.000 C 387.833 55.185,387.944 55.333,388.083 55.333 C 388.221 55.333,388.333 55.446,388.333 55.583 C 388.333 55.722,388.481 55.833,388.667 55.833 C 388.962 55.833,389.000 55.944,389.000 56.814 C 389.000 57.654,388.952 57.807,388.667 57.882 C 388.424 57.945,388.333 58.109,388.333 58.484 C 388.333 58.832,388.252 59.000,388.083 59.000 C 387.946 59.000,387.833 59.112,387.833 59.250 C 387.833 59.389,387.685 59.500,387.500 59.500 C 387.317 59.500,387.017 59.650,386.833 59.833 C 386.532 60.135,386.278 60.167,384.167 60.167 C 382.056 60.167,381.802 60.135,381.500 59.833 C 381.276 59.609,380.944 59.500,380.488 59.500 C 380.107 59.500,379.700 59.390,379.560 59.250 C 379.400 59.091,378.989 59.000,378.424 59.000 C 377.679 59.000,377.525 58.947,377.452 58.667 C 377.305 58.107,374.667 58.203,374.667 58.768 C 374.667 58.921,374.473 59.000,374.101 59.000 C 373.752 59.000,373.499 59.096,373.440 59.250 C 373.387 59.387,373.229 59.500,373.089 59.500 C 372.910 59.500,372.833 59.669,372.833 60.064 C 372.833 60.488,372.750 60.649,372.500 60.715 C 372.194 60.795,372.167 60.942,372.167 62.483 C 372.167 63.983,372.202 64.186,372.500 64.372 C 372.703 64.498,372.833 64.761,372.833 65.040 C 372.833 65.338,372.922 65.500,373.083 65.500 C 373.221 65.500,373.333 65.612,373.333 65.750 C 373.333 65.887,373.475 66.000,373.647 66.000 C 373.821 66.000,374.000 66.149,374.048 66.333 C 374.112 66.576,374.276 66.667,374.651 66.667 C 374.981 66.667,375.167 66.750,375.167 66.899 C 375.167 67.177,375.525 67.333,376.160 67.333 C 376.416 67.333,376.719 67.446,376.833 67.583 C 376.971 67.749,377.344 67.833,377.944 67.833 C 378.617 67.833,378.939 67.918,379.205 68.167 C 379.545 68.483,379.793 68.500,384.167 68.500 C 388.540 68.500,388.788 68.483,389.128 68.167 C 389.341 67.968,389.716 67.833,390.056 67.833 C 390.369 67.833,390.711 67.730,390.816 67.604 C 390.921 67.478,391.301 67.328,391.662 67.270 C 392.023 67.212,392.377 67.066,392.450 66.945 C 392.524 66.824,392.715 66.677,392.875 66.618 C 393.035 66.559,393.167 66.396,393.167 66.255 C 393.167 66.085,393.327 66.000,393.649 66.000 C 393.924 66.000,394.172 65.893,394.227 65.750 C 394.280 65.612,394.438 65.500,394.578 65.500 C 394.722 65.500,394.833 65.355,394.833 65.167 C 394.833 64.944,394.944 64.833,395.167 64.833 C 395.389 64.833,395.500 64.722,395.500 64.500 C 395.500 64.317,395.607 64.167,395.737 64.167 C 395.867 64.167,396.023 63.942,396.083 63.667 C 396.144 63.392,396.300 63.167,396.430 63.167 C 396.571 63.167,396.667 62.999,396.667 62.750 C 396.667 62.505,396.762 62.333,396.899 62.333 C 397.190 62.333,397.333 61.971,397.333 61.236 C 397.333 60.841,397.410 60.667,397.583 60.667 C 397.799 60.667,397.833 60.104,397.833 56.601 C 397.833 53.141,397.796 52.521,397.583 52.440 C 397.435 52.383,397.333 52.132,397.333 51.823 C 397.333 51.442,397.244 51.279,397.000 51.215 C 396.817 51.167,396.667 50.998,396.667 50.840 C 396.667 50.681,396.517 50.416,396.333 50.250 C 396.150 50.084,395.999 49.866,395.997 49.766 C 395.994 49.545,395.266 48.833,395.044 48.833 C 394.957 48.833,394.749 48.683,394.583 48.500 C 394.417 48.317,394.152 48.167,393.994 48.167 C 393.835 48.167,393.666 48.017,393.618 47.833 C 393.555 47.591,393.391 47.500,393.016 47.500 C 392.668 47.500,392.500 47.418,392.500 47.250 C 392.500 47.077,392.326 47.000,391.936 47.000 C 391.512 47.000,391.351 46.917,391.285 46.667 C 391.218 46.410,391.058 46.333,390.587 46.333 C 390.251 46.333,389.864 46.221,389.726 46.083 C 389.565 45.923,389.153 45.833,388.571 45.833 C 387.778 45.833,387.667 45.792,387.667 45.500 C 387.667 45.207,387.556 45.167,386.750 45.167 C 386.046 45.167,385.833 45.109,385.833 44.917 C 385.833 44.729,385.632 44.667,385.019 44.667 C 384.346 44.667,384.191 44.609,384.118 44.333 C 384.057 44.098,383.891 44.000,383.553 44.000 C 383.289 44.000,382.953 43.869,382.806 43.708 C 382.659 43.548,382.345 43.267,382.110 43.083 C 381.532 42.633,381.446 41.000,382.000 41.000 C 382.222 41.000,382.333 40.889,382.333 40.667 C 382.333 40.397,382.444 40.333,382.917 40.333 C 383.324 40.333,383.500 40.258,383.500 40.083 C 383.500 39.876,383.813 39.833,385.316 39.833 C 386.776 39.833,387.150 39.882,387.227 40.083 C 387.294 40.259,387.568 40.333,388.142 40.333 C 388.821 40.333,388.976 40.390,389.048 40.667 C 389.130 40.979,389.276 41.000,391.401 41.000 C 393.556 41.000,393.667 40.984,393.667 40.667 C 393.667 40.454,393.778 40.333,393.974 40.333 C 394.346 40.333,394.833 39.829,394.833 39.445 C 394.833 39.278,394.966 39.167,395.167 39.167 C 395.482 39.167,395.500 39.056,395.500 37.083 C 395.500 35.111,395.482 35.000,395.167 35.000 C 394.981 35.000,394.833 34.889,394.833 34.750 C 394.833 34.612,394.721 34.500,394.583 34.500 C 394.444 34.500,394.333 34.352,394.333 34.167 C 394.333 33.944,394.222 33.833,394.000 33.833 C 393.778 33.833,393.667 33.722,393.667 33.500 C 393.667 33.296,393.554 33.165,393.375 33.161 C 393.215 33.158,392.938 33.046,392.760 32.911 C 392.582 32.777,392.193 32.667,391.896 32.667 C 391.502 32.667,391.327 32.576,391.250 32.333 C 391.158 32.043,390.998 32.000,390.007 32.000 C 389.149 32.000,388.845 31.938,388.773 31.750 C 388.692 31.539,388.152 31.500,385.333 31.500 C 382.515 31.500,381.974 31.539,381.894 31.750 M3.833 32.333 C 3.701 32.517,3.427 32.667,3.224 32.667 C 3.008 32.667,2.814 32.798,2.755 32.985 C 2.699 33.159,2.544 33.345,2.410 33.396 C 2.043 33.537,2.049 38.500,2.417 38.500 C 2.587 38.500,2.667 38.672,2.669 39.042 C 2.672 39.833,2.840 40.333,3.103 40.333 C 3.255 40.333,3.333 40.531,3.333 40.917 C 3.333 41.389,3.397 41.500,3.667 41.500 C 3.960 41.500,4.000 41.611,4.000 42.417 C 4.000 43.120,4.058 43.333,4.250 43.333 C 4.425 43.333,4.500 43.509,4.500 43.917 C 4.500 44.389,4.563 44.500,4.833 44.500 C 5.122 44.500,5.167 44.611,5.167 45.339 C 5.167 45.930,5.240 46.205,5.417 46.273 C 5.571 46.332,5.667 46.586,5.667 46.934 C 5.667 47.389,5.732 47.500,6.000 47.500 C 6.290 47.500,6.333 47.611,6.333 48.349 C 6.333 49.058,6.388 49.212,6.667 49.285 C 6.917 49.351,7.000 49.512,7.000 49.936 C 7.000 50.326,7.077 50.500,7.250 50.500 C 7.440 50.500,7.500 50.705,7.500 51.349 C 7.500 52.058,7.555 52.212,7.833 52.285 C 8.084 52.351,8.167 52.512,8.167 52.936 C 8.167 53.326,8.244 53.500,8.417 53.500 C 8.597 53.500,8.667 53.685,8.667 54.167 C 8.667 54.611,8.778 54.944,9.000 55.167 C 9.185 55.352,9.333 55.722,9.333 56.000 C 9.333 56.389,9.407 56.500,9.667 56.500 C 9.956 56.500,10.000 56.611,10.000 57.339 C 10.000 57.930,10.074 58.205,10.250 58.273 C 10.404 58.332,10.500 58.586,10.500 58.934 C 10.500 59.389,10.565 59.500,10.833 59.500 C 11.122 59.500,11.167 59.611,11.167 60.339 C 11.167 60.930,11.240 61.205,11.417 61.273 C 11.562 61.329,11.667 61.578,11.667 61.867 C 11.667 62.224,11.761 62.389,12.000 62.452 C 12.276 62.524,12.333 62.679,12.333 63.353 C 12.333 63.965,12.395 64.167,12.583 64.167 C 12.759 64.167,12.833 64.344,12.833 64.766 C 12.833 65.224,12.911 65.385,13.167 65.452 C 13.417 65.517,13.500 65.679,13.500 66.103 C 13.500 66.556,13.566 66.667,13.833 66.667 C 14.056 66.667,14.167 66.778,14.167 67.000 C 14.167 67.185,14.278 67.333,14.417 67.333 C 14.554 67.333,14.667 67.446,14.667 67.583 C 14.667 67.724,14.816 67.833,15.007 67.833 C 15.194 67.833,15.508 67.983,15.705 68.167 C 16.002 68.444,16.293 68.500,17.422 68.500 C 18.570 68.500,18.829 68.448,19.083 68.167 C 19.249 67.983,19.523 67.833,19.692 67.833 C 19.862 67.833,20.000 67.721,20.000 67.583 C 20.000 67.444,20.148 67.333,20.333 67.333 C 20.549 67.333,20.667 67.222,20.667 67.019 C 20.667 66.846,20.816 66.667,21.000 66.618 C 21.243 66.555,21.333 66.391,21.333 66.016 C 21.333 65.668,21.415 65.500,21.583 65.500 C 21.763 65.500,21.833 65.317,21.833 64.853 C 21.833 64.346,21.906 64.187,22.167 64.118 C 22.439 64.047,22.500 63.891,22.500 63.266 C 22.500 62.696,22.564 62.500,22.750 62.500 C 22.921 62.500,23.000 62.329,23.000 61.957 C 23.000 61.594,23.111 61.344,23.333 61.205 C 23.584 61.049,23.667 60.817,23.667 60.268 C 23.667 59.679,23.731 59.522,24.000 59.452 C 24.239 59.389,24.333 59.224,24.333 58.869 C 24.333 58.597,24.446 58.281,24.583 58.167 C 24.734 58.042,24.833 57.677,24.833 57.249 C 24.833 56.679,24.899 56.522,25.167 56.452 C 25.410 56.388,25.500 56.224,25.500 55.844 C 25.500 55.534,25.602 55.284,25.750 55.227 C 25.925 55.160,26.000 54.887,26.000 54.316 C 26.000 53.611,26.045 53.500,26.333 53.500 C 26.604 53.500,26.667 53.389,26.667 52.911 C 26.667 52.542,26.760 52.287,26.917 52.227 C 27.092 52.160,27.167 51.887,27.167 51.316 C 27.167 50.611,27.212 50.500,27.500 50.500 C 27.763 50.500,27.833 50.389,27.833 49.977 C 27.833 49.689,27.953 49.366,28.100 49.258 C 28.250 49.149,28.406 48.719,28.455 48.282 C 28.512 47.774,28.623 47.500,28.772 47.500 C 28.918 47.500,29.000 47.306,29.000 46.957 C 29.000 46.594,29.111 46.344,29.333 46.205 C 29.586 46.047,29.667 45.817,29.667 45.249 C 29.667 44.694,29.732 44.500,29.917 44.500 C 30.090 44.500,30.167 44.326,30.167 43.936 C 30.167 43.512,30.250 43.351,30.500 43.285 C 30.777 43.213,30.833 43.058,30.833 42.368 C 30.833 41.679,30.890 41.524,31.167 41.452 C 31.406 41.389,31.500 41.224,31.500 40.867 C 31.500 40.578,31.605 40.329,31.750 40.273 C 31.926 40.205,32.000 39.930,32.000 39.339 C 32.000 38.611,32.044 38.500,32.333 38.500 C 32.845 38.500,32.845 34.088,32.333 33.538 C 32.150 33.342,32.000 33.065,32.000 32.924 C 32.000 32.761,31.848 32.667,31.585 32.667 C 31.350 32.667,31.079 32.522,30.961 32.333 C 30.770 32.026,30.573 32.000,28.460 32.000 C 26.278 32.000,26.167 32.016,26.167 32.333 C 26.167 32.556,26.056 32.667,25.833 32.667 C 25.650 32.667,25.500 32.770,25.500 32.897 C 25.500 33.024,25.350 33.167,25.167 33.215 C 24.976 33.265,24.833 33.442,24.833 33.631 C 24.833 33.811,24.721 34.053,24.583 34.167 C 24.442 34.284,24.333 34.647,24.333 35.001 C 24.333 35.488,24.259 35.647,24.000 35.715 C 23.728 35.786,23.667 35.942,23.667 36.568 C 23.667 37.137,23.603 37.333,23.417 37.333 C 23.237 37.333,23.167 37.516,23.167 37.981 C 23.167 38.488,23.094 38.647,22.833 38.715 C 22.564 38.785,22.500 38.942,22.500 39.528 C 22.500 40.073,22.417 40.305,22.167 40.461 C 21.914 40.619,21.833 40.850,21.833 41.418 C 21.833 41.972,21.768 42.167,21.583 42.167 C 21.404 42.167,21.333 42.350,21.333 42.814 C 21.333 43.321,21.261 43.480,21.000 43.548 C 20.728 43.620,20.667 43.776,20.667 44.401 C 20.667 44.970,20.603 45.167,20.417 45.167 C 20.238 45.167,20.167 45.349,20.167 45.808 C 20.167 46.237,20.057 46.548,19.833 46.750 C 19.627 46.937,19.500 47.263,19.500 47.609 C 19.500 47.973,19.420 48.167,19.269 48.167 C 19.007 48.167,18.839 48.667,18.836 49.458 C 18.834 49.828,18.754 50.000,18.583 50.000 C 18.409 50.000,18.333 50.176,18.333 50.583 C 18.333 50.944,18.206 51.294,18.000 51.500 C 17.794 51.706,17.667 52.056,17.667 52.417 C 17.667 52.889,17.603 53.000,17.333 53.000 C 17.066 53.000,17.000 52.889,17.000 52.437 C 17.000 52.127,16.888 51.781,16.750 51.667 C 16.597 51.540,16.500 51.175,16.500 50.730 C 16.500 50.111,16.449 50.000,16.167 50.000 C 15.878 50.000,15.833 49.889,15.833 49.161 C 15.833 48.570,15.760 48.295,15.583 48.227 C 15.438 48.171,15.333 47.922,15.333 47.633 C 15.333 47.276,15.239 47.111,15.000 47.048 C 14.723 46.976,14.667 46.821,14.667 46.132 C 14.667 45.442,14.610 45.287,14.333 45.215 C 14.057 45.143,14.000 44.988,14.000 44.314 C 14.000 43.702,13.938 43.500,13.750 43.500 C 13.574 43.500,13.500 43.322,13.500 42.901 C 13.500 42.442,13.422 42.282,13.167 42.215 C 12.892 42.143,12.833 41.988,12.833 41.332 C 12.833 40.815,12.754 40.505,12.607 40.449 C 12.483 40.401,12.338 40.043,12.286 39.653 C 12.234 39.263,12.073 38.877,11.929 38.797 C 11.767 38.706,11.667 38.423,11.667 38.059 C 11.667 37.609,11.588 37.448,11.333 37.382 C 11.057 37.309,11.000 37.154,11.000 36.481 C 11.000 35.868,10.938 35.667,10.750 35.667 C 10.579 35.667,10.500 35.495,10.500 35.120 C 10.500 34.765,10.383 34.490,10.167 34.333 C 9.983 34.201,9.833 33.920,9.833 33.708 C 9.833 33.496,9.721 33.280,9.583 33.227 C 9.446 33.174,9.333 33.027,9.333 32.899 C 9.333 32.771,9.192 32.667,9.019 32.667 C 8.846 32.667,8.667 32.518,8.618 32.333 C 8.537 32.021,8.391 32.000,6.302 32.000 C 4.265 32.000,4.053 32.029,3.833 32.333 M38.715 32.333 C 38.667 32.518,38.488 32.667,38.314 32.667 C 38.141 32.667,38.000 32.771,38.000 32.899 C 38.000 33.027,37.887 33.174,37.750 33.227 C 37.604 33.283,37.500 33.533,37.500 33.828 C 37.500 34.111,37.353 34.480,37.167 34.667 C 36.838 34.995,36.833 35.222,36.833 50.155 C 36.833 65.164,36.837 65.312,37.167 65.417 C 37.415 65.495,37.500 65.669,37.500 66.095 C 37.500 66.492,37.576 66.667,37.750 66.667 C 37.887 66.667,38.000 66.786,38.000 66.932 C 38.000 67.078,38.150 67.237,38.333 67.285 C 38.517 67.333,38.667 67.476,38.667 67.603 C 38.667 67.734,38.836 67.833,39.058 67.833 C 39.272 67.833,39.584 67.983,39.750 68.167 C 40.005 68.448,40.263 68.500,41.406 68.500 C 42.569 68.500,42.794 68.453,43.000 68.167 C 43.132 67.983,43.373 67.833,43.536 67.833 C 43.897 67.833,44.667 67.189,44.667 66.887 C 44.667 66.766,44.779 66.667,44.917 66.667 C 45.090 66.667,45.167 66.493,45.167 66.103 C 45.167 65.679,45.250 65.517,45.500 65.452 C 45.830 65.365,45.833 65.224,45.833 50.000 C 45.833 34.776,45.830 34.635,45.500 34.548 C 45.249 34.483,45.167 34.321,45.167 33.892 C 45.167 33.540,45.071 33.286,44.917 33.227 C 44.779 33.174,44.667 33.027,44.667 32.899 C 44.667 32.771,44.525 32.667,44.353 32.667 C 44.179 32.667,44.000 32.518,43.952 32.333 C 43.869 32.018,43.724 32.000,41.333 32.000 C 38.942 32.000,38.797 32.018,38.715 32.333 M51.833 32.333 C 51.833 32.603,51.722 32.667,51.250 32.667 C 50.849 32.667,50.667 32.743,50.667 32.911 C 50.667 33.045,50.517 33.235,50.333 33.333 C 50.119 33.448,50.000 33.682,50.000 33.988 C 50.000 34.258,49.892 34.506,49.750 34.560 C 49.556 34.635,49.500 34.959,49.500 35.995 C 49.500 37.073,49.549 37.333,49.750 37.333 C 49.925 37.333,50.000 37.509,50.000 37.917 C 50.000 38.389,50.063 38.500,50.333 38.500 C 50.556 38.500,50.667 38.611,50.667 38.833 C 50.667 39.017,50.761 39.167,50.877 39.167 C 50.992 39.167,51.180 39.317,51.295 39.500 C 51.492 39.816,51.683 39.833,55.001 39.833 L 58.500 39.833 58.500 52.917 C 58.500 64.435,58.530 66.000,58.750 66.000 C 58.918 66.000,59.000 66.168,59.000 66.516 C 59.000 66.883,59.092 67.055,59.318 67.114 C 59.493 67.160,59.673 67.341,59.719 67.515 C 59.774 67.725,59.949 67.833,60.234 67.833 C 60.472 67.833,60.817 67.983,61.000 68.167 C 61.284 68.451,61.556 68.500,62.833 68.500 C 64.222 68.500,64.333 68.475,64.333 68.167 C 64.333 67.897,64.444 67.833,64.917 67.833 C 65.324 67.833,65.500 67.758,65.500 67.583 C 65.500 67.444,65.648 67.333,65.833 67.333 C 66.049 67.333,66.167 67.222,66.167 67.019 C 66.167 66.846,66.316 66.667,66.500 66.618 C 66.791 66.542,66.833 66.391,66.833 65.427 C 66.833 64.599,66.896 64.299,67.083 64.227 C 67.302 64.143,67.333 62.628,67.333 51.992 L 67.333 39.852 70.764 39.801 C 73.638 39.758,74.226 39.708,74.389 39.490 C 74.496 39.346,74.715 39.180,74.875 39.120 C 75.035 39.060,75.167 38.905,75.167 38.776 C 75.167 38.646,75.279 38.447,75.417 38.333 C 75.615 38.169,75.667 37.684,75.667 35.980 C 75.667 34.183,75.626 33.833,75.417 33.833 C 75.279 33.833,75.167 33.714,75.167 33.568 C 75.167 33.422,75.017 33.263,74.833 33.215 C 74.650 33.167,74.500 33.024,74.500 32.897 C 74.500 32.770,74.359 32.667,74.186 32.667 C 74.012 32.667,73.833 32.518,73.785 32.333 C 73.699 32.004,73.558 32.000,62.766 32.000 C 51.944 32.000,51.833 32.003,51.833 32.333 M112.882 32.333 C 112.834 32.517,112.691 32.667,112.564 32.667 C 112.437 32.667,112.333 32.779,112.333 32.917 C 112.333 33.054,112.214 33.167,112.068 33.167 C 111.922 33.167,111.764 33.311,111.718 33.488 C 111.672 33.665,111.529 33.851,111.400 33.900 C 111.035 34.040,111.051 65.420,111.417 65.560 C 111.554 65.613,111.667 65.853,111.667 66.094 C 111.667 66.391,111.773 66.559,112.000 66.618 C 112.184 66.667,112.333 66.846,112.333 67.019 C 112.333 67.192,112.448 67.333,112.589 67.333 C 112.729 67.333,112.887 67.446,112.940 67.583 C 113.079 67.946,130.167 67.964,130.167 67.602 C 130.167 67.470,130.414 67.324,130.744 67.262 C 131.239 67.169,131.336 67.073,131.429 66.577 C 131.491 66.248,131.636 66.000,131.769 66.000 C 131.953 66.000,132.000 65.595,132.000 64.000 C 132.000 62.333,131.958 62.000,131.750 62.000 C 131.611 62.000,131.500 61.852,131.500 61.667 C 131.500 61.444,131.389 61.333,131.167 61.333 C 130.944 61.333,130.833 61.222,130.833 61.000 C 130.833 60.784,130.722 60.667,130.518 60.667 C 130.344 60.667,130.159 60.554,130.106 60.417 C 130.024 60.202,129.273 60.167,124.755 60.167 L 119.500 60.167 119.500 47.000 C 119.500 34.056,119.494 33.828,119.167 33.500 C 118.983 33.317,118.833 33.054,118.833 32.917 C 118.833 32.778,118.685 32.667,118.500 32.667 C 118.317 32.667,118.167 32.562,118.167 32.434 C 118.167 31.849,113.034 31.751,112.882 32.333 M264.382 32.333 C 264.334 32.517,264.191 32.667,264.064 32.667 C 263.937 32.667,263.833 32.770,263.833 32.897 C 263.833 33.024,263.683 33.167,263.500 33.215 C 263.317 33.263,263.164 33.440,263.161 33.609 C 263.158 33.778,263.046 34.062,262.911 34.240 C 262.537 34.735,262.542 65.500,262.917 65.500 C 263.091 65.500,263.167 65.676,263.167 66.083 C 263.167 66.556,263.230 66.667,263.500 66.667 C 263.688 66.667,263.833 66.778,263.833 66.922 C 263.833 67.062,263.965 67.225,264.125 67.284 C 264.285 67.343,264.477 67.491,264.550 67.612 C 264.763 67.965,281.667 67.936,281.667 67.583 C 281.667 67.430,281.823 67.333,282.071 67.333 C 282.510 67.333,283.000 66.942,283.000 66.592 C 283.000 66.472,283.112 66.281,283.250 66.167 C 283.447 66.004,283.500 65.536,283.500 63.980 C 283.500 62.331,283.458 62.000,283.250 62.000 C 283.111 62.000,283.000 61.852,283.000 61.667 C 283.000 61.444,282.889 61.333,282.667 61.333 C 282.444 61.333,282.333 61.222,282.333 61.000 C 282.333 60.778,282.222 60.667,282.000 60.667 C 281.815 60.667,281.667 60.556,281.667 60.417 C 281.667 60.200,280.991 60.167,276.583 60.167 L 271.500 60.167 271.500 47.745 C 271.500 36.857,271.469 35.311,271.250 35.227 C 271.075 35.160,271.000 34.887,271.000 34.321 C 271.000 33.682,270.930 33.474,270.667 33.333 C 270.483 33.235,270.333 33.045,270.333 32.911 C 270.333 32.777,270.192 32.667,270.019 32.667 C 269.846 32.667,269.667 32.518,269.618 32.333 C 269.536 32.018,269.391 32.000,267.000 32.000 C 264.609 32.000,264.464 32.018,264.382 32.333 M289.000 32.333 C 289.000 32.556,288.889 32.667,288.667 32.667 C 288.481 32.667,288.333 32.778,288.333 32.917 C 288.333 33.054,288.221 33.167,288.083 33.167 C 287.946 33.167,287.833 33.308,287.833 33.481 C 287.833 33.654,287.684 33.833,287.500 33.882 C 287.170 33.968,287.167 34.109,287.167 49.984 C 287.167 65.889,287.169 66.000,287.500 66.000 C 287.758 66.000,287.833 66.111,287.833 66.491 C 287.833 67.173,288.479 67.833,289.144 67.833 C 289.480 67.833,289.667 67.916,289.667 68.066 C 289.667 68.638,292.903 68.734,293.083 68.167 C 293.162 67.919,293.336 67.833,293.761 67.833 C 294.159 67.833,294.333 67.757,294.333 67.583 C 294.333 67.446,294.446 67.333,294.583 67.333 C 294.722 67.333,294.833 67.185,294.833 67.000 C 294.833 66.778,294.944 66.667,295.167 66.667 C 295.498 66.667,295.500 66.556,295.500 50.068 C 295.500 33.609,295.497 33.468,295.167 33.382 C 294.982 33.333,294.833 33.154,294.833 32.981 C 294.833 32.808,294.738 32.667,294.620 32.667 C 294.503 32.667,294.279 32.517,294.122 32.333 C 293.861 32.028,293.630 32.000,291.418 32.000 C 289.111 32.000,289.000 32.015,289.000 32.333 M304.000 32.322 C 304.000 32.550,303.865 32.660,303.542 32.697 C 303.214 32.735,303.012 32.903,302.833 33.288 C 302.696 33.584,302.490 33.828,302.375 33.830 C 302.210 33.833,302.167 37.163,302.167 49.917 C 302.167 64.102,302.196 66.000,302.417 66.000 C 302.583 66.000,302.667 66.167,302.667 66.499 C 302.667 66.817,302.787 67.073,303.000 67.205 C 303.183 67.320,303.333 67.508,303.333 67.623 C 303.333 67.749,303.551 67.833,303.877 67.833 C 304.239 67.833,304.489 67.944,304.628 68.167 C 304.941 68.668,307.725 68.668,308.039 68.167 C 308.166 67.963,308.427 67.833,308.712 67.833 C 308.972 67.833,309.219 67.723,309.273 67.583 C 309.326 67.446,309.473 67.333,309.601 67.333 C 309.729 67.333,309.833 67.183,309.833 67.000 C 309.833 66.817,309.938 66.667,310.066 66.667 C 310.482 66.667,310.500 66.249,310.500 56.820 C 310.500 47.611,310.504 47.500,310.833 47.500 C 311.093 47.500,311.167 47.611,311.167 48.005 C 311.167 48.301,311.271 48.550,311.417 48.606 C 311.554 48.659,311.667 48.814,311.667 48.950 C 311.667 49.086,311.817 49.237,312.000 49.285 C 312.183 49.333,312.333 49.478,312.333 49.608 C 312.333 49.738,312.446 49.887,312.583 49.940 C 312.721 49.992,312.833 50.131,312.833 50.247 C 312.833 50.364,312.954 50.559,313.101 50.681 C 313.248 50.803,313.433 51.075,313.513 51.285 C 313.593 51.495,313.773 51.667,313.913 51.667 C 314.056 51.667,314.167 51.812,314.167 52.000 C 314.167 52.185,314.278 52.333,314.417 52.333 C 314.556 52.333,314.667 52.481,314.667 52.667 C 314.667 52.889,314.778 53.000,315.000 53.000 C 315.259 53.000,315.333 53.111,315.333 53.500 C 315.333 53.815,315.419 54.000,315.564 54.000 C 315.691 54.000,315.834 54.150,315.882 54.333 C 315.930 54.517,316.088 54.667,316.234 54.667 C 316.389 54.667,316.500 54.806,316.500 55.000 C 316.500 55.222,316.611 55.333,316.833 55.333 C 317.073 55.333,317.167 55.444,317.167 55.730 C 317.167 55.948,317.279 56.219,317.417 56.333 C 317.554 56.447,317.667 56.639,317.667 56.759 C 317.667 56.879,317.817 57.025,318.000 57.083 C 318.183 57.142,318.333 57.297,318.333 57.428 C 318.333 57.559,318.446 57.667,318.583 57.667 C 318.721 57.667,318.833 57.800,318.833 57.963 C 318.833 58.126,318.983 58.368,319.167 58.500 C 319.350 58.632,319.500 58.881,319.500 59.052 C 319.500 59.224,319.650 59.404,319.833 59.452 C 320.018 59.500,320.167 59.679,320.167 59.853 C 320.167 60.025,320.279 60.167,320.417 60.167 C 320.554 60.167,320.667 60.279,320.667 60.417 C 320.667 60.556,320.815 60.667,321.000 60.667 C 321.260 60.667,321.333 60.778,321.333 61.172 C 321.333 61.451,321.438 61.717,321.567 61.767 C 321.695 61.816,321.838 62.001,321.885 62.178 C 321.931 62.355,322.088 62.500,322.234 62.500 C 322.389 62.500,322.500 62.639,322.500 62.833 C 322.500 63.056,322.611 63.167,322.833 63.167 C 323.079 63.167,323.167 63.278,323.167 63.589 C 323.167 63.821,323.279 64.054,323.417 64.106 C 323.554 64.159,323.667 64.314,323.667 64.450 C 323.667 64.586,323.817 64.737,324.000 64.785 C 324.184 64.833,324.333 65.012,324.333 65.186 C 324.333 65.359,324.446 65.500,324.583 65.500 C 324.721 65.500,324.833 65.594,324.833 65.710 C 324.833 65.825,324.978 66.010,325.154 66.120 C 325.331 66.230,325.499 66.490,325.529 66.696 C 325.567 66.957,325.750 67.120,326.125 67.227 C 326.423 67.312,326.667 67.483,326.667 67.607 C 326.667 67.753,326.867 67.833,327.231 67.833 C 327.654 67.833,327.816 67.916,327.882 68.167 C 327.960 68.466,328.109 68.500,329.333 68.500 C 330.558 68.500,330.707 68.466,330.785 68.167 C 330.851 67.916,331.012 67.833,331.436 67.833 C 331.805 67.833,332.000 67.754,332.000 67.603 C 332.000 67.476,332.150 67.333,332.333 67.285 C 332.517 67.237,332.667 67.078,332.667 66.932 C 332.667 66.786,332.779 66.667,332.917 66.667 C 333.137 66.667,333.167 64.724,333.167 50.187 C 333.167 35.742,333.136 33.682,332.917 33.500 C 332.779 33.386,332.667 33.187,332.667 33.058 C 332.667 32.929,332.541 32.775,332.388 32.716 C 332.234 32.657,331.972 32.472,331.804 32.304 C 331.351 31.851,326.669 31.840,326.663 32.292 C 326.661 32.456,326.424 32.693,326.121 32.833 C 325.790 32.987,325.563 33.227,325.530 33.458 C 325.501 33.665,325.378 33.833,325.256 33.833 C 324.854 33.833,324.833 34.299,324.833 43.425 C 324.833 51.414,324.804 52.478,324.583 52.394 C 324.446 52.341,324.333 52.193,324.333 52.066 C 324.333 51.938,324.183 51.833,324.000 51.833 C 323.778 51.833,323.667 51.722,323.667 51.500 C 323.667 51.317,323.517 51.017,323.333 50.833 C 323.150 50.650,323.000 50.387,323.000 50.250 C 323.000 50.112,322.887 50.000,322.750 50.000 C 322.611 50.000,322.500 49.852,322.500 49.667 C 322.500 49.462,322.388 49.332,322.208 49.330 C 322.021 49.328,321.780 49.026,321.535 48.489 C 321.325 48.028,321.043 47.609,320.910 47.558 C 320.776 47.506,320.667 47.360,320.667 47.232 C 320.667 47.104,320.517 47.000,320.333 47.000 C 320.117 47.000,320.000 46.889,320.000 46.684 C 320.000 46.511,319.887 46.326,319.750 46.273 C 319.612 46.220,319.500 45.992,319.500 45.766 C 319.500 45.502,319.381 45.318,319.167 45.250 C 318.983 45.192,318.833 45.037,318.833 44.905 C 318.833 44.774,318.721 44.667,318.583 44.667 C 318.444 44.667,318.333 44.519,318.333 44.333 C 318.333 44.111,318.222 44.000,318.000 44.000 C 317.738 44.000,317.667 43.889,317.667 43.484 C 317.667 43.109,317.576 42.945,317.333 42.882 C 317.149 42.833,317.000 42.654,317.000 42.481 C 317.000 42.308,316.887 42.167,316.750 42.167 C 316.612 42.167,316.500 42.054,316.500 41.917 C 316.500 41.778,316.352 41.667,316.167 41.667 C 315.909 41.667,315.833 41.556,315.833 41.175 C 315.833 40.905,315.734 40.623,315.612 40.550 C 315.491 40.477,315.343 40.285,315.284 40.125 C 315.225 39.965,315.062 39.833,314.922 39.833 C 314.778 39.833,314.667 39.688,314.667 39.500 C 314.667 39.278,314.556 39.167,314.333 39.167 C 314.088 39.167,314.000 39.056,314.000 38.745 C 314.000 38.513,313.887 38.280,313.750 38.227 C 313.612 38.174,313.500 37.994,313.500 37.827 C 313.500 37.659,313.350 37.475,313.167 37.417 C 312.983 37.358,312.833 37.203,312.833 37.072 C 312.833 36.941,312.721 36.833,312.583 36.833 C 312.446 36.833,312.333 36.721,312.333 36.583 C 312.333 36.446,312.183 36.183,312.000 36.000 C 311.817 35.817,311.667 35.547,311.667 35.401 C 311.667 35.255,311.517 35.096,311.333 35.048 C 311.150 35.000,311.000 34.857,311.000 34.731 C 311.000 34.604,310.887 34.500,310.750 34.500 C 310.612 34.500,310.500 34.358,310.500 34.184 C 310.500 34.011,310.394 33.828,310.264 33.779 C 310.135 33.729,309.928 33.477,309.805 33.219 C 309.654 32.903,309.432 32.733,309.124 32.697 C 308.801 32.660,308.667 32.550,308.667 32.322 C 308.667 32.019,308.529 32.000,306.333 32.000 C 304.138 32.000,304.000 32.019,304.000 32.322 M341.667 32.333 C 341.667 32.570,341.556 32.667,341.283 32.667 C 340.801 32.667,340.500 32.960,340.500 33.431 C 340.500 33.654,340.372 33.828,340.167 33.882 C 339.836 33.968,339.833 34.109,339.833 50.068 C 339.833 65.944,339.838 66.171,340.167 66.500 C 340.350 66.683,340.501 66.890,340.503 66.958 C 340.510 67.272,341.339 67.833,341.796 67.833 C 342.154 67.833,342.319 67.927,342.382 68.167 C 342.461 68.471,342.609 68.500,344.056 68.500 C 345.498 68.500,345.654 68.469,345.750 68.167 C 345.829 67.919,346.002 67.833,346.428 67.833 C 346.804 67.833,347.000 67.754,347.000 67.603 C 347.000 67.476,347.150 67.333,347.333 67.285 C 347.517 67.237,347.667 67.086,347.667 66.950 C 347.667 66.814,347.779 66.659,347.917 66.606 C 348.133 66.523,348.167 65.634,348.167 60.005 C 348.167 53.611,348.172 53.500,348.500 53.500 C 348.722 53.500,348.833 53.611,348.833 53.833 C 348.833 54.056,348.944 54.167,349.167 54.167 C 349.352 54.167,349.500 54.278,349.500 54.417 C 349.500 54.554,349.613 54.667,349.750 54.667 C 349.889 54.667,350.000 54.815,350.000 55.000 C 350.000 55.222,350.111 55.333,350.333 55.333 C 350.517 55.333,350.667 55.431,350.667 55.549 C 350.667 55.771,350.964 56.208,351.625 56.957 C 351.831 57.191,352.000 57.446,352.000 57.524 C 352.000 57.603,352.113 57.667,352.250 57.667 C 352.387 57.667,352.501 57.760,352.503 57.875 C 352.506 58.129,353.226 58.833,353.482 58.833 C 353.583 58.833,353.667 58.983,353.667 59.167 C 353.667 59.350,353.738 59.500,353.826 59.500 C 354.032 59.500,354.833 60.301,354.833 60.508 C 354.833 60.595,354.983 60.667,355.167 60.667 C 355.389 60.667,355.500 60.778,355.500 61.000 C 355.500 61.185,355.611 61.333,355.750 61.333 C 355.887 61.333,356.000 61.446,356.000 61.583 C 356.000 61.722,356.148 61.833,356.333 61.833 C 356.556 61.833,356.667 61.944,356.667 62.167 C 356.667 62.352,356.778 62.500,356.917 62.500 C 357.054 62.500,357.167 62.620,357.167 62.766 C 357.167 62.912,357.317 63.070,357.500 63.118 C 357.683 63.166,357.833 63.309,357.833 63.436 C 357.833 63.563,357.983 63.667,358.167 63.667 C 358.389 63.667,358.500 63.778,358.500 64.000 C 358.500 64.185,358.611 64.333,358.750 64.333 C 358.887 64.333,359.000 64.446,359.000 64.583 C 359.000 64.721,359.115 64.833,359.255 64.833 C 359.396 64.833,359.556 64.965,359.612 65.125 C 359.753 65.533,361.527 67.333,361.786 67.333 C 361.904 67.333,362.000 67.446,362.000 67.583 C 362.000 67.732,362.153 67.833,362.380 67.833 C 362.589 67.833,362.868 67.983,363.000 68.167 C 363.208 68.455,363.431 68.500,364.663 68.500 C 365.906 68.500,366.113 68.458,366.295 68.167 C 366.409 67.983,366.667 67.833,366.867 67.833 C 367.453 67.833,368.500 67.017,368.500 66.561 C 368.500 66.344,368.650 66.017,368.833 65.833 C 369.103 65.563,369.167 65.278,369.167 64.333 C 369.167 63.278,369.135 63.167,368.833 63.167 C 368.563 63.167,368.500 63.056,368.500 62.583 C 368.500 62.176,368.425 62.000,368.250 62.000 C 368.111 62.000,368.000 61.852,368.000 61.667 C 368.000 61.483,367.863 61.196,367.696 61.029 C 367.528 60.862,367.343 60.599,367.284 60.446 C 367.225 60.292,367.062 60.167,366.922 60.167 C 366.782 60.167,366.665 60.073,366.664 59.958 C 366.660 59.704,365.941 59.000,365.685 59.000 C 365.583 59.000,365.500 58.850,365.500 58.667 C 365.500 58.483,365.429 58.333,365.342 58.333 C 365.112 58.333,364.333 57.578,364.333 57.356 C 364.333 57.252,364.226 57.167,364.095 57.167 C 363.963 57.167,363.808 57.017,363.750 56.833 C 363.692 56.650,363.537 56.500,363.405 56.500 C 363.274 56.500,363.167 56.387,363.167 56.250 C 363.167 56.111,363.019 56.000,362.833 56.000 C 362.611 56.000,362.500 55.889,362.500 55.667 C 362.500 55.481,362.389 55.333,362.250 55.333 C 362.113 55.333,362.000 55.221,362.000 55.083 C 362.000 54.944,361.852 54.833,361.667 54.833 C 361.444 54.833,361.333 54.722,361.333 54.500 C 361.333 54.317,361.230 54.167,361.103 54.167 C 360.976 54.167,360.833 54.017,360.785 53.833 C 360.737 53.650,360.578 53.500,360.432 53.500 C 360.286 53.500,360.167 53.387,360.167 53.250 C 360.167 53.111,360.019 53.000,359.833 53.000 C 359.611 53.000,359.500 52.889,359.500 52.667 C 359.500 52.481,359.389 52.333,359.250 52.333 C 359.113 52.333,359.000 52.221,359.000 52.083 C 359.000 51.944,358.852 51.833,358.667 51.833 C 358.444 51.833,358.333 51.722,358.333 51.500 C 358.333 51.317,358.230 51.167,358.103 51.167 C 357.976 51.167,357.833 51.017,357.785 50.833 C 357.737 50.650,357.578 50.500,357.432 50.500 C 357.286 50.500,357.167 50.387,357.167 50.250 C 357.167 50.112,357.054 50.000,356.917 50.000 C 356.779 50.000,356.667 49.880,356.667 49.734 C 356.667 49.588,356.517 49.430,356.333 49.382 C 355.774 49.235,356.392 48.000,357.024 48.000 C 357.103 48.000,357.167 47.887,357.167 47.750 C 357.167 47.612,357.279 47.500,357.417 47.500 C 357.554 47.500,357.667 47.393,357.667 47.261 C 357.667 47.130,357.817 46.975,358.000 46.917 C 358.183 46.858,358.333 46.703,358.333 46.572 C 358.333 46.441,358.453 46.333,358.599 46.333 C 358.745 46.333,358.904 46.183,358.952 46.000 C 359.000 45.817,359.143 45.667,359.269 45.667 C 359.396 45.667,359.500 45.554,359.500 45.417 C 359.500 45.279,359.620 45.167,359.766 45.167 C 359.912 45.167,360.070 45.017,360.118 44.833 C 360.166 44.650,360.291 44.499,360.394 44.497 C 360.634 44.493,361.333 43.764,361.333 43.518 C 361.333 43.417,361.483 43.333,361.667 43.333 C 361.850 43.333,362.000 43.229,362.000 43.101 C 362.000 42.973,362.113 42.826,362.250 42.773 C 362.387 42.720,362.500 42.562,362.500 42.422 C 362.500 42.278,362.645 42.167,362.833 42.167 C 363.056 42.167,363.167 42.056,363.167 41.833 C 363.167 41.645,363.278 41.500,363.422 41.500 C 363.562 41.500,363.720 41.387,363.773 41.250 C 363.826 41.112,363.973 41.000,364.101 41.000 C 364.229 41.000,364.333 40.850,364.333 40.667 C 364.333 40.444,364.444 40.333,364.667 40.333 C 364.852 40.333,365.000 40.222,365.000 40.083 C 365.000 39.946,365.113 39.833,365.250 39.833 C 365.389 39.833,365.500 39.685,365.500 39.500 C 365.500 39.278,365.611 39.167,365.833 39.167 C 366.056 39.167,366.167 39.056,366.167 38.833 C 366.167 38.650,366.276 38.500,366.409 38.500 C 366.554 38.500,366.695 38.266,366.761 37.917 C 366.824 37.583,366.969 37.333,367.102 37.333 C 367.281 37.333,367.333 37.014,367.333 35.917 C 367.333 34.769,367.286 34.500,367.083 34.500 C 366.907 34.500,366.833 34.322,366.833 33.901 C 366.833 33.442,366.755 33.282,366.500 33.215 C 366.317 33.167,366.167 33.024,366.167 32.897 C 366.167 32.770,366.025 32.667,365.853 32.667 C 365.679 32.667,365.500 32.518,365.452 32.333 C 365.370 32.021,365.224 32.000,363.125 32.000 C 361.097 32.000,360.856 32.032,360.583 32.333 C 360.417 32.517,360.143 32.667,359.974 32.667 C 359.805 32.667,359.667 32.752,359.667 32.856 C 359.667 33.078,358.888 33.833,358.658 33.833 C 358.571 33.833,358.500 33.983,358.500 34.167 C 358.500 34.350,358.415 34.500,358.311 34.500 C 358.151 34.500,357.333 35.252,357.333 35.399 C 357.333 35.425,356.921 35.887,356.417 36.424 C 355.912 36.962,355.500 37.536,355.500 37.701 C 355.500 37.889,355.376 38.000,355.167 38.000 C 354.944 38.000,354.833 38.111,354.833 38.333 C 354.833 38.556,354.722 38.667,354.500 38.667 C 354.315 38.667,354.167 38.778,354.167 38.917 C 354.167 39.054,354.054 39.167,353.917 39.167 C 353.778 39.167,353.667 39.315,353.667 39.500 C 353.667 39.722,353.556 39.833,353.333 39.833 C 353.148 39.833,353.000 39.944,353.000 40.083 C 353.000 40.221,352.887 40.333,352.750 40.333 C 352.611 40.333,352.500 40.481,352.500 40.667 C 352.500 40.889,352.389 41.000,352.167 41.000 C 351.944 41.000,351.833 41.111,351.833 41.333 C 351.833 41.556,351.722 41.667,351.500 41.667 C 351.315 41.667,351.167 41.778,351.167 41.917 C 351.167 42.054,351.054 42.167,350.917 42.167 C 350.778 42.167,350.667 42.315,350.667 42.500 C 350.667 42.722,350.556 42.833,350.333 42.833 C 350.150 42.833,350.000 42.938,350.000 43.066 C 350.000 43.193,349.887 43.341,349.750 43.394 C 349.613 43.446,349.500 43.604,349.500 43.745 C 349.500 43.889,349.355 44.000,349.167 44.000 C 348.951 44.000,348.833 44.111,348.833 44.314 C 348.833 44.488,348.684 44.667,348.500 44.715 C 348.172 44.801,348.167 44.720,348.167 39.318 C 348.167 36.080,348.104 33.833,348.013 33.833 C 347.928 33.833,347.773 33.571,347.667 33.250 C 347.561 32.929,347.367 32.667,347.237 32.667 C 347.107 32.667,346.850 32.517,346.667 32.333 C 346.365 32.032,346.111 32.000,344.000 32.000 C 341.778 32.000,341.667 32.016,341.667 32.333 M206.242 41.250 C 206.242 44.458,206.264 45.747,206.291 44.114 C 206.319 42.481,206.319 39.856,206.291 38.281 C 206.264 36.706,206.242 38.042,206.242 41.250 M229.053 39.415 C 229.073 39.609,229.224 39.760,229.419 39.780 C 229.659 39.805,229.673 39.791,229.469 39.730 C 229.314 39.684,229.149 39.520,229.103 39.365 C 229.042 39.161,229.028 39.174,229.053 39.415 M91.092 42.777 C 91.257 42.840,91.333 43.127,91.333 43.684 C 91.333 44.389,91.379 44.500,91.667 44.500 C 91.960 44.500,92.000 44.611,92.000 45.417 C 92.000 46.120,92.058 46.333,92.250 46.333 C 92.440 46.333,92.500 46.539,92.500 47.182 C 92.500 47.891,92.555 48.046,92.833 48.118 C 93.110 48.191,93.167 48.346,93.167 49.025 C 93.167 49.599,93.241 49.872,93.417 49.940 C 93.587 50.005,93.667 50.272,93.667 50.783 C 93.667 51.391,93.729 51.548,94.000 51.618 C 94.281 51.692,94.333 51.846,94.333 52.603 L 94.333 53.500 90.708 53.500 L 87.083 53.500 87.140 52.584 C 87.181 51.933,87.266 51.667,87.432 51.667 C 87.602 51.667,87.667 51.439,87.667 50.839 C 87.667 50.182,87.735 49.975,88.000 49.833 C 88.247 49.701,88.333 49.484,88.333 48.994 C 88.333 48.556,88.445 48.221,88.667 48.000 C 88.886 47.781,89.000 47.444,89.000 47.018 C 89.000 46.595,89.087 46.336,89.250 46.273 C 89.426 46.205,89.500 45.930,89.500 45.339 C 89.500 44.736,89.565 44.500,89.731 44.500 C 89.993 44.500,90.161 44.000,90.164 43.208 C 90.166 42.839,90.246 42.667,90.417 42.667 C 90.603 42.667,90.674 42.445,90.697 41.792 L 90.728 40.917 90.790 41.800 C 90.830 42.373,90.936 42.717,91.092 42.777 M232.011 43.355 C 231.999 43.663,232.453 44.103,232.615 43.940 C 232.674 43.882,232.632 43.833,232.522 43.833 C 232.413 43.833,232.255 43.665,232.172 43.458 C 232.070 43.205,232.018 43.171,232.011 43.355 M191.533 48.367 C 191.423 48.477,191.339 48.683,191.345 48.825 C 191.353 49.006,191.395 48.984,191.485 48.754 C 191.556 48.573,191.795 48.374,192.015 48.312 C 192.364 48.215,192.372 48.198,192.075 48.183 C 191.887 48.174,191.643 48.257,191.533 48.367 M195.281 48.291 C 196.856 48.319,199.481 48.319,201.114 48.291 C 202.747 48.264,201.458 48.242,198.250 48.242 C 195.042 48.242,193.706 48.264,195.281 48.291 M204.922 48.464 C 204.863 48.616,204.869 48.687,204.934 48.621 C 204.999 48.556,205.141 48.576,205.249 48.665 C 205.383 48.777,205.444 48.753,205.444 48.588 C 205.444 48.236,205.045 48.141,204.922 48.464 M181.921 48.968 C 181.878 49.011,181.880 49.108,181.927 49.183 C 182.022 49.338,182.500 49.194,182.500 49.010 C 182.500 48.876,182.046 48.843,181.921 48.968 M180.601 49.597 C 180.445 50.005,180.479 50.045,180.750 49.774 C 181.033 49.490,181.069 49.333,180.851 49.333 C 180.769 49.333,180.657 49.452,180.601 49.597 M179.182 50.434 C 178.657 50.956,178.942 50.948,179.583 50.422 C 179.877 50.181,179.980 50.017,179.833 50.024 C 179.696 50.030,179.403 50.215,179.182 50.434 M211.618 51.500 C 211.666 51.683,211.806 51.833,211.928 51.833 C 212.050 51.833,212.223 51.964,212.313 52.124 C 212.402 52.283,212.533 52.356,212.603 52.286 C 212.674 52.215,212.487 51.935,212.189 51.662 C 211.547 51.076,211.504 51.064,211.618 51.500 M176.380 53.292 C 176.320 53.452,176.154 53.671,176.011 53.778 C 175.868 53.885,175.805 54.027,175.871 54.093 C 176.056 54.278,176.454 53.873,176.542 53.412 C 176.633 52.935,176.540 52.866,176.380 53.292 M219.648 54.037 C 219.457 54.395,219.464 54.403,219.764 54.172 C 219.940 54.038,220.107 53.914,220.136 53.897 C 220.165 53.880,220.113 53.820,220.019 53.762 C 219.926 53.704,219.759 53.828,219.648 54.037 M182.213 56.491 C 181.782 57.007,181.740 57.116,181.999 57.049 C 182.176 57.002,182.305 56.903,182.286 56.827 C 182.266 56.752,182.392 56.585,182.565 56.456 C 182.738 56.327,182.850 56.137,182.815 56.035 C 182.779 55.933,182.508 56.139,182.213 56.491 M174.768 56.264 C 174.705 56.426,174.743 56.502,174.864 56.462 C 175.114 56.379,175.251 56.000,175.032 56.000 C 174.942 56.000,174.823 56.119,174.768 56.264 M208.167 57.292 C 208.167 57.374,208.463 57.635,208.825 57.872 C 209.365 58.226,209.448 58.246,209.285 57.985 C 209.176 57.810,208.997 57.667,208.888 57.667 C 208.780 57.667,208.573 57.549,208.429 57.405 C 208.285 57.261,208.167 57.210,208.167 57.292 M215.450 58.222 C 215.403 58.344,215.470 58.444,215.599 58.444 C 215.728 58.444,215.833 58.344,215.833 58.222 C 215.833 58.100,215.766 58.000,215.684 58.000 C 215.603 58.000,215.497 58.100,215.450 58.222 M180.763 64.207 C 180.945 64.450,181.112 64.552,181.150 64.443 C 181.187 64.337,181.299 64.190,181.400 64.118 C 181.510 64.038,181.449 64.003,181.250 64.030 C 181.067 64.055,180.810 64.008,180.680 63.927 C 180.541 63.840,180.576 63.956,180.763 64.207 M174.000 64.147 C 174.000 64.406,174.481 64.908,174.608 64.781 C 174.659 64.730,174.543 64.520,174.350 64.313 C 174.156 64.105,174.000 64.031,174.000 64.147 M181.167 65.063 C 181.167 65.098,181.279 65.219,181.417 65.333 C 181.621 65.503,181.667 65.492,181.667 65.270 C 181.667 65.122,181.554 65.000,181.417 65.000 C 181.279 65.000,181.167 65.028,181.167 65.063 M209.944 65.239 C 209.883 65.398,209.957 65.470,210.168 65.454 C 210.406 65.436,210.439 65.377,210.304 65.215 C 210.080 64.945,210.056 64.946,209.944 65.239 M215.180 66.125 C 215.171 66.490,215.085 66.667,214.917 66.667 C 214.779 66.667,214.667 66.779,214.667 66.917 C 214.667 67.054,214.776 67.167,214.909 67.167 C 215.166 67.167,215.433 66.183,215.280 65.801 C 215.232 65.681,215.187 65.827,215.180 66.125 M205.929 67.611 C 205.882 67.733,205.907 67.833,205.985 67.833 C 206.062 67.833,206.209 67.733,206.310 67.611 C 206.449 67.443,206.436 67.389,206.255 67.389 C 206.122 67.389,205.976 67.489,205.929 67.611 M214.262 68.154 C 213.943 68.506,214.063 68.614,214.479 68.350 C 214.604 68.270,214.677 68.116,214.641 68.006 C 214.598 67.878,214.464 67.930,214.262 68.154 M186.031 68.177 C 186.071 68.297,186.203 68.429,186.323 68.469 C 186.448 68.510,186.510 68.448,186.469 68.323 C 186.429 68.203,186.297 68.071,186.177 68.031 C 186.052 67.990,185.990 68.052,186.031 68.177 M177.358 70.712 C 177.601 70.952,177.834 71.247,177.877 71.366 C 177.920 71.486,178.010 71.532,178.077 71.469 C 178.205 71.351,177.825 70.909,177.250 70.507 C 177.067 70.379,177.115 70.471,177.358 70.712 M199.667 71.299 C 199.667 71.472,200.027 71.833,200.200 71.833 C 200.446 71.833,200.337 71.582,200.000 71.372 C 199.817 71.258,199.667 71.224,199.667 71.299 M210.532 72.179 C 210.565 72.278,210.663 72.358,210.750 72.358 C 210.837 72.358,210.935 72.278,210.968 72.179 C 211.001 72.081,210.903 72.000,210.750 72.000 C 210.597 72.000,210.499 72.081,210.532 72.179 M179.981 72.796 C 180.092 73.005,180.260 73.129,180.353 73.071 C 180.446 73.014,180.498 72.953,180.469 72.936 C 180.440 72.919,180.273 72.796,180.098 72.661 C 179.797 72.431,179.790 72.438,179.981 72.796 M181.250 73.500 C 181.193 73.592,181.170 73.672,181.198 73.679 C 181.747 73.815,181.841 73.793,181.656 73.570 C 181.422 73.289,181.385 73.282,181.250 73.500 M207.125 76.535 C 206.819 76.848,206.922 76.930,207.312 76.683 C 207.438 76.604,207.513 76.471,207.479 76.387 C 207.445 76.304,207.285 76.370,207.125 76.535 M189.500 76.937 C 189.500 76.989,189.662 77.230,189.859 77.474 C 190.086 77.753,190.178 77.804,190.109 77.611 C 190.049 77.443,190.000 77.245,190.000 77.171 C 190.000 77.097,189.887 76.992,189.750 76.940 C 189.612 76.887,189.500 76.886,189.500 76.937 M199.827 78.013 C 199.657 78.329,199.671 78.343,199.987 78.173 C 200.343 77.983,200.459 77.667,200.173 77.667 C 200.084 77.667,199.928 77.822,199.827 78.013 M183.696 79.445 C 183.726 79.598,183.844 79.754,183.958 79.792 C 184.265 79.894,184.213 79.387,183.905 79.268 C 183.722 79.198,183.659 79.252,183.696 79.445 M206.180 79.946 C 206.173 80.146,206.035 80.343,205.875 80.385 C 205.602 80.457,205.602 80.463,205.880 80.481 C 206.203 80.502,206.416 80.138,206.279 79.797 C 206.232 79.680,206.187 79.747,206.180 79.946 M197.125 80.013 C 196.812 80.196,196.730 80.500,196.994 80.500 C 197.083 80.500,197.235 80.350,197.333 80.167 C 197.536 79.788,197.526 79.780,197.125 80.013 M201.798 84.637 C 201.625 84.705,201.562 84.831,201.639 84.955 C 201.732 85.106,201.839 85.073,202.048 84.830 C 202.341 84.488,202.284 84.444,201.798 84.637 " stroke="none" fill="#828282" fill-rule="evenodd"></path></g></svg>