<svg id="svg" xmlns="http://www.w3.org/2000/svg" xmlns:xlink="http://www.w3.org/1999/xlink" width="400" height="272" viewBox="0, 0, 400,272"><g id="svgg"><path id="path0" d="M184.354 43.641 C 183.832 43.868,181.687 44.054,178.418 44.156 C 175.047 44.262,173.163 44.428,172.904 44.644 C 172.687 44.824,171.623 45.033,170.540 45.110 C 169.388 45.191,168.178 45.458,167.623 45.753 C 167.091 46.037,166.120 46.259,165.411 46.259 C 164.673 46.259,164.020 46.414,163.838 46.632 C 163.668 46.837,162.807 47.087,161.925 47.187 C 161.043 47.287,160.172 47.547,159.991 47.766 C 159.810 47.984,159.205 48.163,158.648 48.163 C 158.025 48.163,157.392 48.373,157.007 48.707 C 156.662 49.007,156.214 49.252,156.012 49.252 C 155.810 49.252,155.187 49.497,154.629 49.796 C 154.070 50.095,153.290 50.340,152.894 50.340 C 152.499 50.340,152.023 50.524,151.837 50.748 C 151.650 50.973,151.287 51.156,151.029 51.156 C 150.771 51.156,150.277 51.401,149.932 51.701 C 149.587 52.000,149.087 52.245,148.821 52.245 C 148.556 52.245,148.161 52.423,147.943 52.640 C 147.726 52.857,147.233 53.114,146.847 53.211 C 146.461 53.307,146.002 53.558,145.828 53.768 C 145.654 53.978,145.300 54.150,145.042 54.150 C 144.784 54.150,144.291 54.395,143.946 54.694 C 143.600 54.993,143.133 55.238,142.906 55.238 C 142.680 55.238,142.301 55.416,142.064 55.634 C 141.827 55.851,141.357 56.280,141.020 56.586 C 140.684 56.892,140.169 57.143,139.877 57.143 C 139.586 57.143,139.249 57.309,139.129 57.511 C 139.009 57.714,138.605 58.038,138.231 58.231 C 137.857 58.424,136.799 59.176,135.880 59.903 C 134.961 60.630,134.057 61.224,133.871 61.224 C 133.686 61.224,133.152 61.624,132.685 62.113 C 132.219 62.601,130.857 63.795,129.660 64.765 C 127.361 66.628,122.177 71.672,122.177 72.046 C 122.177 72.167,121.454 73.080,120.571 74.075 C 118.450 76.464,118.589 76.295,116.800 78.695 C 115.268 80.750,113.982 82.681,113.223 84.065 C 113.013 84.448,112.768 84.823,112.679 84.898 C 112.590 84.973,112.211 85.623,111.837 86.343 C 111.463 87.063,110.942 87.848,110.680 88.086 C 110.418 88.325,110.204 88.727,110.204 88.980 C 110.204 89.233,109.959 89.723,109.660 90.068 C 109.361 90.413,109.116 90.970,109.116 91.305 C 109.116 91.640,108.932 91.985,108.707 92.071 C 108.483 92.157,108.299 92.521,108.299 92.880 C 108.299 93.239,108.054 93.843,107.755 94.224 C 107.456 94.604,107.211 95.050,107.211 95.214 C 107.211 95.378,106.966 95.969,106.667 96.528 C 106.367 97.086,106.122 97.868,106.122 98.266 C 106.122 98.664,105.956 99.053,105.753 99.131 C 105.550 99.209,105.316 99.783,105.232 100.406 C 105.149 101.029,104.886 101.753,104.649 102.015 C 104.412 102.277,104.217 102.850,104.216 103.287 C 104.215 103.724,103.971 104.449,103.673 104.898 C 103.311 105.445,103.132 106.175,103.131 107.110 C 103.130 108.016,102.986 108.623,102.721 108.844 C 102.477 109.046,102.315 109.635,102.317 110.305 C 102.319 110.923,102.056 112.242,101.732 113.236 C 100.761 116.222,99.048 115.953,118.431 115.862 C 137.767 115.771,136.871 115.880,136.871 113.626 C 136.871 112.999,137.051 112.247,137.270 111.957 C 137.490 111.666,137.673 111.245,137.676 111.020 C 137.681 110.681,139.340 107.027,140.146 105.578 C 140.271 105.354,140.697 104.527,141.092 103.740 C 141.487 102.953,142.046 102.184,142.334 102.030 C 142.622 101.876,142.857 101.534,142.857 101.270 C 142.857 101.007,143.043 100.552,143.270 100.259 C 143.497 99.967,144.262 98.932,144.971 97.959 C 145.679 96.986,147.085 95.343,148.095 94.306 C 149.105 93.270,149.932 92.321,149.932 92.197 C 149.932 92.074,150.029 91.973,150.148 91.973 C 150.267 91.973,151.313 91.054,152.472 89.932 C 153.660 88.782,154.817 87.891,155.122 87.891 C 155.420 87.891,155.732 87.712,155.816 87.493 C 156.012 86.981,159.176 84.825,161.002 83.957 C 161.478 83.731,161.939 83.431,162.025 83.290 C 162.112 83.150,162.541 82.957,162.978 82.861 C 163.414 82.765,163.918 82.510,164.096 82.295 C 164.274 82.081,164.671 81.905,164.978 81.905 C 165.285 81.905,165.729 81.731,165.965 81.518 C 166.435 81.094,168.242 80.384,169.899 79.972 C 170.480 79.827,171.211 79.530,171.524 79.310 C 171.838 79.091,172.652 78.912,173.333 78.912 C 174.015 78.912,174.840 78.724,175.167 78.495 C 175.502 78.261,176.803 77.978,178.153 77.847 C 179.468 77.720,180.889 77.478,181.310 77.311 C 182.478 76.847,191.024 76.910,192.307 77.392 C 192.872 77.604,194.419 77.843,195.745 77.925 C 197.233 78.016,198.402 78.234,198.797 78.492 C 199.149 78.723,199.890 78.912,200.445 78.912 C 201.000 78.912,201.668 79.106,201.930 79.343 C 202.192 79.580,202.904 79.841,203.512 79.922 C 204.120 80.004,204.757 80.238,204.927 80.443 C 205.097 80.649,205.484 80.816,205.786 80.816 C 206.260 80.816,207.909 81.469,209.252 82.188 C 209.476 82.308,210.380 82.791,211.261 83.261 C 212.142 83.731,213.038 84.292,213.253 84.507 C 213.468 84.722,213.853 84.898,214.109 84.898 C 214.364 84.898,214.775 85.112,215.022 85.374 C 215.789 86.187,216.411 86.655,217.137 86.968 C 217.522 87.133,218.445 87.832,219.190 88.520 C 220.705 89.920,222.957 91.835,223.474 92.165 C 223.660 92.284,224.171 92.871,224.609 93.469 C 225.047 94.068,225.812 94.928,226.308 95.381 C 227.817 96.757,227.628 97.222,224.169 100.644 C 222.151 102.641,221.258 103.698,221.516 103.785 C 221.730 103.858,224.354 103.963,227.347 104.020 C 230.610 104.082,233.091 104.249,233.543 104.438 C 233.983 104.622,236.705 104.821,240.074 104.917 C 244.030 105.029,246.174 105.202,246.876 105.465 C 247.593 105.734,249.129 105.850,251.978 105.850 L 256.054 105.850 256.054 86.848 C 256.054 76.397,255.979 67.771,255.888 67.679 C 255.667 67.459,254.150 68.589,254.150 68.973 C 254.150 69.610,251.494 72.109,250.818 72.109 C 250.178 72.109,247.999 70.295,247.057 68.979 C 246.842 68.679,246.208 68.128,245.648 67.754 C 245.088 67.380,244.629 66.922,244.628 66.735 C 244.627 66.548,244.509 66.395,244.366 66.395 C 244.223 66.395,243.813 66.119,243.455 65.782 C 243.097 65.446,242.275 64.741,241.627 64.218 C 240.980 63.694,239.991 62.806,239.430 62.245 C 238.869 61.684,238.299 61.224,238.164 61.224 C 237.947 61.224,235.171 59.275,233.154 57.706 C 232.756 57.396,232.279 57.143,232.094 57.143 C 231.908 57.143,231.234 56.714,230.594 56.190 C 229.955 55.667,229.237 55.238,228.999 55.238 C 228.761 55.238,228.356 54.993,228.100 54.694 C 227.844 54.395,227.380 54.150,227.069 54.150 C 226.758 54.150,226.387 54.034,226.245 53.892 C 225.875 53.523,223.427 52.245,223.090 52.245 C 222.934 52.245,222.496 52.000,222.115 51.701 C 221.735 51.401,221.210 51.156,220.949 51.156 C 220.688 51.156,220.333 50.986,220.161 50.778 C 219.988 50.570,219.309 50.319,218.653 50.220 C 217.997 50.122,217.312 49.864,217.132 49.647 C 216.952 49.429,216.574 49.252,216.292 49.252 C 216.011 49.252,215.323 49.007,214.765 48.707 C 214.206 48.408,213.407 48.163,212.989 48.163 C 212.570 48.163,212.161 47.988,212.079 47.774 C 211.982 47.524,211.311 47.319,210.190 47.199 C 209.233 47.097,208.310 46.843,208.138 46.636 C 207.953 46.413,207.306 46.259,206.561 46.259 C 205.818 46.259,204.880 46.035,204.283 45.714 C 203.606 45.352,202.745 45.170,201.702 45.168 C 200.827 45.167,199.783 44.982,199.336 44.749 C 198.744 44.441,197.255 44.290,193.621 44.171 C 190.442 44.067,188.384 43.879,187.790 43.638 C 186.652 43.176,185.422 43.177,184.354 43.641 M192.024 53.709 C 194.690 53.916,197.226 54.100,197.660 54.118 C 198.093 54.136,198.592 54.269,198.767 54.415 C 198.943 54.561,200.066 54.789,201.263 54.923 C 202.460 55.057,203.699 55.305,204.015 55.475 C 204.331 55.644,204.996 55.785,205.492 55.788 C 205.989 55.792,206.928 56.036,207.581 56.333 C 208.233 56.629,208.970 56.871,209.217 56.871 C 209.465 56.871,210.125 57.116,210.683 57.415 C 211.242 57.714,212.052 57.959,212.483 57.959 C 212.914 57.959,213.419 58.143,213.605 58.367 C 213.792 58.592,214.130 58.776,214.357 58.776 C 214.584 58.776,215.304 59.020,215.957 59.320 C 216.609 59.619,217.677 60.109,218.329 60.408 C 218.982 60.707,219.697 60.952,219.920 60.952 C 220.142 60.952,220.532 61.183,220.787 61.465 C 221.042 61.747,221.827 62.190,222.530 62.450 C 223.234 62.711,223.934 63.062,224.086 63.231 C 224.377 63.553,225.103 63.986,227.347 65.175 C 228.095 65.571,228.927 66.130,229.194 66.417 C 229.462 66.704,229.802 66.939,229.951 66.939 C 230.182 66.939,231.463 67.876,233.299 69.389 C 234.893 70.703,235.681 72.109,234.823 72.109 C 234.670 72.109,234.429 72.412,234.289 72.782 C 233.586 74.629,231.487 73.619,231.762 71.566 C 231.853 70.888,231.799 70.476,231.620 70.476 C 231.461 70.476,231.117 70.262,230.856 70.000 C 228.874 68.016,226.442 67.495,226.403 69.048 C 226.398 69.235,226.180 69.612,225.918 69.887 C 224.568 71.302,224.670 71.816,226.550 73.092 C 227.592 73.799,227.603 73.800,228.513 73.310 C 230.157 72.425,231.238 74.149,229.884 75.495 C 229.536 75.840,228.946 76.567,228.571 77.110 C 228.016 77.916,227.743 78.085,227.086 78.029 C 226.095 77.943,225.692 76.882,226.356 76.108 C 226.785 75.608,225.727 74.323,224.863 74.296 C 224.695 74.290,224.404 74.102,224.218 73.878 C 223.695 73.247,223.482 73.369,222.678 74.762 C 222.267 75.473,221.857 76.116,221.767 76.190 C 221.005 76.825,220.162 78.912,220.668 78.912 C 220.962 78.912,222.906 80.188,223.123 80.524 C 223.512 81.124,224.409 81.069,224.981 80.410 C 226.589 78.561,228.173 80.143,226.644 82.071 C 225.083 84.039,224.618 84.061,222.421 82.271 C 221.807 81.770,221.179 81.361,221.026 81.361 C 220.872 81.361,220.598 81.181,220.416 80.962 C 219.990 80.449,217.233 78.601,216.260 78.176 C 215.109 77.674,215.642 75.932,216.954 75.907 C 217.491 75.896,218.776 74.386,218.776 73.765 C 218.776 73.649,219.020 73.332,219.320 73.061 C 219.619 72.790,219.864 72.413,219.864 72.222 C 219.864 72.032,220.017 71.712,220.204 71.511 C 220.391 71.311,220.849 70.537,221.223 69.791 C 221.596 69.045,222.061 68.236,222.256 67.992 C 222.451 67.748,222.843 67.093,223.126 66.536 L 223.642 65.525 222.909 64.880 C 222.507 64.525,222.039 64.231,221.870 64.226 C 221.701 64.222,221.411 64.034,221.224 63.810 C 221.038 63.585,220.686 63.401,220.443 63.400 C 220.199 63.399,219.649 63.215,219.221 62.992 C 218.074 62.393,217.701 62.486,217.289 63.469 C 217.085 63.956,216.829 64.443,216.720 64.552 C 216.456 64.814,215.241 67.806,215.239 68.198 C 215.239 68.367,215.074 68.641,214.874 68.807 C 214.674 68.973,214.363 69.600,214.183 70.201 C 214.003 70.801,213.738 71.293,213.595 71.293 C 213.451 71.293,213.333 71.507,213.332 71.769 C 213.331 72.031,213.163 72.566,212.958 72.958 C 212.608 73.629,212.640 73.717,213.498 74.454 C 215.518 76.190,213.787 77.443,211.701 75.755 C 211.476 75.573,210.777 75.288,210.148 75.120 C 209.518 74.952,208.929 74.696,208.839 74.550 C 208.749 74.405,208.339 74.286,207.927 74.286 C 207.025 74.286,206.377 73.820,206.132 72.995 C 205.895 72.197,207.013 71.604,207.957 72.028 C 208.782 72.398,209.795 71.932,209.798 71.181 C 209.799 70.868,210.043 70.245,210.340 69.796 C 210.637 69.347,210.882 68.711,210.883 68.383 C 210.884 68.056,210.999 67.717,211.139 67.630 C 211.278 67.544,211.586 66.808,211.822 65.995 C 212.059 65.182,212.373 64.443,212.521 64.352 C 212.668 64.260,212.789 63.903,212.789 63.558 C 212.789 63.213,213.042 62.608,213.352 62.215 C 213.989 61.406,213.851 60.408,213.103 60.408 C 212.847 60.408,212.384 60.230,212.073 60.012 C 211.554 59.649,211.477 59.673,211.143 60.298 C 210.544 61.416,208.929 61.142,208.672 59.877 C 208.453 58.798,207.817 58.232,206.819 58.230 C 206.436 58.229,205.787 58.053,205.377 57.839 C 204.658 57.464,204.013 57.318,203.364 57.384 C 203.194 57.401,202.989 57.752,202.908 58.163 C 202.827 58.575,202.616 59.507,202.440 60.236 C 201.942 62.293,205.014 64.130,205.969 62.345 C 206.192 61.929,206.539 61.769,207.215 61.769 C 208.468 61.769,208.693 62.604,207.915 64.364 C 207.602 65.070,207.347 65.852,207.347 66.103 C 207.347 66.725,206.810 67.211,206.122 67.211 C 205.382 67.211,204.898 66.713,204.898 65.952 C 204.898 65.050,203.632 64.174,202.470 64.272 L 201.510 64.354 201.185 66.303 C 201.007 67.375,200.715 68.524,200.538 68.855 C 200.205 69.477,200.507 69.918,201.273 69.928 C 201.607 69.932,202.721 71.205,202.721 71.583 C 202.721 72.248,200.719 72.310,199.515 71.682 C 199.108 71.470,198.079 71.295,197.229 71.294 C 196.378 71.293,195.337 71.156,194.916 70.990 C 194.073 70.658,193.704 70.616,189.046 70.322 C 185.398 70.093,184.821 69.803,185.844 68.714 C 186.184 68.353,186.783 68.020,187.176 67.974 C 187.875 67.893,187.893 67.842,187.959 65.714 C 187.996 64.517,188.142 61.888,188.283 59.873 C 188.543 56.167,188.440 55.510,187.601 55.510 C 187.364 55.510,187.212 55.954,187.158 56.803 C 187.016 59.009,184.762 58.527,184.762 56.290 C 184.762 55.395,183.656 55.143,181.088 55.451 L 179.456 55.646 179.367 56.871 C 179.319 57.544,179.425 58.830,179.603 59.728 C 179.781 60.626,180.005 62.826,180.100 64.616 C 180.289 68.186,180.344 68.284,182.381 68.701 C 182.953 68.818,183.129 69.012,183.129 69.524 C 183.129 70.262,182.831 70.383,180.544 70.565 C 179.796 70.625,178.408 70.828,177.460 71.016 C 174.486 71.607,173.401 70.259,175.862 69.030 C 176.920 68.502,176.955 68.268,176.322 65.986 C 176.197 65.537,176.015 63.946,175.916 62.449 C 175.538 56.694,174.758 55.454,172.299 56.698 C 171.895 56.903,171.117 57.151,170.569 57.250 C 169.582 57.429,169.573 57.442,169.616 58.702 C 169.672 60.327,168.601 60.967,167.563 59.929 C 166.532 58.898,166.502 56.131,167.519 55.915 C 167.948 55.824,168.544 55.613,168.844 55.446 C 169.670 54.986,175.015 54.124,180.000 53.647 C 183.784 53.285,186.753 53.300,192.024 53.709 M193.741 56.017 L 192.517 56.190 192.214 61.088 C 192.047 63.782,191.834 66.354,191.740 66.803 C 191.420 68.332,192.251 68.959,194.553 68.923 C 196.795 68.889,196.733 68.923,197.026 67.562 C 197.148 66.995,197.371 66.041,197.520 65.442 C 198.131 62.996,198.897 57.555,198.724 56.892 C 198.542 56.196,195.838 55.721,193.741 56.017 M164.050 59.080 C 165.262 60.292,165.561 61.650,164.762 62.313 C 164.537 62.499,164.354 62.806,164.354 62.995 C 164.354 63.183,163.842 63.849,163.218 64.473 L 162.082 65.610 164.782 68.182 L 167.483 70.755 168.980 70.689 C 171.549 70.577,171.937 71.432,169.805 72.512 C 167.862 73.497,166.644 73.424,165.359 72.244 C 164.789 71.721,164.251 71.293,164.163 71.293 C 164.074 71.293,163.499 70.892,162.885 70.402 C 161.227 69.080,159.606 68.027,159.230 68.027 C 159.048 68.027,158.771 67.692,158.615 67.282 C 158.313 66.490,158.302 66.505,160.106 65.200 C 160.497 64.917,160.816 64.534,160.816 64.349 C 160.816 64.164,161.000 63.860,161.224 63.673 C 162.674 62.471,160.853 60.820,158.334 61.054 C 155.445 61.323,154.487 62.408,155.782 63.946 C 155.971 64.170,156.218 64.654,156.330 65.021 C 156.443 65.388,156.702 65.856,156.907 66.061 C 157.111 66.266,157.279 66.716,157.279 67.061 C 157.279 67.406,157.455 67.834,157.670 68.013 C 157.884 68.191,158.137 68.687,158.231 69.116 C 158.325 69.544,158.578 70.040,158.793 70.219 C 159.008 70.397,159.184 70.701,159.184 70.893 C 159.184 71.467,160.610 73.469,161.019 73.469 C 161.226 73.469,161.641 73.338,161.940 73.178 C 162.639 72.804,163.265 73.282,163.265 74.189 C 163.265 74.646,163.041 74.932,162.517 75.145 C 160.948 75.780,157.668 77.406,157.235 77.763 C 155.819 78.931,154.605 77.546,155.905 76.246 C 156.793 75.358,156.986 74.289,156.353 73.764 C 156.143 73.590,155.889 73.116,155.787 72.711 C 155.686 72.307,155.485 71.834,155.342 71.661 C 155.198 71.489,154.584 70.386,153.977 69.211 C 151.802 65.002,150.865 63.872,150.144 64.585 C 149.220 65.497,147.755 65.399,147.755 64.425 C 147.755 63.750,148.491 62.857,149.047 62.857 C 149.262 62.857,149.749 62.612,150.130 62.313 C 150.510 62.014,151.035 61.769,151.296 61.769 C 151.557 61.769,151.923 61.585,152.109 61.361 C 152.295 61.136,152.661 60.952,152.922 60.952 C 153.183 60.952,153.707 60.707,154.088 60.408 C 154.468 60.109,155.005 59.861,155.281 59.858 C 155.557 59.855,156.088 59.612,156.463 59.320 C 156.837 59.027,157.510 58.781,157.959 58.773 C 158.408 58.765,159.013 58.578,159.304 58.359 C 160.471 57.476,162.799 57.829,164.050 59.080 M147.456 66.371 L 148.117 67.572 147.348 68.185 C 146.637 68.751,146.530 68.766,145.944 68.383 C 145.558 68.130,145.045 68.034,144.631 68.138 C 142.933 68.564,139.381 71.837,140.616 71.837 C 140.730 71.837,141.349 72.510,141.992 73.333 C 143.059 74.699,143.946 75.252,143.946 74.552 C 143.946 74.399,144.282 74.124,144.694 73.940 C 145.673 73.502,146.433 72.596,146.103 72.259 C 145.720 71.867,145.800 70.856,146.244 70.489 C 146.869 69.970,147.850 70.264,148.244 71.088 C 148.440 71.500,148.717 71.837,148.858 71.837 C 149.000 71.837,149.116 72.001,149.116 72.203 C 149.116 72.404,149.361 72.790,149.660 73.061 C 150.874 74.160,150.048 75.702,148.503 75.220 C 148.167 75.115,147.818 74.916,147.729 74.778 C 147.565 74.523,145.827 75.417,144.978 76.193 C 144.544 76.589,144.613 76.744,145.998 78.481 C 146.815 79.506,147.483 80.436,147.483 80.549 C 147.483 81.074,148.649 80.984,149.523 80.391 C 152.246 78.543,152.495 78.054,151.246 77.011 C 150.819 76.655,150.799 76.505,151.096 75.918 C 151.438 75.244,152.925 74.770,152.925 75.335 C 152.925 75.483,153.213 75.951,153.564 76.374 C 154.976 78.074,154.794 79.076,152.826 80.430 C 150.019 82.360,148.460 83.523,147.637 84.299 C 146.018 85.827,144.762 85.667,144.762 83.933 C 144.762 83.077,143.552 81.138,142.312 80.008 C 142.061 79.779,141.316 78.918,140.656 78.095 C 139.996 77.272,139.058 76.217,138.571 75.750 C 138.085 75.284,137.687 74.763,137.687 74.594 C 137.687 74.044,136.586 74.268,135.603 75.017 C 134.016 76.228,132.884 74.993,134.340 73.638 C 134.759 73.248,135.563 72.500,136.127 71.975 C 136.691 71.450,137.242 71.016,137.352 71.011 C 137.461 71.007,138.038 70.517,138.632 69.923 C 139.227 69.329,139.790 68.844,139.883 68.844 C 139.976 68.844,140.305 68.629,140.613 68.367 C 141.234 67.840,141.553 67.618,143.537 66.335 C 144.286 65.851,144.941 65.353,144.994 65.229 C 145.299 64.510,146.821 65.216,147.456 66.371 M241.114 76.439 C 242.999 78.338,244.772 80.252,245.053 80.694 C 245.335 81.135,245.721 81.595,245.912 81.714 C 246.103 81.834,246.259 82.109,246.259 82.326 C 246.259 82.543,246.387 82.721,246.544 82.721 C 246.702 82.721,247.010 83.119,247.229 83.605 C 247.448 84.092,247.738 84.673,247.874 84.898 C 249.636 87.817,249.764 90.250,248.276 92.523 C 247.311 93.998,246.105 95.208,245.578 95.230 C 245.429 95.236,244.939 95.444,244.490 95.693 C 242.752 96.653,235.918 95.828,235.918 94.657 C 235.918 94.528,235.732 94.422,235.504 94.422 C 235.093 94.422,230.748 90.442,230.748 90.065 C 230.748 89.957,229.891 88.979,228.844 87.891 C 226.435 85.390,226.374 84.626,228.581 84.626 C 229.417 84.626,231.826 82.414,235.263 78.491 C 237.641 75.775,237.648 75.756,236.561 74.636 C 235.523 73.567,235.479 73.404,236.073 72.809 C 236.716 72.167,237.261 72.559,241.114 76.439 M134.783 78.012 C 136.242 79.451,136.342 80.153,135.179 80.804 C 134.494 81.187,134.411 81.178,134.044 80.677 C 133.524 79.966,131.126 79.942,130.409 80.640 C 130.146 80.895,129.623 81.376,129.246 81.708 C 125.794 84.751,126.460 90.948,130.340 91.889 C 130.714 91.980,131.262 92.219,131.557 92.422 C 133.456 93.722,139.864 91.198,139.864 89.150 C 139.864 88.943,140.048 88.622,140.272 88.435 C 140.497 88.249,140.680 87.768,140.680 87.366 C 140.680 85.325,142.931 84.988,143.077 87.007 C 143.126 87.682,143.042 88.163,142.876 88.163 C 142.720 88.163,142.403 88.616,142.172 89.170 C 141.722 90.246,136.874 95.237,136.275 95.240 C 136.079 95.241,135.551 95.450,135.102 95.705 C 131.974 97.480,125.470 95.144,124.713 91.973 C 124.624 91.599,124.415 91.121,124.248 90.910 C 123.867 90.429,123.887 87.232,124.275 86.753 C 124.434 86.556,124.652 85.866,124.758 85.219 C 124.865 84.573,125.124 83.978,125.333 83.898 C 125.543 83.817,125.714 83.592,125.714 83.397 C 125.714 82.750,128.974 78.912,129.523 78.912 C 129.658 78.912,129.867 78.759,129.986 78.571 C 131.218 76.646,133.166 76.419,134.783 78.012 M239.454 80.218 C 237.716 82.052,232.026 87.347,231.793 87.347 C 230.829 87.347,233.469 90.565,235.638 92.033 C 237.098 93.021,240.899 93.279,241.838 92.454 C 242.099 92.225,242.559 91.962,242.861 91.871 C 244.026 91.518,245.618 89.538,245.852 88.152 C 246.133 86.492,245.303 83.894,244.200 82.978 C 243.985 82.800,243.808 82.516,243.806 82.348 C 243.804 82.179,243.314 81.500,242.717 80.838 C 242.121 80.177,241.633 79.534,241.633 79.410 C 241.633 78.823,240.311 79.314,239.454 80.218 M185.769 97.315 C 185.664 97.420,185.578 98.463,185.578 99.632 C 185.578 102.081,185.510 102.140,182.843 101.989 L 181.361 101.905 181.282 99.660 L 181.202 97.415 179.895 97.415 C 178.106 97.415,177.687 97.921,177.687 100.084 C 177.687 102.034,177.545 102.128,174.819 101.988 L 173.197 101.905 173.114 100.612 C 173.025 99.227,171.976 98.740,171.171 99.710 C 170.993 99.925,170.496 100.178,170.068 100.272 C 169.640 100.366,169.143 100.619,168.965 100.834 C 168.787 101.049,168.346 101.224,167.985 101.224 C 167.625 101.224,167.261 101.404,167.177 101.622 C 167.093 101.841,166.771 102.100,166.462 102.199 C 166.153 102.297,165.215 102.852,164.378 103.433 C 163.542 104.014,162.756 104.489,162.633 104.489 C 162.448 104.490,160.551 106.162,159.351 107.383 C 155.786 111.011,154.326 112.618,154.187 113.067 C 154.093 113.370,153.657 114.010,153.219 114.491 C 152.780 114.971,152.336 115.642,152.233 115.981 C 152.129 116.321,151.890 116.782,151.701 117.007 C 151.512 117.231,151.265 117.715,151.153 118.083 C 151.040 118.450,150.781 118.918,150.576 119.122 C 150.372 119.327,150.204 119.712,150.204 119.978 C 150.204 120.244,149.959 120.743,149.660 121.088 C 149.361 121.434,149.116 122.037,149.116 122.430 C 149.116 122.823,148.950 123.386,148.748 123.681 C 148.546 123.976,148.309 124.830,148.221 125.578 C 148.134 126.327,147.843 127.367,147.575 127.891 C 146.868 129.275,146.847 143.214,147.551 144.288 C 147.798 144.665,148.082 145.630,148.181 146.433 C 148.281 147.235,148.531 148.162,148.739 148.494 C 148.946 148.825,149.118 149.376,149.120 149.718 C 149.128 150.873,149.485 151.125,150.427 150.638 C 151.838 149.908,157.703 150.025,159.374 150.816 C 161.015 151.593,162.383 152.694,163.401 154.058 C 165.289 156.584,165.789 163.267,164.327 166.424 C 163.771 167.625,163.648 168.707,164.068 168.707 C 164.210 168.707,164.656 169.014,165.060 169.388 C 165.463 169.762,165.996 170.068,166.244 170.068 C 166.491 170.068,166.810 170.184,166.952 170.326 C 167.365 170.738,169.790 171.973,170.185 171.973 C 170.383 171.973,170.693 172.150,170.873 172.368 C 171.054 172.585,171.738 172.843,172.394 172.941 C 173.051 173.040,173.729 173.291,173.902 173.499 C 174.075 173.707,174.722 173.882,175.339 173.887 C 175.957 173.892,176.952 174.133,177.551 174.422 C 178.544 174.902,179.282 174.948,185.986 174.948 C 192.690 174.948,193.429 174.902,194.422 174.422 C 195.020 174.133,196.016 173.892,196.633 173.887 C 197.290 173.881,197.897 173.708,198.095 173.469 C 198.282 173.245,198.625 173.061,198.859 173.061 C 199.093 173.061,199.782 172.829,200.390 172.546 C 200.999 172.263,201.803 171.956,202.177 171.864 C 202.551 171.772,203.152 171.448,203.513 171.144 L 204.168 170.591 203.581 169.796 C 203.258 169.359,202.993 168.937,202.993 168.858 C 202.993 168.413,199.581 164.156,198.966 163.834 C 196.234 162.402,195.951 162.762,195.858 167.774 L 195.782 171.837 193.469 171.837 L 191.156 171.837 191.156 161.088 L 191.156 150.340 198.136 150.268 L 205.116 150.195 206.299 151.095 C 210.267 154.110,209.765 160.047,205.377 162.012 L 204.088 162.590 205.190 163.812 C 205.796 164.484,206.725 165.677,207.254 166.463 C 208.548 168.384,209.005 168.293,211.876 165.539 L 213.052 164.411 213.125 157.376 L 213.197 150.340 217.955 150.204 L 222.713 150.068 222.883 149.116 C 222.976 148.592,223.253 147.796,223.497 147.347 C 224.254 145.959,223.985 143.347,223.211 144.558 C 221.949 146.530,212.835 147.380,212.793 145.530 C 212.791 145.428,213.003 145.131,213.265 144.869 C 213.693 144.442,213.750 143.587,213.821 136.444 L 213.901 128.494 212.937 127.898 C 211.954 127.291,211.600 126.172,212.313 125.929 C 213.656 125.472,222.051 125.892,222.811 126.453 C 224.073 127.387,224.384 126.388,223.401 124.555 C 223.102 123.996,222.857 123.344,222.857 123.104 C 222.857 122.865,222.682 122.344,222.467 121.947 C 221.686 120.498,220.680 118.119,220.680 117.717 C 220.680 117.491,220.527 117.208,220.340 117.088 C 219.936 116.830,219.455 116.101,218.913 114.923 C 218.695 114.450,218.422 114.022,218.306 113.971 C 218.053 113.859,216.871 112.203,216.871 111.960 C 216.871 111.726,215.190 109.933,213.087 107.924 C 212.129 107.008,211.153 106.044,210.918 105.782 C 210.683 105.520,210.348 105.306,210.174 105.306 C 209.999 105.306,209.383 104.880,208.806 104.358 C 208.228 103.837,207.537 103.338,207.271 103.249 C 207.005 103.160,206.150 102.668,205.372 102.156 C 204.594 101.644,203.817 101.224,203.645 101.224 C 203.473 101.224,203.187 101.050,203.011 100.838 C 202.834 100.625,202.214 100.370,201.633 100.272 C 201.051 100.174,200.431 99.919,200.254 99.707 C 199.495 98.791,198.639 99.232,198.639 100.539 C 198.639 101.994,198.386 102.111,195.522 101.987 L 193.640 101.905 192.260 99.592 L 190.880 97.279 188.420 97.201 C 187.067 97.159,185.874 97.210,185.769 97.315 M160.308 126.395 C 161.245 127.106,162.182 129.120,162.179 130.417 C 162.176 131.915,160.315 135.238,159.480 135.238 C 158.898 135.238,159.201 136.553,160.271 138.668 C 160.869 139.850,161.359 140.954,161.359 141.123 C 161.360 141.292,161.544 141.582,161.769 141.769 C 161.993 141.955,162.177 142.334,162.177 142.612 C 162.177 142.889,162.611 143.511,163.142 143.994 C 164.703 145.415,164.417 146.234,162.324 146.342 C 159.966 146.463,159.508 146.278,158.902 144.957 C 158.612 144.326,158.268 143.626,158.139 143.401 C 158.009 143.177,157.709 142.565,157.472 142.041 C 157.236 141.517,156.728 140.403,156.344 139.566 C 155.960 138.728,155.646 137.969,155.646 137.879 C 155.646 137.789,155.343 137.388,154.973 136.989 L 154.300 136.263 154.471 139.900 L 154.641 143.537 155.552 144.403 C 157.254 146.022,156.704 146.395,152.608 146.395 C 148.736 146.395,148.058 145.956,149.794 144.571 L 150.748 143.810 150.748 136.105 L 150.748 128.400 149.932 127.713 C 148.953 126.889,148.857 126.061,149.728 125.937 C 152.336 125.567,159.633 125.883,160.308 126.395 M175.868 126.052 C 176.470 126.492,176.661 129.838,176.115 130.387 C 175.596 130.908,174.847 130.323,174.747 129.317 C 174.659 128.444,172.381 127.824,170.941 128.281 C 170.226 128.508,169.766 132.315,170.240 134.082 C 170.514 135.106,172.609 134.969,173.053 133.897 C 174.233 131.050,175.238 131.988,175.238 135.937 C 175.238 139.476,174.231 140.527,173.201 138.062 C 172.761 137.009,170.587 136.651,170.233 137.573 C 170.017 138.137,170.022 141.082,170.241 142.683 L 170.414 143.946 172.519 143.946 L 174.624 143.946 174.807 142.803 C 175.028 141.419,175.378 140.952,176.195 140.952 C 177.267 140.952,177.442 142.567,176.622 144.898 L 176.144 146.259 170.967 146.332 C 165.365 146.412,164.532 146.224,165.499 145.097 C 166.233 144.242,166.293 143.603,166.344 136.055 L 166.395 128.571 165.510 127.795 C 164.554 126.956,164.399 126.411,165.018 126.068 C 165.728 125.675,175.333 125.660,175.868 126.052 M185.049 126.283 C 185.356 126.780,185.127 127.143,184.076 127.826 L 183.129 128.440 183.133 131.091 C 183.139 134.503,183.085 134.438,185.919 134.462 C 188.957 134.487,188.844 134.607,188.839 131.344 C 188.835 128.348,188.805 128.250,187.687 127.538 C 185.914 126.410,186.774 125.914,190.584 125.867 C 194.724 125.816,195.366 126.199,193.746 127.751 L 192.934 128.529 192.861 136.033 L 192.789 143.537 193.552 144.321 C 195.050 145.860,194.591 146.247,191.156 146.338 C 186.756 146.454,185.660 145.842,187.900 144.521 L 188.860 143.954 188.784 140.616 L 188.707 137.279 185.986 137.279 L 183.265 137.279 183.189 140.458 C 183.133 142.790,183.205 143.712,183.461 143.920 C 183.653 144.076,184.173 144.499,184.617 144.860 C 186.110 146.072,185.308 146.424,181.256 146.334 C 177.336 146.248,176.961 145.990,178.504 144.447 L 179.361 143.590 179.409 136.081 L 179.456 128.572 178.571 127.795 C 177.613 126.954,177.461 126.412,178.083 126.064 C 178.729 125.703,184.808 125.894,185.049 126.283 M204.570 126.385 C 204.860 126.754,205.174 127.534,205.267 128.118 C 205.361 128.702,205.621 129.533,205.846 129.964 C 206.071 130.395,206.256 131.052,206.257 131.423 C 206.258 131.795,206.489 132.713,206.770 133.464 C 207.597 135.669,207.923 136.667,208.197 137.823 C 208.339 138.422,208.634 139.297,208.853 139.769 C 209.072 140.241,209.252 140.988,209.252 141.429 C 209.252 141.913,209.603 142.695,210.136 143.401 C 211.872 145.695,211.796 145.544,211.428 145.986 C 210.953 146.559,205.247 146.575,204.474 146.005 C 203.962 145.628,203.973 145.588,204.830 144.700 C 205.867 143.625,205.898 143.342,205.157 141.667 L 204.600 140.408 202.436 140.408 C 201.246 140.408,200.272 140.522,200.272 140.661 C 200.272 140.800,200.081 141.105,199.847 141.338 C 198.927 142.259,199.038 143.502,200.134 144.536 C 201.075 145.423,201.111 145.516,200.687 145.940 C 200.120 146.508,196.555 146.585,195.818 146.046 C 195.264 145.641,195.595 144.325,196.322 144.046 C 196.549 143.959,196.735 143.746,196.735 143.572 C 196.735 143.399,196.980 142.800,197.279 142.242 C 197.578 141.683,197.824 140.951,197.825 140.613 C 197.826 140.276,197.993 139.681,198.196 139.292 C 198.399 138.902,198.653 137.984,198.760 137.251 C 198.867 136.518,199.110 135.673,199.301 135.374 C 199.492 135.075,199.733 134.258,199.837 133.560 C 199.941 132.861,200.204 132.142,200.421 131.962 C 200.639 131.781,200.816 131.248,200.816 130.776 C 200.816 130.303,200.989 129.671,201.199 129.371 C 201.410 129.070,201.669 128.245,201.775 127.537 C 202.056 125.663,203.525 125.057,204.570 126.385 M58.348 126.561 C 58.266 126.694,58.393 126.803,58.630 126.803 C 58.867 126.803,59.173 127.097,59.310 127.457 C 59.446 127.816,59.688 128.191,59.847 128.289 C 60.472 128.675,60.219 143.611,59.570 144.662 C 59.258 145.166,59.044 145.588,59.093 145.600 C 60.412 145.925,66.699 145.810,66.834 145.460 C 66.923 145.226,67.290 145.034,67.647 145.034 C 68.606 145.034,71.810 142.094,71.828 141.198 C 71.833 140.959,72.082 140.481,72.381 140.136 C 72.877 139.564,72.925 139.118,72.925 135.102 C 72.925 131.086,72.877 130.640,72.381 130.068 C 72.082 129.723,71.837 129.237,71.837 128.989 C 71.837 128.474,70.439 127.347,69.800 127.347 C 69.566 127.347,68.677 127.102,67.826 126.803 C 65.963 126.148,63.933 126.107,62.136 126.687 C 60.957 127.068,60.679 127.072,59.653 126.718 C 59.017 126.499,58.430 126.429,58.348 126.561 M76.382 126.441 C 76.292 126.586,76.457 126.910,76.749 127.160 C 77.582 127.874,77.570 144.199,76.735 145.034 C 76.435 145.333,76.191 145.609,76.191 145.646 C 76.191 145.684,77.293 145.715,78.640 145.715 C 79.986 145.716,81.088 145.624,81.088 145.511 C 81.088 145.398,80.902 145.306,80.674 145.306 C 79.936 145.306,78.738 135.907,79.350 134.917 C 79.460 134.739,79.590 133.422,79.639 131.990 C 79.688 130.559,79.797 128.867,79.881 128.231 L 80.033 127.075 81.309 127.085 C 84.136 127.106,86.299 131.132,84.626 133.259 C 83.264 134.990,84.102 135.402,85.660 133.767 C 86.991 132.371,87.343 129.279,86.320 127.969 C 85.353 126.730,80.971 125.850,79.880 126.675 C 79.152 127.226,77.291 127.195,76.874 126.625 C 76.687 126.370,76.475 126.290,76.382 126.441 M91.293 126.531 C 91.195 126.688,91.448 126.801,91.889 126.799 C 92.482 126.795,92.562 126.735,92.245 126.531 C 91.722 126.193,91.501 126.193,91.293 126.531 M95.646 126.692 C 95.197 126.889,94.463 127.056,94.014 127.062 L 93.197 127.075 93.245 135.170 C 93.300 144.493,93.276 144.728,92.206 145.132 C 90.589 145.742,91.632 146.074,93.675 145.600 C 94.270 145.462,94.760 145.465,94.847 145.607 C 95.054 145.941,96.871 145.916,96.871 145.578 C 96.871 145.429,96.695 145.306,96.481 145.306 C 95.010 145.306,93.978 129.322,95.374 128.163 C 95.599 127.977,95.782 127.603,95.782 127.333 C 95.782 127.030,96.018 126.807,96.395 126.753 C 96.731 126.705,96.884 126.591,96.735 126.500 C 96.585 126.409,96.095 126.495,95.646 126.692 M120.680 126.662 C 120.231 126.876,119.330 127.056,118.678 127.063 C 117.644 127.073,117.522 127.135,117.726 127.551 C 118.189 128.496,118.161 143.941,117.695 144.652 C 117.018 145.686,117.100 145.711,121.522 145.802 C 126.483 145.904,126.803 145.781,126.803 143.767 C 126.803 143.117,126.680 142.585,126.531 142.585 C 126.381 142.585,126.257 142.861,126.254 143.197 C 126.245 144.506,125.286 145.036,122.943 145.028 C 120.146 145.018,120.036 144.845,119.964 140.334 C 119.893 135.885,119.834 135.981,122.551 136.100 C 123.938 136.161,124.661 136.087,124.741 135.877 C 124.947 135.335,124.594 135.238,122.420 135.238 C 119.806 135.238,119.862 135.325,119.955 131.446 C 120.025 128.524,120.071 128.296,120.709 127.705 C 121.541 126.934,124.320 126.787,124.898 127.483 C 125.253 127.911,126.259 128.050,126.259 127.671 C 126.259 126.440,122.557 125.771,120.680 126.662 M129.376 126.549 C 129.290 126.689,129.410 126.803,129.644 126.803 C 129.877 126.803,130.068 126.967,130.068 127.169 C 130.068 127.370,130.313 127.756,130.612 128.027 C 132.113 129.386,131.215 145.306,129.638 145.306 C 129.425 145.306,129.252 145.405,129.252 145.525 C 129.252 145.645,130.476 145.744,131.973 145.744 C 134.633 145.744,135.387 145.539,134.004 145.192 C 132.902 144.915,132.789 144.082,132.789 136.213 C 132.789 127.420,132.856 127.075,134.551 127.075 C 135.254 127.075,135.850 127.237,136.054 127.483 C 136.241 127.707,136.548 127.891,136.737 127.891 C 137.532 127.891,138.094 129.360,138.231 131.797 L 138.367 134.206 139.072 133.551 C 139.872 132.807,140.220 130.801,139.909 128.727 L 139.728 127.522 137.823 126.909 C 135.539 126.173,134.718 126.128,133.427 126.667 C 132.205 127.177,131.233 127.183,130.277 126.684 C 129.845 126.458,129.467 126.402,129.376 126.549 M227.347 126.530 C 227.255 126.680,227.431 126.803,227.739 126.803 C 228.106 126.803,228.299 126.979,228.299 127.314 C 228.299 127.595,228.483 127.977,228.707 128.163 C 229.052 128.449,229.116 129.671,229.116 136.035 L 229.116 143.567 228.163 144.607 C 227.639 145.179,227.211 145.669,227.211 145.695 C 227.211 145.722,228.435 145.744,229.932 145.744 C 232.608 145.744,233.411 145.526,231.870 145.217 C 230.756 144.995,230.722 144.699,230.761 135.420 L 230.796 127.211 229.752 127.060 C 229.177 126.977,228.439 126.762,228.112 126.583 C 227.724 126.371,227.457 126.352,227.347 126.530 M231.837 126.531 C 231.507 126.744,231.546 126.795,232.041 126.799 C 232.378 126.801,232.653 126.680,232.653 126.531 C 232.653 126.190,232.364 126.190,231.837 126.531 M235.374 126.531 C 235.374 126.680,235.650 126.801,235.986 126.799 C 236.481 126.795,236.521 126.744,236.190 126.531 C 235.663 126.190,235.374 126.190,235.374 126.531 M239.987 126.544 C 239.770 126.682,239.163 126.798,238.639 126.803 C 237.104 126.816,237.143 126.578,237.143 135.975 C 237.143 144.422,237.123 144.753,236.599 145.136 C 235.826 145.701,236.208 145.910,237.488 145.623 C 238.100 145.485,238.747 145.479,238.952 145.609 C 239.534 145.978,245.006 145.905,245.388 145.524 C 245.567 145.344,245.712 144.640,245.710 143.959 C 245.706 142.786,245.688 142.757,245.365 143.401 C 245.178 143.776,244.751 144.203,244.417 144.350 C 244.083 144.498,243.810 144.712,243.810 144.826 C 243.810 145.343,240.518 145.031,239.717 144.439 L 238.912 143.843 238.912 136.181 C 238.912 128.865,238.936 128.498,239.456 128.027 C 239.755 127.756,240.000 127.379,240.000 127.189 C 240.000 126.998,240.214 126.800,240.476 126.748 C 240.754 126.693,240.834 126.579,240.667 126.474 C 240.510 126.375,240.204 126.407,239.987 126.544 M248.435 126.531 C 248.435 126.680,248.772 126.794,249.184 126.784 C 249.847 126.767,249.870 126.738,249.388 126.531 C 248.645 126.211,248.435 126.211,248.435 126.531 M252.653 126.692 C 252.204 126.889,251.469 127.056,251.020 127.062 L 250.204 127.074 250.295 134.747 C 250.404 143.961,250.327 144.711,249.230 145.125 C 247.918 145.621,248.301 145.744,251.156 145.744 C 252.653 145.744,253.878 145.645,253.878 145.525 C 253.878 145.405,253.724 145.301,253.537 145.295 C 252.048 145.244,250.974 129.331,252.381 128.163 C 252.605 127.977,252.789 127.603,252.789 127.333 C 252.789 127.030,253.024 126.807,253.401 126.753 C 253.738 126.705,253.891 126.591,253.741 126.500 C 253.592 126.409,253.102 126.495,252.653 126.692 M277.475 126.447 C 277.404 126.568,277.262 127.371,277.157 128.231 C 277.053 129.092,276.867 129.796,276.744 129.796 C 276.423 129.796,276.182 130.545,276.357 131.001 C 276.442 131.223,276.817 131.368,277.232 131.341 C 277.897 131.297,277.983 131.409,278.235 132.653 C 278.387 133.401,278.663 134.281,278.847 134.608 C 279.032 134.935,279.184 135.537,279.184 135.947 C 279.184 136.357,279.369 136.897,279.596 137.147 C 280.433 138.073,279.192 139.048,277.178 139.048 C 275.167 139.048,274.830 138.786,274.830 137.224 C 274.830 135.563,274.391 135.772,274.211 137.520 C 274.127 138.327,273.865 139.361,273.628 139.820 C 273.145 140.753,273.053 142.041,273.469 142.041 C 273.619 142.041,273.741 141.551,273.741 140.952 L 273.741 139.864 276.803 139.875 L 279.864 139.887 280.494 140.873 C 281.314 142.158,281.461 144.631,280.748 145.153 C 280.486 145.345,280.272 145.550,280.272 145.608 C 280.272 145.693,284.883 145.686,285.090 145.601 C 285.120 145.588,284.845 145.278,284.477 144.910 C 284.110 144.543,283.810 144.007,283.810 143.719 C 283.810 143.431,283.641 143.056,283.435 142.885 C 283.230 142.715,282.982 142.079,282.885 141.472 C 282.788 140.866,282.542 140.103,282.339 139.777 C 282.136 139.451,281.895 138.594,281.804 137.873 C 281.713 137.152,281.453 136.298,281.227 135.976 C 281.001 135.653,280.816 134.942,280.816 134.395 C 280.816 133.848,280.646 133.259,280.438 133.086 C 280.230 132.913,279.974 132.194,279.869 131.488 C 279.765 130.782,279.514 130.019,279.312 129.793 C 279.110 129.566,278.906 128.709,278.860 127.888 C 278.779 126.461,277.961 125.611,277.475 126.447 M306.122 126.531 C 305.806 126.735,305.885 126.795,306.479 126.799 C 306.920 126.801,307.172 126.688,307.075 126.531 C 306.866 126.193,306.645 126.193,306.122 126.531 M315.283 126.440 C 314.863 126.860,315.218 126.947,317.347 126.943 C 319.377 126.939,319.658 127.004,320.288 127.619 C 321.342 128.649,322.177 130.174,322.177 131.069 C 322.177 131.509,322.357 132.106,322.576 132.397 C 323.150 133.155,323.158 139.214,322.587 140.309 C 322.363 140.738,322.179 141.405,322.179 141.791 C 322.177 142.232,321.771 142.934,321.088 143.673 C 319.807 145.061,319.816 145.034,320.655 145.034 C 321.620 145.034,323.809 142.823,323.811 141.847 C 323.812 141.430,324.056 140.721,324.354 140.272 C 325.169 139.040,325.169 131.996,324.354 130.959 C 324.054 130.578,323.810 130.089,323.810 129.871 C 323.810 129.247,321.893 127.388,321.062 127.205 C 320.648 127.114,320.164 126.864,319.985 126.649 C 319.649 126.243,315.658 126.066,315.283 126.440 M111.791 126.986 C 111.357 127.101,110.919 130.312,111.247 130.981 C 111.455 131.408,111.828 130.490,111.833 129.541 C 111.835 128.970,112.059 128.369,112.409 127.997 C 112.724 127.662,112.901 127.256,112.802 127.095 C 112.614 126.792,112.549 126.785,111.791 126.986 M256.521 126.971 C 256.121 127.371,256.311 128.228,256.760 128.055 C 256.998 127.964,257.493 127.814,257.860 127.721 C 258.227 127.629,258.482 127.416,258.426 127.246 C 258.311 126.895,256.814 126.678,256.521 126.971 M266.602 127.133 C 266.541 127.315,266.868 127.652,267.328 127.881 C 267.905 128.170,268.190 128.531,268.249 129.048 C 268.297 129.459,268.450 129.796,268.590 129.796 C 268.872 129.796,268.937 127.908,268.678 127.233 C 268.481 126.718,266.768 126.636,266.602 127.133 M287.265 127.168 C 287.012 127.827,287.437 128.085,288.367 127.838 C 289.572 127.518,289.545 126.803,288.328 126.803 C 287.808 126.803,287.344 126.962,287.265 127.168 M297.443 127.178 C 297.102 127.589,297.750 127.880,299.022 127.887 C 299.659 127.891,299.663 127.877,299.184 127.347 C 298.611 126.714,297.886 126.644,297.443 127.178 M329.391 127.070 C 329.018 127.674,329.821 130.608,330.448 130.930 C 331.486 131.464,332.245 132.330,332.245 132.981 C 332.245 133.334,332.412 133.687,332.616 133.765 C 332.820 133.843,333.322 134.569,333.731 135.378 C 334.141 136.187,334.647 136.991,334.857 137.165 C 335.067 137.339,335.238 137.632,335.238 137.816 C 335.238 137.999,335.633 138.688,336.115 139.347 C 336.597 140.005,337.178 140.876,337.407 141.282 C 340.479 146.728,341.160 147.049,340.952 142.952 C 340.820 140.343,340.798 140.270,340.136 140.178 C 339.302 140.063,338.776 139.656,338.776 139.128 C 338.776 138.910,338.347 138.208,337.823 137.569 C 337.299 136.930,336.871 136.271,336.871 136.105 C 336.871 135.939,336.197 134.814,335.374 133.605 C 334.551 132.397,333.878 131.195,333.878 130.934 C 333.878 130.674,333.633 130.251,333.333 129.995 C 333.034 129.739,332.789 129.344,332.789 129.118 C 332.789 128.892,332.560 128.478,332.279 128.197 C 331.998 127.917,331.722 127.546,331.665 127.375 C 331.512 126.918,329.639 126.668,329.391 127.070 M66.939 127.483 C 67.125 127.707,67.499 127.891,67.770 127.891 C 70.177 127.891,72.423 137.107,70.691 139.871 C 70.459 140.241,70.197 140.850,70.109 141.224 C 69.656 143.147,66.821 145.148,64.534 145.161 C 61.700 145.176,61.769 145.400,61.769 136.173 C 61.769 126.678,61.649 127.075,64.500 127.075 C 66.035 127.075,66.691 127.185,66.939 127.483 M100.136 127.358 C 100.136 127.529,100.381 127.981,100.680 128.361 C 100.980 128.742,101.224 129.450,101.224 129.935 C 101.224 130.421,101.406 130.968,101.627 131.152 C 101.849 131.336,102.109 132.083,102.206 132.813 C 102.303 133.543,102.550 134.280,102.756 134.450 C 102.981 134.637,103.129 135.298,103.129 136.113 C 103.129 137.053,103.295 137.676,103.673 138.157 C 103.973 138.538,104.218 139.200,104.218 139.630 C 104.218 140.059,104.463 140.867,104.762 141.426 C 105.061 141.984,105.306 142.680,105.306 142.971 C 105.306 143.732,106.397 145.881,106.691 145.699 C 106.827 145.615,106.939 145.262,106.939 144.915 C 106.939 144.568,107.128 144.127,107.360 143.935 C 108.070 143.346,107.790 141.113,106.992 141.000 C 106.262 140.896,105.850 140.009,105.850 138.538 C 105.850 137.977,105.672 137.281,105.454 136.991 C 105.237 136.700,104.976 135.761,104.876 134.903 C 104.775 134.045,104.525 133.203,104.319 133.032 C 104.114 132.862,103.946 132.275,103.946 131.728 C 103.946 131.181,103.737 130.436,103.483 130.073 C 103.228 129.709,103.008 128.917,102.994 128.311 L 102.967 127.211 101.552 127.129 C 100.622 127.075,100.136 127.153,100.136 127.358 M260.735 127.307 C 260.453 127.486,260.467 127.601,260.803 127.880 C 261.166 128.182,261.224 129.353,261.224 136.340 C 261.224 145.022,261.181 145.306,259.845 145.306 C 259.556 145.306,259.320 145.406,259.320 145.527 C 259.320 145.649,260.605 145.740,262.177 145.731 C 263.748 145.722,265.034 145.622,265.034 145.510 C 265.034 145.398,264.848 145.306,264.620 145.306 C 264.392 145.306,264.067 145.000,263.896 144.626 C 263.726 144.252,263.483 143.946,263.358 143.946 C 262.796 143.946,263.096 128.550,263.667 128.033 C 263.963 127.765,264.139 127.440,264.059 127.311 C 263.874 127.011,261.206 127.009,260.735 127.307 M291.217 127.304 C 290.964 127.464,291.058 127.611,291.557 127.838 L 292.245 128.152 292.241 135.981 C 292.237 144.833,292.225 144.935,291.129 145.176 C 289.572 145.518,290.388 145.754,293.061 145.734 C 294.558 145.723,295.782 145.690,295.782 145.661 C 295.782 145.632,295.354 145.143,294.831 144.573 L 293.880 143.537 293.879 136.018 L 293.878 128.498 294.566 128.047 C 294.945 127.798,295.183 127.478,295.095 127.335 C 294.900 127.020,291.705 126.994,291.217 127.304 M303.280 128.592 C 303.930 133.796,303.446 145.002,302.562 145.233 C 301.385 145.541,302.202 145.715,304.898 145.731 C 306.469 145.740,307.755 145.649,307.755 145.527 C 307.755 145.406,307.401 145.306,306.968 145.306 C 305.985 145.306,305.940 145.183,305.549 141.449 C 305.241 138.507,305.365 129.971,305.745 127.959 L 305.912 127.075 304.501 127.075 L 303.090 127.075 303.280 128.592 M313.921 127.267 C 313.093 127.481,311.556 129.345,311.158 130.618 C 311.042 130.989,310.780 131.534,310.576 131.829 C 309.932 132.758,310.062 139.607,310.748 140.952 C 311.048 141.539,311.293 142.158,311.293 142.328 C 311.293 142.823,313.533 145.034,314.034 145.034 C 314.286 145.034,314.644 145.218,314.830 145.442 C 315.081 145.745,315.752 145.850,317.432 145.850 C 320.395 145.850,320.648 145.390,317.753 145.266 C 315.398 145.165,313.741 144.176,313.741 142.871 C 313.741 142.624,313.590 142.270,313.404 142.084 C 313.219 141.899,312.908 141.109,312.714 140.329 C 312.519 139.550,312.231 138.422,312.073 137.823 C 311.706 136.433,311.980 132.930,312.515 132.165 C 312.741 131.843,312.925 131.223,312.925 130.788 C 312.925 129.865,313.830 128.281,314.590 127.874 C 314.880 127.719,315.045 127.475,314.958 127.333 C 314.790 127.062,314.730 127.058,313.921 127.267 M340.408 127.385 C 340.408 127.702,341.196 128.411,341.565 128.427 C 341.677 128.431,341.769 128.129,341.769 127.755 C 341.769 127.211,341.633 127.075,341.088 127.075 C 340.714 127.075,340.408 127.214,340.408 127.385 M155.034 128.341 C 154.614 128.460,154.558 128.866,154.558 131.802 L 154.558 135.129 155.578 135.011 C 157.332 134.808,157.941 133.871,157.947 131.367 C 157.953 128.730,157.036 127.778,155.034 128.341 M217.755 128.343 C 217.330 128.515,217.274 133.486,217.694 133.746 C 218.286 134.111,219.472 133.563,220.068 132.648 C 221.562 130.354,219.996 127.439,217.755 128.343 M224.422 130.703 C 224.310 130.977,224.218 131.399,224.218 131.640 C 224.218 132.375,222.819 134.149,222.097 134.330 L 221.417 134.501 222.126 134.873 C 223.042 135.352,224.055 136.316,224.371 137.007 C 224.557 137.413,224.641 137.086,224.703 135.714 C 224.827 133.000,224.664 130.110,224.422 130.703 M110.385 131.338 C 110.095 131.628,110.176 134.150,110.476 134.150 C 110.626 134.150,110.748 133.859,110.748 133.503 C 110.748 133.148,110.825 132.474,110.918 132.007 C 111.076 131.218,110.823 130.900,110.385 131.338 M329.456 132.131 C 329.344 132.243,329.252 135.204,329.252 138.710 C 329.252 144.856,329.232 145.090,328.707 145.227 C 327.672 145.498,328.171 145.718,329.932 145.767 C 330.905 145.794,331.701 145.701,331.701 145.561 C 331.701 145.421,331.540 145.306,331.345 145.306 C 330.029 145.306,329.940 144.898,329.796 138.230 C 329.721 134.763,329.568 132.018,329.456 132.131 M202.343 133.197 C 202.236 133.646,201.975 134.381,201.763 134.830 C 200.669 137.147,201.333 138.367,203.406 137.846 C 204.023 137.691,203.975 136.128,203.322 135.126 C 203.216 134.963,202.996 134.279,202.833 133.605 C 202.540 132.389,202.536 132.386,202.343 133.197 M275.339 133.550 C 275.274 134.193,275.301 134.847,275.398 135.004 C 275.693 135.482,275.916 134.042,275.679 133.185 C 275.463 132.403,275.454 132.413,275.339 133.550 M137.268 134.440 C 137.169 134.599,137.154 134.795,137.234 134.875 C 137.428 135.070,137.959 134.727,137.959 134.406 C 137.959 134.058,137.489 134.081,137.268 134.440 M109.254 135.543 C 109.159 136.049,109.198 136.769,109.339 137.143 C 109.575 137.766,109.613 137.714,109.798 136.510 C 110.040 134.939,109.534 134.042,109.254 135.543 M82.847 135.527 C 82.749 135.686,82.374 135.928,82.014 136.064 C 81.394 136.300,81.096 136.871,81.594 136.871 C 81.868 136.871,83.265 139.480,83.265 139.992 C 83.265 140.184,83.436 140.483,83.645 140.657 C 83.854 140.830,84.102 141.384,84.196 141.887 C 84.291 142.391,84.549 142.952,84.769 143.135 C 84.990 143.318,85.170 143.699,85.170 143.981 C 85.170 144.777,86.359 145.630,87.598 145.723 C 88.778 145.811,89.074 145.405,88.299 144.762 C 88.075 144.576,87.891 144.253,87.891 144.046 C 87.891 143.838,87.646 143.458,87.347 143.202 C 87.048 142.946,86.803 142.472,86.803 142.150 C 86.803 141.827,86.627 141.417,86.412 141.239 C 86.197 141.061,85.944 140.564,85.850 140.136 C 85.756 139.708,85.504 139.211,85.289 139.033 C 85.074 138.855,84.898 138.478,84.898 138.195 C 84.898 137.913,84.653 137.472,84.354 137.216 C 84.052 136.957,83.810 136.413,83.810 135.994 C 83.810 135.231,83.209 134.940,82.847 135.527 M135.830 135.868 C 135.149 136.593,135.063 137.475,135.629 137.945 C 135.844 138.123,136.096 138.619,136.190 139.048 C 136.285 139.476,136.537 139.972,136.752 140.151 C 136.967 140.329,137.143 140.688,137.143 140.949 C 137.143 141.210,137.388 141.735,137.687 142.115 C 137.986 142.496,138.229 142.910,138.227 143.036 C 138.224 143.162,138.500 143.825,138.839 144.508 L 139.456 145.751 141.020 145.797 C 142.848 145.851,142.907 145.725,141.633 144.490 C 141.109 143.982,140.680 143.353,140.680 143.092 C 140.680 142.831,140.575 142.552,140.446 142.473 C 140.318 142.393,139.616 141.131,138.887 139.667 C 138.158 138.204,137.486 136.946,137.394 136.871 C 137.302 136.796,137.144 136.398,137.044 135.986 C 136.820 135.074,136.596 135.052,135.830 135.868 M217.596 136.508 C 217.497 136.608,217.415 138.322,217.415 140.317 L 217.415 143.946 218.462 143.946 C 220.838 143.946,222.028 139.046,220.136 137.053 C 219.485 136.367,218.046 136.058,217.596 136.508 M108.503 138.387 C 108.391 138.501,108.299 138.966,108.299 139.420 C 108.299 140.010,108.383 140.161,108.593 139.952 C 108.754 139.790,108.846 139.325,108.797 138.919 C 108.748 138.512,108.616 138.272,108.503 138.387 M272.381 142.964 C 272.381 143.946,271.867 144.936,271.193 145.250 C 270.641 145.507,270.638 145.531,271.124 145.728 C 271.406 145.843,271.846 145.806,272.101 145.646 C 272.384 145.470,272.716 145.451,272.950 145.599 C 273.470 145.929,274.558 145.915,274.558 145.578 C 274.558 145.429,274.337 145.306,274.068 145.306 C 273.308 145.306,272.925 144.747,272.925 143.635 C 272.925 143.075,272.803 142.541,272.653 142.449 C 272.499 142.354,272.381 142.578,272.381 142.964 M182.798 150.860 C 186.029 152.510,188.260 156.334,186.601 157.378 C 185.147 158.292,182.313 158.144,182.313 157.154 C 182.313 155.953,179.844 154.286,178.065 154.286 C 171.375 154.286,169.657 165.162,175.988 167.431 C 179.031 168.522,183.275 167.091,183.074 165.043 L 182.993 164.218 180.829 164.137 C 178.196 164.039,177.959 163.868,177.959 162.062 C 177.959 160.029,178.027 159.999,182.571 160.004 C 188.288 160.009,187.755 159.550,187.755 164.474 C 187.755 169.455,187.837 169.334,183.076 171.415 C 180.003 172.757,174.019 172.111,171.251 170.137 C 167.384 167.378,166.010 159.071,168.757 155.060 C 169.029 154.663,169.252 154.257,169.252 154.158 C 169.252 153.671,171.214 152.011,172.789 151.166 C 175.174 149.886,180.569 149.721,182.798 150.860 M196.259 154.176 C 195.492 154.525,195.819 158.876,196.627 159.079 C 197.523 159.304,201.386 158.992,202.379 158.614 C 204.604 157.768,204.780 155.747,202.721 154.688 C 201.771 154.200,197.032 153.825,196.259 154.176 M218.299 154.194 C 217.908 154.352,217.807 158.095,218.194 158.095 C 218.482 158.095,219.864 156.139,219.864 155.733 C 219.864 155.572,220.048 155.288,220.272 155.102 C 221.265 154.278,219.782 153.596,218.299 154.194 M152.789 154.741 C 152.340 154.979,151.942 155.199,151.904 155.230 C 151.748 155.355,152.451 157.007,152.660 157.007 C 152.784 157.007,153.266 157.672,153.731 158.485 C 154.196 159.298,155.667 161.104,157.000 162.499 C 160.046 165.686,160.136 165.642,160.136 160.981 L 160.136 157.637 159.119 156.396 C 157.554 154.486,154.684 153.735,152.789 154.741 M240.340 155.305 C 238.656 155.353,237.279 155.489,237.279 155.608 C 237.279 156.011,238.500 156.966,239.254 157.153 C 239.667 157.255,240.070 157.445,240.150 157.574 C 240.230 157.703,240.810 157.940,241.440 158.101 C 242.070 158.262,242.952 158.558,243.401 158.759 C 243.850 158.960,244.830 159.400,245.578 159.736 C 252.779 162.972,250.303 171.973,242.212 171.973 C 239.432 171.973,238.615 172.389,238.207 174.014 C 238.116 174.376,237.870 174.814,237.660 174.988 C 237.118 175.438,237.186 175.755,237.891 176.064 C 238.228 176.212,239.238 176.820,240.136 177.416 C 241.034 178.012,242.075 178.651,242.449 178.836 C 242.823 179.020,243.710 179.572,244.419 180.062 C 245.128 180.552,245.824 180.952,245.964 180.952 C 246.105 180.952,246.397 181.130,246.614 181.347 C 247.535 182.267,248.244 182.132,249.335 180.827 C 250.240 179.744,250.440 179.626,250.928 179.887 C 251.545 180.218,251.471 181.647,250.809 182.177 C 250.622 182.327,250.313 182.755,250.122 183.129 C 248.977 185.369,246.155 189.384,245.600 189.560 C 244.447 189.926,244.149 188.271,245.197 187.322 C 246.091 186.513,245.099 185.261,242.263 183.619 C 241.692 183.289,241.127 182.860,241.007 182.666 C 240.887 182.472,240.678 182.313,240.543 182.313 C 240.288 182.313,239.388 181.724,237.289 180.185 C 235.900 179.167,234.871 179.124,234.404 180.066 C 234.238 180.402,233.898 180.901,233.649 181.176 C 233.401 181.451,233.197 181.819,233.197 181.994 C 233.197 182.170,233.075 182.313,232.925 182.313 C 232.437 182.313,232.638 182.800,233.469 183.632 C 235.645 185.807,233.426 187.058,231.191 184.917 C 229.705 183.493,229.609 182.781,230.750 181.661 C 231.192 181.228,232.136 180.003,232.849 178.940 C 233.562 177.877,234.299 176.845,234.488 176.647 C 234.676 176.449,234.830 176.132,234.830 175.941 C 234.830 175.751,235.075 175.373,235.374 175.102 C 235.673 174.831,235.918 174.399,235.918 174.141 C 235.918 173.883,236.108 173.515,236.340 173.322 C 237.046 172.736,236.716 171.623,235.685 171.109 C 233.868 170.201,231.951 167.369,232.160 165.900 C 232.319 164.787,236.214 164.873,237.022 166.007 C 238.313 167.821,241.323 168.410,243.527 167.279 C 245.638 166.197,245.245 164.411,242.795 163.952 C 242.246 163.849,241.549 163.591,241.246 163.379 C 240.943 163.167,240.367 162.993,239.965 162.993 C 239.002 162.993,236.015 161.638,234.894 160.694 C 233.889 159.847,233.197 159.935,233.197 160.911 C 233.197 161.271,233.021 161.712,232.807 161.890 C 232.592 162.069,232.339 162.565,232.245 162.993 C 232.151 163.421,231.898 163.918,231.683 164.096 C 231.468 164.274,231.293 164.634,231.293 164.895 C 231.293 165.155,231.055 165.670,230.765 166.039 C 230.079 166.911,229.869 167.803,229.829 170.022 L 229.796 171.837 228.110 171.917 C 226.688 171.985,226.395 172.085,226.246 172.555 C 225.731 174.180,218.173 182.139,216.395 182.929 C 215.983 183.112,215.221 183.669,214.701 184.167 C 214.180 184.665,213.423 185.139,213.017 185.220 C 212.612 185.301,212.220 185.524,212.146 185.716 C 212.072 185.907,211.360 186.391,210.564 186.791 C 209.767 187.191,208.381 187.929,207.483 188.431 C 206.585 188.933,205.651 189.353,205.407 189.366 C 205.164 189.378,204.812 189.571,204.626 189.796 C 204.440 190.020,203.904 190.205,203.436 190.206 C 202.968 190.207,202.218 190.451,201.769 190.748 C 201.320 191.046,200.595 191.290,200.157 191.291 C 199.720 191.292,199.160 191.476,198.912 191.700 C 198.665 191.924,197.676 192.186,196.714 192.281 C 195.753 192.377,194.795 192.592,194.585 192.758 C 193.492 193.628,175.815 193.632,174.574 192.763 C 174.274 192.553,173.469 192.381,172.786 192.381 C 172.081 192.381,171.082 192.146,170.476 191.837 C 169.889 191.537,169.157 191.293,168.850 191.293 C 168.543 191.293,167.834 191.048,167.276 190.748 C 166.717 190.449,165.969 190.204,165.613 190.204 C 165.256 190.204,164.812 190.020,164.626 189.796 C 164.440 189.571,164.109 189.388,163.891 189.388 C 163.436 189.388,159.535 187.351,158.890 186.777 C 158.654 186.567,158.255 186.395,158.003 186.395 C 157.752 186.395,157.336 186.150,157.080 185.850 C 156.823 185.551,156.470 185.306,156.294 185.306 C 156.118 185.306,155.113 184.633,154.061 183.810 C 153.009 182.986,152.036 182.313,151.900 182.313 C 150.453 182.313,143.084 173.429,144.188 173.016 C 144.798 172.788,146.944 170.546,147.078 169.999 C 147.355 168.861,145.373 167.075,143.832 167.075 C 143.137 167.075,142.114 166.885,141.559 166.653 C 141.004 166.422,140.274 166.301,139.936 166.386 C 139.232 166.563,139.206 166.498,141.156 169.468 C 142.792 171.958,142.783 171.973,139.775 171.973 C 137.295 171.973,136.054 171.491,136.054 170.530 C 136.054 170.370,135.048 168.876,133.559 166.825 C 133.108 166.204,128.873 165.548,128.161 165.988 C 128.024 166.073,127.876 167.423,127.833 168.989 L 127.755 171.837 125.442 171.837 L 123.129 171.837 122.993 168.571 L 122.857 165.306 120.136 165.140 C 118.639 165.048,116.995 164.836,116.481 164.668 C 115.967 164.500,115.477 164.432,115.392 164.517 C 115.168 164.741,115.036 199.223,115.250 201.625 L 115.432 203.659 116.248 202.714 C 120.722 197.534,120.066 197.518,125.592 202.942 C 127.734 205.044,129.754 206.907,130.082 207.082 C 130.628 207.375,131.682 208.223,132.775 209.252 C 133.014 209.476,134.094 210.256,135.176 210.985 C 136.258 211.714,137.143 212.415,137.143 212.544 C 137.143 212.673,137.445 212.854,137.813 212.947 C 138.182 213.040,139.069 213.532,139.785 214.041 C 140.501 214.550,141.213 214.966,141.367 214.966 C 141.522 214.966,141.857 215.211,142.114 215.510 C 142.370 215.810,142.811 216.054,143.093 216.054 C 143.376 216.054,143.753 216.230,143.931 216.445 C 144.109 216.660,144.614 216.915,145.053 217.011 C 145.491 217.107,145.850 217.296,145.850 217.431 C 145.850 217.566,146.187 217.759,146.599 217.859 C 147.010 217.960,147.639 218.268,147.996 218.545 C 148.353 218.821,148.858 219.048,149.119 219.048 C 149.380 219.048,149.746 219.231,149.932 219.456 C 150.118 219.680,150.484 219.864,150.745 219.864 C 151.006 219.864,151.530 220.109,151.911 220.408 C 152.292 220.707,152.966 220.952,153.411 220.952 C 153.855 220.952,154.359 221.121,154.531 221.328 C 154.702 221.534,155.237 221.780,155.720 221.873 C 156.203 221.966,156.966 222.210,157.415 222.414 C 158.993 223.130,160.967 223.731,162.353 223.917 C 163.123 224.020,163.948 224.266,164.187 224.464 C 164.425 224.662,165.448 224.887,166.460 224.963 C 167.472 225.040,168.483 225.255,168.707 225.442 C 168.932 225.629,170.209 225.866,171.545 225.970 C 172.881 226.074,174.314 226.334,174.729 226.549 C 175.831 227.119,194.136 227.122,195.500 226.553 C 196.008 226.340,197.565 226.082,198.960 225.979 C 200.355 225.876,201.768 225.621,202.099 225.413 C 202.431 225.205,203.371 225.034,204.189 225.034 C 205.217 225.034,205.816 224.893,206.132 224.578 C 206.411 224.299,207.184 224.075,208.124 224.001 C 208.969 223.935,209.844 223.722,210.068 223.528 C 210.293 223.334,210.966 223.085,211.565 222.975 C 212.163 222.865,212.898 222.616,213.197 222.422 C 213.497 222.227,214.254 221.986,214.881 221.886 C 215.508 221.786,216.086 221.535,216.165 221.328 C 216.245 221.122,216.559 220.952,216.863 220.952 C 217.168 220.952,217.874 220.707,218.432 220.408 C 218.991 220.109,219.710 219.864,220.031 219.864 C 220.351 219.864,220.760 219.688,220.938 219.473 C 221.116 219.258,221.613 219.006,222.041 218.912 C 222.469 218.817,222.965 218.565,223.144 218.350 C 223.322 218.135,223.732 217.959,224.054 217.959 C 224.377 217.959,224.851 217.714,225.107 217.415 C 225.363 217.116,225.759 216.871,225.987 216.871 C 226.214 216.871,226.987 216.473,227.703 215.986 C 229.597 214.702,229.992 214.455,230.748 214.086 C 231.122 213.903,232.009 213.353,232.718 212.863 C 233.428 212.374,234.101 211.972,234.215 211.972 C 234.329 211.971,234.841 211.578,235.353 211.098 C 236.312 210.199,237.997 208.980,238.279 208.980 C 238.367 208.980,238.823 208.582,239.292 208.095 C 239.760 207.609,240.857 206.611,241.728 205.878 C 245.450 202.744,246.280 201.914,250.327 197.280 C 252.751 194.504,252.636 194.643,254.148 192.653 C 254.887 191.680,255.872 190.241,256.337 189.456 C 256.802 188.670,257.296 188.027,257.435 188.027 C 257.574 188.027,257.687 187.881,257.687 187.702 C 257.687 187.301,259.056 185.251,259.523 184.952 C 259.711 184.833,259.864 184.485,259.864 184.179 C 259.864 183.873,260.109 183.312,260.408 182.931 C 260.707 182.551,260.952 182.087,260.952 181.901 C 260.952 181.715,261.136 181.411,261.361 181.224 C 261.585 181.038,261.769 180.672,261.769 180.412 C 261.769 180.151,262.014 179.626,262.313 179.245 C 262.612 178.865,262.857 178.325,262.857 178.045 C 262.857 177.765,263.102 177.326,263.401 177.070 C 263.701 176.814,263.946 176.337,263.946 176.010 C 263.946 175.684,264.114 175.224,264.320 174.987 C 264.527 174.751,264.779 173.976,264.881 173.265 L 265.067 171.973 261.169 171.973 C 255.534 171.973,252.588 170.086,252.201 166.229 L 252.109 165.306 254.341 165.227 L 256.573 165.148 257.010 165.992 C 258.111 168.121,262.352 168.528,264.422 166.703 C 265.538 165.719,264.783 164.346,262.907 163.949 C 262.410 163.844,261.676 163.587,261.274 163.377 C 260.873 163.168,260.302 162.996,260.005 162.995 C 256.914 162.985,253.279 159.879,252.918 156.939 L 252.726 155.374 250.970 155.374 C 249.771 155.374,249.083 155.504,248.805 155.782 C 248.162 156.425,245.155 156.335,244.279 155.646 C 243.899 155.347,243.546 155.128,243.494 155.160 C 243.443 155.192,242.024 155.257,240.340 155.305 M260.293 155.361 L 257.050 155.510 257.708 156.217 C 258.071 156.605,259.286 157.265,260.408 157.682 C 261.531 158.100,262.835 158.608,263.306 158.812 C 263.778 159.017,264.335 159.184,264.544 159.184 C 264.753 159.184,265.762 159.735,266.788 160.408 C 267.813 161.082,268.678 161.633,268.710 161.633 C 268.741 161.633,268.837 160.962,268.921 160.143 C 269.006 159.324,269.268 158.378,269.503 158.042 C 270.455 156.683,269.820 154.606,268.821 155.809 C 268.309 156.427,264.784 156.252,264.108 155.575 C 263.848 155.315,263.613 155.127,263.586 155.157 C 263.559 155.187,262.078 155.279,260.293 155.361 M132.615 173.047 C 133.479 173.375,136.327 176.209,136.327 176.741 C 136.327 176.962,136.437 177.143,136.573 177.143 C 136.840 177.143,137.687 179.411,137.687 180.125 C 137.687 180.719,136.085 182.182,135.190 182.404 C 133.733 182.767,133.267 181.211,134.481 180.040 C 136.192 178.389,133.468 175.384,131.088 176.298 C 130.330 176.589,129.938 178.767,130.573 179.159 C 131.038 179.447,132.043 182.729,132.075 184.068 C 132.129 186.256,131.270 187.756,129.508 188.552 L 128.077 189.199 126.555 188.699 C 124.949 188.171,122.314 186.313,122.035 185.512 C 121.944 185.251,121.722 184.883,121.543 184.695 C 121.018 184.146,119.728 181.491,119.728 180.960 C 119.728 180.693,119.550 180.050,119.333 179.530 C 118.391 177.275,122.688 175.047,123.837 177.195 C 124.056 177.604,123.925 177.871,123.142 178.610 C 121.952 179.732,121.725 182.092,122.721 182.993 C 123.020 183.264,123.265 183.635,123.265 183.817 C 123.265 184.389,125.215 185.850,125.979 185.850 C 127.761 185.850,128.648 182.486,127.237 181.076 C 126.998 180.837,126.803 180.401,126.803 180.107 C 126.803 179.813,126.629 179.301,126.416 178.970 C 126.040 178.384,125.899 177.474,125.958 176.028 C 126.047 173.826,130.004 172.054,132.615 173.047 M140.620 182.464 C 140.952 182.697,141.226 183.034,141.228 183.213 C 141.229 183.391,142.120 184.416,143.206 185.490 C 147.600 189.832,148.076 190.647,147.342 192.567 C 146.268 195.380,139.864 196.186,138.884 193.632 C 138.474 192.562,137.573 192.897,135.856 194.760 C 134.172 196.587,133.752 197.612,134.562 197.923 C 135.175 198.158,135.594 199.435,135.211 199.897 C 134.687 200.528,134.181 200.327,132.900 198.980 C 132.225 198.269,130.841 196.830,129.825 195.782 C 127.613 193.500,127.172 192.784,127.633 192.228 C 128.090 191.677,128.847 191.742,129.287 192.369 C 130.377 193.922,131.815 193.074,138.007 187.225 C 140.027 185.318,140.162 184.978,139.275 184.034 C 138.165 182.852,139.293 181.535,140.620 182.464 M229.672 186.539 C 230.938 187.416,231.516 188.433,231.107 189.065 C 230.758 189.606,229.473 189.547,228.822 188.959 C 228.126 188.331,227.126 188.674,225.787 190.000 C 223.537 192.229,227.579 194.380,229.883 192.180 C 230.081 191.991,230.374 191.837,230.534 191.837 C 230.694 191.837,230.978 191.627,231.166 191.370 C 231.712 190.623,236.542 190.671,237.140 191.429 C 238.425 193.057,238.498 193.279,238.466 195.431 C 238.439 197.287,238.336 197.708,237.665 198.712 C 236.791 200.019,234.311 202.432,233.832 202.442 C 233.658 202.446,233.471 202.581,233.417 202.742 C 233.180 203.453,230.412 204.071,229.761 203.559 C 228.745 202.760,227.755 201.447,227.755 200.899 C 227.755 199.730,229.374 199.277,229.995 200.272 C 231.177 202.165,235.595 199.731,235.853 197.044 C 236.084 194.638,234.345 193.947,231.991 195.510 C 231.202 196.034,230.416 196.463,230.244 196.463 C 230.072 196.463,229.932 196.571,229.932 196.703 C 229.932 197.838,225.939 197.889,224.626 196.771 C 222.777 195.196,222.090 191.583,223.333 189.968 C 224.068 189.013,226.082 186.939,226.273 186.939 C 226.368 186.939,226.756 186.694,227.137 186.395 C 228.041 185.683,228.473 185.708,229.672 186.539 M140.875 189.600 C 139.112 191.382,139.095 191.426,139.932 192.124 C 141.984 193.836,144.982 192.037,144.164 189.584 C 143.522 187.661,142.791 187.665,140.875 189.600 M151.012 192.235 C 151.360 192.654,153.892 194.396,155.174 195.098 C 155.588 195.325,156.629 195.872,157.487 196.313 C 160.022 197.617,160.660 198.569,159.592 199.456 C 159.367 199.642,159.184 199.948,159.184 200.136 C 159.184 200.816,158.403 201.192,157.679 200.862 C 157.131 200.613,157.007 200.359,157.007 199.493 C 157.007 198.376,156.760 198.112,154.627 196.945 C 153.525 196.343,153.305 196.342,153.086 196.939 C 152.744 197.871,152.021 199.051,151.660 199.265 C 151.022 199.643,151.244 200.678,152.098 201.309 C 153.039 202.005,153.704 202.061,154.438 201.505 C 156.233 200.147,157.080 201.950,155.648 204.082 C 155.497 204.306,155.254 204.828,155.107 205.241 C 154.463 207.059,152.653 206.771,152.653 204.851 C 152.653 203.886,152.560 203.743,151.701 203.384 C 151.177 203.165,150.748 202.865,150.748 202.717 C 150.748 202.088,149.498 202.471,149.180 203.197 C 149.000 203.609,148.606 204.313,148.304 204.762 C 147.088 206.568,146.833 207.415,147.389 207.799 C 147.665 207.989,148.039 208.271,148.220 208.426 C 148.401 208.581,148.660 208.707,148.795 208.707 C 148.931 208.707,149.338 208.940,149.700 209.224 C 150.832 210.116,151.433 210.037,152.448 208.864 C 153.795 207.307,154.829 207.858,154.441 209.926 C 154.057 211.971,152.500 212.968,151.020 212.118 C 150.646 211.903,149.575 211.345,148.639 210.878 C 147.704 210.411,146.939 209.915,146.939 209.776 C 146.939 209.637,146.766 209.524,146.555 209.524 C 146.344 209.524,145.552 209.034,144.794 208.435 C 144.037 207.837,143.296 207.347,143.147 207.347 C 142.998 207.347,142.441 206.965,141.908 206.497 C 140.773 205.500,140.959 204.990,142.553 204.735 C 143.310 204.614,143.727 204.315,144.347 203.445 C 145.267 202.155,145.548 201.787,146.122 201.118 C 146.879 200.237,147.755 198.935,147.755 198.693 C 147.755 198.560,148.000 198.230,148.299 197.959 C 148.599 197.688,148.844 197.321,148.844 197.143 C 148.844 196.965,149.088 196.597,149.388 196.327 C 149.687 196.056,149.932 195.665,149.932 195.459 C 149.932 195.253,150.131 195.009,150.373 194.916 C 150.767 194.764,150.760 194.700,150.300 194.312 C 149.306 193.472,148.831 192.730,149.002 192.284 C 149.218 191.723,150.560 191.690,151.012 192.235 M220.104 193.295 C 220.405 193.658,219.793 194.751,218.863 195.510 C 218.613 195.715,218.998 196.477,220.422 198.596 C 221.462 200.144,222.313 201.465,222.313 201.532 C 222.313 201.655,223.418 203.282,223.674 203.537 C 223.749 203.612,224.164 204.194,224.596 204.830 C 225.472 206.123,226.259 206.322,227.012 205.442 C 227.559 204.803,228.370 204.736,228.833 205.293 C 229.341 205.905,228.890 206.811,227.865 207.239 C 227.356 207.452,226.939 207.739,226.939 207.876 C 226.939 208.014,226.670 208.212,226.342 208.316 C 226.014 208.420,225.158 208.918,224.440 209.423 C 223.722 209.927,222.946 210.340,222.715 210.340 C 222.485 210.340,222.230 210.513,222.149 210.724 C 222.068 210.935,221.674 211.189,221.273 211.289 C 220.872 211.389,220.361 211.631,220.136 211.826 C 219.912 212.021,219.427 212.272,219.060 212.385 C 218.693 212.497,218.225 212.756,218.020 212.961 C 217.816 213.166,217.427 213.333,217.157 213.333 C 216.886 213.333,216.521 213.507,216.344 213.720 C 216.168 213.933,215.540 214.189,214.950 214.288 C 214.360 214.388,213.878 214.577,213.878 214.707 C 213.878 214.838,213.357 215.079,212.721 215.244 C 212.085 215.408,211.179 215.719,210.707 215.934 C 210.236 216.150,209.562 216.330,209.211 216.335 C 208.859 216.340,208.334 216.524,208.043 216.743 C 206.506 217.906,204.997 216.445,206.301 215.057 C 206.860 214.462,206.884 214.325,206.562 213.528 C 206.368 213.047,206.085 212.163,205.934 211.565 C 205.783 210.966,205.488 210.090,205.279 209.619 C 205.069 209.147,204.898 208.472,204.898 208.118 C 204.898 207.764,204.653 207.018,204.354 206.460 C 204.054 205.901,203.810 205.146,203.810 204.782 C 203.810 203.833,203.110 203.265,201.940 203.265 C 199.939 203.265,199.871 201.263,201.861 200.945 C 202.409 200.858,203.259 200.609,203.751 200.393 C 204.242 200.177,204.838 200.000,205.074 200.000 C 205.311 200.000,205.975 199.736,206.550 199.412 C 207.415 198.926,207.667 198.885,208.015 199.174 C 208.723 199.761,208.532 200.752,207.619 201.224 C 206.585 201.759,206.608 202.408,207.750 205.034 C 208.654 207.111,209.252 208.915,209.252 209.564 C 209.252 209.954,209.426 210.418,209.639 210.595 C 209.851 210.771,210.106 211.391,210.204 211.973 C 210.494 213.687,212.590 213.884,214.422 212.371 C 214.646 212.185,215.197 211.954,215.646 211.857 C 216.957 211.573,217.948 210.680,217.347 210.323 C 216.381 209.751,216.704 207.891,217.769 207.891 C 218.823 207.891,219.320 208.301,219.320 209.170 C 219.320 210.006,220.162 209.998,221.074 209.152 C 221.909 208.379,221.961 207.633,221.224 207.002 C 220.925 206.746,220.680 206.290,220.680 205.989 C 220.680 205.688,220.555 205.442,220.401 205.442 C 220.248 205.442,220.005 205.167,219.862 204.830 C 219.719 204.493,219.292 203.728,218.915 203.129 C 218.537 202.531,218.076 201.734,217.890 201.359 C 217.703 200.984,217.086 199.983,216.517 199.134 L 215.483 197.590 214.560 197.976 C 213.386 198.467,212.789 198.240,212.789 197.304 C 212.789 196.421,213.237 195.918,214.026 195.918 C 214.347 195.918,214.831 195.673,215.102 195.374 C 215.373 195.075,215.824 194.830,216.105 194.830 C 216.386 194.830,216.686 194.646,216.772 194.422 C 216.858 194.197,217.072 194.014,217.248 194.014 C 217.423 194.014,217.776 193.769,218.032 193.469 C 218.567 192.844,219.654 192.753,220.104 193.295 M169.252 201.076 C 172.726 201.978,175.353 203.906,174.740 205.105 C 174.607 205.365,174.419 205.995,174.322 206.505 C 174.087 207.744,173.735 208.113,172.932 207.959 C 172.152 207.810,171.861 207.116,172.107 205.997 C 172.463 204.373,171.029 203.419,168.068 203.309 L 165.575 203.217 164.598 204.166 C 161.126 207.538,161.057 213.138,164.466 214.884 C 164.928 215.120,165.393 215.450,165.500 215.616 C 165.623 215.807,166.848 215.924,168.836 215.934 C 172.364 215.952,172.775 216.121,172.202 217.320 C 171.748 218.268,167.862 218.613,166.186 217.854 C 165.702 217.635,164.917 217.377,164.441 217.282 C 163.965 217.186,163.429 216.932,163.251 216.717 C 163.072 216.502,162.758 216.327,162.552 216.327 C 161.785 216.327,159.064 213.226,158.571 211.790 C 156.528 205.838,162.914 199.432,169.252 201.076 M183.469 203.307 C 184.715 203.960,183.535 205.442,181.770 205.442 C 181.373 205.442,181.283 205.869,181.136 208.449 C 181.041 210.103,180.831 212.216,180.669 213.145 C 180.508 214.074,180.413 215.507,180.460 216.329 L 180.544 217.823 181.708 217.907 C 182.488 217.963,182.978 218.160,183.192 218.502 C 183.503 219.000,183.520 219.000,183.880 218.486 C 184.082 218.196,184.550 217.959,184.919 217.959 C 185.371 217.959,185.691 217.737,185.900 217.279 C 186.070 216.905,186.313 216.599,186.438 216.599 C 186.564 216.599,186.667 216.459,186.667 216.288 C 186.667 215.964,187.440 214.179,188.325 212.463 C 188.610 211.910,188.844 211.185,188.844 210.852 C 188.844 210.519,189.032 210.038,189.263 209.783 C 189.494 209.528,189.756 208.845,189.844 208.265 C 189.933 207.685,190.156 207.027,190.340 206.803 C 190.524 206.578,190.743 205.947,190.826 205.401 C 190.992 204.310,191.972 202.993,192.617 202.993 C 193.084 202.993,194.286 204.040,194.286 204.448 C 194.286 204.597,194.489 204.944,194.738 205.219 C 195.227 205.760,195.735 206.584,196.172 207.551 C 196.324 207.888,196.555 208.163,196.684 208.163 C 196.814 208.163,197.061 208.474,197.234 208.854 C 197.576 209.604,197.969 210.131,198.707 210.828 C 198.969 211.075,199.184 211.381,199.184 211.507 C 199.184 211.794,201.604 214.797,201.935 214.921 C 202.068 214.971,202.177 215.162,202.177 215.347 C 202.177 215.539,202.791 215.792,203.605 215.937 C 206.322 216.420,205.531 217.866,202.333 218.263 C 201.159 218.409,199.853 218.706,199.432 218.924 C 198.463 219.425,197.438 219.431,197.028 218.938 C 196.592 218.412,196.942 217.200,197.589 216.995 C 198.188 216.805,198.077 216.036,197.315 215.102 C 196.468 214.064,196.406 214.060,193.208 214.865 C 192.391 215.070,191.199 215.238,190.560 215.238 C 189.517 215.238,189.380 215.315,189.220 215.986 C 189.123 216.398,188.859 216.946,188.634 217.205 C 188.187 217.720,188.221 217.748,189.728 218.078 C 190.628 218.275,190.816 219.669,190.000 220.091 C 189.370 220.416,184.501 220.434,183.902 220.113 C 183.601 219.952,183.188 219.973,182.755 220.170 C 182.247 220.402,181.576 220.399,180.086 220.161 C 178.991 219.985,177.238 219.727,176.190 219.586 C 173.240 219.190,173.061 219.121,173.061 218.372 C 173.061 217.553,173.912 217.047,174.919 217.269 C 176.347 217.582,176.583 217.085,176.862 213.182 C 177.002 211.229,177.244 209.292,177.402 208.879 C 178.068 207.125,177.776 205.276,176.735 204.662 C 175.772 204.094,175.557 203.600,176.056 203.101 C 176.389 202.767,182.779 202.945,183.469 203.307 M191.900 208.964 C 191.561 209.646,191.285 210.373,191.288 210.580 C 191.290 210.787,191.044 211.359,190.739 211.851 C 190.025 213.007,190.263 213.128,192.790 212.899 C 195.388 212.663,195.445 212.485,193.741 209.932 C 193.442 209.483,193.044 208.802,192.857 208.420 L 192.517 207.724 191.900 208.964 " stroke="none" fill="#c9c9c9" fill-rule="evenodd"></path><path id="path1" d="M173.274 89.388 C 173.242 94.401,173.211 99.269,173.206 100.204 L 173.197 101.905 174.819 101.988 C 177.560 102.129,177.687 102.042,177.687 100.026 C 177.687 99.018,177.517 97.967,177.281 97.514 C 176.946 96.873,176.874 95.273,176.872 88.503 L 176.871 80.272 175.102 80.272 L 173.333 80.272 173.274 89.388 M181.950 80.454 C 181.850 80.553,181.769 84.212,181.769 88.583 C 181.769 94.611,181.686 96.600,181.429 96.813 C 181.183 97.016,181.126 97.766,181.224 99.500 L 181.361 101.905 182.843 101.989 C 185.633 102.147,185.642 102.137,185.448 99.242 C 185.119 94.320,185.147 87.537,185.497 87.419 C 185.678 87.359,186.229 88.003,186.722 88.849 C 187.215 89.696,187.888 90.837,188.217 91.385 C 188.546 91.933,188.952 92.685,189.119 93.056 C 189.285 93.427,189.506 93.794,189.609 93.872 C 190.029 94.190,191.021 96.309,191.030 96.908 C 191.036 97.262,191.622 98.531,192.333 99.728 L 193.627 101.905 195.515 101.987 C 198.364 102.110,198.639 101.987,198.639 100.593 C 198.639 99.953,198.486 99.276,198.299 99.089 C 198.044 98.834,197.939 96.445,197.878 89.497 L 197.796 80.245 196.381 80.326 L 194.966 80.408 194.830 87.619 C 194.755 91.585,194.602 94.799,194.490 94.762 C 194.378 94.724,194.105 94.694,193.885 94.694 C 193.664 94.694,193.279 94.296,193.030 93.810 C 192.781 93.323,192.500 92.864,192.405 92.789 C 192.311 92.714,192.077 92.347,191.886 91.973 C 191.695 91.599,191.241 90.803,190.878 90.204 C 190.514 89.605,190.089 88.871,189.932 88.571 C 189.775 88.272,189.348 87.537,188.983 86.939 C 188.617 86.340,188.127 85.483,187.892 85.034 C 187.658 84.585,187.226 83.850,186.934 83.401 C 186.642 82.952,186.270 82.279,186.108 81.905 C 185.481 80.461,182.858 79.546,181.950 80.454 M217.959 150.204 L 213.197 150.340 213.125 157.381 C 213.069 162.754,213.134 164.521,213.397 164.837 C 213.614 165.097,213.792 166.471,213.878 168.544 L 214.014 171.837 220.136 171.973 C 223.503 172.048,227.054 172.048,228.027 171.973 L 229.796 171.837 229.796 170.068 L 229.796 168.299 223.695 168.226 C 216.571 168.140,216.871 168.257,216.871 165.578 C 216.871 162.933,216.680 163.019,222.742 162.931 L 227.891 162.857 227.891 161.088 L 227.891 159.320 222.993 159.184 L 218.095 159.048 218.015 156.758 C 217.915 153.884,217.581 154.051,223.490 154.027 C 226.170 154.016,228.471 153.940,228.603 153.858 C 228.987 153.620,228.898 150.477,228.503 150.345 C 227.878 150.135,222.769 150.067,217.959 150.204 M104.014 150.367 C 103.750 150.487,103.673 152.902,103.673 161.106 L 103.673 171.690 104.316 171.852 C 104.670 171.940,105.374 171.973,105.881 171.925 L 106.803 171.837 106.939 168.117 C 107.099 163.726,106.878 164.063,109.707 163.911 C 116.890 163.524,119.036 161.937,119.039 157.007 C 119.043 151.758,117.110 150.506,108.707 150.312 C 106.313 150.257,104.201 150.282,104.014 150.367 M124.150 150.384 C 123.890 150.489,123.810 152.147,123.810 157.377 C 123.810 163.094,123.740 164.331,123.393 164.828 C 123.063 165.298,122.992 166.097,123.053 168.630 L 123.129 171.837 125.442 171.837 L 127.755 171.837 127.832 168.916 C 127.894 166.597,127.819 165.858,127.472 165.328 C 125.986 163.060,130.038 161.821,132.124 163.906 C 132.685 164.468,133.061 165.113,133.061 165.514 C 133.061 165.883,133.287 166.477,133.563 166.834 C 134.627 168.209,136.054 170.345,136.054 170.562 C 136.054 171.487,137.350 171.973,139.813 171.973 C 142.778 171.973,142.791 171.949,141.156 169.488 C 140.520 168.530,139.826 167.412,139.614 167.003 C 139.402 166.593,139.086 166.259,138.913 166.259 C 138.739 166.259,137.827 165.441,136.886 164.441 C 135.210 162.662,135.054 161.905,136.365 161.905 C 136.812 161.905,139.097 160.178,139.535 159.508 C 139.893 158.961,140.000 158.188,140.000 156.138 L 140.000 153.477 138.895 152.373 C 137.198 150.676,126.877 149.284,124.150 150.384 M150.275 150.678 C 149.791 150.919,149.323 151.340,149.237 151.613 C 149.150 151.885,148.995 152.109,148.893 152.109 C 148.431 152.110,146.122 154.736,146.122 155.260 C 146.122 155.451,145.908 155.822,145.646 156.084 C 145.112 156.617,144.920 165.028,145.417 166.122 C 145.553 166.422,145.638 166.828,145.605 167.024 C 145.476 167.809,147.552 170.068,148.402 170.068 C 148.846 170.068,149.412 170.251,149.659 170.476 C 150.746 171.459,155.004 171.907,157.450 171.295 C 159.705 170.731,159.903 170.631,161.499 169.250 C 162.189 168.652,162.927 168.163,163.137 168.163 C 164.406 168.163,165.477 163.001,165.028 159.048 C 164.557 154.900,162.898 152.485,159.374 150.816 C 157.706 150.027,151.765 149.936,150.275 150.678 M172.789 151.166 C 171.214 152.011,169.252 153.671,169.252 154.158 C 169.252 154.257,169.029 154.663,168.757 155.060 C 166.010 159.071,167.384 167.378,171.251 170.137 C 174.019 172.111,180.003 172.757,183.076 171.415 C 187.837 169.334,187.755 169.455,187.755 164.474 C 187.755 159.550,188.288 160.009,182.571 160.004 C 178.027 159.999,177.959 160.029,177.959 162.062 C 177.959 163.868,178.196 164.039,180.829 164.137 L 182.993 164.218 183.074 165.043 C 183.275 167.091,179.031 168.522,175.988 167.431 C 169.657 165.162,171.375 154.286,178.065 154.286 C 179.844 154.286,182.313 155.953,182.313 157.154 C 182.313 158.144,185.147 158.292,186.601 157.378 C 188.260 156.334,186.029 152.510,182.798 150.860 C 180.569 149.721,175.174 149.886,172.789 151.166 M191.145 150.545 C 191.073 150.732,191.046 155.600,191.085 161.361 L 191.156 171.837 193.469 171.837 L 195.782 171.837 195.858 167.774 C 195.941 163.286,196.052 162.954,197.355 163.261 C 199.411 163.745,201.560 166.056,203.812 170.206 C 204.359 171.214,206.086 171.973,207.832 171.973 C 209.837 171.973,209.918 171.883,209.092 170.574 C 208.722 169.988,208.345 169.114,208.255 168.632 C 208.065 167.608,206.753 165.546,205.190 163.812 L 204.088 162.590 205.377 162.012 C 209.762 160.048,210.267 154.110,206.305 151.099 L 205.128 150.204 198.202 150.204 C 192.904 150.204,191.245 150.284,191.145 150.545 M238.006 150.920 C 232.003 152.371,231.498 159.353,237.200 162.059 C 238.282 162.573,239.512 162.993,239.932 162.993 C 240.352 162.993,240.943 163.167,241.246 163.379 C 241.549 163.591,242.246 163.849,242.795 163.952 C 245.245 164.411,245.638 166.197,243.527 167.279 C 241.323 168.410,238.313 167.821,237.022 166.007 C 236.204 164.859,232.318 164.789,232.158 165.919 C 231.985 167.135,234.329 170.884,235.261 170.884 C 235.440 170.884,235.870 171.114,236.216 171.395 C 236.722 171.804,236.999 171.852,237.613 171.638 C 238.162 171.447,238.493 171.466,238.783 171.707 C 239.493 172.296,244.532 172.056,245.914 171.367 C 251.188 168.737,250.999 162.172,245.578 159.736 C 244.830 159.400,243.850 158.959,243.401 158.756 C 242.952 158.552,242.218 158.302,241.769 158.199 C 241.320 158.096,240.526 157.786,240.004 157.509 C 239.482 157.233,238.922 157.007,238.759 157.007 C 237.502 157.007,236.998 154.498,238.190 154.178 C 240.135 153.656,243.810 154.093,243.810 154.846 C 243.810 155.690,244.874 156.191,246.659 156.186 C 248.651 156.181,249.274 155.884,248.770 155.178 C 248.580 154.912,248.251 154.327,248.039 153.878 C 246.793 151.238,242.240 149.896,238.006 150.920 M257.823 150.930 C 253.892 151.877,251.743 156.243,253.659 159.392 C 254.518 160.805,258.366 162.990,260.005 162.995 C 260.302 162.996,260.873 163.168,261.274 163.377 C 261.676 163.587,262.410 163.844,262.907 163.949 C 265.528 164.504,265.605 166.479,263.048 167.567 C 261.105 168.395,257.807 167.535,257.010 165.992 L 256.573 165.148 254.341 165.227 L 252.109 165.306 252.201 166.229 C 252.399 168.199,253.905 170.173,256.110 171.352 C 257.880 172.299,265.386 172.305,265.878 171.361 C 266.054 171.024,266.723 170.224,267.366 169.583 C 269.195 167.759,269.768 163.121,268.359 161.551 C 267.810 160.941,264.943 159.184,264.495 159.184 C 264.313 159.184,263.778 159.017,263.306 158.812 C 262.835 158.608,261.531 158.100,260.408 157.682 C 256.043 156.058,256.158 154.014,260.614 154.014 C 263.154 154.014,263.806 154.239,264.047 155.198 C 264.240 155.966,264.874 156.182,266.952 156.187 C 268.837 156.191,269.294 155.822,268.559 154.888 C 268.266 154.516,268.027 154.070,268.027 153.896 C 268.027 151.641,262.065 149.908,257.823 150.930 M114.448 154.648 C 115.637 155.670,115.719 157.973,114.611 159.213 L 113.787 160.136 110.934 160.228 C 106.964 160.356,106.939 160.337,106.939 157.188 C 106.939 153.961,106.877 154.014,110.651 154.014 C 113.464 154.014,113.771 154.065,114.448 154.648 M136.000 154.762 C 136.878 156.008,136.945 156.612,136.337 157.803 C 135.638 159.172,135.430 159.223,130.884 159.126 L 127.211 159.048 127.131 156.895 C 127.015 153.807,126.709 154.014,131.402 154.014 L 135.473 154.014 136.000 154.762 M202.721 154.688 C 204.780 155.747,204.604 157.768,202.379 158.614 C 201.386 158.992,197.523 159.304,196.627 159.079 C 195.819 158.876,195.492 154.525,196.259 154.176 C 197.032 153.825,201.771 154.200,202.721 154.688 M156.826 154.721 C 160.653 156.025,161.755 164.019,158.534 167.114 L 157.441 168.163 154.828 168.163 C 151.963 168.163,151.381 167.920,149.832 166.079 C 147.365 163.147,148.505 155.125,151.393 155.092 C 151.861 155.087,152.551 154.908,152.925 154.694 C 153.828 154.178,155.262 154.188,156.826 154.721 " stroke="none" fill="#828282" fill-rule="evenodd"></path></g></svg>